<?xml version="1.0" encoding="iso-8859-1"?>
<!-- Generator: Adobe Illustrator 19.0.0, SVG Export Plug-In . SVG Version: 6.00 Build 0)  -->
<svg version="1.1" id="Capa_1" xmlns="http://www.w3.org/2000/svg" xmlns:xlink="http://www.w3.org/1999/xlink" x="0px" y="0px"
	 viewBox="0 0 511.997 511.997" style="enable-background:new 0 0 511.997 511.997;" xml:space="preserve">
<rect x="191.87" y="195.879" style="fill:#867E88;" width="128.26" height="184.37"/>
<g>
	<path style="fill:#9C969E;" d="M328.145,412.314h-144.29c-4.427,0-8.016-3.589-8.016-8.016v-32.065
		c0-4.427,3.589-8.016,8.016-8.016h144.29c4.427,0,8.016,3.589,8.016,8.016v32.065C336.161,408.725,332.572,412.314,328.145,412.314
		z"/>
	<path style="fill:#9C969E;" d="M280.048,163.814h-48.097c-13.282,0-24.048-10.767-24.048-24.048v-16.032
		c0-13.282,10.767-24.048,24.048-24.048h48.097c13.282,0,24.048,10.767,24.048,24.048v16.032
		C304.097,153.047,293.33,163.814,280.048,163.814z"/>
</g>
<path style="fill:#6F6571;" d="M199.887,332.152h-16.032c-4.427,0-8.016-3.589-8.016-8.016V203.894c0-4.427,3.589-8.016,8.016-8.016
	h16.032c4.427,0,8.016,3.589,8.016,8.016v120.242C207.903,328.563,204.314,332.152,199.887,332.152z"/>
<path style="fill:#9C969E;" d="M23.532,348.184l7.138,57.107c0.501,4.012,3.912,7.022,7.954,7.022h17.912
	c4.043,0,7.453-3.01,7.954-7.022l7.138-57.107H23.532z"/>
<path style="fill:#867E88;" d="M54.506,372.233h14.117l3.006-24.048H23.532l7.138,57.107c0.501,4.012,3.912,7.022,7.955,7.022h9.457
	l-3.592-28.735C43.737,377.553,48.434,372.233,54.506,372.233z"/>
<path style="fill:#EDEBED;" d="M71.629,356.201H23.532c-8.854,0-16.032-7.178-16.032-16.032v-144.29
	c0-8.854,7.178-16.032,16.032-16.032h48.097c8.854,0,16.032,7.178,16.032,16.032v144.29
	C87.661,349.022,80.483,356.201,71.629,356.201z"/>
<path style="fill:#DBD9DC;" d="M31.548,340.168v-144.29c0-8.855,7.178-16.032,16.032-16.032H23.532
	c-8.854,0-16.032,7.178-16.032,16.032v144.29c0,8.854,7.178,16.032,16.032,16.032H47.58
	C38.726,356.201,31.548,349.022,31.548,340.168z"/>
<path style="fill:#C9C6CA;" d="M71.629,179.846H23.532c-8.854,0-16.032,7.178-16.032,16.032v32.065h80.161v-32.065
	C87.661,187.023,80.483,179.846,71.629,179.846z"/>
<path style="fill:#B7B2B8;" d="M47.581,179.846H23.532c-8.854,0-16.032,7.178-16.032,16.032v32.065h24.048v-32.065
	C31.548,187.023,38.726,179.846,47.581,179.846z"/>
<path style="fill:#9C969E;" d="M440.371,348.184l7.138,57.107c0.501,4.012,3.911,7.022,7.954,7.022h17.912
	c4.043,0,7.453-3.01,7.954-7.022l7.138-57.107H440.371z"/>
<path style="fill:#867E88;" d="M471.345,372.233h14.117l3.006-24.048h-48.097l7.138,57.107c0.501,4.012,3.912,7.022,7.954,7.022
	h9.457l-3.592-28.735C460.575,377.553,465.273,372.233,471.345,372.233z"/>
<path style="fill:#EDEBED;" d="M488.468,356.201h-48.097c-8.854,0-16.032-7.178-16.032-16.032v-144.29
	c0-8.854,7.178-16.032,16.032-16.032h48.097c8.854,0,16.032,7.178,16.032,16.032v144.29
	C504.5,349.022,497.322,356.201,488.468,356.201z"/>
<path style="fill:#DBD9DC;" d="M448.387,340.168v-144.29c0-8.855,7.178-16.032,16.032-16.032h-24.048
	c-8.854,0-16.032,7.178-16.032,16.032v144.29c0,8.854,7.178,16.032,16.032,16.032h24.048
	C455.565,356.201,448.387,349.022,448.387,340.168z"/>
<path style="fill:#C9C6CA;" d="M488.468,179.846h-48.097c-8.854,0-16.032,7.178-16.032,16.032v32.065H504.5v-32.065
	C504.5,187.023,497.322,179.846,488.468,179.846z"/>
<path style="fill:#B7B2B8;" d="M464.419,179.846h-24.048c-8.854,0-16.032,7.178-16.032,16.032v32.065h24.048v-32.065
	C448.387,187.023,455.565,179.846,464.419,179.846z"/>
<path style="fill:#867E88;" d="M175.839,388.264v16.032c0,4.427,3.589,8.016,8.016,8.016h144.29c4.427,0,8.016-3.589,8.016-8.016
	v-16.032H175.839z"/>
<path style="fill:#6F6571;" d="M328.145,332.152h-16.032c-4.427,0-8.016-3.589-8.016-8.016V203.894c0-4.427,3.589-8.016,8.016-8.016
	h16.032c4.427,0,8.016,3.589,8.016,8.016v120.242C336.161,328.563,332.572,332.152,328.145,332.152z"/>
<path style="fill:#867E88;" d="M231.952,115.717V99.684c-13.282,0-24.048,10.767-24.048,24.048v16.032
	c0,13.282,10.767,24.048,24.048,24.048h48.097c13.282,0,24.048-10.767,24.048-24.048H256
	C242.718,139.765,231.952,128.998,231.952,115.717z"/>
<path d="M488.468,172.346h-48.097c-12.976,0-23.532,10.557-23.532,23.532v24.564h-17.064v-40.597
	c0-21.816-17.749-39.564-39.565-39.564h-48.626c0.003-0.172,0.013-0.343,0.013-0.516v-16.032c0-17.396-14.152-31.548-31.548-31.548
	h-48.097c-17.396,0-31.548,14.152-31.548,31.548v16.032c0,0.173,0.01,0.344,0.013,0.516h-48.626
	c-21.816,0-39.565,17.749-39.565,39.564v40.597H95.161v-24.564c0-12.976-10.557-23.532-23.532-23.532H23.532
	C10.557,172.346,0,182.902,0,195.878v144.291c0,10.669,7.14,19.697,16.89,22.571l6.25,43.752c1.085,7.595,7.689,13.321,15.36,13.321
	h18.16c7.671,0,14.274-5.727,15.36-13.322l6.25-43.752c9.75-2.875,16.89-11.902,16.89-22.571v-24.565h17.064v40.597
	c0,21.816,17.749,39.564,39.565,39.564h16.548v8.532c0,8.556,6.96,15.516,15.516,15.516h144.29c8.556,0,15.516-6.96,15.516-15.516
	v-8.532h16.548c21.816,0,39.565-17.749,39.565-39.564v-40.597h17.064v24.565c0,10.669,7.14,19.697,16.89,22.571l6.25,43.752
	c1.085,7.595,7.688,13.321,15.36,13.321h18.16c7.671,0,14.275-5.727,15.361-13.322l6.25-43.752
	c9.75-2.875,16.89-11.902,16.89-22.571V195.878C512,182.902,501.443,172.346,488.468,172.346z M15,195.878
	c0-4.705,3.828-8.532,8.532-8.532h48.097c4.705,0,8.532,3.828,8.532,8.532v24.564H15V195.878z M57.172,404.37
	c-0.036,0.253-0.256,0.443-0.511,0.443h-18.16c-0.255,0-0.476-0.19-0.511-0.443l-5.81-40.67h30.801L57.172,404.37z M112.226,300.603
	H95.161v-24.564c0-4.142-3.358-7.5-7.5-7.5s-7.5,3.358-7.5,7.5v64.129c0,4.705-3.828,8.532-8.532,8.532H23.532
	c-4.705,0-8.532-3.828-8.532-8.532V235.442h65.161v8.532c0,4.143,3.358,7.5,7.5,7.5s7.5-3.357,7.5-7.5v-8.532h17.064
	L112.226,300.603L112.226,300.603z M215.403,123.733c0-9.125,7.423-16.548,16.548-16.548h48.097c9.125,0,16.548,7.424,16.548,16.548
	v16.032c0,9.125-7.423,16.548-16.548,16.548h-48.097c-9.125,0-16.548-7.424-16.548-16.548V123.733z M312.113,339.652h0.516v17.064
	H199.371v-17.064h0.516c8.556,0,15.516-6.96,15.516-15.516V203.378h81.193v120.758C296.597,332.691,303.557,339.652,312.113,339.652
	z M311.597,324.135V203.895c0-0.285,0.231-0.517,0.516-0.517h16.032c0.285,0,0.516,0.231,0.516,0.517v120.242
	c0,0.285-0.231,0.516-0.516,0.516h-16.032C311.828,324.652,311.597,324.421,311.597,324.135z M183.855,324.652
	c-0.285,0-0.516-0.231-0.516-0.516V203.895c0-0.285,0.231-0.517,0.516-0.517h16.032c0.285,0,0.516,0.231,0.516,0.517v120.242
	c0,0.285-0.231,0.516-0.516,0.516L183.855,324.652L183.855,324.652z M239.452,188.378v-17.064h33.097v17.064H239.452z
	 M168.339,372.233v8.532h-16.548c-13.545,0-24.565-11.02-24.565-24.564V179.846c0-13.545,11.02-24.564,24.565-24.564H204.5
	c4.233,7.46,11.414,13.034,19.953,15.124v17.973h-40.597c-8.556,0-15.516,6.961-15.516,15.517v120.242
	c0,8.556,6.96,15.516,15.516,15.516h0.516v17.064h-0.516C175.299,356.716,168.339,363.677,168.339,372.233z M328.661,404.297
	c0,0.285-0.231,0.516-0.516,0.516h-144.29c-0.285,0-0.516-0.231-0.516-0.516v-32.064c0-0.285,0.231-0.516,0.516-0.516h144.29
	c0.285,0,0.516,0.231,0.516,0.516V404.297z M384.774,356.201c0,13.545-11.02,24.564-24.565,24.564h-16.548v-8.532
	c0-8.556-6.96-15.516-15.516-15.516h-0.516v-17.064h0.516c8.556,0,15.516-6.96,15.516-15.516V203.895
	c0-8.556-6.96-15.517-15.516-15.517h-40.597v-17.973c8.538-2.09,15.719-7.664,19.953-15.124h52.709
	c13.545,0,24.565,11.02,24.565,24.564L384.774,356.201L384.774,356.201z M474.011,404.37c-0.036,0.253-0.256,0.443-0.512,0.443
	h-18.16c-0.255,0-0.475-0.19-0.511-0.443l-5.81-40.67h30.801L474.011,404.37z M497,340.168c0,4.705-3.828,8.532-8.532,8.532h-48.097
	c-4.705,0-8.532-3.828-8.532-8.532v-64.129c0-4.142-3.358-7.5-7.5-7.5s-7.5,3.358-7.5,7.5v24.564h-17.064v-65.161h17.064v8.532
	c0,4.143,3.358,7.5,7.5,7.5s7.5-3.357,7.5-7.5v-8.532H497V340.168z M497,220.442h-65.161v-24.564c0-4.705,3.828-8.532,8.532-8.532
	h48.097c4.705,0,8.532,3.828,8.532,8.532L497,220.442L497,220.442z"/>
<g>
</g>
<g>
</g>
<g>
</g>
<g>
</g>
<g>
</g>
<g>
</g>
<g>
</g>
<g>
</g>
<g>
</g>
<g>
</g>
<g>
</g>
<g>
</g>
<g>
</g>
<g>
</g>
<g>
</g>
</svg>
