<?xml version="1.0" encoding="iso-8859-1"?>
<!-- Generator: Adobe Illustrator 19.0.0, SVG Export Plug-In . SVG Version: 6.00 Build 0)  -->
<svg version="1.1" id="Capa_1" xmlns="http://www.w3.org/2000/svg" xmlns:xlink="http://www.w3.org/1999/xlink" x="0px" y="0px"
	 viewBox="0 0 512 512" style="enable-background:new 0 0 512 512;" xml:space="preserve">
<path style="fill:#E5F9FF;" d="M104.897,304.096v64.129c0,13.282,10.767,24.048,24.048,24.048h32.065v92.185
	c0,11.068,8.972,20.04,20.04,20.04c11.068,0,20.04-8.973,20.04-20.04v-16.031c6.171,2.574,12.936,4.007,20.04,4.007
	c28.777,0,52.105-23.328,52.105-52.105v-20.04H305.3c13.282,0,24.048-10.767,24.048-24.048v-72.145L104.897,304.096L104.897,304.096
	z"/>
<path style="fill:#FFFFFF;" d="M120.929,312.112c0,22.136,17.944,40.081,40.081,40.081h16.032v8.016
	c0,13.282,10.767,24.048,24.048,24.048h32.065v-32.065h40.081c22.136,0,40.081-17.945,40.081-40.081H120.929V312.112z"/>
<path style="fill:#C9C6CA;" d="M89.015,272.031v-200.4V39.562V15.516c0-4.427,3.589-8.016,8.016-8.016h128.072
	c4.441,0,8.036,3.61,8.016,8.051l-0.105,24.014l-0.141,32.069l-0.405,92.419c-0.031,7.082,4.589,13.346,11.364,15.408l161.07,49.021
	c7.455,2.269,13.348,8.009,15.812,15.402l4.088,12.264l0.739,15.883H89.015z"/>
<path style="fill:#B7B2B8;" d="M424.802,256.148l-4.087-12.263c-1.518-4.552-4.441-8.348-8.123-11.222
	c-18.209,2.41-56.061,6.494-107.614,7.199l-184.049,0.091V15.516c0-4.427,3.589-8.016,8.016-8.016H97.031
	c-4.427,0-8.016,3.589-8.016,8.016v256.515h336.527L424.802,256.148z"/>
<path style="fill:#EDEBED;" d="M233.155,71.628H88.864c-4.427,0-8.016-3.589-8.016-8.016V47.58c0-4.427,3.589-8.016,8.016-8.016
	h144.29c4.427,0,8.016,3.589,8.016,8.016v16.032C241.171,68.039,237.582,71.628,233.155,71.628z"/>
<path style="fill:#867E88;" d="M422.012,255.638c-17.291,2.506-58.356,7.471-116.706,8.269l-216.442,0.109
	c-4.427,0-8.016,3.589-8.016,8.016v26.372c0,8.855,7.178,16.032,16.032,16.032h175.599l32.821-1.507
	c59.475-5.385,106.335-23.694,121.028-29.991c2.953-1.266,4.823-4.143,4.823-7.356v-12.009
	C431.152,258.683,426.852,254.937,422.012,255.638z"/>
<path style="fill:#9C969E;" d="M426.329,264.581c-14.694,6.298-61.553,24.606-121.028,29.991l-32.821,1.507H96.88
	c-8.854,0-16.032-7.178-16.032-16.032v18.357c0,8.855,7.178,16.032,16.032,16.032h175.599l32.821-1.507
	c59.475-5.385,106.335-23.694,121.028-29.991c2.953-1.266,4.823-4.143,4.823-7.356v-12.009c0-1.159-0.276-2.237-0.708-3.224
	C429.659,262.2,428.261,263.753,426.329,264.581z"/>
<g>
	<path style="fill:#EDEBED;" d="M169.026,288.064V127.742c0-13.282-10.767-24.048-24.048-24.048s-24.048,10.767-24.048,24.048
		v160.322L169.026,288.064L169.026,288.064z"/>
	<path style="fill:#EDEBED;" d="M241.171,288.064H201.09v-60.12c0-11.068,8.972-20.04,20.04-20.04l0,0
		c11.068,0,20.04,8.972,20.04,20.04L241.171,288.064L241.171,288.064z"/>
	<path style="fill:#EDEBED;" d="M305.3,288.064V256c0-8.855-7.178-16.032-16.032-16.032s-16.032,7.178-16.032,16.032v32.064H305.3z"
		/>
</g>
<g>
	<rect x="120.93" y="288.06" style="fill:#AEA8AF;" width="48.1" height="32.06"/>
	<rect x="201.09" y="288.06" style="fill:#AEA8AF;" width="40.08" height="32.06"/>
	<rect x="273.24" y="288.06" style="fill:#AEA8AF;" width="32.06" height="32.06"/>
</g>
<path style="fill:#DBD9DC;" d="M112.913,63.612V47.58c0-4.427,3.589-8.016,8.016-8.016H88.864c-4.427,0-8.016,3.589-8.016,8.016
	v16.032c0,4.427,3.589,8.016,8.016,8.016h32.065C116.501,71.628,112.913,68.039,112.913,63.612z"/>
<path d="M433.292,251.827c-0.819-0.709-1.704-1.317-2.635-1.833l-2.827-8.481c-3.227-9.681-10.982-17.233-20.744-20.205
	l-161.07-49.021c-3.634-1.106-6.065-4.401-6.048-8.2l0.38-86.738c4.941-2.599,8.323-7.776,8.323-13.736V47.581
	c0-5.884-3.293-11.014-8.132-13.644l0.08-18.353c0.018-4.157-1.587-8.069-4.521-11.015C233.166,1.623,229.26,0,225.103,0H97.031
	c-8.556,0-15.516,6.96-15.516,15.516V33.92c-4.858,2.624-8.167,7.762-8.167,13.66v16.032c0,5.898,3.309,11.037,8.167,13.661v181.099
	c-4.858,2.624-8.167,7.762-8.167,13.66v26.372c0,12.976,10.557,23.532,23.532,23.532h16.777c0.81,3.268,3.754,5.692,7.271,5.692
	h48.097c3.518,0,6.461-2.425,7.271-5.692h17.522c0.81,3.268,3.754,5.692,7.271,5.692h40.081c3.518,0,6.461-2.425,7.271-5.692h17.521
	c0.81,3.268,3.754,5.692,7.271,5.692H305.3c4.142,0,7.5-3.357,7.5-7.5v-0.414c56.209-6.066,99.893-22.773,116.484-29.883
	c5.691-2.439,9.368-8.032,9.368-14.25v-12.009C438.652,259.057,436.698,254.774,433.292,251.827z M241.648,186.637l161.07,49.021
	c5.121,1.559,9.189,5.521,10.881,10.599l0.948,2.845c-19.686,2.614-54.511,6.221-101.748,7.175V256
	c0-12.976-10.557-23.532-23.532-23.532S265.735,243.024,265.735,256v0.516h-17.064v-28.573c0-15.186-12.354-27.54-27.541-27.54
	c-15.186,0-27.54,12.354-27.54,27.54v28.573h-17.065V127.742c0-17.396-14.152-31.549-31.548-31.549s-31.548,14.153-31.548,31.549
	v128.774H96.515V79.129h8.381c4.142,0,7.5-3.357,7.5-7.5c0-4.142-3.358-7.5-7.5-7.5H88.864c-0.285,0-0.516-0.231-0.516-0.516V47.581
	c0-0.285,0.231-0.516,0.516-0.516h104.21c4.705,0,8.532,3.828,8.532,8.532c0,4.705-3.828,8.532-8.532,8.532H136.96
	c-4.142,0-7.5,3.358-7.5,7.5c0,4.143,3.358,7.5,7.5,7.5h88.38l-0.372,84.892C224.921,174.497,231.625,183.586,241.648,186.637z
	 M161.525,280.564h-33.097V127.742c0-9.125,7.423-16.549,16.548-16.549s16.548,7.424,16.548,16.549L161.525,280.564L161.525,280.564
	z M176.525,271.516h17.065v35.42h-17.065V271.516z M233.671,280.564H208.59v-52.621c0-6.915,5.625-12.54,12.54-12.54
	s12.541,5.625,12.541,12.54L233.671,280.564L233.671,280.564z M248.671,271.516h17.064v35.42h-17.064L248.671,271.516
	L248.671,271.516z M280.735,256c0-4.705,3.828-8.532,8.532-8.532s8.532,3.828,8.532,8.532v24.564h-17.064L280.735,256L280.735,256z
	 M232.964,47.064c0.006,0,0.012,0.001,0.018,0.001c0.011,0,0.022,0,0.033,0c0.007,0,0.013-0.001,0.019-0.001h0.121
	c0.285,0,0.516,0.231,0.516,0.516v16.032c0,0.285-0.231,0.516-0.516,0.516h-18.156c1.034-2.647,1.608-5.523,1.608-8.532
	s-0.574-5.885-1.608-8.532C214.999,47.064,232.964,47.064,232.964,47.064z M97.031,15h128.072c0.053,0,0.214,0,0.366,0.152
	c0.151,0.151,0.151,0.313,0.15,0.366l-0.072,16.546H96.515V15.516C96.515,15.231,96.747,15,97.031,15z M88.348,298.404v-26.372
	c0-0.285,0.231-0.516,0.516-0.516h24.564v35.42H96.88C92.176,306.937,88.348,303.109,88.348,298.404z M128.429,295.564h33.097
	v17.064h-33.097V295.564z M208.59,295.564h25.081v17.064H208.59V295.564z M280.735,312.629v-17.064H297.8v17.064H280.735z
	 M423.652,275.583c0,0.157-0.048,0.364-0.277,0.462c-12.346,5.291-55.496,22.364-110.575,28.574v-33.34
	c53.826-1.074,91.952-5.561,110.288-8.219c0.067-0.01,0.226-0.032,0.388,0.108c0.176,0.152,0.176,0.336,0.176,0.405L423.652,275.583
	L423.652,275.583z"/>
<path d="M128.945,416.839c-4.142,0-7.5,3.358-7.5,7.5v16.032c0,4.142,3.358,7.5,7.5,7.5s7.5-3.358,7.5-7.5v-16.032
	C136.445,420.197,133.087,416.839,128.945,416.839z"/>
<path d="M128.945,344.693c-4.142,0-7.5,3.358-7.5,7.5v40.081c0,4.143,3.358,7.5,7.5,7.5s7.5-3.357,7.5-7.5v-40.081
	C136.445,348.052,133.087,344.693,128.945,344.693z"/>
<path d="M161.009,344.693c-4.142,0-7.5,3.358-7.5,7.5V504.5c0,4.142,3.358,7.5,7.5,7.5s7.5-3.358,7.5-7.5V352.193
	C168.509,348.052,165.151,344.693,161.009,344.693z"/>
<path d="M201.09,344.693c-4.142,0-7.5,3.358-7.5,7.5v120.242c0,4.142,3.358,7.5,7.5,7.5s7.5-3.358,7.5-7.5V352.193
	C208.59,348.052,205.232,344.693,201.09,344.693z"/>
<path d="M233.155,416.839c-4.142,0-7.5,3.358-7.5,7.5v16.032c0,4.142,3.358,7.5,7.5,7.5s7.5-3.358,7.5-7.5v-16.032
	C240.655,420.197,237.297,416.839,233.155,416.839z"/>
<path d="M233.155,344.693c-4.142,0-7.5,3.358-7.5,7.5v40.081c0,4.143,3.358,7.5,7.5,7.5s7.5-3.357,7.5-7.5v-40.081
	C240.655,348.052,237.297,344.693,233.155,344.693z"/>
<path d="M273.235,344.693c-4.142,0-7.5,3.358-7.5,7.5v120.242c0,4.142,3.358,7.5,7.5,7.5s7.5-3.358,7.5-7.5V352.193
	C280.735,348.052,277.377,344.693,273.235,344.693z"/>
<path d="M305.3,344.693c-4.142,0-7.5,3.358-7.5,7.5v56.113c0,4.142,3.358,7.5,7.5,7.5s7.5-3.358,7.5-7.5v-56.113
	C312.8,348.052,309.442,344.693,305.3,344.693z"/>
<g>
</g>
<g>
</g>
<g>
</g>
<g>
</g>
<g>
</g>
<g>
</g>
<g>
</g>
<g>
</g>
<g>
</g>
<g>
</g>
<g>
</g>
<g>
</g>
<g>
</g>
<g>
</g>
<g>
</g>
</svg>
