<?xml version="1.0" encoding="iso-8859-1"?>
<!-- Generator: Adobe Illustrator 19.0.0, SVG Export Plug-In . SVG Version: 6.00 Build 0)  -->
<svg version="1.1" id="Capa_1" xmlns="http://www.w3.org/2000/svg" xmlns:xlink="http://www.w3.org/1999/xlink" x="0px" y="0px"
	 viewBox="0 0 512.001 512.001" style="enable-background:new 0 0 512.001 512.001;" xml:space="preserve">
<rect x="199.89" y="23.532" style="fill:#867E88;" width="112.23" height="120.24"/>
<rect x="191.87" y="143.77" style="fill:#9C969E;" width="128.26" height="32.06"/>
<path style="fill:#DBD9DC;" d="M312.113,432.355h8.987c8.466,0,15.473-6.583,16.001-15.032l15.093-241.484h-40.081V432.355z"/>
<path style="fill:#EDEBED;" d="M336.161,504.5h32.065v-14.14c0-6.073-3.431-11.624-8.862-14.34l-14.739-7.37
	c-5.565-2.783-11.702-4.231-17.925-4.231h-14.587v16.032C312.113,493.733,322.88,504.5,336.161,504.5z"/>
<path style="fill:#DBD9DC;" d="M199.887,432.355H190.9c-8.466,0-15.473-6.583-16.001-15.032l-15.093-241.484h40.081V432.355z"/>
<g>
	<path style="fill:#EDEBED;" d="M163.814,183.855h36.073v-40.081h-36.073c-11.068,0-20.04,8.972-20.04,20.04l0,0
		C143.774,174.882,152.747,183.855,163.814,183.855z"/>
	<path style="fill:#EDEBED;" d="M348.186,143.774h-36.073v40.081h36.073c11.068,0,20.04-8.972,20.04-20.04l0,0
		C368.226,152.747,359.253,143.774,348.186,143.774z"/>
</g>
<path style="fill:#DBD9DC;" d="M179.847,167.823c-11.068,0-20.04-8.973-20.04-20.04c0-1.247,0.149-2.457,0.367-3.641
	c-9.324,1.716-16.399,9.852-16.399,19.673c0,11.068,8.972,20.04,20.04,20.04h36.073v-16.032L179.847,167.823L179.847,167.823z"/>
<path style="fill:#EDEBED;" d="M175.839,504.5h-32.065v-14.14c0-6.073,3.431-11.624,8.862-14.34l14.739-7.37
	c5.565-2.783,11.702-4.231,17.925-4.231h14.587v16.032C199.887,493.733,189.12,504.5,175.839,504.5z"/>
<path style="fill:#DBD9DC;" d="M348.185,167.823h-36.073v16.032h36.073c11.068,0,20.04-8.973,20.04-20.04
	c0-2.855-0.616-5.559-1.692-8.016C363.439,162.87,356.399,167.823,348.185,167.823z"/>
<g>
	<path style="fill:#6F6571;" d="M207.903,95.677h-16.032c-4.427,0-8.016-3.589-8.016-8.016V15.516c0-4.427,3.589-8.016,8.016-8.016
		h16.032c4.427,0,8.016,3.589,8.016,8.016v72.145C215.919,92.088,212.33,95.677,207.903,95.677z"/>
	<path style="fill:#6F6571;" d="M320.129,95.677h-16.032c-4.427,0-8.016-3.589-8.016-8.016V15.516c0-4.427,3.589-8.016,8.016-8.016
		h16.032c4.427,0,8.016,3.589,8.016,8.016v72.145C328.145,92.088,324.556,95.677,320.129,95.677z"/>
</g>
<g>
	<polygon style="fill:#C9C6CA;" points="161.81,207.903 199.887,207.903 199.887,183.855 160.307,183.855 	"/>
	<polygon style="fill:#C9C6CA;" points="350.19,207.903 312.113,207.903 312.113,183.855 351.693,183.855 	"/>
</g>
<g>
	<polygon style="fill:#9C969E;" points="199.887,328.145 199.887,296.081 167.322,296.081 169.326,328.145 	"/>
	<polygon style="fill:#9C969E;" points="312.113,328.157 342.673,328.157 344.677,296.092 312.113,296.092 	"/>
</g>
<path d="M362.717,469.312l-14.739-7.37c-6.572-3.286-13.93-5.023-21.278-5.023h-7.087v-17.065h1.517
	c12.372,0,22.688-9.671,23.483-22.017l14.766-228.87c9.621-4.298,16.347-13.952,16.347-25.153c0-15.186-12.354-27.54-27.54-27.54
	h-28.573v-33.097h0.516c8.556,0,15.516-6.961,15.516-15.517V15.516C335.645,6.96,328.685,0,320.129,0h-16.032
	c-8.556,0-15.516,6.96-15.516,15.516v0.516H223.42v-0.516C223.419,6.96,216.459,0,207.903,0h-16.032
	c-8.556,0-15.516,6.96-15.516,15.516v72.145c0,8.556,6.96,15.517,15.516,15.517h0.516v33.097h-28.573
	c-15.186,0-27.54,12.354-27.54,27.54c0,11.201,6.725,20.855,16.347,25.153l14.766,228.87c0.796,12.346,11.111,22.017,23.483,22.017
	h1.517v17.065H185.3c-7.348,0-14.706,1.737-21.278,5.023l-14.739,7.37c-8.024,4.011-13.008,12.077-13.008,21.048v14.14
	c0,4.142,3.358,7.5,7.5,7.5h72.145c4.142,0,7.5-3.358,7.5-7.5s-3.358-7.5-7.5-7.5h-13.235c2.979-4.814,4.703-10.483,4.703-16.548
	v-160.84h24.564c4.142,0,7.5-3.358,7.5-7.5s-3.358-7.5-7.5-7.5h-24.564v-24.564c0-4.142-3.358-7.5-7.5-7.5s-7.5,3.358-7.5,7.5v8.532
	h-18.309l-6.272-97.226h24.581v56.632c0,4.142,3.358,7.5,7.5,7.5s7.5-3.358,7.5-7.5V183.34h97.226v121.274H280.05
	c-4.142,0-7.5,3.358-7.5,7.5s3.358,7.5,7.5,7.5h24.564v160.839c0,6.065,1.725,11.734,4.703,16.548h-13.235
	c-4.142,0-7.5,3.358-7.5,7.5s3.358,7.5,7.5,7.5h72.145c4.142,0,7.5-3.358,7.5-7.5v-14.14
	C375.726,481.389,370.741,473.324,362.717,469.312z M337.921,288.581h-18.309v-97.226h24.581L337.921,288.581z M319.613,303.581
	h17.341l-1.101,17.065h-16.24V303.581z M321.13,424.854h-1.517v-89.209h15.272l-5.24,81.227
	C329.356,421.349,325.616,424.854,321.13,424.854z M348.186,151.274c6.915,0,12.54,5.625,12.54,12.54s-5.625,12.54-12.54,12.54
	h-28.573v-25.08L348.186,151.274L348.186,151.274z M303.581,15.516c0-0.285,0.231-0.516,0.516-0.516h16.032
	c0.285,0,0.516,0.231,0.516,0.516v72.145c0,0.285-0.231,0.517-0.516,0.517h-16.032c-0.285,0-0.516-0.231-0.516-0.517V15.516z
	 M191.355,87.661V15.516c0-0.285,0.231-0.516,0.516-0.516h16.032c0.285,0,0.516,0.231,0.516,0.516v72.145
	c0,0.285-0.231,0.517-0.516,0.517h-16.032C191.586,88.178,191.355,87.946,191.355,87.661z M190.87,424.854
	c-4.486,0-8.226-3.506-8.515-7.982l-5.24-81.227h15.272v89.209H190.87z M151.274,497v-6.64c0-3.253,1.807-6.177,4.716-7.631
	l14.739-7.37c4.5-2.25,9.539-3.44,14.57-3.44h7.087v8.532c0,9.125-7.423,16.548-16.548,16.548h-24.564V497z M192.387,303.581v17.065
	h-16.24l-1.101-17.065H192.387z M163.814,176.354c-6.915,0-12.54-5.625-12.54-12.54s5.625-12.54,12.54-12.54h28.573v25.08
	L163.814,176.354L163.814,176.354z M207.387,168.339v-17.064h72.661c4.142,0,7.5-3.358,7.5-7.5c0-4.143-3.358-7.5-7.5-7.5h-72.661
	v-33.097h0.516c8.556,0,15.516-6.961,15.516-15.517V31.032h65.161v56.629c0,8.556,6.96,15.517,15.516,15.517h0.516v40.529
	c0,0.023-0.003,0.045-0.003,0.068c0,0.022,0.003,0.045,0.003,0.067v24.497L207.387,168.339L207.387,168.339z M360.726,497h-24.564
	c-9.125,0-16.548-7.424-16.548-16.548v-8.532h7.087c5.031,0,10.07,1.189,14.57,3.44l14.739,7.37
	c2.909,1.454,4.716,4.379,4.716,7.631L360.726,497L360.726,497z"/>
<g>
</g>
<g>
</g>
<g>
</g>
<g>
</g>
<g>
</g>
<g>
</g>
<g>
</g>
<g>
</g>
<g>
</g>
<g>
</g>
<g>
</g>
<g>
</g>
<g>
</g>
<g>
</g>
<g>
</g>
</svg>
