<?xml version="1.0" encoding="iso-8859-1"?>
<!-- Generator: Adobe Illustrator 19.0.0, SVG Export Plug-In . SVG Version: 6.00 Build 0)  -->
<svg version="1.1" id="Capa_1" xmlns="http://www.w3.org/2000/svg" xmlns:xlink="http://www.w3.org/1999/xlink" x="0px" y="0px"
	 viewBox="0 0 512.001 512.001" style="enable-background:new 0 0 512.001 512.001;" xml:space="preserve">
<polygon style="fill:#AEA8AF;" points="151.791,480.452 191.872,464.42 191.872,504.5 151.791,504.5 "/>
<path style="fill:#DBD9DC;" d="M207.904,392.273l-22.445-16.834c-6.056-4.542-9.619-11.669-9.619-19.239v-68.137h32.065v104.211
	H207.904z"/>
<path style="fill:#C9C6CA;" d="M175.839,325.349c5.022,1.778,10.402,2.796,16.032,2.796s11.01-1.018,16.032-2.796v-37.285h-32.065
	v37.285H175.839z"/>
<g>
	<circle style="fill:#AEA8AF;" cx="191.872" cy="280.052" r="24.05"/>
	<polygon style="fill:#AEA8AF;" points="360.211,480.452 320.131,464.42 320.131,504.5 360.211,504.5 	"/>
</g>
<path style="fill:#DBD9DC;" d="M304.098,392.273l22.445-16.834c6.056-4.542,9.619-11.669,9.619-19.239v-68.137h-32.065v104.211
	H304.098z"/>
<path style="fill:#C9C6CA;" d="M336.163,325.349c-5.022,1.778-10.402,2.796-16.032,2.796s-11.01-1.018-16.032-2.796v-37.285h32.065
	L336.163,325.349L336.163,325.349z"/>
<circle style="fill:#AEA8AF;" cx="320.133" cy="280.052" r="24.05"/>
<g>
	<path style="fill:#EDEBED;" d="M164.781,11.93l23.506,47.012c2.327,4.654,6.101,8.428,10.755,10.755l29.818,14.909
		c6.54,3.27,10.038,10.55,8.507,17.699l-18.73,87.409c-1.584,7.392-8.117,12.673-15.676,12.673h-21.756
		c-7.748,0-14.388-5.541-15.774-13.164l-28.17-154.928c-0.941-5.176,0.717-10.484,4.437-14.204l10.244-10.244
		C155.812,5.978,162.334,7.036,164.781,11.93z"/>
	<path style="fill:#EDEBED;" d="M370.304,20.091L360.06,9.846c-3.869-3.869-10.392-2.81-12.838,2.083l-23.506,47.012
		c-2.327,4.654-6.101,8.428-10.755,10.755l-29.818,14.909c-6.54,3.27-10.038,10.55-8.506,17.699l18.731,87.409
		c1.584,7.392,8.116,12.673,15.676,12.673H330.8c7.748,0,14.387-5.541,15.773-13.165l28.168-154.926
		C375.682,29.119,374.024,23.811,370.304,20.091z"/>
</g>
<g>
	<path style="fill:#DBD9DC;" d="M199.481,186.354c-7.748,0-14.387-5.541-15.773-13.165L153.475,8.648
		c-0.542,0.328-1.058,0.724-1.532,1.199l-10.244,10.244c-3.72,3.72-5.378,9.028-4.437,14.205l28.168,154.926
		c1.386,7.623,8.025,13.165,15.773,13.165h21.756c7.56,0,14.092-5.281,15.676-12.673l0.72-3.359h-19.874V186.354z"/>
	<path style="fill:#DBD9DC;" d="M161.539,167.821l3.891,21.401c1.386,7.623,8.025,13.165,15.773,13.165h21.756
		c7.56,0,14.092-5.281,15.676-12.673l4.691-21.892L161.539,167.821L161.539,167.821z"/>
</g>
<path style="fill:#C9C6CA;" d="M165.43,189.222c1.386,7.623,8.025,13.165,15.773,13.165h21.756c7.56,0,14.092-5.281,15.676-12.673
	l0.72-3.359h-19.874c-7.748,0-14.387-5.541-15.773-13.165l-0.986-5.369H161.54L165.43,189.222z"/>
<g>
	<path style="fill:#DBD9DC;" d="M326.319,186.354c-7.56,0-14.092-5.281-15.676-12.673l-18.731-87.409
		c-0.434-2.026-0.424-4.051-0.095-6.003l-8.674,4.337c-6.54,3.27-10.038,10.55-8.506,17.699l18.731,87.409
		c1.584,7.392,8.116,12.673,15.676,12.673H330.8c7.748,0,14.387-5.541,15.773-13.165l0.522-2.868H326.319z"/>
	<path style="fill:#DBD9DC;" d="M288.676,167.821l4.691,21.892c1.584,7.392,8.116,12.673,15.676,12.673h21.756
		c7.748,0,14.387-5.541,15.773-13.165l3.891-21.401L288.676,167.821L288.676,167.821z"/>
</g>
<path style="fill:#C9C6CA;" d="M293.367,189.713c1.584,7.392,8.116,12.673,15.676,12.673h21.756c7.748,0,14.387-5.541,15.773-13.165
	l0.522-2.868h-20.775c-7.56,0-14.092-5.281-15.676-12.673l-1.256-5.86h-20.711L293.367,189.713z"/>
<path d="M232.214,77.898l-29.818-14.909c-3.182-1.591-5.81-4.219-7.401-7.401L171.489,8.575v0.001
	c-2.224-4.449-6.483-7.581-11.393-8.377c-4.907-0.796-9.94,0.828-13.457,4.344l-10.245,10.244
	c-5.458,5.459-7.893,13.253-6.512,20.85l28.168,154.927c2.035,11.196,11.772,19.323,23.152,19.323h3.168v39.52
	c-13.786,3.375-24.048,15.829-24.048,30.64c0,8.051,3.035,15.403,8.016,20.983v55.17c0,9.877,4.717,19.313,12.619,25.239
	l19.445,14.584v49.807c0,3.418-2.03,6.496-5.171,7.843l-36.679,15.719c-8.664,3.713-14.263,12.203-14.263,21.63v5.461
	c0,8.556,6.96,15.516,15.516,15.516h64.129c4.142,0,7.5-3.358,7.5-7.5s-3.358-7.5-7.5-7.5h-24.562v-28.78l1.77-0.759
	c8.664-3.713,14.262-12.203,14.262-21.63v-93.637c0-4.143-3.358-7.5-7.5-7.5c-4.142,0-7.5,3.357-7.5,7.5v25.079l-10.445-7.834
	c-4.145-3.108-6.619-8.058-6.619-13.239v-45.787c2.716,0.764,5.575,1.182,8.532,1.182c2.957,0,5.816-0.418,8.532-1.182v9.715
	c0,4.142,3.358,7.5,7.5,7.5c4.142,0,7.5-3.358,7.5-7.5v-19.098c4.981-5.58,8.016-12.932,8.016-20.983
	c0-14.812-10.262-27.265-24.048-30.64v-39.52h3.587c11.023,0,20.7-7.823,23.01-18.602l18.73-87.409
	C246.949,93.381,241.815,82.698,232.214,77.898z M184.372,497h-24.564c-0.285,0-0.516-0.231-0.516-0.516v-5.461
	c0-3.418,2.03-6.496,5.171-7.842l19.909-8.532V497z M208.42,280.048c0,9.125-7.423,16.548-16.548,16.548
	c-9.125,0-16.548-7.424-16.548-16.548s7.423-16.548,16.548-16.548C200.997,263.5,208.42,270.923,208.42,280.048z M202.959,194.886
	h-21.756c-4.126,0-7.656-2.946-8.395-7.006l-2.284-12.56h43.524l-2.747,12.821C210.465,192.05,206.956,194.886,202.959,194.886z
	 M230.032,100.734l-12.769,59.587h-49.466L144.64,32.954c-0.5-2.754,0.382-5.581,2.361-7.56l10.245-10.245
	c0.052-0.052,0.153-0.153,0.346-0.153c0.031,0,0.064,0.002,0.101,0.008c0.26,0.042,0.34,0.202,0.378,0.278l0,0l23.506,47.012
	c3.033,6.066,8.043,11.076,14.109,14.109l29.818,14.909C228.986,93.055,230.848,96.928,230.032,100.734z"/>
<path d="M375.607,14.787L365.363,4.543c-3.517-3.517-8.548-5.141-13.457-4.344c-4.91,0.796-9.169,3.928-11.393,8.376l-23.506,47.012
	c-1.591,3.182-4.219,5.81-7.401,7.401l-29.818,14.909c-9.601,4.801-14.735,15.483-12.486,25.979l18.73,87.408
	c2.31,10.778,11.987,18.602,23.01,18.602h3.587v39.52c-13.786,3.375-24.048,15.829-24.048,30.64c0,8.051,3.035,15.403,8.016,20.983
	v144.801c0,9.426,5.598,17.916,14.262,21.63l1.77,0.759v28.78h-24.564c-4.142,0-7.5,3.358-7.5,7.5s3.358,7.5,7.5,7.5h64.129
	c8.556,0,15.516-6.96,15.516-15.516v-5.461c0-9.427-5.599-17.917-14.262-21.629l-36.679-15.72c-3.142-1.346-5.171-4.425-5.171-7.843
	v-49.807l19.445-14.584c7.902-5.926,12.619-15.361,12.619-25.239v-55.17c4.981-5.58,8.016-12.932,8.016-20.983
	c0-14.812-10.262-27.265-24.048-30.64v-39.52h3.168c11.38,0,21.117-8.126,23.152-19.323l18.467-101.564
	c0.741-4.075-1.962-7.979-6.037-8.721c-4.08-0.738-7.98,1.963-8.721,6.038l-13.455,74.002h-49.466l-12.769-59.587
	c-0.815-3.806,1.046-7.679,4.527-9.419l29.818-14.909c6.065-3.033,11.076-8.043,14.109-14.109l23.506-47.012
	c0.038-0.076,0.118-0.236,0.378-0.278c0.267-0.044,0.387,0.084,0.448,0.145L365,25.394c1.979,1.979,2.862,4.806,2.361,7.56
	l-3.873,21.298c-0.741,4.076,1.962,7.98,6.037,8.721c4.076,0.742,7.98-1.962,8.721-6.037l3.873-21.298
	C383.501,28.041,381.066,20.247,375.607,14.787z M352.711,491.023v5.461c0,0.285-0.231,0.516-0.516,0.516h-24.564v-22.352
	l19.91,8.533C350.681,484.527,352.711,487.606,352.711,491.023z M322.044,369.44l-10.445,7.834v-66.86
	c2.716,0.764,5.575,1.182,8.532,1.182c2.957,0,5.816-0.418,8.532-1.182v45.787C328.663,361.382,326.188,366.331,322.044,369.44z
	 M336.679,280.048c0,9.125-7.423,16.548-16.548,16.548s-16.548-7.424-16.548-16.548s7.423-16.548,16.548-16.548
	S336.679,270.923,336.679,280.048z M341.477,175.321l-2.284,12.561c-0.738,4.059-4.269,7.005-8.395,7.005h-21.755
	c-3.997,0-7.505-2.836-8.343-6.745l-2.747-12.821L341.477,175.321L341.477,175.321z"/>
<g>
</g>
<g>
</g>
<g>
</g>
<g>
</g>
<g>
</g>
<g>
</g>
<g>
</g>
<g>
</g>
<g>
</g>
<g>
</g>
<g>
</g>
<g>
</g>
<g>
</g>
<g>
</g>
<g>
</g>
</svg>
