<?xml version="1.0" encoding="iso-8859-1"?>
<!-- Generator: Adobe Illustrator 19.0.0, SVG Export Plug-In . SVG Version: 6.00 Build 0)  -->
<svg version="1.1" id="Capa_1" xmlns="http://www.w3.org/2000/svg" xmlns:xlink="http://www.w3.org/1999/xlink" x="0px" y="0px"
	 viewBox="0 0 512 512" style="enable-background:new 0 0 512 512;" xml:space="preserve">
<path style="fill:#59D8FF;" d="M151.79,159.808h208.42c4.427,0,8.016-3.589,8.016-8.016V87.663c0-4.427-3.589-8.016-8.016-8.016
	H151.79c-4.427,0-8.016,3.589-8.016,8.016v64.129C143.774,156.219,147.363,159.808,151.79,159.808z"/>
<circle style="fill:#99E9DF;" cx="256" cy="223.94" r="16.03"/>
<path style="fill:#59D8FF;" d="M15.516,352.194h208.419c4.427,0,8.016-3.589,8.016-8.016v-64.129c0-4.427-3.589-8.016-8.016-8.016
	H15.516c-4.427,0-8.016,3.589-8.016,8.016v64.129C7.5,348.605,11.089,352.194,15.516,352.194z"/>
<circle style="fill:#99E9DF;" cx="119.73" cy="416.32" r="16.03"/>
<path style="fill:#59D8FF;" d="M288.065,352.194h208.419c4.427,0,8.016-3.589,8.016-8.016v-64.129c0-4.427-3.589-8.016-8.016-8.016
	H288.065c-4.427,0-8.016,3.589-8.016,8.016v64.129C280.048,348.605,283.637,352.194,288.065,352.194z"/>
<circle style="fill:#99E9DF;" cx="392.27" cy="416.32" r="16.03"/>
<path d="M7.5,231.436h226.2c3.139,9.309,11.946,16.033,22.3,16.033s19.161-6.725,22.3-16.033h226.2c4.142,0,7.5-3.358,7.5-7.5
	s-3.358-7.5-7.5-7.5H278.299c-2.345-6.951-7.85-12.456-14.802-14.8v-34.328h96.712c8.556,0,15.516-6.96,15.516-15.516V87.663
	c0-8.556-6.96-15.516-15.516-15.516H151.791c-8.556,0-15.516,6.96-15.516,15.516v64.129c0,8.556,6.96,15.516,15.516,15.516h96.707
	v34.33c-6.949,2.345-12.452,7.848-14.796,14.798H7.5c-4.142,0-7.5,3.358-7.5,7.5S3.358,231.436,7.5,231.436z M360.726,87.663v64.129
	c0,0.285-0.231,0.516-0.516,0.516h-40.597v-24.566c0-4.142-3.358-7.5-7.5-7.5s-7.5,3.358-7.5,7.5v24.566h-41.116V87.146h41.116
	v8.529c0,4.142,3.358,7.5,7.5,7.5s7.5-3.358,7.5-7.5v-8.529h40.597C360.494,87.146,360.726,87.378,360.726,87.663z M151.274,151.792
	V87.663c0-0.285,0.231-0.516,0.516-0.516h40.597v65.161H151.79C151.506,152.308,151.274,152.076,151.274,151.792z M207.387,152.308
	V87.147h41.11v65.161H207.387z M256,232.469c-4.705,0-8.532-3.828-8.532-8.532s3.828-8.532,8.532-8.532
	c4.704,0,8.532,3.828,8.532,8.532S260.705,232.469,256,232.469z"/>
<path d="M496.484,264.532h-208.42c-8.556,0-15.516,6.96-15.516,15.516v64.129c0,8.556,6.96,15.516,15.516,15.516h96.707v34.331
	c-6.949,2.345-12.453,7.849-14.797,14.798H142.026c-2.345-6.952-7.851-12.457-14.803-14.801v-34.329h96.713
	c8.556,0,15.516-6.96,15.516-15.516v-64.129c0-8.556-6.96-15.516-15.516-15.516H15.516C6.96,264.53,0,271.49,0,280.046v64.129
	c0,8.556,6.96,15.516,15.516,15.516h96.707v34.331c-6.949,2.345-12.453,7.849-14.797,14.799H7.5c-4.142,0-7.5,3.358-7.5,7.5
	s3.358,7.5,7.5,7.5h89.926c3.139,9.308,11.946,16.032,22.3,16.032s19.161-6.724,22.3-16.032h227.949
	c3.139,9.308,11.946,16.032,22.3,16.032c10.353,0,19.16-6.724,22.3-16.032H504.5c4.142,0,7.5-3.358,7.5-7.5s-3.358-7.5-7.5-7.5
	h-89.926c-2.345-6.952-7.851-12.457-14.803-14.801v-34.329h96.713c8.556,0,15.516-6.96,15.516-15.516v-64.129
	C512,271.493,505.04,264.532,496.484,264.532z M127.223,344.693v-65.161h41.116v65.161H127.223z M224.452,280.048v64.129
	c0,0.285-0.231,0.516-0.516,0.516h-40.597v-65.161h40.597C224.22,279.532,224.452,279.764,224.452,280.048z M71.113,344.693v-8.529
	c0-4.142-3.358-7.5-7.5-7.5c-4.142,0-7.5,3.358-7.5,7.5v8.529H15.516c-0.285,0-0.516-0.231-0.516-0.516v-64.129
	c0-0.285,0.231-0.516,0.516-0.516h40.597v24.566c0,4.142,3.358,7.5,7.5,7.5c4.142,0,7.5-3.358,7.5-7.5v-24.566h41.11v65.161
	L71.113,344.693L71.113,344.693z M119.726,424.854c-4.705,0-8.532-3.828-8.532-8.532s3.828-8.532,8.532-8.532
	c4.702,0,8.527,3.822,8.532,8.523c0,0.003,0,0.006,0,0.01s0,0.006,0,0.01C128.253,421.033,124.427,424.854,119.726,424.854z
	 M392.274,424.854c-4.7,0-8.524-3.82-8.532-8.518c0-0.005,0.001-0.01,0.001-0.014s-0.001-0.01-0.001-0.014
	c0.008-4.698,3.832-8.518,8.532-8.518c4.705,0,8.532,3.828,8.532,8.532S396.979,424.854,392.274,424.854z M287.548,344.177v-64.129
	c0-0.285,0.231-0.516,0.516-0.516h40.597v65.161h-40.597C287.78,344.693,287.548,344.462,287.548,344.177z M343.661,344.693v-65.161
	h41.11v65.161H343.661z M399.771,279.532h41.116v65.161h-41.116V279.532z M497,344.177c0,0.285-0.231,0.516-0.516,0.516h-40.597
	v-65.161h40.597c0.285,0,0.516,0.231,0.516,0.516V344.177z"/>
<g>
</g>
<g>
</g>
<g>
</g>
<g>
</g>
<g>
</g>
<g>
</g>
<g>
</g>
<g>
</g>
<g>
</g>
<g>
</g>
<g>
</g>
<g>
</g>
<g>
</g>
<g>
</g>
<g>
</g>
</svg>
