<?xml version="1.0" encoding="iso-8859-1"?>
<!-- Generator: Adobe Illustrator 19.0.0, SVG Export Plug-In . SVG Version: 6.00 Build 0)  -->
<svg version="1.1" id="Capa_1" xmlns="http://www.w3.org/2000/svg" xmlns:xlink="http://www.w3.org/1999/xlink" x="0px" y="0px"
	 viewBox="0 0 511.998 511.998" style="enable-background:new 0 0 511.998 511.998;" xml:space="preserve">
<rect x="183.846" y="320.11" style="fill:#C9C6CA;" width="144.304" height="96.199"/>
<rect x="183.846" y="408.298" style="fill:#9C969E;" width="144.304" height="32.063"/>
<path style="fill:#867E88;" d="M167.813,504.499H87.644c-8.855,0-16.034-7.179-16.034-16.034V360.194h112.237v128.27
	C183.847,497.32,176.669,504.499,167.813,504.499z"/>
<path style="fill:#6F6571;" d="M95.661,472.431V360.194h-24.05v128.27c0,8.855,7.18,16.034,16.034,16.034h80.169
	c8.855,0,16.034-7.179,16.034-16.034v-16.034H95.661z"/>
<rect x="127.731" y="328.13" style="fill:#B7B2B8;" width="256.544" height="24.052"/>
<rect x="199.878" y="199.858" style="fill:#867E88;" width="112.241" height="32.063"/>
<path style="fill:#DBD9DC;" d="M392.286,328.127H119.712l12.684-76.106c1.933-11.597,11.966-20.097,23.723-20.097h199.759
	c11.757,0,21.791,8.5,23.723,20.097L392.286,328.127z"/>
<path style="fill:#867E88;" d="M424.353,504.499h-80.169c-8.855,0-16.034-7.179-16.034-16.034V360.194h112.237v128.27
	C440.388,497.32,433.209,504.499,424.353,504.499z"/>
<path style="fill:#6F6571;" d="M352.201,472.431V360.194h-24.05v128.27c0,8.855,7.179,16.034,16.034,16.034h80.169
	c8.855,0,16.034-7.179,16.034-16.034v-16.034H352.201z"/>
<g>
	<path style="fill:#EDEBED;" d="M352.201,199.857H159.796c-8.855,0-16.034-7.179-16.034-16.034v-32.068
		c0-8.855,7.179-16.033,16.034-16.033h192.405c8.855,0,16.034,7.179,16.034,16.033v32.068
		C368.236,192.679,361.057,199.857,352.201,199.857z"/>
	<path style="fill:#EDEBED;" d="M190.125,398.111l-128.27-28.505c-3.668-0.815-6.278-4.068-6.278-7.826v-41.67
		c0-4.427,3.589-8.017,8.017-8.017h128.27c4.427,0,8.017,3.589,8.017,8.017v70.175C199.881,395.414,195.132,399.224,190.125,398.111
		z"/>
	<path style="fill:#EDEBED;" d="M321.873,398.111l128.27-28.505c3.668-0.815,6.278-4.068,6.278-7.826v-41.67
		c0-4.427-3.589-8.017-8.017-8.017h-128.27c-4.427,0-8.017,3.589-8.017,8.017v70.175
		C312.117,395.414,316.867,399.224,321.873,398.111z"/>
</g>
<path style="fill:#DBD9DC;" d="M268.024,456.397h-24.05c-6.642,0-12.025-5.383-12.025-12.025v-40.085
	c0-6.642,5.384-12.025,12.025-12.025h24.05c6.642,0,12.025,5.384,12.025,12.025v40.085
	C280.049,451.013,274.666,456.397,268.024,456.397z"/>
<path style="fill:#C9C6CA;" d="M215.914,263.992l4.98,19.922c1.784,7.138,8.198,12.145,15.554,12.145h39.098
	c7.358,0,13.77-5.007,15.554-12.145l4.98-19.922H215.914z"/>
<path style="fill:#DBD9DC;" d="M98.461,358.337c-11.004-2.445-18.834-12.205-18.834-23.478v-22.765H63.594
	c-4.427,0-8.017,3.589-8.017,8.017v41.67c0,3.757,2.61,7.011,6.278,7.826l128.27,28.505c5.006,1.112,9.756-2.697,9.756-7.826v-9.411
	L98.461,358.337z"/>
<path style="fill:#EDEBED;" d="M156.12,231.924c-11.757,0-21.79,8.5-23.723,20.097l-1.995,11.971h251.197l-1.996-11.971
	c-1.932-11.597-11.966-20.097-23.723-20.097L156.12,231.924L156.12,231.924z"/>
<path style="fill:#C9C6CA;" d="M231.948,432.346v12.025c0,6.642,5.385,12.025,12.025,12.025h24.051
	c6.641,0,12.025-5.383,12.025-12.025v-12.025H231.948z"/>
<path style="fill:#DBD9DC;" d="M365.436,369.724c-15.02,3.337-29.268-8.092-29.268-23.478v-34.153h-16.034
	c-4.427,0-8.017,3.589-8.017,8.017v70.175c0,5.128,4.749,8.939,9.756,7.826l128.27-28.505c3.668-0.815,6.278-4.068,6.278-7.826
	v-12.275L365.436,369.724z"/>
<circle style="fill:#59D8FF;" cx="199.878" cy="143.743" r="24.052"/>
<path d="M239.358,87.013c-2.929,2.929-2.929,7.679,0,10.607c2.929,2.929,7.679,2.929,10.607,0c1.612-1.611,3.754-2.499,6.034-2.499
	c2.279,0,4.421,0.888,6.034,2.499c1.464,1.465,3.384,2.197,5.303,2.197c1.919,0,3.839-0.732,5.304-2.197
	c2.929-2.929,2.929-7.679,0-10.607c-4.444-4.444-10.355-6.894-16.642-6.894C249.711,80.119,243.802,82.568,239.358,87.013z"/>
<path d="M193.277,40.932c34.585-34.584,90.859-34.584,125.444,0c1.464,1.465,3.384,2.197,5.304,2.197s3.839-0.732,5.303-2.197
	c2.929-2.929,2.929-7.679,0-10.607c-40.434-40.434-106.225-40.434-146.659,0c-2.929,2.929-2.929,7.679,0,10.607
	C185.599,43.862,190.348,43.862,193.277,40.932z"/>
<path d="M295.681,71.473c1.919,0,3.839-0.732,5.303-2.197c2.929-2.929,2.929-7.679,0-10.607c-24.805-24.805-65.165-24.805-89.97,0
	c-2.929,2.929-2.929,7.678,0,10.607c2.928,2.929,7.678,2.929,10.607,0c18.956-18.956,49.8-18.956,68.755,0
	C291.842,70.741,293.761,71.473,295.681,71.473z"/>
<path d="M448.404,304.592h-49.969l-10.961-54.805c-2.939-14.696-15.952-25.363-30.939-25.363h-36.917v-17.066h32.584
	c12.977,0,23.534-10.558,23.534-23.535v-32.067c0-12.977-10.558-23.534-23.534-23.534H227.337
	c-5.426-9.563-15.696-16.033-27.456-16.033c-11.759,0-22.029,6.471-27.456,16.033h-12.629c-12.977,0-23.534,10.558-23.534,23.534
	v32.067c0,12.977,10.558,23.535,23.534,23.535h32.584v17.066h-36.917c-14.987,0-28,10.667-30.939,25.363l-10.961,54.805H63.594
	c-8.557,0-15.517,6.961-15.517,15.517v41.671c0,7.33,4.997,13.558,12.151,15.148l3.882,0.862v110.673
	c0,12.977,10.558,23.534,23.534,23.534h80.17c12.977,0,23.534-10.558,23.534-23.534v-40.601h33.43
	c1.653,9.104,9.623,16.034,19.196,16.034h24.05c9.573,0,17.543-6.931,19.196-16.034h33.43v40.601
	c0,12.977,10.558,23.534,23.534,23.534h80.169c12.977,0,23.534-10.558,23.534-23.534V377.791l3.882-0.862
	c7.155-1.59,12.151-7.819,12.151-15.148V320.11C463.922,311.554,456.961,304.592,448.404,304.592z M199.881,127.188
	c9.126,0,16.55,7.425,16.55,16.551s-7.424,16.55-16.55,16.55s-16.55-7.424-16.55-16.55S190.755,127.188,199.881,127.188z
	 M151.263,183.823v-32.067c0-4.704,3.828-8.533,8.533-8.533h8.546c-0.003,0.173-0.013,0.343-0.013,0.517
	c0,17.398,14.153,31.551,31.551,31.551s31.551-14.153,31.551-31.551c0-0.173-0.01-0.344-0.013-0.517H352.2
	c4.705,0,8.533,3.828,8.533,8.533v32.067c0,4.705-3.828,8.534-8.533,8.534H159.796C155.092,192.357,151.263,188.528,151.263,183.823
	z M207.382,207.358h97.235v17.066h-97.235L207.382,207.358L207.382,207.358z M135.481,271.493h74.577l3.56,14.241
	c2.624,10.496,12.012,17.827,22.832,17.827h39.098c10.819,0,20.208-7.331,22.832-17.827l3.56-14.241h26.211
	c4.142,0,7.501-3.358,7.501-7.501s-3.358-7.501-7.501-7.501H138.481l0.752-3.762c1.542-7.709,8.367-13.304,16.229-13.304h201.073
	c7.862,0,14.687,5.596,16.229,13.304l0.752,3.761h-13.3c-4.142,0-7.501,3.358-7.501,7.501s3.358,7.501,7.501,7.501h16.301l6.62,33.1
	h-63.003c-8.557,0-15.517,6.961-15.517,15.517v0.517H207.38v-0.517c0-8.557-6.961-15.517-15.517-15.517h-63.001L135.481,271.493z
	 M225.521,271.493h60.956l-2.65,10.603c-0.952,3.805-4.355,6.463-8.279,6.463H236.45c-3.922,0-7.327-2.658-8.279-6.463
	L225.521,271.493z M432.887,432.863h-97.235v-17.066h97.235V432.863z M287.22,400.795c-1.653-9.104-9.623-16.034-19.196-16.034
	h-24.051c-9.573,0-17.543,6.931-19.196,16.034h-21.523c2.634-2.846,4.126-6.561,4.126-10.51v-54.657h97.235v54.657
	c0,3.95,1.492,7.665,4.126,10.51H287.22z M63.077,361.78V320.11c0-0.284,0.231-0.516,0.516-0.516h128.27
	c0.285,0,0.516,0.232,0.516,0.516v70.175c0,0.074,0,0.248-0.193,0.403c-0.193,0.155-0.363,0.117-0.435,0.101L63.482,362.284
	C63.244,362.231,63.077,362.024,63.077,361.78z M167.626,400.795h-47.911c-4.142,0-7.501,3.357-7.501,7.501
	c0,4.142,3.358,7.501,7.501,7.501h56.632v17.066H79.112v-17.066h8.533c4.142,0,7.501-3.358,7.501-7.501
	c0-4.143-3.358-7.501-7.501-7.501h-8.533v-19.67L167.626,400.795z M167.814,496.998h-80.17c-4.705,0-8.533-3.828-8.533-8.533v-8.533
	h97.235v8.533C176.347,493.17,172.518,496.998,167.814,496.998z M176.347,464.93H79.112v-17.066h97.235V464.93z M191.348,415.797
	h33.1v17.066h-33.1V415.797z M272.549,444.371c0,2.495-2.029,4.524-4.524,4.524h-24.051c-2.495,0-4.524-2.029-4.524-4.524v-40.084
	c0-2.495,2.029-4.524,4.524-4.524h24.051c2.495,0,4.524,2.029,4.524,4.524V444.371z M287.55,432.863v-17.066h33.1v17.066H287.55z
	 M432.887,447.865v17.066h-97.235v-17.066H432.887z M424.354,496.998h-80.169c-4.705,0-8.533-3.828-8.533-8.533v-8.533h97.235v8.533
	C432.887,493.17,429.059,496.998,424.354,496.998z M432.887,400.795h-88.515l88.515-19.67V400.795z M448.92,361.78
	c0,0.244-0.167,0.451-0.404,0.504l-128.27,28.505c-0.071,0.016-0.241,0.054-0.435-0.101c-0.193-0.155-0.193-0.329-0.193-0.403
	V320.11c0-0.284,0.231-0.516,0.516-0.516h128.27c0.285,0,0.516,0.232,0.516,0.516V361.78z"/>
<path d="M247.982,175.29h16.033c4.142,0,7.501-3.357,7.501-7.501c0-4.142-3.358-7.501-7.501-7.501h-16.033
	c-4.142,0-7.501,3.358-7.501,7.501C240.482,171.932,243.84,175.29,247.982,175.29z"/>
<path d="M296.083,175.29h40.085c4.142,0,7.501-3.357,7.501-7.501c0-4.142-3.358-7.501-7.501-7.501h-40.085
	c-4.142,0-7.501,3.358-7.501,7.501C288.582,171.932,291.941,175.29,296.083,175.29z"/>
<g>
</g>
<g>
</g>
<g>
</g>
<g>
</g>
<g>
</g>
<g>
</g>
<g>
</g>
<g>
</g>
<g>
</g>
<g>
</g>
<g>
</g>
<g>
</g>
<g>
</g>
<g>
</g>
<g>
</g>
</svg>
