<?xml version="1.0" encoding="iso-8859-1"?>
<!-- Generator: Adobe Illustrator 19.0.0, SVG Export Plug-In . SVG Version: 6.00 Build 0)  -->
<svg version="1.1" id="Capa_1" xmlns="http://www.w3.org/2000/svg" xmlns:xlink="http://www.w3.org/1999/xlink" x="0px" y="0px"
	 viewBox="0 0 512.001 512.001" style="enable-background:new 0 0 512.001 512.001;" xml:space="preserve">
<path style="fill:#EDEBED;" d="M440.368,191.873c0-105.723-88.987-190.662-196.147-184.003
	C150.834,13.675,75.512,90.832,71.78,184.324c-2.89,72.401,35.998,135.98,94.505,168.627c20.548,11.466,33.601,32.809,33.601,56.339
	v39.098c0,13.282,10.767,24.048,24.048,24.048h64.128c13.282,0,24.048-10.767,24.048-24.048v-39.087
	c0-23.599,13.167-44.921,33.763-56.441C402.25,321.328,440.368,261.061,440.368,191.873z"/>
<path style="fill:#DBD9DC;" d="M280.047,449.125c-13.282,0-24.048-10.767-24.048-24.048v-47.115
	c0-23.53-13.053-44.873-33.601-56.339c-58.508-32.647-97.395-96.225-94.505-168.627c2.167-54.302,28.583-102.974,68.563-135.475
	C126.35,41.728,74.849,107.457,71.78,184.324c-2.89,72.401,35.998,135.98,94.505,168.627c20.548,11.466,33.601,32.809,33.601,56.339
	v39.099c0,13.281,10.767,24.048,24.048,24.048h64.128c13.029,0,23.576-10.379,23.974-23.311H280.047z"/>
<path style="fill:#867E88;" d="M223.935,465.157l5.402,26.512c1.521,7.467,8.089,12.831,15.709,12.831h21.906
	c7.62,0,14.188-5.364,15.709-12.831l5.402-26.512H223.935z"/>
<path style="fill:#CCF3FF;" d="M244.221,7.871C150.833,13.675,75.512,90.832,71.78,184.324
	c-1.534,38.436,8.794,74.324,27.492,104.48h313.497c17.461-28.168,27.6-61.35,27.6-96.93C440.368,86.15,351.381,1.211,244.221,7.871
	z"/>
<g>
	<path style="fill:#4BD7C8;" d="M143.002,120.224c-3.492,0.402-6.347,3.257-6.749,6.749c-2.802,24.366,6.311,51.336,26.798,71.822
		s47.457,29.6,71.822,26.798c3.492-0.402,6.347-3.257,6.749-6.749c2.802-24.366-6.311-51.336-26.798-71.822
		S167.367,117.422,143.002,120.224z"/>
	<path style="fill:#4BD7C8;" d="M375.745,126.973c-0.402-3.492-3.257-6.347-6.749-6.749c-24.366-2.802-51.336,6.311-71.822,26.798
		c-20.486,20.486-29.6,47.457-26.798,71.822c0.402,3.492,3.257,6.347,6.749,6.749c24.366,2.802,51.336-6.311,71.822-26.798
		C369.434,178.308,378.547,151.339,375.745,126.973z"/>
</g>
<path style="fill:#99E7FF;" d="M127.893,152.997c2.167-54.302,28.583-102.974,68.563-135.475
	C126.35,41.728,74.849,107.457,71.78,184.324c-1.534,38.436,8.794,74.324,27.492,104.48h80.542
	C146.008,253.953,125.783,205.858,127.893,152.997z"/>
<path style="fill:#B7B2B8;" d="M199.869,409.045c0,0.083,0.017,0.162,0.017,0.245v39.099c0,13.281,10.767,24.048,24.048,24.048
	h64.128c13.282,0,24.048-10.767,24.048-24.048v-39.087c0-0.087,0.017-0.169,0.018-0.256L199.869,409.045L199.869,409.045z"/>
<path style="fill:#AEA8AF;" d="M199.886,448.387c0,13.281,10.767,24.048,24.048,24.048h64.128c13.282,0,24.048-10.767,24.048-24.048
	v-7.279h-56.113v-32.065h-56.13c0,0.083,0.017,0.162,0.017,0.245v39.099H199.886z"/>
<path d="M431.581,114.397c-10.438-23.623-25.313-44.606-44.21-62.365C348.386,15.395,297.379-2.946,243.755,0.386
	C196.74,3.308,152.44,23.76,119.015,57.973c-33.413,34.202-52.85,78.967-54.729,126.051c-2.904,72.768,34.78,140.006,98.345,175.476
	c18.354,10.242,29.756,29.32,29.756,49.79v39.099c0,15.344,11.013,28.158,25.548,30.969l3.705,14.82
	c2.624,10.494,12.011,17.824,22.83,17.824h23.062c10.818,0,20.206-7.33,22.83-17.824l3.705-14.82
	c14.535-2.811,25.548-15.625,25.548-30.969v-39.087c0-20.452,11.466-39.571,29.924-49.895
	c60.655-33.926,98.333-98.12,98.333-167.533C447.868,164.922,442.388,138.856,431.581,114.397z M267.53,497h-23.062
	c-3.922,0-7.326-2.657-8.278-6.463l-2.65-10.602h44.918l-2.65,10.602C274.855,494.343,271.452,497,267.53,497z M288.062,464.936
	h-64.128c-9.125,0-16.548-7.423-16.548-16.548v-0.516h8.534c4.142,0,7.5-3.358,7.5-7.5s-3.358-7.5-7.5-7.5h-8.534v-17.064h97.225
	v17.064h-56.627c-4.142,0-7.5,3.358-7.5,7.5s3.358,7.5,7.5,7.5h56.627v0.516C304.611,457.513,297.187,464.936,288.062,464.936z
	 M342.213,346.315c-20.633,11.541-34.303,31.917-37.073,54.493h-98.279c-2.753-22.593-16.369-42.938-36.921-54.406
	c-23.093-12.886-42.461-30.334-57.313-50.836h239.564c4.142,0,7.5-3.358,7.5-7.5s-3.358-7.5-7.5-7.5H263.5v-37.49l10.351-10.351
	c3.905,0.566,7.856,0.847,11.828,0.847c24.507,0,49.697-10.596,68.572-29.474c22.99-22.99,33.697-55.338,27.941-84.419
	c-0.59-2.981-2.92-5.312-5.901-5.901c-29.083-5.755-61.431,4.951-84.419,27.941c-21.935,21.934-32.676,52.385-28.619,80.392
	L256,229.365l-7.253-7.253c4.057-28.008-6.684-58.458-28.619-80.392c-22.99-22.991-55.337-33.697-84.419-27.941
	c-2.981,0.59-5.312,2.92-5.901,5.901c-5.755,29.083,4.951,61.431,27.941,84.419c18.878,18.878,44.064,29.474,68.573,29.474
	c3.969,0,7.922-0.281,11.827-0.846l10.351,10.351v37.49H102.886c-16.49-28.467-24.985-61.528-23.612-95.943
	c1.731-43.37,19.655-84.625,50.471-116.168c30.823-31.551,71.643-50.409,114.941-53.1c3.827-0.238,7.637-0.357,11.431-0.357
	c45.23,0,87.826,16.804,120.982,47.963c17.426,16.377,31.141,35.722,40.763,57.498c9.958,22.537,15.008,46.564,15.008,71.414
	c0,31.679-8.526,62.174-23.91,88.692h-24.7c-4.142,0-7.5,3.358-7.5,7.5s3.358,7.5,7.5,7.5h14.965
	C384.372,316.09,365.064,333.534,342.213,346.315z M193.165,166.53c-2.929-2.929-7.678-2.929-10.606,0
	c-2.929,2.929-2.929,7.678,0,10.606l41.402,41.402c-19.835-0.638-40.137-9.576-55.608-25.047
	c-18.14-18.139-27.307-42.92-24.634-65.8c22.882-2.67,47.662,6.494,65.8,24.634c15.472,15.471,24.409,35.774,25.047,55.608
	L193.165,166.53z M329.438,166.53c-2.929-2.929-7.678-2.929-10.606,0l-41.403,41.403c0.638-19.835,9.575-40.137,25.047-55.608
	c18.14-18.139,42.917-27.303,65.8-24.634c2.673,22.881-6.494,47.662-24.634,65.8c-15.472,15.473-35.774,24.409-55.608,25.047
	l41.402-41.402C332.368,174.207,332.368,169.458,329.438,166.53z"/>
<path d="M255.999,312.63c-4.142,0-7.5,3.358-7.5,7.5v16.032c0,4.142,3.358,7.5,7.5,7.5c4.142,0,7.5-3.358,7.5-7.5V320.13
	C263.499,315.988,260.141,312.63,255.999,312.63z"/>
<path d="M222.626,316.776c-1.852-3.705-6.357-5.208-10.062-3.354c-3.705,1.852-5.207,6.357-3.354,10.062l8.016,16.032
	c1.314,2.628,3.962,4.147,6.714,4.147c1.127,0,2.271-0.255,3.348-0.793c3.705-1.852,5.207-6.357,3.354-10.062L222.626,316.776z"/>
<path d="M299.433,313.422c-3.705-1.853-8.21-0.351-10.062,3.354l-8.016,16.032c-1.853,3.705-0.351,8.21,3.354,10.062
	c1.077,0.539,2.221,0.793,3.348,0.793c2.751,0,5.4-1.52,6.714-4.147l8.016-16.032C304.639,319.78,303.138,315.274,299.433,313.422z"
	/>
<g>
</g>
<g>
</g>
<g>
</g>
<g>
</g>
<g>
</g>
<g>
</g>
<g>
</g>
<g>
</g>
<g>
</g>
<g>
</g>
<g>
</g>
<g>
</g>
<g>
</g>
<g>
</g>
<g>
</g>
</svg>
