<?xml version="1.0" encoding="iso-8859-1"?>
<!-- Generator: Adobe Illustrator 19.0.0, SVG Export Plug-In . SVG Version: 6.00 Build 0)  -->
<svg version="1.1" id="Capa_1" xmlns="http://www.w3.org/2000/svg" xmlns:xlink="http://www.w3.org/1999/xlink" x="0px" y="0px"
	 viewBox="0 0 511.998 511.998" style="enable-background:new 0 0 511.998 511.998;" xml:space="preserve">
<path style="fill:#EDEBED;" d="M264.015,191.871h-16.032c-4.427,0-8.016,3.589-8.016,8.016v200.402h32.064V199.887
	C272.031,195.46,268.442,191.871,264.015,191.871z"/>
<rect x="239.97" y="352.192" style="fill:#DBD9DC;" width="32.06" height="48.1"/>
<path style="fill:#CCF4EF;" d="M352.193,424.337H159.806c-8.854,0-16.032-7.178-16.032-16.032v-8.016h224.451v8.016
	C368.225,417.16,361.047,424.337,352.193,424.337z"/>
<circle style="fill:#4BD7C8;" cx="255.999" cy="488.471" r="16.03"/>
<g>
	<circle style="fill:#99E9DF;" cx="135.76" cy="448.381" r="16.03"/>
	<circle style="fill:#99E9DF;" cx="376.239" cy="448.381" r="16.03"/>
</g>
<path style="fill:#DBD9DC;" d="M358.075,174.239l-79.595-45.665l-8.74-12.102v-95.23c0-7.589-6.153-13.742-13.742-13.742
	c-7.589,0-13.742,6.153-13.742,13.742v94.976l-9.275,12.279l-79.06,45.741c-4.408,2.55-6.874,7.166-6.874,11.917
	c0,2.335,0.597,4.697,1.845,6.858c3.795,6.576,12.202,8.823,18.771,5.032l79.651-46.088h16.7l80.319,46.088
	c2.164,1.248,4.526,1.839,6.857,1.839c4.751,0,9.37-2.462,11.914-6.871c1.248-2.161,1.845-4.522,1.845-6.858
	C364.95,181.405,362.484,176.788,358.075,174.239z"/>
<circle style="fill:#EDEBED;" cx="255.999" cy="131.753" r="24.05"/>
<path d="M376.241,424.853c-10.354,0-19.16,6.724-22.3,16.032h-49.845c-4.705,0-8.532-3.828-8.532-8.532V407.79h80.677
	c4.142,0,7.5-3.358,7.5-7.5c0-4.142-3.358-7.5-7.5-7.5h-96.708V199.887c0-8.556-6.961-15.516-15.517-15.516h-0.516V162.39
	c0.918-0.225,1.819-0.491,2.704-0.795l74.384,42.947c3.223,1.859,6.89,2.842,10.605,2.842c7.576,0,14.63-4.07,18.408-10.619
	c1.865-3.229,2.851-6.897,2.851-10.609c0-7.566-4.069-14.621-10.625-18.413l-75.162-43.39c-1.5-6.22-4.842-11.729-9.422-15.908
	V21.242C277.242,9.529,267.713,0,256.001,0c-11.713,0-21.242,9.529-21.242,21.242v87.203c-4.581,4.179-7.922,9.688-9.422,15.908
	l-75.168,43.393c-6.55,3.789-10.619,10.843-10.619,18.409c0,3.711,0.986,7.38,2.849,10.606c2.836,4.915,7.418,8.431,12.9,9.899
	c1.83,0.49,3.687,0.733,5.532,0.733c3.68,0,7.312-0.965,10.584-2.854l74.381-42.945c0.885,0.303,1.786,0.57,2.704,0.795v21.981
	h-0.516c-8.556,0-15.516,6.96-15.516,15.516v8.019c0,4.142,3.358,7.5,7.5,7.5c4.142,0,7.5-3.358,7.5-7.5v-8.019
	c0-0.285,0.231-0.516,0.516-0.516h16.032c0.285,0,0.517,0.231,0.517,0.516v144.806h-17.065V239.971c0-4.142-3.358-7.5-7.5-7.5
	c-4.142,0-7.5,3.358-7.5,7.5v152.818h-96.709c-4.142,0-7.5,3.358-7.5,7.5c0,4.142,3.358,7.5,7.5,7.5h80.677v24.564
	c0,4.705-3.828,8.532-8.532,8.532h-49.845c-3.139-9.308-11.946-16.032-22.3-16.032c-12.976,0-23.533,10.557-23.533,23.532
	c0,12.975,10.557,23.532,23.533,23.532c10.354,0,19.16-6.724,22.3-16.032h49.845c12.976,0,23.532-10.557,23.532-23.532v-24.564
	H248.5v58.378c-9.308,3.139-16.032,11.946-16.032,22.3c0,12.976,10.557,23.532,23.532,23.532s23.532-10.557,23.532-23.532
	c0-10.353-6.724-19.16-16.032-22.3v-58.378h17.064v24.564c0,12.976,10.557,23.532,23.532,23.532h49.845
	c3.139,9.308,11.946,16.032,22.3,16.032c12.976,0,23.533-10.557,23.533-23.532C399.773,435.409,389.217,424.853,376.241,424.853z
	 M272.547,131.75c0,9.125-7.423,16.548-16.548,16.548s-16.548-7.423-16.548-16.548c0-9.125,7.423-16.548,16.548-16.548
	S272.547,122.625,272.547,131.75z M357.45,186.156c0,1.097-0.283,2.142-0.842,3.11c-1.109,1.923-3.185,3.118-5.417,3.118
	c-1.103,0-2.149-0.281-3.107-0.833l-68.112-39.326c2.702-3.159,4.793-6.851,6.086-10.901l68.262,39.407
	C356.25,181.847,357.45,183.926,357.45,186.156z M249.758,21.243c0-3.442,2.8-6.242,6.242-6.242c3.442,0,6.242,2.8,6.242,6.242
	v79.583c-2.019-0.407-4.105-0.623-6.242-0.623s-4.223,0.216-6.242,0.623V21.243z M163.916,191.55
	c-1.443,0.833-3.124,1.055-4.736,0.622c-1.611-0.431-2.957-1.464-3.791-2.91c-0.557-0.964-0.84-2.009-0.84-3.106
	c0-2.229,1.199-4.309,3.124-5.422l68.268-39.41c1.293,4.049,3.385,7.742,6.086,10.901L163.916,191.55z M135.758,456.917
	c-4.705,0-8.533-3.828-8.533-8.532s3.828-8.532,8.533-8.532s8.532,3.828,8.532,8.532S140.463,456.917,135.758,456.917z
	 M255.999,496.998c-4.705,0-8.532-3.827-8.532-8.532c0-4.705,3.828-8.532,8.532-8.532c4.704,0,8.532,3.827,8.532,8.532
	C264.531,493.171,260.704,496.998,255.999,496.998z M247.468,359.692h17.065v33.097h-17.065V359.692z M376.241,456.917
	c-4.705,0-8.532-3.828-8.532-8.532s3.828-8.532,8.532-8.532c4.705,0,8.533,3.828,8.533,8.532S380.946,456.917,376.241,456.917z"/>
<g>
</g>
<g>
</g>
<g>
</g>
<g>
</g>
<g>
</g>
<g>
</g>
<g>
</g>
<g>
</g>
<g>
</g>
<g>
</g>
<g>
</g>
<g>
</g>
<g>
</g>
<g>
</g>
<g>
</g>
</svg>
