<?xml version="1.0" encoding="iso-8859-1"?>
<!-- Generator: Adobe Illustrator 19.0.0, SVG Export Plug-In . SVG Version: 6.00 Build 0)  -->
<svg version="1.1" id="Capa_1" xmlns="http://www.w3.org/2000/svg" xmlns:xlink="http://www.w3.org/1999/xlink" x="0px" y="0px"
	 viewBox="0 0 511.984 511.984" style="enable-background:new 0 0 511.984 511.984;" xml:space="preserve">
<path style="fill:#CCF4EF;" d="M360.202,336.145h-208.42c-13.282,0-24.048-10.767-24.048-24.048v-8.016H384.25v8.016
	C384.25,325.378,373.483,336.145,360.202,336.145z"/>
<path style="fill:#99E9DF;" d="M255.996,7.484c-3.625,0-7.331,0.343-11.086,1.062c-21.904,4.189-39.562,21.794-43.9,43.669
	c-1.77,8.926-1.399,17.555,0.676,25.497c2.894,11.08,2.051,23.035-4.575,32.375c-8.352,11.771-13.263,26.155-13.263,41.688
	c0,39.845,32.301,72.146,72.144,72.145c39.846,0.001,72.147-32.3,72.147-72.145c0-15.533-4.911-29.916-13.263-41.688
	c-6.627-9.339-7.47-21.295-4.575-32.375c2.075-7.942,2.446-16.571,0.676-25.497c-4.338-21.875-21.995-39.48-43.9-43.669
	C263.319,7.827,259.614,7.484,255.996,7.484z"/>
<path style="fill:#4BD7C8;" d="M296.071,207.887c-39.842,0-72.144-32.3-72.144-72.145c0-15.533,4.911-29.917,13.263-41.688
	c6.627-9.339,7.47-21.295,4.576-32.375c-2.075-7.942-2.446-16.571-0.676-25.497c2.189-11.04,7.785-20.977,15.593-28.666
	c-0.228-0.002-0.461-0.033-0.688-0.033c-3.625,0-7.331,0.343-11.086,1.061c-21.904,4.19-39.562,21.794-43.9,43.669
	c-1.77,8.926-1.399,17.555,0.676,25.497c2.894,11.079,2.051,23.036-4.576,32.375c-8.352,11.771-13.263,26.155-13.263,41.688
	c0,39.845,32.301,72.146,72.144,72.145c17.337,0,33.238-6.125,45.679-16.315C299.816,207.747,297.961,207.887,296.071,207.887z"/>
<g>
	<circle style="fill:#99E9DF;" cx="143.762" cy="392.254" r="16.03"/>
	<circle style="fill:#99E9DF;" cx="368.222" cy="392.254" r="16.03"/>
</g>
<circle style="fill:#4BD7C8;" cx="255.992" cy="488.454" r="16.03"/>
<path d="M392.266,296.581H263.492v-65.517c18.441-1.712,35.557-9.712,48.817-22.972c15.043-15.043,23.328-35.044,23.328-56.318
	c0-16.608-5.064-32.524-14.646-46.028c-6.527-9.199-4.954-20.326-3.436-26.139c2.451-9.381,2.712-19.089,0.776-28.852
	c-4.937-24.895-24.969-44.818-49.848-49.577c-19.013-3.636-38.331,1.238-53.005,13.373c-14.68,12.138-23.1,30.015-23.1,49.045
	c0,5.748,0.775,11.451,2.304,16.952c2.53,9.108,1.146,18.348-3.798,25.351c-8.959,12.69-13.971,27.616-14.492,43.162
	c-1.028,30.652,16.3,59.628,44.145,73.821c3.689,1.881,8.207,0.414,10.088-3.276s0.414-8.207-3.276-10.088
	c-22.681-11.561-36.798-35.094-35.965-59.954c0.423-12.613,4.488-24.721,11.755-35.014c7.552-10.697,9.737-24.554,5.997-38.018
	c-1.165-4.194-1.756-8.546-1.756-12.937c0-14.543,6.436-28.207,17.658-37.485c11.217-9.275,26.024-12.994,40.628-10.199
	c18.939,3.622,34.191,18.797,37.952,37.762c1.492,7.521,1.298,14.971-0.575,22.143c-3.762,14.402-1.732,28.114,5.715,38.61
	c7.772,10.953,11.88,23.868,11.88,37.348c0,17.268-6.725,33.501-18.935,45.711c-10.423,10.423-23.782,16.831-38.21,18.489v-53.077
	l21.852-21.852c2.929-2.929,2.929-7.678,0-10.606c-2.929-2.929-7.678-2.929-10.606,0l-11.247,11.245V119.71
	c0-4.142-3.358-7.5-7.5-7.5s-7.5,3.358-7.5,7.5v54.039l-19.261-19.261c-2.929-2.929-7.678-2.929-10.606,0
	c-2.929,2.929-2.929,7.678,0,10.606l29.868,29.868v28.929c0,0.01-0.001,0.019-0.001,0.029c0,0.01,0.001,0.019,0.001,0.029v72.632
	H119.718c-4.142,0-7.5,3.358-7.5,7.5s3.358,7.5,7.5,7.5h96.71v37.49l-35.687,35.688h-14.675c-3.139-9.308-11.946-16.033-22.3-16.033
	c-12.976,0-23.533,10.557-23.533,23.533s10.557,23.532,23.533,23.532c10.354,0,19.16-6.724,22.3-16.032h17.781
	c1.989,0,3.897-0.79,5.303-2.197l40.081-40.081c1.407-1.406,2.197-3.314,2.197-5.303v-40.597h17.064v154.572
	c-9.308,3.139-16.032,11.946-16.032,22.3c0,12.974,10.556,23.531,23.532,23.531c12.976,0,23.532-10.557,23.532-23.532
	c0-10.353-6.724-19.16-16.032-22.3V311.581h17.064v40.597c0,1.989,0.79,3.897,2.197,5.303l40.081,40.081
	c1.406,1.407,3.314,2.197,5.303,2.197h17.781c3.139,9.308,11.946,16.032,22.3,16.032c12.976,0,23.533-10.557,23.533-23.532
	c0-12.976-10.557-23.533-23.533-23.533c-10.354,0-19.16,6.724-22.3,16.033h-14.675l-35.687-35.688v-37.49h96.71
	c4.142,0,7.5-3.358,7.5-7.5S396.409,296.581,392.266,296.581z M143.766,400.791c-4.705,0-8.533-3.828-8.533-8.532
	c0-4.705,3.828-8.533,8.533-8.533c4.705,0,8.532,3.828,8.532,8.533C152.299,396.963,148.471,400.791,143.766,400.791z
	 M255.992,496.984c-4.705,0-8.532-3.827-8.532-8.532s3.828-8.532,8.532-8.532c4.704,0,8.532,3.827,8.532,8.532
	S260.697,496.984,255.992,496.984z M368.218,383.726c4.705,0,8.533,3.828,8.533,8.533s-3.828,8.532-8.533,8.532
	s-8.532-3.828-8.532-8.532C359.685,387.553,363.513,383.726,368.218,383.726z"/>
<g>
</g>
<g>
</g>
<g>
</g>
<g>
</g>
<g>
</g>
<g>
</g>
<g>
</g>
<g>
</g>
<g>
</g>
<g>
</g>
<g>
</g>
<g>
</g>
<g>
</g>
<g>
</g>
<g>
</g>
</svg>
