<?xml version="1.0" encoding="iso-8859-1"?>
<!-- Generator: Adobe Illustrator 19.0.0, SVG Export Plug-In . SVG Version: 6.00 Build 0)  -->
<svg version="1.1" id="Capa_1" xmlns="http://www.w3.org/2000/svg" xmlns:xlink="http://www.w3.org/1999/xlink" x="0px" y="0px"
	 viewBox="0 0 512 512" style="enable-background:new 0 0 512 512;" xml:space="preserve">
<path style="fill:#AEA8AF;" d="M281.567,157.863c-0.892-3.569-4.099-6.072-7.777-6.072h-35.58c-3.678,0-6.884,2.503-7.777,6.072
	l-6.498,25.993h64.129L281.567,157.863z"/>
<path style="fill:#DBD9DC;" d="M311.179,259.347l-13.81-69.047c-0.75-3.747-4.039-6.444-7.861-6.444h-67.016
	c-3.821,0-7.111,2.697-7.861,6.444l-13.811,69.047c-0.621,3.106-0.934,6.266-0.934,9.434v83.414c0,4.427,3.589,8.016,8.016,8.016
	h96.194c4.427,0,8.016-3.589,8.016-8.016V268.78C312.113,265.612,311.8,262.453,311.179,259.347z"/>
<path style="fill:#C9C6CA;" d="M239.968,352.195v-83.414c0-3.168,0.313-6.328,0.934-9.434l13.811-69.047
	c0.75-3.747,4.039-6.444,7.861-6.444h-40.081c-3.821,0-7.111,2.697-7.861,6.444l-13.811,69.047
	c-0.621,3.106-0.934,6.266-0.934,9.434v83.414c0,4.427,3.589,8.016,8.016,8.016h40.081
	C243.557,360.211,239.968,356.621,239.968,352.195z"/>
<path style="fill:#EDEBED;" d="M289.509,183.855h-67.016c-3.821,0-7.111,2.697-7.861,6.444l-13.811,69.047
	c-0.309,1.545-0.541,3.104-0.697,4.671h111.751c-0.156-1.566-0.388-3.125-0.697-4.67l-13.81-69.047
	C296.62,186.553,293.33,183.855,289.509,183.855z"/>
<path style="fill:#DBD9DC;" d="M240.206,264.017c0.156-1.567,0.387-3.125,0.697-4.671l13.811-69.047
	c0.75-3.747,4.039-6.444,7.861-6.444h-40.081c-3.821,0-7.111,2.697-7.861,6.444l-13.811,69.047
	c-0.309,1.545-0.541,3.104-0.697,4.671H240.206z"/>
<rect x="7.5" y="272.031" style="fill:#59D8FF;" width="160.32" height="64.13"/>
<path style="fill:#99E7FF;" d="M256,231.953c-8.854,0-16.032,7.178-16.032,16.032v16.032h32.065v-16.032
	C272.032,239.13,264.854,231.953,256,231.953z"/>
<rect x="344.18" y="272.031" style="fill:#59D8FF;" width="160.32" height="64.13"/>
<path style="fill:#9C969E;" d="M262.259,151.79H238.21c-3.678,0-6.884,2.503-7.777,6.072l-6.498,25.993h24.048l6.498-25.993
	C255.374,154.294,258.58,151.79,262.259,151.79z"/>
<path d="M504.5,264.533H344.177c-4.142,0-7.5,3.358-7.5,7.5v24.564h-17.064v-27.818c0-3.653-0.363-7.321-1.08-10.903l-13.81-69.048
	c-1.134-5.668-5.319-10.104-10.625-11.76l-5.256-21.024c-1.73-6.92-7.92-11.753-15.053-11.753H238.21
	c-7.133,0-13.323,4.833-15.053,11.753l-5.256,21.025c-5.305,1.657-9.49,6.092-10.623,11.759l-13.812,69.047
	c-0.716,3.583-1.08,7.251-1.08,10.904v27.817h-17.064v-24.564c0-4.142-3.358-7.5-7.5-7.5H7.5c-4.142,0-7.5,3.358-7.5,7.5v64.129
	c0,4.142,3.358,7.5,7.5,7.5h160.323c4.142,0,7.5-3.358,7.5-7.5v-24.564h17.064v40.597c0,8.556,6.96,15.516,15.516,15.516h96.193
	c8.556,0,15.516-6.96,15.516-15.516v-8.017c0-4.142-3.358-7.5-7.5-7.5s-7.5,3.358-7.5,7.5v8.017c0,0.285-0.231,0.516-0.516,0.516
	h-96.193c-0.285,0-0.516-0.231-0.516-0.516v-80.677h9.048v0.516c0,4.142,3.358,7.5,7.5,7.5s7.5-3.358,7.5-7.5v-0.516h49.129v0.516
	c0,4.142,3.358,7.5,7.5,7.5s7.5-3.358,7.5-7.5v-0.516h9.048v40.596c0,4.142,3.358,7.5,7.5,7.5s7.5-3.358,7.5-7.5v-0.516h17.064
	v24.564c0,4.142,3.358,7.5,7.5,7.5H504.5c4.142,0,7.5-3.358,7.5-7.5v-64.129C512,267.891,508.642,264.533,504.5,264.533z
	 M95.161,279.533h25.081v49.129H95.161V279.533z M80.161,328.662h-25.08v-49.129h25.081L80.161,328.662L80.161,328.662z M15,279.533
	h25.081v49.129H15V279.533z M160.323,328.662h-25.081v-49.129h25.081V328.662z M238.21,159.292h35.579
	c0.237,0,0.443,0.161,0.501,0.391l4.168,16.674H233.54l4.168-16.674C237.767,159.452,237.973,159.292,238.21,159.292z
	 M221.987,191.771c0.048-0.241,0.261-0.415,0.506-0.415h65.542c0.008,0,0.015,0.002,0.023,0.002c0.011,0,0.021-0.002,0.032-0.002
	h1.418c0.245,0,0.458,0.174,0.506,0.415l12.949,64.747h-23.432v-8.532c0-12.976-10.557-23.532-23.532-23.532
	s-23.532,10.557-23.532,23.532v8.532h-23.432L221.987,191.771z M264.532,256.517h-17.064v-8.532c0-4.705,3.828-8.532,8.532-8.532
	s8.532,3.828,8.532,8.532L264.532,256.517L264.532,256.517z M431.839,279.533h25.081v49.129h-25.081V279.533z M416.839,328.662
	h-25.081v-49.129h25.081V328.662z M351.677,279.533h25.081v49.129h-25.081V279.533z M497,328.662h-25.081v-49.129H497V328.662z"/>
<g>
</g>
<g>
</g>
<g>
</g>
<g>
</g>
<g>
</g>
<g>
</g>
<g>
</g>
<g>
</g>
<g>
</g>
<g>
</g>
<g>
</g>
<g>
</g>
<g>
</g>
<g>
</g>
<g>
</g>
</svg>
