<?xml version="1.0" encoding="iso-8859-1"?>
<!-- Generator: Adobe Illustrator 19.0.0, SVG Export Plug-In . SVG Version: 6.00 Build 0)  -->
<svg version="1.1" id="Capa_1" xmlns="http://www.w3.org/2000/svg" xmlns:xlink="http://www.w3.org/1999/xlink" x="0px" y="0px"
	 viewBox="0 0 512.001 512.001" style="enable-background:new 0 0 512.001 512.001;" xml:space="preserve">
<polygon style="fill:#867E88;" points="280.048,464.419 231.952,464.419 223.935,504.5 288.065,504.5 "/>
<path style="fill:#C9C6CA;" d="M309.504,191.918l-21.439-16.079h-64.129l-21.439,16.079c-6.803,5.102-11.301,12.698-12.504,21.117
	l-14.154,99.078h160.323l-14.154-99.078C320.805,204.617,316.307,197.021,309.504,191.918z"/>
<path style="fill:#DBD9DC;" d="M280.048,272.032h-48.097L13.556,396.83c-3.472,1.984-4.951,6.224-3.466,9.937l9.411,23.526
	c2.435,6.087,8.33,10.078,14.885,10.078h181.533h80.161h181.533c6.556,0,12.451-3.991,14.885-10.078l9.411-23.526
	c1.485-3.713,0.007-7.953-3.466-9.937L280.048,272.032z"/>
<polygon style="fill:#C9C6CA;" points="191.871,440.371 215.919,440.371 231.952,440.371 231.952,272.032 191.871,294.935 "/>
<path style="fill:#EDEBED;" d="M294.675,241.535L280.987,22.532c-0.528-8.45-7.535-15.032-16.001-15.032h-17.974
	c-8.466,0-15.473,6.583-16.001,15.032l-13.688,219.003c-0.936,14.983-1.405,29.991-1.405,45.003v169.865
	c0,8.854,7.178,16.032,16.032,16.032h48.097c8.854,0,16.032-7.178,16.032-16.032V286.538
	C296.081,271.526,295.612,256.518,294.675,241.535z"/>
<path style="fill:#DBD9DC;" d="M239.968,456.403V286.538c0-15.012,0.469-30.02,1.405-45.003l13.688-219.003
	c0.463-7.414,5.916-13.384,12.964-14.739c-0.985-0.189-1.999-0.294-3.037-0.294h-17.974c-8.466,0-15.473,6.583-16.001,15.032
	l-13.688,219.003c-0.936,14.983-1.405,29.991-1.405,45.003v169.865c0,8.854,7.178,16.032,16.032,16.032H256
	C247.146,472.435,239.968,465.257,239.968,456.403z"/>
<path style="fill:#99E7FF;" d="M256,231.952L256,231.952c-8.854,0-16.032,7.178-16.032,16.032v24.048h32.065v-24.048
	C272.032,239.13,264.854,231.952,256,231.952z"/>
<path style="fill:#C9C6CA;" d="M247.013,7.5c-8.466,0-15.473,6.583-16.001,15.032l-1.065,17.032h52.105l-1.065-17.032
	c-0.528-8.45-7.535-15.032-16.001-15.032H247.013z"/>
<path style="fill:#B7B2B8;" d="M247.013,7.5c-8.466,0-15.473,6.583-16.001,15.032l-1.065,17.032h24.048l1.065-17.032
	c0.463-7.414,5.916-13.384,12.964-14.739c-0.985-0.189-1.999-0.294-3.037-0.294h-17.974V7.5z"/>
<path style="fill:#C9C6CA;" d="M215.919,424.339v32.065c0,8.854,7.178,16.032,16.032,16.032h48.097
	c8.854,0,16.032-7.178,16.032-16.032v-32.065H215.919z"/>
<path style="fill:#B7B2B8;" d="M239.968,456.403v-32.065H215.92v32.065c0,8.854,7.178,16.032,16.032,16.032H256
	C247.146,472.435,239.968,465.257,239.968,456.403z"/>
<path d="M508.248,393.794l-167.59-96.687l-11.255-84.413c-1.442-10.82-7.368-20.658-16.259-26.993l-15.116-10.771l-9.554-152.866
	C287.7,9.692,277.384,0,264.987,0h-17.974c-12.397,0-22.713,9.692-23.486,22.064l-9.554,152.866l-15.116,10.771
	c-8.891,6.334-14.816,16.173-16.259,26.993l-11.255,84.413L3.753,393.794c-3.23,1.864-4.601,5.819-3.215,9.282l12,30.002
	c3.594,8.986,12.171,14.793,21.85,14.793h45.774v0.516c0,4.142,3.358,7.5,7.5,7.5s7.5-3.358,7.5-7.5v-0.516h41.113v0.516
	c0,4.142,3.358,7.5,7.5,7.5s7.5-3.358,7.5-7.5v-0.516h57.145v8.532c0,9.735,5.942,18.108,14.389,21.683l-6.149,24.595
	c-0.561,2.24-0.057,4.614,1.364,6.435s3.602,2.884,5.912,2.884h64.129c2.31,0,4.49-1.064,5.912-2.884s1.925-4.194,1.364-6.435
	l-6.149-24.595c8.447-3.576,14.389-11.948,14.389-21.683v-8.532h57.145v0.516c0,4.142,3.358,7.5,7.5,7.5s7.5-3.358,7.5-7.5v-0.516
	h41.113v0.516c0,4.142,3.358,7.5,7.5,7.5s7.5-3.358,7.5-7.5v-0.516h45.774c9.679,0,18.255-5.807,21.849-14.792l12.001-30.002
	C512.849,399.613,511.479,395.658,508.248,393.794z M304.44,197.917c5.52,3.933,9.199,10.042,10.095,16.759l9.73,72.973
	l-20.769-11.982c-0.173-11.542-0.617-23.138-1.334-34.6l-2.929-46.86L304.44,197.917z M247.013,15h17.974
	c4.495,0,8.235,3.514,8.516,8l0.567,9.064h-36.138L238.499,23C238.778,18.514,242.518,15,247.013,15z M288.581,456.403
	c0,4.705-3.828,8.532-8.532,8.532h-48.097c-4.705,0-8.532-3.828-8.532-8.532v-24.564h65.161V456.403z M197.465,214.677
	c0.896-6.718,4.575-12.826,10.095-16.759l5.208-3.711l-2.929,46.86c-0.717,11.462-1.161,23.057-1.334,34.6l-20.769,11.982
	L197.465,214.677z M151.274,432.871v-48.613c0-4.142-3.358-7.5-7.5-7.5s-7.5,3.358-7.5,7.5v48.613H95.161v-24.564
	c0-4.142-3.358-7.5-7.5-7.5s-7.5,3.358-7.5,7.5v24.564H34.387c-3.509,0-6.619-2.105-7.922-5.364l-9.587-23.968L208.42,293.034
	v139.837H151.274z M233.542,497l4.266-17.064h36.385L278.458,497H233.542z M485.535,427.508c-1.303,3.258-4.413,5.363-7.922,5.363
	h-45.774v-24.564c0-4.142-3.358-7.5-7.5-7.5s-7.5,3.358-7.5,7.5v24.564h-41.113v-48.613c0-4.142-3.358-7.5-7.5-7.5
	s-7.5,3.358-7.5,7.5v48.613h-57.145v-96.71c0-4.142-3.358-7.5-7.5-7.5s-7.5,3.358-7.5,7.5v80.678H223.42V286.538
	c0-14.794,0.468-29.778,1.39-44.535l12.184-194.938h38.013l12.184,194.938c0.922,14.757,1.39,29.741,1.39,44.535v17.559
	c0,4.142,3.358,7.5,7.5,7.5s7.5-3.358,7.5-7.5v-11.063l191.542,110.505L485.535,427.508z"/>
<path d="M256,224.452c-12.976,0-23.532,10.557-23.532,23.532v24.048c0,4.142,3.358,7.5,7.5,7.5h32.064c4.142,0,7.5-3.358,7.5-7.5
	v-24.048C279.532,235.008,268.976,224.452,256,224.452z M264.532,264.532h-17.064v-16.548c0-4.705,3.828-8.532,8.532-8.532
	c4.704,0,8.532,3.828,8.532,8.532V264.532z"/>
<g>
</g>
<g>
</g>
<g>
</g>
<g>
</g>
<g>
</g>
<g>
</g>
<g>
</g>
<g>
</g>
<g>
</g>
<g>
</g>
<g>
</g>
<g>
</g>
<g>
</g>
<g>
</g>
<g>
</g>
</svg>
