<?xml version="1.0" encoding="iso-8859-1"?>
<!-- Generator: Adobe Illustrator 19.0.0, SVG Export Plug-In . SVG Version: 6.00 Build 0)  -->
<svg version="1.1" id="Capa_1" xmlns="http://www.w3.org/2000/svg" xmlns:xlink="http://www.w3.org/1999/xlink" x="0px" y="0px"
	 viewBox="0 0 512 512" style="enable-background:new 0 0 512 512;" xml:space="preserve">
<g>
	<path style="fill:#DBD9DC;" d="M199.886,472.435V215.919c0-8.854-7.178-16.032-16.032-16.032l0,0
		c-8.854,0-16.032,7.178-16.032,16.032v256.516H199.886z"/>
	<path style="fill:#DBD9DC;" d="M344.176,472.435V215.919c0-8.854-7.178-16.032-16.032-16.032l0,0
		c-8.854,0-16.032,7.178-16.032,16.032v256.516H344.176z"/>
</g>
<g>
	<path style="fill:#867E88;" d="M199.886,472.435h-32.065l-6.12,24.482c-0.963,3.852,1.95,7.583,5.92,7.583h32.464
		c3.97,0,6.883-3.731,5.921-7.583L199.886,472.435z"/>
	<path style="fill:#867E88;" d="M344.176,472.435h-32.065l-6.12,24.482c-0.963,3.852,1.95,7.583,5.92,7.583h32.464
		c3.97,0,6.883-3.731,5.921-7.583L344.176,472.435z"/>
</g>
<path style="fill:#DBD9DC;" d="M280.047,111.71H231.95v352.71c0,4.427,3.589,8.016,8.016,8.016h32.065
	c4.427,0,8.016-3.589,8.016-8.016V111.71z"/>
<path style="fill:#867E88;" d="M272.031,472.435h-32.065l-6.12,24.482c-0.963,3.852,1.95,7.583,5.92,7.583h32.464
	c3.97,0,6.883-3.731,5.921-7.583L272.031,472.435z"/>
<path style="fill:#C9C6CA;" d="M272.031,143.774h8.016v-24.048H231.95V464.42c0,4.427,3.589,8.016,8.016,8.016h16.033v-312.63
	C255.999,150.952,263.177,143.774,272.031,143.774z"/>
<path style="fill:#EDEBED;" d="M280.047,119.726c4.427,0,8.016-3.589,8.016-8.016V79.028C288.064,39.524,273.708,7.5,255.999,7.5
	s-32.065,32.024-32.065,71.528v32.681c0,4.427,3.589,8.016,8.016,8.016L280.047,119.726L280.047,119.726z"/>
<path style="fill:#DBD9DC;" d="M268.023,12.748C264.308,9.39,260.255,7.5,255.999,7.5c-17.709,0-32.065,32.024-32.065,71.528v32.681
	c0,4.427,3.589,8.016,8.016,8.016h16.032V79.028C247.983,49.017,256.277,23.364,268.023,12.748z"/>
<path d="M359.468,502.681l-7.792-31.168V215.919c0-12.976-10.557-23.532-23.532-23.532s-23.532,10.557-23.532,23.532v8.532h-17.064
	v-56.628c0-4.142-3.358-7.5-7.5-7.5s-7.5,3.358-7.5,7.5v56.628h-33.097v-97.226h33.097v8.534c0,4.142,3.358,7.5,7.5,7.5
	s7.5-3.358,7.5-7.5v-10.476c4.774-2.649,8.016-7.738,8.016-13.574V79.028C295.563,33.975,278.555,0,255.999,0
	s-39.564,33.975-39.564,79.028v32.681c0,5.836,3.242,10.925,8.016,13.574v99.169h-17.064v-8.532
	c0-12.976-10.557-23.532-23.532-23.532s-23.532,10.557-23.532,23.532v160.322c0,4.142,3.358,7.5,7.5,7.5s7.5-3.358,7.5-7.5v-136.79
	h17.064v177.387h-17.064v-8.534c0-4.142-3.358-7.5-7.5-7.5s-7.5,3.358-7.5,7.5v63.208l-7.792,31.168
	c-0.561,2.24-0.057,4.614,1.364,6.435s3.602,2.884,5.912,2.884h48.097c2.31,0,4.49-1.064,5.912-2.884s1.925-4.194,1.364-6.435
	l-7.792-31.168v-39.674h17.064v24.564c0,6.782,2.888,12.9,7.494,17.198l-7.27,29.08c-0.561,2.24-0.057,4.614,1.364,6.435
	s3.602,2.884,5.912,2.884h48.097c2.31,0,4.49-1.064,5.912-2.884s1.925-4.194,1.364-6.435l-7.27-29.08
	c4.606-4.298,7.494-10.416,7.494-17.198v-24.564h17.064v39.674l-7.792,31.168c-0.561,2.24-0.057,4.614,1.364,6.435
	s3.602,2.884,5.912,2.884h48.097c2.31,0,4.49-1.064,5.912-2.884S360.029,504.921,359.468,502.681z M231.435,79.028
	c0-39.67,14.307-64.028,24.564-64.028c10.257,0,24.564,24.358,24.564,64.028v32.681c0,0.285-0.231,0.516-0.516,0.516H231.95
	c-0.285,0-0.516-0.231-0.516-0.516V79.028H231.435z M336.676,416.839h-17.064V239.452h17.064V416.839z M319.612,215.919
	c0-4.705,3.828-8.532,8.532-8.532s8.532,3.828,8.532,8.532v8.532h-17.064L319.612,215.919L319.612,215.919z M272.547,239.452
	v177.387H239.45V239.452H272.547z M175.322,224.452v-8.532c0-4.705,3.828-8.532,8.532-8.532s8.532,3.828,8.532,8.532v8.532H175.322z
	 M169.412,497l4.266-17.064h20.353L198.296,497H169.412z M192.386,464.936h-17.064v-33.097h17.064V464.936z M207.386,416.839
	V239.452h17.064v177.387H207.386z M270.441,497h-28.885l4.291-17.166c0.704,0.064,1.415,0.101,2.135,0.101h16.032
	c0.72,0,1.431-0.038,2.135-0.101L270.441,497z M272.547,456.403c0,4.705-3.828,8.532-8.532,8.532h-16.032
	c-4.705,0-8.532-3.828-8.532-8.532v-24.564h33.097v24.564H272.547z M287.547,416.839V239.452h17.064v177.387H287.547z
	 M336.676,431.839v33.097h-17.064v-33.097H336.676z M313.702,497l4.266-17.064h20.353L342.586,497H313.702z"/>
<g>
</g>
<g>
</g>
<g>
</g>
<g>
</g>
<g>
</g>
<g>
</g>
<g>
</g>
<g>
</g>
<g>
</g>
<g>
</g>
<g>
</g>
<g>
</g>
<g>
</g>
<g>
</g>
<g>
</g>
</svg>
