<?xml version="1.0" encoding="iso-8859-1"?>
<!-- Generator: Adobe Illustrator 19.0.0, SVG Export Plug-In . SVG Version: 6.00 Build 0)  -->
<svg version="1.1" id="Capa_1" xmlns="http://www.w3.org/2000/svg" xmlns:xlink="http://www.w3.org/1999/xlink" x="0px" y="0px"
	 viewBox="0 0 512 512" style="enable-background:new 0 0 512 512;" xml:space="preserve">
<g>
	<rect x="239.97" y="215.92" style="fill:#EDEBED;" width="32.06" height="224.45"/>
	<path style="fill:#EDEBED;" d="M266.155,12.934c-4.831-7.246-15.478-7.246-20.309,0c-14.287,21.43-21.91,46.609-21.91,72.364
		v66.492h64.129V85.298C288.064,59.543,280.441,34.364,266.155,12.934z"/>
</g>
<path style="fill:#DBD9DC;" d="M268.025,15.977c-0.634-1.009-1.208-2.05-1.87-3.043c-4.831-7.246-15.478-7.246-20.309,0
	c-14.287,21.43-21.91,46.609-21.91,72.364v66.492h24.049V85.298C247.984,60.737,254.991,36.739,268.025,15.977z"/>
<path style="fill:#99E7FF;" d="M490.238,174.254L288.064,151.79h-64.131L21.762,174.254C13.643,175.156,7.5,182.019,7.5,190.188
	v41.764h497v-41.763C504.5,182.019,498.358,175.156,490.238,174.254z"/>
<g>
	<polygon style="fill:#DBD9DC;" points="336.162,448.387 256,440.371 175.839,448.387 175.839,472.436 336.162,472.436 	"/>
	<rect x="239.97" y="231.95" style="fill:#DBD9DC;" width="32.06" height="24.05"/>
</g>
<path d="M491.066,166.8l-57.94-6.438c-0.003,0-0.005-0.001-0.008-0.001l-137.554-15.284V85.298c0-27.326-8.012-53.788-23.17-76.524
	C268.732,3.28,262.603,0,256,0s-12.732,3.28-16.395,8.774c-15.158,22.736-23.17,49.198-23.17,76.524v59.779L20.933,166.8
	C9,168.126,0,178.181,0,190.188v57.795c0,4.142,3.358,7.5,7.5,7.5s7.5-3.358,7.5-7.5v-8.532h249.532V432.87h-17.064V264.016
	c0-4.142-3.358-7.5-7.5-7.5s-7.5,3.358-7.5,7.5V433.75l-50.538,6.317c-7.749,0.968-13.591,7.587-13.591,15.396v24.988
	c0,4.142,3.358,7.5,7.5,7.5s7.5-3.358,7.5-7.5v-0.516H248.5V504.5c0,4.142,3.358,7.5,7.5,7.5s7.5-3.358,7.5-7.5v-24.564h24.562
	c4.142,0,7.5-3.358,7.5-7.5s-3.358-7.5-7.5-7.5H263.5v-17.064h8.064l56.646,7.08c0.257,0.032,0.452,0.252,0.452,0.512v9.472h-8.532
	c-4.142,0-7.5,3.358-7.5,7.5s3.358,7.5,7.5,7.5h8.532v0.516c0,4.142,3.358,7.5,7.5,7.5s7.5-3.358,7.5-7.5v-24.988
	c0-7.809-5.843-14.428-13.591-15.396l-50.538-6.317V239.452H497v8.532c0,4.142,3.358,7.5,7.5,7.5s7.5-3.358,7.5-7.5v-57.795
	C512,178.181,503,168.126,491.066,166.8z M494.705,184.371H471.92v-4.606l17.49,1.943
	C491.511,181.942,493.358,182.926,494.705,184.371z M392.791,184.371h-17.064v-15.294l17.064,1.896V184.371z M407.791,172.639
	l17.064,1.896v9.836h-17.064V172.639z M360.726,184.371h-17.064v-18.857l17.064,1.896V184.371z M328.662,184.371h-17.065v-22.42
	l17.065,1.896V184.371z M296.597,184.371h-17.064V159.29h8.117l8.948,0.994v24.087H296.597z M264.532,159.291v25.081h-17.064
	v-25.081H264.532z M280.564,144.291h-49.129V111.71c0-13.545,11.02-24.564,24.564-24.564c13.544,0,24.564,11.02,24.564,24.564
	v32.581H280.564z M224.348,159.291h8.12v25.081h-17.064v-24.087L224.348,159.291z M200.403,184.371h-17.064v-20.524l17.064-1.896
	V184.371z M168.339,184.371h-17.064V167.41l17.064-1.896V184.371z M136.274,184.371H119.21v-13.399l17.064-1.896V184.371z
	 M104.21,184.371H87.146v-9.836l17.064-1.896C104.21,172.639,104.21,184.371,104.21,184.371z M72.146,184.371H55.081v-6.273
	l17.064-1.896L72.146,184.371L72.146,184.371z M72.146,199.371v25.081H55.081v-25.081H72.146z M87.146,199.371h17.064v25.081H87.146
	V199.371z M119.21,199.371h17.064v25.081H119.21V199.371z M151.274,199.371h17.064v25.081h-17.064V199.371z M183.339,199.371h17.064
	v25.081h-17.064V199.371z M215.403,199.371h17.064v25.081h-17.064V199.371z M247.468,199.371h17.064v25.081h-17.064L247.468,199.371
	L247.468,199.371z M279.532,199.371h17.064v25.081h-17.064V199.371z M311.597,199.371h17.065v25.081h-17.065V199.371z
	 M343.662,199.371h17.064v25.081h-17.064V199.371z M375.726,199.371h17.064v25.081h-17.064V199.371z M407.791,199.371h17.064v25.081
	h-17.064V199.371z M439.855,199.371h17.065v25.081h-17.065V199.371z M439.855,184.371v-8.169l17.065,1.896v6.273L439.855,184.371
	L439.855,184.371z M252.086,17.095C253.347,15.204,255.243,15,256,15c0.757,0,2.653,0.204,3.914,2.095
	c12.65,18.975,19.714,40.861,20.563,63.565c-6.74-5.325-15.24-8.515-24.477-8.515s-17.736,3.19-24.477,8.515
	C232.372,57.956,239.436,36.07,252.086,17.095z M22.59,181.708l17.491-1.943v4.607H17.294
	C18.642,182.926,20.488,181.942,22.59,181.708z M15,199.371h25.081v25.081H15V199.371z M248.5,464.936h-65.161v-9.472
	c0-0.26,0.194-0.48,0.452-0.512l56.642-7.08h8.067L248.5,464.936L248.5,464.936z M471.92,224.452v-25.081H497v25.081H471.92z"/>
<g>
</g>
<g>
</g>
<g>
</g>
<g>
</g>
<g>
</g>
<g>
</g>
<g>
</g>
<g>
</g>
<g>
</g>
<g>
</g>
<g>
</g>
<g>
</g>
<g>
</g>
<g>
</g>
<g>
</g>
</svg>
