<?xml version="1.0" encoding="iso-8859-1"?>
<!-- Generator: Adobe Illustrator 19.0.0, SVG Export Plug-In . SVG Version: 6.00 Build 0)  -->
<svg version="1.1" id="Capa_1" xmlns="http://www.w3.org/2000/svg" xmlns:xlink="http://www.w3.org/1999/xlink" x="0px" y="0px"
	 viewBox="0 0 511.999 511.999" style="enable-background:new 0 0 511.999 511.999;" xml:space="preserve">
<path style="fill:#EDEBED;" d="M494.292,369.059L301.676,233.515c-8.534-6.005-13.611-15.788-13.611-26.223v-23.436
	c0-17.709-14.356-32.065-32.065-32.065s-32.065,14.356-32.065,32.065v23.436c0,10.435-5.078,20.217-13.611,26.223L17.709,369.059
	C11.309,373.563,7.5,380.9,7.5,388.726v50.137c0,4.974,4.483,8.748,9.385,7.899l184.395-31.944
	c13.543-2.347,27.075,4.2,33.641,16.274l2.77,5.093c1.403,2.58,4.105,4.186,7.042,4.186h22.534c2.937,0,5.639-1.606,7.042-4.186
	l2.77-5.093c6.567-12.075,20.099-18.621,33.641-16.274l184.395,31.944c4.9,0.849,9.384-2.924,9.384-7.899v-50.137
	C504.5,380.9,500.692,373.563,494.292,369.059z"/>
<g>
	<path style="fill:#DBD9DC;" d="M494.292,369.059L301.676,233.515c-8.534-6.005-13.611-15.788-13.611-26.223v212.129
		c6.584-4.189,14.601-5.999,22.656-4.603l184.395,31.944c4.9,0.849,9.384-2.924,9.384-7.899v-50.137
		C504.5,380.9,500.692,373.563,494.292,369.059z"/>
	<path style="fill:#DBD9DC;" d="M223.935,183.855v23.436v212.129c4.486,2.853,8.324,6.779,10.985,11.671l2.77,5.093
		c1.403,2.58,4.105,4.186,7.042,4.186H256V151.79C238.291,151.79,223.935,166.146,223.935,183.855z"/>
</g>
<path d="M239.36,111.103c-2.929,2.929-2.929,7.678,0,10.606c2.929,2.929,7.678,2.929,10.606,0c1.611-1.611,3.754-2.499,6.033-2.499
	s4.422,0.888,6.033,2.499c1.464,1.464,3.384,2.197,5.303,2.197s3.839-0.732,5.303-2.197c2.929-2.929,2.929-7.678,0-10.606
	C263.465,101.927,248.535,101.927,239.36,111.103z"/>
<path d="M193.284,65.027C210.036,48.275,232.309,39.049,256,39.049s45.964,9.226,62.716,25.978c1.464,1.464,3.384,2.197,5.303,2.197
	s3.839-0.732,5.303-2.197c2.929-2.929,2.929-7.678,0-10.606C309.737,34.835,283.697,24.049,256,24.049s-53.737,10.786-73.322,30.371
	c-2.929,2.929-2.929,7.678,0,10.606C185.606,67.956,190.355,67.956,193.284,65.027z"/>
<path d="M295.678,95.565c1.919,0,3.839-0.732,5.303-2.197c2.929-2.929,2.929-7.678,0-10.606c-24.803-24.803-65.159-24.803-89.962,0
	c-2.929,2.929-2.929,7.678,0,10.606c2.929,2.93,7.678,2.929,10.606,0c18.954-18.953,49.795-18.953,68.749,0
	C291.839,94.833,293.758,95.565,295.678,95.565z"/>
<path d="M498.608,362.925L305.992,227.381c-6.529-4.595-10.428-12.104-10.428-20.089v-23.437c0-21.816-17.749-39.564-39.564-39.564
	s-39.564,17.749-39.564,39.564v23.437c0,7.984-3.898,15.494-10.428,20.089L13.392,362.925C5.006,368.827,0,378.472,0,388.726v50.138
	c0,4.589,2.014,8.916,5.525,11.871c2.823,2.376,6.354,3.646,9.979,3.646c0.884,0,1.774-0.076,2.661-0.229l53.98-9.352v3.587
	c0,4.142,3.358,7.5,7.5,7.5s7.5-3.358,7.5-7.5v-6.186l115.415-19.994c10.378-1.799,20.738,3.211,25.772,12.468l2.771,5.093
	c2.718,4.998,7.941,8.103,13.63,8.103h3.767v17.064h-40.597c-4.142,0-7.5,3.358-7.5,7.5s3.358,7.5,7.5,7.5H248.5v0.516
	c0,4.142,3.358,7.5,7.5,7.5s7.5-3.358,7.5-7.5v-0.516h40.597c4.142,0,7.5-3.358,7.5-7.5s-3.358-7.5-7.5-7.5H263.5v-17.064h3.767
	c5.689,0,10.912-3.105,13.631-8.103l2.77-5.094c5.033-9.255,15.389-14.263,25.772-12.467l73.536,12.739
	c4.081,0.704,7.963-2.029,8.67-6.11c0.708-4.082-2.028-7.963-6.109-8.67L312,407.428c-16.724-2.896-33.402,5.174-41.51,20.081
	l-2.77,5.093c-0.091,0.167-0.265,0.27-0.454,0.27h-22.534c-0.189,0-0.363-0.104-0.453-0.27l-2.77-5.093
	c-8.107-14.908-24.789-22.974-41.51-20.082L87.145,426.979v-97.611l127.495-89.719c10.517-7.401,16.796-19.497,16.796-32.356
	v-23.437c0-13.545,11.02-24.564,24.564-24.564c13.544,0,24.564,11.02,24.564,24.564v23.437c0,12.86,6.279,24.956,16.795,32.356
	l127.495,89.719v97.611l-7.249-1.256c-4.08-0.706-7.963,2.029-8.67,6.11c-0.707,4.082,2.028,7.963,6.11,8.67l9.809,1.699v6.186
	c0,4.142,3.358,7.5,7.5,7.5s7.5-3.358,7.5-7.5v-3.587l53.98,9.351c4.523,0.784,9.129-0.462,12.64-3.417
	c3.511-2.955,5.525-7.282,5.525-11.871v-50.138C512,378.472,506.994,368.827,498.608,362.925z M72.145,429.577l-56.541,9.795
	c-0.065,0.011-0.236,0.041-0.42-0.114C15,439.104,15,438.929,15,438.864v-50.138c0-5.379,2.626-10.438,7.025-13.533l50.12-35.27
	V429.577z M497,438.864c0,0.065,0,0.24-0.184,0.395c-0.184,0.154-0.356,0.125-0.42,0.113l-56.541-9.795v-89.654l50.12,35.27
	c4.399,3.095,7.025,8.154,7.025,13.533L497,438.864L497,438.864z"/>
<path d="M216.436,264.017v120.242c0,4.142,3.358,7.5,7.5,7.5s7.5-3.358,7.5-7.5V264.017c0-4.142-3.358-7.5-7.5-7.5
	S216.436,259.875,216.436,264.017z"/>
<path d="M280.564,264.017v120.242c0,4.142,3.358,7.5,7.5,7.5s7.5-3.358,7.5-7.5V264.017c0-4.142-3.358-7.5-7.5-7.5
	S280.564,259.875,280.564,264.017z"/>
<path d="M244.492,183.855c0,6.345,5.163,11.508,11.508,11.508s11.508-5.163,11.508-11.508c0-6.346-5.163-11.508-11.508-11.508
	S244.492,177.51,244.492,183.855z"/>
<g>
</g>
<g>
</g>
<g>
</g>
<g>
</g>
<g>
</g>
<g>
</g>
<g>
</g>
<g>
</g>
<g>
</g>
<g>
</g>
<g>
</g>
<g>
</g>
<g>
</g>
<g>
</g>
<g>
</g>
</svg>
