<?xml version="1.0" encoding="iso-8859-1"?>
<!-- Generator: Adobe Illustrator 19.0.0, SVG Export Plug-In . SVG Version: 6.00 Build 0)  -->
<svg version="1.1" id="Capa_1" xmlns="http://www.w3.org/2000/svg" xmlns:xlink="http://www.w3.org/1999/xlink" x="0px" y="0px"
	 viewBox="0 0 511.999 511.999" style="enable-background:new 0 0 511.999 511.999;" xml:space="preserve">
<rect x="392.27" y="191.87" style="fill:#9C969E;" width="32.06" height="120.24"/>
<g>
	<rect x="392.27" y="191.87" style="fill:#867E88;" width="32.06" height="32.06"/>
	<path style="fill:#867E88;" d="M328.145,504.5h40.081c8.854,0,16.032-7.178,16.032-16.032v-40.081h-72.145v40.081
		C312.113,497.322,319.291,504.5,328.145,504.5z"/>
	<path style="fill:#867E88;" d="M183.855,504.5h-40.081c-8.854,0-16.032-7.178-16.032-16.032v-40.081h72.145v40.081
		C199.887,497.322,192.709,504.5,183.855,504.5z"/>
</g>
<rect x="231.95" y="344.18" style="fill:#9C969E;" width="48.1" height="96.19"/>
<rect x="231.95" y="344.18" style="fill:#867E88;" width="48.1" height="32.06"/>
<path style="fill:#DBD9DC;" d="M312.113,344.177H199.887c-8.854,0-16.032-7.178-16.032-16.032V135.758h144.29v192.387
	C328.145,337,320.967,344.177,312.113,344.177z"/>
<path style="fill:#C9C6CA;" d="M183.855,135.758v32.626h20.379c8.939,9.981,21.85,16.032,35.734,16.032h32.065
	c13.883,0,26.795-6.052,35.735-16.032h20.378v-32.626H183.855z"/>
<rect x="127.74" y="95.68" style="fill:#9C969E;" width="256.52" height="32.06"/>
<g>
	<path style="fill:#EDEBED;" d="M328.145,143.774h-144.29c-8.854,0-16.032-7.178-16.032-16.032V95.677
		c0-8.854,7.178-16.032,16.032-16.032h144.29c8.854,0,16.032,7.178,16.032,16.032v32.065
		C344.177,136.596,336.999,143.774,328.145,143.774z"/>
	<path style="fill:#EDEBED;" d="M368.226,416.323h-55.549c-5.361,0-10.367,2.679-13.34,7.139l-6.514,9.77
		c-2.973,4.46-7.979,7.139-13.339,7.139h-46.969c-5.361,0-10.367-2.679-13.34-7.139l-6.514-9.77
		c-2.973-4.46-7.979-7.139-13.339-7.139h-55.549c-8.855,0-16.032,7.178-16.032,16.032v24.048c0,8.854,7.178,16.032,16.032,16.032
		h224.452c8.854,0,16.032-7.178,16.032-16.032v-24.048C384.258,423.5,377.08,416.323,368.226,416.323z"/>
</g>
<rect x="87.66" y="191.87" style="fill:#9C969E;" width="32.06" height="120.24"/>
<rect x="87.66" y="191.87" style="fill:#867E88;" width="32.06" height="32.06"/>
<path style="fill:#C9C6CA;" d="M119.726,191.871H63.613c-4.427,0-8.016-3.589-8.016-8.016v-16.032c0-4.427,3.589-8.016,8.016-8.016
	h56.113V191.871z"/>
<path style="fill:#EDEBED;" d="M119.726,39.565h-16.032c-8.854,0-16.032,7.178-16.032,16.032v128.254
	c0,4.427,3.589,8.016,8.016,8.016h24.048c8.854,0,16.032-7.178,16.032-16.032V55.597C135.758,46.742,128.581,39.565,119.726,39.565z
	"/>
<path style="fill:#DBD9DC;" d="M103.693,39.565c-8.854,0-16.032,7.178-16.032,16.032v128.254c0,4.427,3.589,8.016,8.016,8.016
	h16.032V39.565H103.693z"/>
<g>
	<path style="fill:#C9C6CA;" d="M103.694,296.081L103.694,296.081c-13.282,0-24.048,10.767-24.048,24.048v16.032h48.097v-16.032
		C127.742,306.847,116.975,296.081,103.694,296.081z"/>
	<path style="fill:#C9C6CA;" d="M392.274,191.871h56.113c4.427,0,8.016-3.589,8.016-8.016v-16.032c0-4.427-3.589-8.016-8.016-8.016
		h-56.113V191.871z"/>
</g>
<path style="fill:#EDEBED;" d="M392.274,39.565h16.032c8.854,0,16.032,7.178,16.032,16.032v128.254c0,4.427-3.589,8.016-8.016,8.016
	h-24.048c-8.854,0-16.032-7.178-16.032-16.032V55.597C376.241,46.742,383.419,39.565,392.274,39.565z"/>
<path style="fill:#C9C6CA;" d="M408.306,296.081L408.306,296.081c13.282,0,24.048,10.767,24.048,24.048v16.032h-48.097v-16.032
	C384.258,306.847,395.024,296.081,408.306,296.081z"/>
<path style="fill:#DBD9DC;" d="M400.29,39.565h-8.016c-8.855,0-16.032,7.178-16.032,16.032v120.238
	c0,8.854,7.178,16.032,16.032,16.032h8.016V39.565z"/>
<path style="fill:#C9C6CA;" d="M312.113,344.177H199.887c-8.854,0-16.032-7.178-16.032-16.032v-16.032h144.29v16.032
	C328.145,337,320.967,344.177,312.113,344.177z"/>
<path style="fill:#99E7FF;" d="M280.049,47.581h-48.097c-8.854,0-16.032-7.178-16.032-16.032v-8.016
	c0-8.854,7.178-16.032,16.032-16.032h48.097c8.854,0,16.032,7.178,16.032,16.032v8.016
	C296.081,40.403,288.903,47.581,280.049,47.581z"/>
<path style="fill:#59D8FF;" d="M296.081,31.548h-48.097c-8.854,0-16.032-7.178-16.032-16.032V7.5
	c-8.855,0-16.032,7.178-16.032,16.032v8.016c0,8.854,7.178,16.032,16.032,16.032h48.097
	C288.903,47.581,296.081,40.403,296.081,31.548L296.081,31.548L296.081,31.548z"/>
<path style="fill:#99E9DF;" d="M272.032,159.806h-32.065c-13.282,0-24.048-10.767-24.048-24.048v-16.032
	c0-4.427,3.589-8.016,8.016-8.016h64.129c4.427,0,8.016,3.589,8.016,8.016v16.032C296.081,149.04,285.314,159.806,272.032,159.806z"
	/>
<path d="M448.387,152.303h-16.548V55.597c0-12.976-10.557-23.532-23.532-23.532h-16.032c-12.976,0-23.533,10.557-23.533,23.532
	v32.581h-18.297c-3.139-9.309-11.946-16.032-22.3-16.032H263.5V55.081h16.548c12.976,0,23.532-10.556,23.532-23.532v-8.016
	C303.581,10.557,293.024,0,280.048,0h-48.097c-12.976,0-23.532,10.557-23.532,23.532v8.016c0,12.976,10.557,23.532,23.532,23.532
	H248.5v17.065h-64.645c-10.353,0-19.16,6.724-22.3,16.032h-18.297v-32.58c0-12.976-10.557-23.532-23.533-23.532h-16.032
	c-12.976,0-23.532,10.557-23.532,23.532v96.706H63.613c-8.556,0-15.516,6.96-15.516,15.516v16.032
	c0,8.556,6.96,15.517,15.516,15.517h16.548v99.779c-4.981,5.58-8.016,12.932-8.016,20.983v13.762l-8.844,13.266
	c-5.286,7.93-5.286,18.177,0,26.106l10.104,15.155c1.445,2.168,3.823,3.341,6.247,3.341c1.43,0,2.875-0.408,4.153-1.26
	c3.447-2.298,4.378-6.955,2.08-10.401l-10.103-15.155c-1.917-2.875-1.917-6.591,0-9.466l7.877-11.815h40.069l7.877,11.815
	c1.917,2.875,1.917,6.591,0,9.466l-10.104,15.155c-2.298,3.446-1.367,8.103,2.08,10.4c1.278,0.853,2.724,1.261,4.153,1.261
	c2.423,0,4.802-1.173,6.247-3.34l10.104-15.156c5.286-7.93,5.286-18.177,0-26.106l-8.844-13.266v-13.761
	c0-8.051-3.035-15.403-8.016-20.983V198.134c9.308-3.139,16.033-11.946,16.033-22.299v-40.593h18.297
	c2.344,6.951,7.849,12.455,14.8,14.799v178.104c0,12.976,10.557,23.532,23.532,23.532h24.564v75.946l-5.548-8.322
	c-4.375-6.562-11.694-10.479-19.58-10.479h-55.549c-12.976,0-23.533,10.557-23.533,23.532v56.113
	c0,12.976,10.557,23.532,23.533,23.532h40.081c12.976,0,23.532-10.557,23.532-23.532v-8.532h97.226v8.532
	c0,12.976,10.557,23.532,23.532,23.532h40.081c12.976,0,23.533-10.557,23.533-23.532v-56.113c0-12.976-10.557-23.532-23.533-23.532
	h-55.549c-7.886,0-15.206,3.918-19.58,10.479l-5.549,8.323v-75.946h24.564c12.976,0,23.532-10.557,23.532-23.532V150.042
	c6.951-2.344,12.455-7.849,14.8-14.799h18.297v40.593c0,10.354,6.724,19.16,16.033,22.299v101.012
	c-4.981,5.58-8.016,12.932-8.016,20.983v13.762l-8.844,13.266c-5.286,7.93-5.286,18.177,0,26.107l10.104,15.155
	c1.445,2.168,3.823,3.34,6.247,3.34c1.43,0,2.875-0.408,4.153-1.261c3.447-2.297,4.378-6.954,2.08-10.4l-10.104-15.155
	c-1.917-2.875-1.917-6.591,0-9.466l7.878-11.816h40.069l7.877,11.815c1.917,2.875,1.917,6.591,0,9.466l-10.104,15.155
	c-2.298,3.446-1.367,8.103,2.08,10.401c1.279,0.852,2.724,1.26,4.153,1.26c2.423,0,4.802-1.173,6.247-3.341l10.104-15.155
	c5.286-7.93,5.286-18.177,0-26.106l-8.844-13.266v-13.762c0-8.051-3.035-15.403-8.016-20.983v-99.779h16.548
	c8.556,0,15.516-6.961,15.516-15.517v-16.032C463.903,159.263,456.943,152.303,448.387,152.303z M223.419,31.548v-8.016
	c0-4.705,3.828-8.532,8.532-8.532h48.097c4.705,0,8.532,3.828,8.532,8.532v8.016c0,4.705-3.828,8.532-8.532,8.532h-48.097
	C227.247,40.081,223.419,36.253,223.419,31.548z M391.758,320.129c0-9.125,7.423-16.548,16.548-16.548s16.548,7.423,16.548,16.548
	v8.532h-33.097L391.758,320.129L391.758,320.129z M408.307,288.581c-2.957,0-5.816,0.417-8.532,1.182v-90.396h17.064v90.396
	C414.123,288.998,411.264,288.581,408.307,288.581z M87.145,320.129c0-9.125,7.423-16.548,16.548-16.548s16.548,7.423,16.548,16.548
	v8.532H87.145V320.129z M103.693,288.581c-2.957,0-5.816,0.417-8.532,1.182v-90.396h17.064v90.396
	C109.51,288.998,106.65,288.581,103.693,288.581z M63.097,183.851v-16.032c0-0.284,0.231-0.516,0.516-0.516h16.548v17.064H63.613
	C63.328,184.367,63.097,184.136,63.097,183.851z M128.258,175.835c0,4.704-3.828,8.532-8.533,8.532H95.161V55.597
	c0-4.705,3.828-8.532,8.532-8.532h16.032c4.705,0,8.533,3.828,8.533,8.532V175.835z M143.258,103.178h17.064v17.064h-17.064V103.178
	z M212.515,151.274c5.426,9.562,15.695,16.032,27.453,16.032h32.064c11.758,0,22.027-6.47,27.453-16.032h21.16v33.097h-8.532
	c-4.142,0-7.5,3.357-7.5,7.5c0,4.142,3.358,7.5,7.5,7.5h8.532v105.242h-129.29V199.371h88.693c4.142,0,7.5-3.358,7.5-7.5
	c0-4.143-3.358-7.5-7.5-7.5h-88.693v-33.097H212.515z M288.581,135.758c0,9.125-7.423,16.549-16.548,16.549h-32.064
	c-9.125,0-16.548-7.424-16.548-16.549v-16.032c0-0.284,0.231-0.516,0.516-0.516h64.129c0.285,0,0.516,0.231,0.516,0.516
	L288.581,135.758L288.581,135.758z M239.452,415.807h33.097v17.064h-33.097L239.452,415.807L239.452,415.807z M272.548,400.807
	h-33.097v-17.064h33.097V400.807z M368.226,497h-40.081c-4.705,0-8.532-3.828-8.532-8.532v-8.532h48.613
	c3.009,0,5.885-0.574,8.533-1.608v10.14C376.758,493.172,372.931,497,368.226,497z M299.064,437.392l6.514-9.77
	c1.585-2.379,4.239-3.8,7.099-3.8h55.549c4.705,0,8.533,3.828,8.533,8.532v24.049c0,4.705-3.828,8.532-8.533,8.532H183.855
	c-4.142,0-7.5,3.358-7.5,7.5s3.358,7.5,7.5,7.5h8.532v8.532c0,4.705-3.828,8.532-8.532,8.532h-40.081
	c-4.705,0-8.533-3.828-8.533-8.532v-10.14c2.647,1.034,5.523,1.608,8.533,1.608h8.015c4.142,0,7.5-3.358,7.5-7.5s-3.358-7.5-7.5-7.5
	h-8.015c-4.705,0-8.533-3.828-8.533-8.532v-24.049c0-4.704,3.828-8.532,8.533-8.532h55.549c2.859,0,5.513,1.421,7.099,3.8
	l6.513,9.77c4.374,6.562,11.694,10.479,19.58,10.479h46.969C287.371,447.871,294.69,443.953,299.064,437.392z M272.548,368.742
	h-33.097v-17.064h33.097V368.742z M312.113,336.678H199.887c-4.705,0-8.532-3.828-8.532-8.532v-8.533h129.29v8.533
	C320.645,332.85,316.817,336.678,312.113,336.678z M328.145,136.274h-24.578c0.003-0.173,0.013-0.343,0.013-0.517v-16.032
	c0-8.556-6.96-15.516-15.516-15.516h-64.129c-8.556,0-15.516,6.96-15.516,15.516v16.032c0,0.173,0.01,0.344,0.013,0.517h-24.578
	c-4.705,0-8.532-3.828-8.532-8.532V95.678c0-4.705,3.828-8.532,8.532-8.532h144.29c4.705,0,8.532,3.827,8.532,8.532v32.064
	C336.677,132.446,332.85,136.274,328.145,136.274z M351.677,120.242v-17.064h17.064v17.064
	C368.741,120.242,351.677,120.242,351.677,120.242z M383.742,55.597c0-4.705,3.828-8.532,8.533-8.532h16.032
	c4.705,0,8.532,3.828,8.532,8.532v128.771h-24.564c-4.705,0-8.533-3.828-8.533-8.532L383.742,55.597L383.742,55.597z
	 M448.903,183.851c0,0.285-0.231,0.517-0.516,0.517h-16.548v-17.064h16.548c0.285,0,0.516,0.231,0.516,0.516V183.851z"/>
<g>
</g>
<g>
</g>
<g>
</g>
<g>
</g>
<g>
</g>
<g>
</g>
<g>
</g>
<g>
</g>
<g>
</g>
<g>
</g>
<g>
</g>
<g>
</g>
<g>
</g>
<g>
</g>
<g>
</g>
</svg>
