<?xml version="1.0" encoding="iso-8859-1"?>
<!-- Generator: Adobe Illustrator 19.0.0, SVG Export Plug-In . SVG Version: 6.00 Build 0)  -->
<svg version="1.1" id="Capa_1" xmlns="http://www.w3.org/2000/svg" xmlns:xlink="http://www.w3.org/1999/xlink" x="0px" y="0px"
	 viewBox="0 0 512 512" style="enable-background:new 0 0 512 512;" xml:space="preserve">
<path style="fill:#E5F9FF;" d="M344.175,336.161H167.819v-8.016c0-13.281,10.767-24.048,24.048-24.048h128.259
	c13.281,0,24.048,10.767,24.048,24.048V336.161z"/>
<path style="fill:#DBD9DC;" d="M127.739,231.951l19.381,32.298c2.897,4.829,8.116,7.783,13.747,7.783h190.265
	c5.632,0,10.851-2.955,13.748-7.784l19.375-32.297L127.739,231.951L127.739,231.951z"/>
<path style="fill:#C9C6CA;" d="M198.011,255.999h171.818l14.427-24.048H127.739l19.381,32.298c2.898,4.829,8.116,7.783,13.747,7.783
	h32.606l-2.335-3.891C187.931,262.796,191.78,255.999,198.011,255.999z"/>
<path style="fill:#867E88;" d="M503.534,186.39c-3.026-8.321-12.22-12.603-20.545-9.589l-56.325,20.478
	c-19.379,7.053-39.655,10.623-60.266,10.623H145.602c-20.612,0-40.887-3.57-60.266-10.623l-56.325-20.478
	c-8.314-3.014-17.515,1.268-20.545,9.589c-3.026,8.321,1.264,17.519,9.586,20.549l56.325,20.478
	c22.901,8.329,46.864,12.549,71.225,12.549h220.796c24.361,0,48.324-4.219,71.225-12.549l56.325-20.478
	C502.27,203.91,506.56,194.711,503.534,186.39z"/>
<path d="M510.583,183.827c-4.428-12.178-17.95-18.494-30.156-14.075l-56.327,20.479c-18.542,6.749-37.956,10.171-57.701,10.171
	H145.602c-19.745,0-39.159-3.422-57.703-10.171L31.567,169.75c-12.191-4.42-25.714,1.895-30.149,14.078
	c-4.433,12.191,1.878,25.721,14.071,30.16l56.324,20.478c19.088,6.942,38.894,11.125,59.058,12.495l9.78,19.56
	c4.012,8.024,12.077,13.008,21.047,13.008h188.604c8.971,0,17.036-4.984,21.047-13.008l9.78-19.56
	c20.163-1.371,39.97-5.553,59.057-12.495l56.328-20.479C508.704,209.549,515.015,196.019,510.583,183.827z M491.386,199.891
	l-56.326,20.479c-22.07,8.027-45.172,12.097-68.662,12.097h-14.203c-4.142,0-7.5,3.358-7.5,7.5s3.358,7.5,7.5,7.5h11.912
	l-6.174,12.348c-1.455,2.909-4.379,4.716-7.631,4.716H161.698c-3.252,0-6.177-1.807-7.631-4.716l-6.174-12.348H320.13
	c4.142,0,7.5-3.358,7.5-7.5s-3.358-7.5-7.5-7.5H145.602c-23.49,0-46.592-4.07-68.663-12.097l-56.322-20.477
	c-4.421-1.61-6.71-6.517-5.104-10.936c1.609-4.419,6.517-6.709,10.935-5.107l56.322,20.478
	c20.191,7.349,41.331,11.075,62.831,11.075h220.796c21.5,0,42.64-3.726,62.829-11.074l56.314-20.475
	c4.43-1.605,9.338,0.686,10.943,5.1C498.094,193.374,495.805,198.282,491.386,199.891z"/>
<path d="M296.08,311.596c4.142,0,7.5-3.358,7.5-7.5s-3.358-7.5-7.5-7.5h-80.161c-4.142,0-7.5,3.358-7.5,7.5s3.358,7.5,7.5,7.5
	H296.08z"/>
<path d="M360.21,328.661H151.79c-4.142,0-7.5,3.358-7.5,7.5s3.358,7.5,7.5,7.5h208.42c4.142,0,7.5-3.358,7.5-7.5
	S364.352,328.661,360.21,328.661z"/>
<path d="M111.71,256.515c-4.142,0-7.5,3.358-7.5,7.5v32.064c0,4.142,3.358,7.5,7.5,7.5c4.142,0,7.5-3.358,7.5-7.5v-32.064
	C119.21,259.873,115.852,256.515,111.71,256.515z"/>
<path d="M79.645,248.499c-4.142,0-7.5,3.358-7.5,7.5v16.032c0,4.142,3.358,7.5,7.5,7.5c4.142,0,7.5-3.358,7.5-7.5v-16.032
	C87.145,251.857,83.787,248.499,79.645,248.499z"/>
<path d="M400.287,256.512c-4.142,0-7.5,3.358-7.5,7.5v32.064c0,4.142,3.358,7.5,7.5,7.5s7.5-3.358,7.5-7.5v-32.064
	C407.787,259.87,404.429,256.512,400.287,256.512z"/>
<path d="M432.352,248.496c-4.142,0-7.5,3.358-7.5,7.5v16.032c0,4.142,3.358,7.5,7.5,7.5s7.5-3.358,7.5-7.5v-16.032
	C439.852,251.854,436.494,248.496,432.352,248.496z"/>
<g>
</g>
<g>
</g>
<g>
</g>
<g>
</g>
<g>
</g>
<g>
</g>
<g>
</g>
<g>
</g>
<g>
</g>
<g>
</g>
<g>
</g>
<g>
</g>
<g>
</g>
<g>
</g>
<g>
</g>
</svg>
