<?xml version="1.0" encoding="iso-8859-1"?>
<!-- Generator: Adobe Illustrator 19.0.0, SVG Export Plug-In . SVG Version: 6.00 Build 0)  -->
<svg version="1.1" id="Capa_1" xmlns="http://www.w3.org/2000/svg" xmlns:xlink="http://www.w3.org/1999/xlink" x="0px" y="0px"
	 viewBox="0 0 512.001 512.001" style="enable-background:new 0 0 512.001 512.001;" xml:space="preserve">
<path style="fill:#EDEBED;" d="M352.001,296.238v-80.476c0-21.218,8.429-41.566,23.432-56.569L422.626,112l-22.625-22.625
	l-47.193,47.193C337.805,151.571,317.456,160,296.239,160h-80.476c-21.217,0-41.566-8.429-56.569-23.432l-47.193-47.193L89.376,112
	l47.193,47.193c15.003,15.003,23.432,35.351,23.432,56.569v80.476c0,21.217-8.429,41.565-23.432,56.568l-47.881,47.881
	l22.625,22.625l47.881-47.881C174.197,360.428,194.546,352,215.763,352h80.476c21.217,0,41.566,8.428,56.569,23.431l47.881,47.881
	l22.625-22.625l-47.881-47.881C360.43,337.803,352.001,317.455,352.001,296.238z"/>
<path style="fill:#6F6571;" d="M179.314,12.688c-6.242-6.25-16.383-6.25-22.625,0l-144,144c-6.25,6.25-6.25,16.375,0,22.625
	C15.81,182.438,19.907,184,24.001,184s8.191-1.562,11.313-4.687l144-144C185.564,29.063,185.564,18.938,179.314,12.688z"/>
<circle style="fill:#AEA8AF;" cx="96.001" cy="96" r="24"/>
<path style="fill:#9C969E;" d="M108.001,108c-13.255,0-24-10.745-24-24c0-3.517,0.798-6.833,2.158-9.842
	C77.825,77.921,72.001,86.262,72.001,96c0,13.255,10.745,24,24,24c9.738,0,18.079-5.824,21.842-14.158
	C114.834,107.202,111.518,108,108.001,108z"/>
<path style="fill:#6F6571;" d="M499.314,179.313c6.25-6.242,6.25-16.383,0-22.625l-144-144c-6.25-6.25-16.375-6.25-22.625,0
	c-3.125,3.121-4.688,7.218-4.688,11.312s1.563,8.191,4.688,11.313l144,144C482.939,185.563,493.064,185.563,499.314,179.313z"/>
<circle style="fill:#AEA8AF;" cx="416.001" cy="96" r="24"/>
<path style="fill:#9C969E;" d="M428.001,108c-13.255,0-24-10.745-24-24c0-3.517,0.798-6.833,2.158-9.842
	c-8.334,3.763-14.158,12.104-14.158,21.842c0,13.255,10.745,24,24,24c9.738,0,18.079-5.824,21.842-14.158
	C434.834,107.202,431.518,108,428.001,108z"/>
<path style="fill:#6F6571;" d="M332.689,499.313c6.242,6.25,16.383,6.25,22.625,0l144-144c6.25-6.25,6.25-16.375,0-22.625
	c-3.122-3.125-7.219-4.688-11.313-4.688s-8.191,1.563-11.313,4.688l-144,144C326.439,482.938,326.439,493.063,332.689,499.313z"/>
<circle style="fill:#AEA8AF;" cx="416.001" cy="416" r="24"/>
<path style="fill:#9C969E;" d="M428.001,428c-13.255,0-24-10.745-24-24c0-3.517,0.798-6.833,2.158-9.842
	c-8.334,3.763-14.158,12.104-14.158,21.842c0,13.255,10.745,24,24,24c9.738,0,18.079-5.824,21.842-14.158
	C434.834,427.202,431.518,428,428.001,428z"/>
<path style="fill:#6F6571;" d="M12.689,332.688c-6.25,6.242-6.25,16.383,0,22.625l144,144c6.25,6.25,16.375,6.25,22.625,0
	c3.125-3.122,4.687-7.219,4.687-11.313s-1.563-8.191-4.688-11.312l-144-144C29.064,326.438,18.939,326.438,12.689,332.688z"/>
<circle style="fill:#AEA8AF;" cx="96.001" cy="416" r="24"/>
<path style="fill:#9C969E;" d="M108.001,428c-13.255,0-24-10.745-24-24c0-3.517,0.798-6.833,2.158-9.842
	c-8.334,3.763-14.158,12.104-14.158,21.842c0,13.255,10.745,24,24,24c9.738,0,18.079-5.824,21.842-14.158
	C114.834,427.202,111.518,428,108.001,428z"/>
<g>
	<path style="fill:#DBD9DC;" d="M319.963,156.378c-7.616,2.366-15.603,3.622-23.724,3.622h-80.476
		c-8.122,0-16.108-1.256-23.724-3.622c0.207,10.867,9.045,19.622,19.962,19.622h88C310.918,176,319.756,167.245,319.963,156.378z"/>
	<path style="fill:#DBD9DC;" d="M300.001,336h-88c-10.917,0-19.755,8.754-19.962,19.622c7.616-2.366,15.603-3.622,23.724-3.622
		h80.476c8.122,0,16.108,1.256,23.724,3.622C319.756,344.754,310.918,336,300.001,336z"/>
	<path style="fill:#DBD9DC;" d="M355.623,319.962c-2.366-7.616-3.622-15.603-3.622-23.724v-80.476
		c0-8.122,1.256-16.108,3.622-23.724c-10.867,0.207-19.622,9.045-19.622,19.962v88C336.001,310.917,344.756,319.755,355.623,319.962
		z"/>
	<path style="fill:#DBD9DC;" d="M176.001,300v-88c0-10.917-8.754-19.755-19.622-19.962c2.366,7.616,3.622,15.603,3.622,23.724
		v80.476c0,8.122-1.256,16.108-3.622,23.724C167.247,319.755,176.001,310.917,176.001,300z"/>
</g>
<path d="M239.361,287.457c-2.929,2.929-2.929,7.678,0,10.606c2.929,2.929,7.678,2.929,10.606,0c1.611-1.611,3.754-2.499,6.033-2.499
	s4.422,0.888,6.033,2.499c1.464,1.464,3.384,2.197,5.303,2.197s3.839-0.732,5.303-2.197c2.929-2.929,2.929-7.678,0-10.606
	C263.466,278.281,248.536,278.281,239.361,287.457z"/>
<path d="M324.02,243.578c1.919,0,3.839-0.732,5.303-2.197c2.929-2.929,2.929-7.678,0-10.606
	c-19.585-19.585-45.625-30.371-73.322-30.371s-53.737,10.786-73.322,30.371c-2.929,2.929-2.929,7.678,0,10.606
	c2.929,2.929,7.678,2.929,10.606,0c16.752-16.752,39.025-25.978,62.716-25.978s45.964,9.226,62.716,25.978
	C320.181,242.845,322.101,243.578,324.02,243.578z"/>
<path d="M295.679,271.919c1.919,0,3.839-0.732,5.303-2.197c2.929-2.929,2.929-7.678,0-10.606c-24.803-24.803-65.159-24.803-89.962,0
	c-2.929,2.929-2.929,7.678,0,10.606c2.929,2.929,7.678,2.929,10.606,0c18.954-18.954,49.795-18.954,68.749,0
	C291.84,271.187,293.759,271.919,295.679,271.919z"/>
<path d="M488.469,320.645c-6.29,0-12.2,2.45-16.639,6.894l-55.507,55.507l-35.347-35.347
	c-13.724-13.724-21.282-31.971-21.282-51.379v-80.638c0-19.408,7.558-37.655,21.282-51.379l35.347-35.347l55.507,55.507
	c4.588,4.588,10.614,6.882,16.64,6.881c6.025,0,12.049-2.293,16.634-6.878c4.447-4.442,6.896-10.352,6.897-16.641
	c0-6.29-2.449-12.2-6.894-16.639l-57.289-57.289c-0.895-15.98-13.733-28.818-29.713-29.713L360.817,6.893
	c-9.175-9.174-24.104-9.174-33.273-0.003c-4.448,4.442-6.897,10.353-6.897,16.642s2.45,12.2,6.894,16.639l55.507,55.507
	l-13.923,13.923c-2.929,2.929-2.929,7.678,0,10.606c1.464,1.464,3.384,2.197,5.303,2.197s3.839-0.732,5.303-2.197l9.094-9.095
	c2.84,5.04,7.024,9.224,12.064,12.064l-30.518,30.519c-16.557,16.557-25.676,38.571-25.676,61.986v80.638
	c0,23.415,9.119,45.429,25.676,61.986l30.518,30.519c-5.04,2.84-9.224,7.024-12.064,12.064l-30.519-30.518
	c-16.557-16.557-38.571-25.676-61.986-25.676h-80.638c-23.415,0-45.429,9.119-61.986,25.676c-2.929,2.929-2.929,7.678,0,10.606
	c2.929,2.929,7.678,2.929,10.606,0c13.724-13.724,31.971-21.282,51.379-21.282h80.638c19.408,0,37.655,7.558,51.379,21.282
	l35.347,35.347l-55.506,55.507c-9.175,9.175-9.175,24.103-0.003,33.274c4.442,4.448,10.352,6.897,16.642,6.897
	s12.2-2.449,16.639-6.894l57.289-57.289c15.98-0.895,28.818-13.733,29.713-29.713l57.289-57.289
	c9.174-9.175,9.174-24.103,0.003-33.273C500.669,323.095,494.758,320.645,488.469,320.645z M497.001,167.823
	c0,2.279-0.887,4.42-2.5,6.032c-3.326,3.326-8.738,3.326-12.064,0l-50.678-50.678c5.041-2.84,9.224-7.024,12.064-12.064
	l50.681,50.681C496.114,163.402,497.001,165.543,497.001,167.823z M432.872,95.677c0,9.125-7.423,16.548-16.548,16.548
	s-16.548-7.423-16.548-16.548s7.423-16.548,16.548-16.548S432.872,86.552,432.872,95.677z M335.646,23.532
	c0-2.279,0.887-4.42,2.5-6.032c3.327-3.326,8.738-3.325,12.064,0l50.678,50.678c-5.04,2.84-9.224,7.024-12.064,12.064
	l-50.681-50.681C336.533,27.953,335.646,25.812,335.646,23.532z M350.207,494.503c-1.608,1.61-3.749,2.497-6.029,2.497
	c-2.279,0-4.42-0.887-6.032-2.5c-3.326-3.326-3.326-8.738,0-12.064l50.678-50.678c2.84,5.041,7.024,9.224,12.064,12.065
	L350.207,494.503z M416.324,432.871c-9.125,0-16.548-7.423-16.548-16.548s7.423-16.548,16.548-16.548s16.548,7.423,16.548,16.548
	S425.449,432.871,416.324,432.871z M494.501,350.209l-50.678,50.678c-2.841-5.04-7.024-9.224-12.064-12.064l50.681-50.681
	c1.608-1.61,3.749-2.497,6.029-2.497s4.42,0.887,6.032,2.5C497.827,341.472,497.827,346.883,494.501,350.209z"/>
<path d="M128.955,416.323l13.756-13.756c2.929-2.929,2.929-7.678,0-10.606c-2.929-2.929-7.678-2.929-10.606,0l-8.927,8.928
	c-2.84-5.04-7.024-9.224-12.064-12.064l30.518-30.519c16.557-16.557,25.676-38.571,25.676-61.986v-80.638
	c0-23.415-9.119-45.429-25.676-61.986l-30.518-30.519c5.04-2.84,9.224-7.024,12.064-12.064l30.519,30.518
	c16.557,16.557,38.571,25.676,61.986,25.676h80.638c23.415,0,45.429-9.119,61.986-25.676c2.929-2.929,2.929-7.678,0-10.606
	c-2.929-2.929-7.678-2.929-10.606,0c-13.724,13.724-31.971,21.282-51.379,21.282h-80.638c-19.408,0-37.655-7.558-51.379-21.282
	l-35.347-35.347l55.507-55.507c9.175-9.174,9.175-24.103,0.003-33.274C180.023,2.45,174.114,0,167.824,0l0,0
	c-6.29,0-12.2,2.45-16.639,6.894L93.896,64.182c-15.98,0.895-28.818,13.733-29.713,29.713L6.894,151.184
	c-9.174,9.175-9.174,24.103-0.003,33.273c4.442,4.448,10.353,6.897,16.642,6.897s12.2-2.45,16.639-6.894l55.507-55.507
	l35.347,35.347c13.724,13.724,21.282,31.971,21.282,51.379v80.638c0,19.408-7.558,37.655-21.282,51.379l-35.347,35.347
	l-55.507-55.506c-9.175-9.175-24.103-9.175-33.274-0.003c-4.448,4.444-6.897,10.354-6.897,16.643c0,6.29,2.449,12.2,6.894,16.639
	l57.289,57.289c0.895,15.98,13.733,28.818,29.713,29.713l57.289,57.289c4.588,4.587,10.614,6.881,16.64,6.881
	c6.024,0,12.049-2.293,16.634-6.878c4.448-4.442,6.897-10.353,6.897-16.642s-2.45-12.2-6.894-16.639L128.955,416.323z
	 M161.794,17.497c1.608-1.61,3.75-2.497,6.029-2.497s4.42,0.887,6.032,2.5c3.326,3.326,3.326,8.738,0,12.064l-50.678,50.678
	c-2.84-5.041-7.024-9.224-12.064-12.064L161.794,17.497z M95.678,79.129c9.125,0,16.548,7.423,16.548,16.548
	s-7.423,16.548-16.548,16.548S79.13,104.802,79.13,95.677S86.553,79.129,95.678,79.129z M29.562,173.858
	c-1.608,1.61-3.75,2.497-6.029,2.497s-4.42-0.887-6.032-2.5c-3.326-3.326-3.326-8.738,0-12.064l50.678-50.678
	c2.841,5.04,7.024,9.224,12.064,12.064L29.562,173.858z M15.001,344.177c0-2.279,0.887-4.42,2.5-6.032
	c3.326-3.326,8.738-3.326,12.064,0l50.678,50.678c-5.041,2.84-9.224,7.024-12.065,12.064l-50.681-50.681
	C15.888,348.598,15.001,346.457,15.001,344.177z M79.13,416.323c0-9.125,7.423-16.548,16.548-16.548s16.548,7.423,16.548,16.548
	s-7.423,16.548-16.548,16.548S79.13,425.448,79.13,416.323z M173.855,494.5c-3.326,3.327-8.738,3.325-12.064,0l-50.678-50.678
	c5.04-2.84,9.224-7.024,12.064-12.064l50.681,50.681c1.61,1.608,2.497,3.749,2.497,6.029S175.469,492.888,173.855,494.5z"/>
<g>
</g>
<g>
</g>
<g>
</g>
<g>
</g>
<g>
</g>
<g>
</g>
<g>
</g>
<g>
</g>
<g>
</g>
<g>
</g>
<g>
</g>
<g>
</g>
<g>
</g>
<g>
</g>
<g>
</g>
</svg>
