<?xml version="1.0" encoding="iso-8859-1"?>
<!-- Generator: Adobe Illustrator 19.0.0, SVG Export Plug-In . SVG Version: 6.00 Build 0)  -->
<svg version="1.1" id="Capa_1" xmlns="http://www.w3.org/2000/svg" xmlns:xlink="http://www.w3.org/1999/xlink" x="0px" y="0px"
	 viewBox="0 0 512 512" style="enable-background:new 0 0 512 512;" xml:space="preserve">
<path style="fill:#E5F9FF;" d="M392,376L392,376c-22.091,0-40-17.909-40-40v-72h80v72C432,358.091,414.091,376,392,376z"/>
<path style="fill:#FFFFFF;" d="M392,320L392,320c-13.255,0-24-10.745-24-24v-32h48v32C416,309.254,405.255,320,392,320z"/>
<path style="fill:#E5F9FF;" d="M96,304L96,304c-22.091,0-40-17.909-40-40v-56h80v56C136,286.091,118.091,304,96,304z"/>
<path style="fill:#FFFFFF;" d="M96,264L96,264c-13.255,0-24-10.745-24-24v-32h48v32C120,253.254,109.255,264,96,264z"/>
<path style="fill:#EDEBED;" d="M488,208h-4.437l-101.394-65.221C367.714,133.142,350.729,128,333.356,128H211.743
	c-13.148,0-26.282,0.853-39.319,2.553L21.931,150.182C13.961,151.222,8,158.011,8,166.048v15.771
	c0,10.752,7.151,20.192,17.502,23.104l202.377,56.918c23.967,6.74,48.746,10.159,73.643,10.159H472c17.673,0,32-14.327,32-32v-16
	C504,215.163,496.836,208,488,208z"/>
<path style="fill:#DBD9DC;" d="M408.941,160H9.215C8.447,161.876,8,163.911,8,166.048v15.771c0,10.752,7.151,20.192,17.502,23.104
	L36.445,208h447.118L408.941,160z"/>
<path style="fill:#59D8FF;" d="M408.941,160H223.106c-6.491,0-8.859,8.548-3.293,11.888l43.086,25.852
	c11.19,6.714,23.994,10.26,37.043,10.26h183.62L408.941,160z"/>
<path style="fill:#00C3FF;" d="M326.899,197.739L264,160h-40.894c-6.491,0-8.859,8.548-3.292,11.888L262.9,197.74
	c11.19,6.714,23.994,10.261,37.043,10.261h64c-1.317,0-2.632-0.036-3.943-0.108C348.325,207.251,336.959,203.775,326.899,197.739z"
	/>
<path style="fill:#DBD9DC;" d="M503.165,247.25H176.286l6.029,1.776l45.564,12.815c23.967,6.74,48.746,10.159,73.643,10.159H472
	C487.178,272,499.879,261.429,503.165,247.25z"/>
<path d="M488.468,200.403h-5.745l-96.139-64.092c-15.77-10.513-34.122-16.069-53.072-16.069H211.653
	c-13.449,0-27.031,0.882-40.369,2.622L20.488,142.533C8.808,144.056,0,154.088,0,165.867v15.802c0,14.071,9.461,26.56,23.007,30.37
	l202.786,57.034c24.678,6.94,50.188,10.459,75.821,10.459h170.822c21.816,0,39.564-17.749,39.564-39.564v-16.032
	C512,210.96,501.443,200.403,488.468,200.403z M364.161,200.403c-11.714,0-23.215-3.186-33.26-9.212l-39.807-23.884h114.943
	l49.645,33.097L364.161,200.403L364.161,200.403z M261.939,167.307l55.161,33.097h-17.069c-11.714,0-23.215-3.186-33.259-9.212
	l-39.807-23.884L261.939,167.307L261.939,167.307z M472.436,264.532H301.614c-24.261,0-48.404-3.331-71.76-9.899L27.068,197.6
	C19.962,195.601,15,189.05,15,181.669v-14.363h128.772c4.142,0,7.5-3.358,7.5-7.5s-3.358-7.5-7.5-7.5H61.53l111.695-14.569
	c12.697-1.656,25.626-2.496,38.428-2.496h121.858c15.98,0,31.455,4.686,44.752,13.55l5.273,3.515H175.839
	c-4.142,0-7.5,3.358-7.5,7.5s3.358,7.5,7.5,7.5h21.971l61.244,36.747c12.375,7.425,26.545,11.35,40.977,11.35h188.437
	c4.705,0,8.532,3.828,8.532,8.532v8.532h-8.53c-4.142,0-7.5,3.358-7.5,7.5s3.358,7.5,7.5,7.5h7.355
	C492.647,257.355,483.365,264.532,472.436,264.532z"/>
<path d="M456.399,232.468H328.145c-4.142,0-7.5,3.358-7.5,7.5s3.358,7.5,7.5,7.5h128.254c4.142,0,7.5-3.358,7.5-7.5
	S460.542,232.468,456.399,232.468z"/>
<path d="M352.193,296.597c-4.142,0-7.5,3.358-7.5,7.5v40.081c0,4.142,3.358,7.5,7.5,7.5s7.5-3.358,7.5-7.5v-40.081
	C359.693,299.955,356.335,296.597,352.193,296.597z"/>
<path d="M432.355,296.597c-4.142,0-7.5,3.358-7.5,7.5v40.081c0,4.142,3.358,7.5,7.5,7.5s7.5-3.358,7.5-7.5v-40.081
	C439.855,299.955,436.497,296.597,432.355,296.597z"/>
<path d="M392.274,296.597c-4.142,0-7.5,3.358-7.5,7.5v80.162c0,4.142,3.358,7.5,7.5,7.5s7.5-3.358,7.5-7.5v-80.162
	C399.774,299.955,396.417,296.597,392.274,296.597z"/>
<path d="M55.597,240.484c-4.142,0-7.5,3.358-7.5,7.5v16.032c0,4.142,3.358,7.5,7.5,7.5s7.5-3.358,7.5-7.5v-16.032
	C63.097,243.842,59.739,240.484,55.597,240.484z"/>
<path d="M135.758,261.276c-4.142,0-7.5,3.358-7.5,7.5v16.032c0,4.142,3.358,7.5,7.5,7.5s7.5-3.358,7.5-7.5v-16.032
	C143.258,264.634,139.9,261.276,135.758,261.276z"/>
<path d="M95.677,250.504c-4.142,0-7.5,3.358-7.5,7.5v46.093c0,4.142,3.358,7.5,7.5,7.5s7.5-3.358,7.5-7.5v-46.093
	C103.177,253.862,99.819,250.504,95.677,250.504z"/>
<g>
</g>
<g>
</g>
<g>
</g>
<g>
</g>
<g>
</g>
<g>
</g>
<g>
</g>
<g>
</g>
<g>
</g>
<g>
</g>
<g>
</g>
<g>
</g>
<g>
</g>
<g>
</g>
<g>
</g>
</svg>
