<?xml version="1.0" encoding="iso-8859-1"?>
<!-- Generator: Adobe Illustrator 19.0.0, SVG Export Plug-In . SVG Version: 6.00 Build 0)  -->
<svg version="1.1" id="Capa_1" xmlns="http://www.w3.org/2000/svg" xmlns:xlink="http://www.w3.org/1999/xlink" x="0px" y="0px"
	 viewBox="0 0 511.999 511.999" style="enable-background:new 0 0 511.999 511.999;" xml:space="preserve">
<g>
	<path style="fill:#CCF3FF;" d="M135.758,414.392H63.613c-8.854,0-16.032-7.178-16.032-16.032v-8.016h104.21v8.016
		C151.79,407.214,144.612,414.392,135.758,414.392z"/>
	<path style="fill:#CCF3FF;" d="M456.403,414.392h-72.145c-8.854,0-16.032-7.178-16.032-16.032v-8.016h104.21v8.016
		C472.435,407.214,465.258,414.392,456.403,414.392z"/>
</g>
<path style="fill:#DBD9DC;" d="M299.088,233.428c-12.458-7.475-26.714-11.423-41.243-11.423H138.43
	c-6.938,0-13.688,2.25-19.238,6.413l-23.514,17.636v24.048H360.21L299.088,233.428z"/>
<path style="fill:#EDEBED;" d="M492.004,293.32c-17.93-9.743-58.438-24.047-141.743-24.047h-116.92
	c-16.914,0-33.784-1.727-50.347-5.154l-87.316-18.065L18.053,274.28C11.717,276.584,7.5,282.605,7.5,289.346v44.884
	c0,13.282,10.767,24.048,24.048,24.048h456.919c8.854,0,16.032-7.178,16.032-16.032v-27.818
	C504.5,305.622,499.74,297.523,492.004,293.32z"/>
<path style="fill:#DBD9DC;" d="M491.969,317.349c-17.947-9.742-58.457-24.028-141.708-24.028H7.5v40.91
	c0,13.282,10.767,24.048,24.048,24.048h456.919c8.854,0,16.032-7.178,16.032-16.032v-3.77
	C504.5,329.657,499.72,321.557,491.969,317.349z"/>
<path style="fill:#AEA8AF;" d="M140.189,335.077c-2.716-5.431-8.267-8.862-14.34-8.862H73.522c-6.073,0-11.624,3.431-14.34,8.862
	l-11.601,23.202h104.21L140.189,335.077z"/>
<path style="fill:#9C969E;" d="M97.57,326.215H73.522c-6.073,0-11.624,3.431-14.34,8.862l-11.601,23.202h24.048l11.601-23.202
	C85.946,329.645,91.497,326.215,97.57,326.215z"/>
<path style="fill:#AEA8AF;" d="M460.835,335.077c-2.716-5.431-8.267-8.862-14.34-8.862h-52.328c-6.073,0-11.624,3.431-14.34,8.862
	l-11.601,23.202h104.21L460.835,335.077z"/>
<path style="fill:#9C969E;" d="M418.215,326.215h-24.048c-6.073,0-11.624,3.431-14.34,8.862l-11.601,23.202h24.048l11.601-23.202
	C406.591,329.645,412.142,326.215,418.215,326.215z"/>
<path style="fill:#59D8FF;" d="M299.088,233.428c-12.458-7.475-26.714-11.423-41.242-11.423h-73.991l-27.458,36.611l26.596,5.503
	c16.563,3.427,33.433,5.154,50.347,5.154h116.92c3.003,0,5.83,0.058,8.724,0.094L299.088,233.428z"/>
<path style="fill:#99E7FF;" d="M299.088,233.428c-12.458-7.475-26.714-11.423-41.242-11.423h-46.872
	c14.528,0,28.784,3.948,41.242,11.423l59.74,35.844h38.305c3.003,0,5.83,0.058,8.724,0.094L299.088,233.428z"/>
<path d="M495.584,286.754c-20.014-10.876-59.441-23.747-134.544-24.876l-58.094-34.857c-13.62-8.172-29.216-12.492-45.101-12.492
	H138.43c-8.505,0-16.935,2.81-23.739,7.913L92.067,239.41L15.49,267.256C6.225,270.625,0,279.513,0,289.372v44.883
	c0,17.396,14.152,31.548,31.548,31.548h456.919c12.976,0,23.532-10.557,23.532-23.532v-27.818
	C512,302.87,505.71,292.256,495.584,286.754z M123.691,234.442c4.224-3.168,9.458-4.913,14.739-4.913h30.425l-15.048,20.064
	c-0.182,0.243-0.342,0.495-0.49,0.751l-39.838-8.242L123.691,234.442z M59.716,350.803l6.174-12.348
	c1.455-2.91,4.379-4.717,7.632-4.717h52.328c3.252,0,6.177,1.807,7.632,4.716l6.174,12.348h-79.94V350.803z M380.361,350.803
	l6.174-12.348c1.455-2.91,4.379-4.717,7.632-4.717h52.328c3.252,0,6.177,1.807,7.632,4.716l6.174,12.348h-79.94V350.803z
	 M497,342.271c0,4.705-3.828,8.532-8.532,8.532h-11.397l-9.528-19.057c-4.012-8.023-12.077-13.008-21.048-13.008h-52.328
	c-8.971,0-17.036,4.984-21.048,13.008l-9.528,19.056H156.426l-9.528-19.057c-4.012-8.023-12.077-13.008-21.048-13.008H73.521
	c-8.971,0-17.036,4.984-21.048,13.008l-9.528,19.056H31.548c-9.125,0-16.548-7.423-16.548-16.548V289.37
	c0-3.575,2.257-6.797,5.616-8.019l75.625-27.5l85.232,17.634c17.029,3.523,34.479,5.31,51.867,5.31h62.74c4.142,0,7.5-3.358,7.5-7.5
	s-3.358-7.5-7.5-7.5h-62.74c-16.369,0-32.797-1.682-48.828-4.998l-15.028-3.109l18.12-24.16h70.24
	c13.167,0,26.094,3.581,37.383,10.354l36.522,21.913h-3.605c-4.142,0-7.5,3.358-7.5,7.5s3.358,7.5,7.5,7.5h22.116
	c83.167,0,122.261,14.496,138.162,23.137c5.291,2.875,8.577,8.438,8.577,14.519v27.82H497z"/>
<path d="M344.177,318.739H175.839c-4.142,0-7.5,3.358-7.5,7.5s3.358,7.5,7.5,7.5h168.338c4.142,0,7.5-3.358,7.5-7.5
	S348.319,318.739,344.177,318.739z"/>
<path d="M159.807,382.868H39.564c-4.142,0-7.5,3.358-7.5,7.5s3.358,7.5,7.5,7.5h120.242c4.142,0,7.5-3.358,7.5-7.5
	S163.949,382.868,159.807,382.868z"/>
<path d="M480.452,382.868H360.209c-4.142,0-7.5,3.358-7.5,7.5s3.358,7.5,7.5,7.5h120.242c4.142,0,7.5-3.358,7.5-7.5
	S484.594,382.868,480.452,382.868z"/>
<path d="M207.295,184.662c-2.929,2.929-2.928,7.678,0,10.607c2.93,2.929,7.677,2.928,10.607,0c1.611-1.612,3.754-2.499,6.033-2.499
	s4.421,0.887,6.033,2.499c1.465,1.464,3.384,2.197,5.304,2.197c1.919,0,3.839-0.732,5.303-2.196c2.929-2.929,2.929-7.678,0-10.607
	c-4.445-4.445-10.354-6.893-16.64-6.893S211.74,180.217,207.295,184.662z"/>
<path d="M161.22,138.585c16.752-16.752,39.025-25.978,62.716-25.978s45.964,9.226,62.716,25.978
	c1.464,1.464,3.384,2.197,5.303,2.197s3.839-0.732,5.303-2.197c2.929-2.929,2.929-7.678,0-10.606
	c-19.585-19.585-45.625-30.371-73.322-30.371s-53.737,10.786-73.322,30.371c-2.929,2.929-2.929,7.678,0,10.606
	C153.542,141.514,158.291,141.514,161.22,138.585z"/>
<path d="M263.613,169.124c1.919,0,3.839-0.732,5.303-2.197c2.929-2.929,2.929-7.678,0-10.606
	c-12.015-12.015-27.99-18.632-44.981-18.632c-16.992,0-32.966,6.617-44.981,18.632c-2.929,2.929-2.929,7.678,0,10.606
	c2.929,2.929,7.678,2.929,10.606,0c9.182-9.182,21.389-14.238,34.375-14.238c12.985,0,25.192,5.057,34.375,14.238
	C259.774,168.391,261.694,169.124,263.613,169.124z"/>
<g>
</g>
<g>
</g>
<g>
</g>
<g>
</g>
<g>
</g>
<g>
</g>
<g>
</g>
<g>
</g>
<g>
</g>
<g>
</g>
<g>
</g>
<g>
</g>
<g>
</g>
<g>
</g>
<g>
</g>
</svg>
