<?xml version="1.0" encoding="iso-8859-1"?>
<!-- Generator: Adobe Illustrator 19.0.0, SVG Export Plug-In . SVG Version: 6.00 Build 0)  -->
<svg version="1.1" id="Capa_1" xmlns="http://www.w3.org/2000/svg" xmlns:xlink="http://www.w3.org/1999/xlink" x="0px" y="0px"
	 viewBox="0 0 512.002 512.002" style="enable-background:new 0 0 512.002 512.002;" xml:space="preserve">
<path style="fill:#9C969E;" d="M352.195,432.354l39.42-105.121c5.738-15.3,8.677-31.508,8.677-47.849v-79.499
	c0-9.738-8.681-17.447-18.725-15.813c-7.883,1.283-13.339,8.685-13.339,16.671v47.238c0,8.854-7.178,16.032-16.032,16.032l0,0
	c-8.854,0-16.032-7.178-16.032-16.032v-32.065V56.451c0-7.986-5.457-15.388-13.339-16.671c-10.044-1.634-18.725,6.075-18.725,15.813
	v136.275c0,8.854-7.178,16.032-16.032,16.032l0,0c-8.854,0-16.032-7.178-16.032-16.032V24.386c0-7.986-5.457-15.388-13.339-16.671
	c-10.044-1.634-18.725,6.075-18.725,15.812v168.341c0,8.854-7.178,16.032-16.032,16.032l0,0c-8.854,0-16.032-7.178-16.032-16.032
	V56.451c0-7.986-5.457-15.388-13.339-16.671c-10.044-1.634-18.725,6.075-18.725,15.812v160.325c0,8.854-7.178,16.032-16.032,16.032
	l0,0c-8.854,0-16.032-7.178-16.032-16.032V112.564c0-7.986-5.457-15.388-13.339-16.671c-10.044-1.634-18.725,6.075-18.725,15.812
	v138.685c0,19.654,3.012,39.192,8.93,57.935l39.167,124.029"/>
<path style="fill:#867E88;" d="M352.195,504.5H159.806c-4.427,0-8.016-3.589-8.016-8.016v-64.13c0-4.427,3.589-8.016,8.016-8.016
	h192.389c4.427,0,8.016,3.589,8.016,8.016v64.13C360.211,500.911,356.622,504.5,352.195,504.5z"/>
<path style="fill:#6F6571;" d="M183.854,496.484v-64.13c0-4.427,3.589-8.016,8.016-8.016h-32.065c-4.427,0-8.016,3.589-8.016,8.016
	v64.13c0,4.427,3.589,8.016,8.016,8.016h32.065C187.443,504.5,183.854,500.911,183.854,496.484z"/>
<g>
	<path style="fill:#99E7FF;" d="M312.114,392.273H199.887c-8.854,0-16.032-7.178-16.032-16.032v-16.032
		c0-8.854,7.178-16.032,16.032-16.032h112.227c8.854,0,16.032,7.178,16.032,16.032v16.032
		C328.146,385.096,320.968,392.273,312.114,392.273z"/>
	<path style="fill:#99E7FF;" d="M143.773,135.754v-23.19c0-7.986-5.457-15.388-13.339-16.671
		c-10.045-1.634-18.725,6.075-18.725,15.813v24.048H143.773z"/>
	<path style="fill:#99E7FF;" d="M207.903,79.641v-23.19c0-7.986-5.457-15.388-13.339-16.671
		c-10.045-1.634-18.725,6.075-18.725,15.813v24.048H207.903z"/>
	<path style="fill:#99E7FF;" d="M272.033,47.577v-23.19c0-7.986-5.457-15.388-13.339-16.671
		c-10.045-1.634-18.725,6.075-18.725,15.813v24.048H272.033z"/>
	<path style="fill:#99E7FF;" d="M336.162,79.641v-23.19c0-7.986-5.457-15.388-13.339-16.671
		c-10.045-1.634-18.725,6.075-18.725,15.813v24.048H336.162z"/>
	<path style="fill:#99E7FF;" d="M400.292,223.933v-23.19c0-7.986-5.457-15.388-13.339-16.671
		c-10.045-1.634-18.725,6.075-18.725,15.813v24.048H400.292z"/>
</g>
<path d="M399.5,181.953c-5.268-4.48-12.245-6.405-19.138-5.285c-11.194,1.822-19.635,12.171-19.635,24.074v47.239
	c0,2.279-0.887,4.421-2.499,6.033c-1.612,1.611-3.754,2.499-6.034,2.499c-4.705,0-8.532-3.828-8.532-8.532V56.451
	c0-11.903-8.441-22.252-19.635-24.073c-6.894-1.121-13.87,0.805-19.137,5.284c-5.27,4.482-8.292,11.018-8.292,17.932v136.275
	c0,4.703-3.825,8.529-8.527,8.532c-0.002,0-0.003,0-0.005,0s-0.003,0-0.005,0c-4.702-0.003-8.527-3.829-8.527-8.532V24.385
	c0-11.903-8.441-22.252-19.635-24.073c-6.892-1.12-13.869,0.805-19.137,5.284c-5.27,4.482-8.292,11.018-8.292,17.932v168.341
	c0,4.703-3.825,8.529-8.528,8.532c-0.002,0-0.003,0-0.005,0s-0.003,0-0.005,0c-4.702-0.003-8.527-3.829-8.527-8.532V56.451
	c0-11.903-8.441-22.252-19.635-24.073c-6.896-1.121-13.87,0.805-19.137,5.284c-5.27,4.482-8.292,11.018-8.292,17.932v160.325
	c0,4.705-3.828,8.532-8.532,8.532c-4.705,0-8.533-3.828-8.533-8.532V112.565c0-11.903-8.441-22.252-19.635-24.073
	c-6.895-1.123-13.87,0.804-19.137,5.284c-5.27,4.482-8.292,11.018-8.292,17.931v138.685c0,20.445,3.122,40.697,9.278,60.193
	l35.084,111.1c-2.645,2.784-4.281,6.536-4.281,10.671v64.13c0,8.556,6.96,15.516,15.516,15.516h192.389
	c8.556,0,15.516-6.96,15.516-15.516v-64.132c0-3.841-1.411-7.354-3.731-10.066l34.658-92.422
	c6.074-16.198,9.154-33.182,9.154-50.483v-79.499C407.792,192.971,404.77,186.435,399.5,181.953z M382.771,191.474
	c2.582-0.421,5.072,0.256,7.011,1.905c1.913,1.627,3.01,3.998,3.01,6.505v16.548h-17.065v-15.69
	C375.727,196.188,378.821,192.117,382.771,191.474z M314.608,49.088c1.938-1.648,4.428-2.327,7.011-1.905
	c3.95,0.642,7.043,4.713,7.043,9.268v15.69h-17.064V55.593C311.597,53.086,312.694,50.715,314.608,49.088z M311.597,191.868V87.141
	h17.064v160.841c0,10.354,6.724,19.16,16.032,22.3v1.749c0,13.545-11.02,24.564-24.564,24.564h-24.564v-82.427
	C304.873,211.029,311.597,202.222,311.597,191.868z M250.479,17.023c1.938-1.648,4.424-2.326,7.011-1.905
	c3.95,0.642,7.043,4.713,7.043,9.268v15.69h-17.064V23.527C247.467,21.021,248.566,18.65,250.479,17.023z M247.467,191.868V55.077
	h17.064v136.792c0,10.354,6.724,19.16,16.032,22.3v129.949c0,0.02-0.003,0.039-0.003,0.058c0,4.142,3.358,7.5,7.5,7.5h24.051
	c4.705,0,8.532,3.828,8.532,8.532v16.032c0,4.705-3.828,8.532-8.532,8.532H199.887c-4.705,0-8.532-3.828-8.532-8.532v-16.032
	c0-4.705,3.828-8.532,8.532-8.532h56.114c4.142,0,7.5-3.358,7.5-7.5s-3.358-7.5-7.5-7.5h-24.565v-32.571c0-0.003,0-0.006,0-0.01
	s0-0.006,0-0.01v-89.917C240.743,211.029,247.467,202.222,247.467,191.868z M280.565,416.838h-49.129v-17.065h49.129V416.838z
	 M186.349,49.088c1.938-1.648,4.428-2.327,7.011-1.905c3.95,0.643,7.043,4.713,7.043,9.268v15.69h-17.064V55.593
	C183.339,53.086,184.436,50.715,186.349,49.088z M183.339,215.917V87.141h17.064v104.727c0,10.353,6.724,19.16,16.032,22.299v82.427
	h-24.564c-13.545,0-24.564-11.02-24.564-24.564v-33.813C176.614,235.077,183.339,226.27,183.339,215.917z M122.218,105.201
	c1.938-1.648,4.427-2.326,7.011-1.905c3.95,0.643,7.044,4.713,7.044,9.268v15.69h-17.065v-16.548
	C119.208,109.199,120.305,106.828,122.218,105.201z M159.29,496.484V471.92h80.678c4.142,0,7.5-3.358,7.5-7.5
	c0-4.142-3.358-7.5-7.5-7.5H159.29v-24.565c0-0.285,0.231-0.516,0.516-0.516h16.032c4.142,0,7.5-3.358,7.5-7.5s-3.358-7.5-7.5-7.5
	h-13.067l-34.98-110.771c-5.695-18.033-8.582-36.765-8.582-55.677V143.255h17.065v72.663c0,10.354,6.724,19.16,16.033,22.3v33.813
	c0,21.816,17.749,39.564,39.564,39.564h24.564v25.081h-16.548c-12.976,0-23.532,10.557-23.532,23.532v16.032
	c0,12.976,10.557,23.532,23.532,23.532h16.548v17.065h-8.534c-4.142,0-7.5,3.358-7.5,7.5s3.358,7.5,7.5,7.5h80.164
	c17.965,0,32.581,14.616,32.581,32.581c0,17.965-14.616,32.581-32.581,32.581H159.806C159.522,497,159.29,496.769,159.29,496.484z
	 M352.711,496.484c0,0.285-0.231,0.516-0.516,0.516h-29.501c8.022-8.521,12.952-19.982,12.952-32.581s-4.931-24.06-12.952-32.581
	h29.501c0.285,0,0.516,0.231,0.516,0.516V496.484z M384.593,324.599l-34.589,92.239h-54.439v-17.065h16.548
	c12.976,0,23.532-10.557,23.532-23.532v-16.032c0-12.976-10.557-23.532-23.532-23.532h-16.548v-25.081h24.564
	c21.816,0,39.564-17.749,39.564-39.564v-1.738c3.405-1.141,6.527-3.057,9.14-5.67c4.445-4.445,6.893-10.354,6.892-16.64v-16.548
	h17.065v47.95C392.792,294.879,390.033,310.092,384.593,324.599z"/>
<path d="M303.581,464.42c0-4.142-3.358-7.5-7.5-7.5h-16.032c-4.142,0-7.5,3.358-7.5,7.5c0,4.142,3.358,7.5,7.5,7.5h16.032
	C300.223,471.92,303.581,468.562,303.581,464.42z"/>
<g>
</g>
<g>
</g>
<g>
</g>
<g>
</g>
<g>
</g>
<g>
</g>
<g>
</g>
<g>
</g>
<g>
</g>
<g>
</g>
<g>
</g>
<g>
</g>
<g>
</g>
<g>
</g>
<g>
</g>
</svg>
