<?xml version="1.0" encoding="iso-8859-1"?>
<!-- Generator: Adobe Illustrator 19.0.0, SVG Export Plug-In . SVG Version: 6.00 Build 0)  -->
<svg version="1.1" id="Capa_1" xmlns="http://www.w3.org/2000/svg" xmlns:xlink="http://www.w3.org/1999/xlink" x="0px" y="0px"
	 viewBox="0 0 512 512" style="enable-background:new 0 0 512 512;" xml:space="preserve">
<rect x="223.938" y="424.34" style="fill:#867E88;" width="48.1" height="80.16"/>
<polygon style="fill:#6F6571;" points="247.982,456.388 272.03,456.388 272.03,424.339 223.933,424.339 223.933,504.5 
	247.982,504.5 "/>
<circle style="fill:#C9C6CA;" cx="368.228" cy="215.92" r="16.03"/>
<path style="fill:#EDEBED;" d="M368.224,167.823L368.224,167.823c-8.854,0-16.032-7.178-16.032-16.032v-8.016
	c0-8.854,7.178-16.032,16.032-16.032l0,0c8.854,0,16.032,7.178,16.032,16.032v8.016
	C384.256,160.645,377.078,167.823,368.224,167.823z"/>
<circle style="fill:#C9C6CA;" cx="312.108" cy="119.73" r="16.03"/>
<path style="fill:#EDEBED;" d="M312.111,71.629L312.111,71.629c-8.854,0-16.032-7.178-16.032-16.032v-8.016
	c0-8.854,7.178-16.032,16.032-16.032l0,0c8.854,0,16.032,7.178,16.032,16.032v8.016C328.143,64.451,320.965,71.629,312.111,71.629z"
	/>
<circle style="fill:#C9C6CA;" cx="255.998" cy="95.68" r="16.03"/>
<path style="fill:#EDEBED;" d="M255.998,47.581L255.998,47.581c-8.854,0-16.032-7.178-16.032-16.032v-8.016
	c0-8.854,7.178-16.032,16.032-16.032l0,0c8.854,0,16.032,7.178,16.032,16.032v8.016C272.03,40.403,264.852,47.581,255.998,47.581z"
	/>
<circle style="fill:#C9C6CA;" cx="199.888" cy="119.73" r="16.03"/>
<path style="fill:#EDEBED;" d="M199.885,71.629L199.885,71.629c-8.854,0-16.032-7.178-16.032-16.032v-8.016
	c0-8.854,7.178-16.032,16.032-16.032l0,0c8.854,0,16.032,7.178,16.032,16.032v8.016C215.917,64.451,208.739,71.629,199.885,71.629z"
	/>
<g>
	<path style="fill:#C9C6CA;" d="M312.111,167.823c-8.854,0-16.032,7.178-16.032,16.032V256h32.065v-72.145
		C328.143,175.001,320.965,167.823,312.111,167.823z"/>
	<path style="fill:#C9C6CA;" d="M199.885,167.823c-8.854,0-16.032,7.178-16.032,16.032v64.129h32.065v-64.129
		C215.917,175.001,208.739,167.823,199.885,167.823z"/>
	<path style="fill:#C9C6CA;" d="M255.998,143.774c-8.854,0-16.032,7.178-16.032,16.032v64.129h32.065v-64.129
		C272.03,150.952,264.852,143.774,255.998,143.774z"/>
	<path style="fill:#C9C6CA;" d="M143.772,191.871c-8.854,0-16.032,7.178-16.032,16.032v39.495c0,10.898,2.767,21.598,8.06,31.125
		L159.804,256v-48.097C159.804,199.049,152.626,191.871,143.772,191.871z"/>
</g>
<path style="fill:#EDEBED;" d="M353.744,263.758L269.992,215.9c-8.805-5.031-19.47-5.601-28.761-1.536l-97.833,42.802
	c-8.151,3.566-11.986,13.405-7.689,21.195c0.03,0.054,0.06,0.109,0.09,0.163l27.985,50.373c2.647,4.764,4.036,10.124,4.036,15.573
	v31.772c0,8.854,7.178,16.032,16.032,16.032H312.11c8.854,0,16.032-7.178,16.032-16.032v-30.885c0-6.009,1.689-11.897,4.874-16.993
	l26.368-42.189C364.209,278.456,361.647,268.274,353.744,263.758z"/>
<path style="fill:#DBD9DC;" d="M217.909,360.21c-13.282,0-24.048-10.767-24.048-24.048v-7.887c0-5.449-1.389-10.808-4.035-15.572
	l-27.986-50.374c-0.03-0.054-0.061-0.109-0.091-0.163c-2.268-4.111-2.222-8.771-0.522-12.8l-18.265,7.991
	c-8.157,3.569-11.476,13.38-7.163,21.168l0,0l27.985,50.373c2.647,4.764,4.036,10.124,4.036,15.574v31.772
	c0,8.854,7.178,16.032,16.032,16.032H312.11c8.854,0,16.032-7.178,16.032-16.032v-0.164v-15.87H217.909z"/>
<circle style="fill:#C9C6CA;" cx="143.768" cy="143.77" r="16.03"/>
<path style="fill:#EDEBED;" d="M143.772,95.677L143.772,95.677c-8.854,0-16.032-7.178-16.032-16.032v-8.016
	c0-8.854,7.178-16.032,16.032-16.032l0,0c8.854,0,16.032,7.178,16.032,16.032v8.016C159.804,88.5,152.627,95.677,143.772,95.677z"/>
<path style="fill:#9C969E;" d="M191.869,392.274l4.98,19.92c1.784,7.137,8.197,12.144,15.553,12.144h71.159
	c7.357,0,13.769-5.007,15.553-12.144l4.98-19.92H191.869z"/>
<path d="M391.756,151.791v-8.016c0-12.976-10.557-23.533-23.533-23.533c-12.976,0-23.532,10.557-23.532,23.533v8.016
	c0,10.354,6.724,19.16,16.032,22.3v19.53c-9.308,3.139-16.032,11.946-16.032,22.3c0,7.268,3.314,13.776,8.508,18.096l-6.575,17.036
	l-10.981-6.275v-60.922c0-10.353-6.724-19.16-16.032-22.299v-19.53c9.308-3.139,16.032-11.946,16.032-22.3
	s-6.724-19.161-16.033-22.3v-19.53c9.308-3.139,16.033-11.946,16.033-22.3v-8.016c0-12.976-10.557-23.532-23.532-23.532
	s-23.532,10.557-23.532,23.532v8.016c0,10.353,6.724,19.16,16.032,22.299v19.53c-9.308,3.139-16.032,11.946-16.032,22.299
	c0,10.354,6.724,19.161,16.032,22.3v19.53c-9.308,3.139-16.033,11.946-16.033,22.3v34.028l-9.048-5.17v-52.906
	c0-10.354-6.724-19.16-16.032-22.3v-19.53c9.308-3.139,16.032-11.946,16.032-22.3s-6.724-19.16-16.032-22.3v-19.53
	c9.308-3.139,16.032-11.946,16.032-22.3v-8.016C279.53,10.557,268.974,0,255.998,0s-23.532,10.557-23.532,23.532v8.016
	c0,10.354,6.724,19.16,16.032,22.3v19.53c-9.308,3.139-16.032,11.946-16.032,22.3s6.724,19.16,16.032,22.3v19.53
	c-9.308,3.139-16.032,11.946-16.032,22.3v50.184l-9.048,3.925v-30.061c0-10.354-6.724-19.16-16.032-22.3v-19.53
	c9.308-3.139,16.032-11.946,16.032-22.3s-6.724-19.161-16.033-22.3v-19.53c9.308-3.139,16.033-11.946,16.033-22.3V47.58
	c0-12.976-10.557-23.532-23.532-23.532c-12.975,0-23.532,10.557-23.532,23.532v8.016c0,10.353,6.724,19.16,16.032,22.299v19.53
	c-9.308,3.139-16.032,11.946-16.032,22.299c0,10.354,6.724,19.161,16.032,22.3v19.53c-9.308,3.139-16.032,11.946-16.032,22.3v50.48
	l-9.048,3.925v-30.357c0-10.354-6.724-19.16-16.032-22.3v-19.53c9.308-3.139,16.032-11.946,16.032-22.3s-6.724-19.161-16.033-22.3
	v-19.53c9.308-3.139,16.033-11.946,16.033-22.3v-8.016c0-12.976-10.557-23.532-23.532-23.532c-12.976,0-23.533,10.557-23.533,23.532
	v8.016c0,10.353,6.724,19.16,16.032,22.299v19.53c-9.308,3.139-16.032,11.946-16.032,22.3s6.724,19.16,16.033,22.3v19.53
	c-9.308,3.139-16.033,11.946-16.033,22.3v39.495c0,12.142,3.113,24.165,9.004,34.768l27.986,50.374
	c2.022,3.641,3.091,7.766,3.091,11.93v31.771c0,12.976,10.557,23.533,23.532,23.533h2.16l3.56,14.239
	c2.624,10.495,12.011,17.825,22.83,17.825h4.031V504.5c0,4.142,3.358,7.5,7.5,7.5s7.5-3.358,7.5-7.5v-40.597h33.097V504.5
	c0,4.142,3.358,7.5,7.5,7.5s7.5-3.358,7.5-7.5v-72.661h4.031c10.818,0,20.206-7.33,22.83-17.825l3.56-14.239h2.16
	c12.976,0,23.532-10.557,23.532-23.533v-30.885c0-4.608,1.291-9.11,3.733-13.018l5.144-8.23c2.195-3.513,1.127-8.14-2.385-10.335
	c-3.514-2.197-8.141-1.127-10.335,2.385l-5.145,8.231c-3.934,6.295-6.013,13.545-6.013,20.968v30.885
	c0,4.705-3.828,8.533-8.532,8.533h-72.146c-4.142,0-7.5,3.358-7.5,7.5s3.358,7.5,7.5,7.5h54.524l-2.65,10.602
	c-0.952,3.805-4.355,6.463-8.278,6.463h-71.158c-3.922,0-7.326-2.658-8.278-6.463l-2.65-10.602h6.427c4.142,0,7.5-3.358,7.5-7.5
	s-3.358-7.5-7.5-7.5h-24.049c-4.705,0-8.532-3.828-8.532-8.533V344.47c0-6.707-1.722-13.351-4.979-19.214l-27.986-50.374
	c-1.407-2.534-2.611-5.171-3.609-7.882l105.491-45.766c7.083-3.1,15.32-2.659,22.034,1.177l83.751,47.858
	c2.034,1.163,3.469,3.054,4.041,5.326s0.203,4.618-1.039,6.604l-4.859,7.774c-2.195,3.513-1.128,8.14,2.385,10.335
	c1.236,0.772,2.61,1.141,3.968,1.141c2.5,0,4.944-1.25,6.367-3.526l4.859-7.774c3.425-5.479,4.442-11.948,2.866-18.214
	c-1.354-5.379-4.472-9.975-8.873-13.199l7.453-19.311c0.343,0.015,0.687,0.026,1.033,0.026c12.976,0,23.533-10.557,23.533-23.532
	c0-10.354-6.724-19.16-16.033-22.3v-19.53C385.032,170.951,391.756,162.144,391.756,151.791z M264.53,448.903h-33.097v-17.064
	h33.097V448.903z M303.579,47.581c0-4.705,3.828-8.532,8.532-8.532s8.532,3.828,8.532,8.532v8.016c0,4.705-3.828,8.532-8.532,8.532
	s-8.532-3.828-8.532-8.532V47.581z M312.111,111.193c4.705,0,8.532,3.828,8.532,8.532c0,4.705-3.828,8.533-8.532,8.533
	s-8.532-3.828-8.532-8.533C303.579,115.021,307.407,111.193,312.111,111.193z M303.579,183.855c0-4.705,3.828-8.532,8.532-8.532
	s8.532,3.828,8.532,8.532v52.35l-17.064-9.751L303.579,183.855L303.579,183.855z M247.466,23.532c0-4.705,3.828-8.532,8.532-8.532
	s8.532,3.828,8.532,8.532v8.016c0,4.705-3.828,8.532-8.532,8.532s-8.532-3.828-8.532-8.532V23.532z M255.998,87.145
	c4.705,0,8.532,3.828,8.532,8.532s-3.828,8.532-8.532,8.532s-8.532-3.828-8.532-8.532S251.293,87.145,255.998,87.145z
	 M191.353,47.581c0-4.705,3.828-8.532,8.532-8.532c4.704,0,8.532,3.828,8.532,8.532v8.016c0,4.705-3.828,8.532-8.532,8.532
	c-4.704,0-8.532-3.828-8.532-8.532V47.581z M199.885,111.193c4.705,0,8.532,3.828,8.532,8.532c0,4.705-3.828,8.533-8.532,8.533
	c-4.704,0-8.532-3.828-8.532-8.533C191.353,115.021,195.181,111.193,199.885,111.193z M191.353,183.855
	c0-4.705,3.828-8.532,8.532-8.532c4.704,0,8.532,3.828,8.532,8.532v36.569l-17.064,7.403V183.855z M135.24,71.629
	c0-4.705,3.828-8.532,8.533-8.532c4.705,0,8.532,3.828,8.532,8.532v8.016c0,4.705-3.828,8.532-8.532,8.532
	c-4.705,0-8.533-3.828-8.533-8.532V71.629z M143.772,135.242c4.705,0,8.532,3.828,8.532,8.533s-3.828,8.532-8.532,8.532
	c-4.705,0-8.533-3.828-8.533-8.532C135.24,139.069,139.067,135.242,143.772,135.242z M135.24,247.398v-39.495
	c0-4.705,3.828-8.532,8.533-8.532c4.705,0,8.532,3.828,8.532,8.532v36.864l-16.863,7.316
	C135.312,250.527,135.24,248.964,135.24,247.398z M247.466,204.752v-44.945c0-4.705,3.828-8.532,8.532-8.532
	s8.532,3.828,8.532,8.532v45.799C258.975,204.094,253.14,203.799,247.466,204.752z M359.691,143.774
	c0-4.705,3.828-8.533,8.532-8.533c4.705,0,8.533,3.828,8.533,8.533v8.016c0,4.705-3.828,8.532-8.533,8.532s-8.532-3.828-8.532-8.532
	V143.774z M368.224,224.452c-4.705,0-8.532-3.828-8.532-8.532s3.828-8.532,8.532-8.532c4.705,0,8.533,3.828,8.533,8.532
	S372.929,224.452,368.224,224.452z"/>
<path d="M199.885,352.709c-4.142,0-7.5,3.358-7.5,7.5s3.358,7.5,7.5,7.5h96.193c4.142,0,7.5-3.358,7.5-7.5s-3.358-7.5-7.5-7.5
	H199.885z"/>
<g>
</g>
<g>
</g>
<g>
</g>
<g>
</g>
<g>
</g>
<g>
</g>
<g>
</g>
<g>
</g>
<g>
</g>
<g>
</g>
<g>
</g>
<g>
</g>
<g>
</g>
<g>
</g>
<g>
</g>
</svg>
