<?xml version="1.0" encoding="iso-8859-1"?>
<!-- Generator: Adobe Illustrator 19.0.0, SVG Export Plug-In . SVG Version: 6.00 Build 0)  -->
<svg version="1.1" id="Capa_1" xmlns="http://www.w3.org/2000/svg" xmlns:xlink="http://www.w3.org/1999/xlink" x="0px" y="0px"
	 viewBox="0 0 511.999 511.999" style="enable-background:new 0 0 511.999 511.999;" xml:space="preserve">
<g>
	<path style="fill:#99E7FF;" d="M75.612,227.943h134.125c15.466,0,26.911,14.387,23.434,29.456l-8.648,37.472
		c-5.036,21.823-24.468,37.282-46.865,37.282h-79.66c-19.782,0-36.607-14.434-39.615-33.986l-6.541-42.518
		C49.602,241.08,60.873,227.943,75.612,227.943z"/>
	<path style="fill:#99E7FF;" d="M436.388,227.943H302.263c-15.466,0-26.911,14.387-23.434,29.456l8.648,37.472
		c5.036,21.823,24.468,37.282,46.865,37.282h79.659c19.782,0,36.607-14.434,39.615-33.986l6.54-42.518
		C462.398,241.08,451.127,227.943,436.388,227.943z"/>
</g>
<path style="fill:#CCF3FF;" d="M209.735,251.991l0.004,0.003l-8.651,37.475c-2.531,10.972-12.168,18.635-23.433,18.635H98.002
	c-7.972,0-14.638-5.718-15.851-13.594l-6.538-42.519L209.735,251.991"/>
<path style="fill:#4BD7C8;" d="M143.774,227.943H71.629v40.081h72.145c4.427,0,8.016-3.589,8.016-8.016v-24.049
	C151.79,231.531,148.202,227.943,143.774,227.943z"/>
<line style="fill:none;stroke:#464646;stroke-width:16;stroke-linecap:round;stroke-linejoin:round;stroke-miterlimit:10;" x1="55.6" y1="251.989" x2="55.677" y2="251.989"/>
<path style="fill:#CCF3FF;" d="M436.393,251.987l-6.544,42.522c-1.213,7.878-7.88,13.595-15.851,13.595h-79.652
	c-11.265,0-20.902-7.663-23.434-18.636l-8.646-37.477h134.121L436.393,251.987"/>
<path style="fill:#EDEBED;" d="M39.565,276.039H71.63c8.854,0,16.032-7.178,16.032-16.032v-16.032
	c0-8.854-7.178-16.032-16.032-16.032H39.565c-8.854,0-16.032,7.178-16.032,16.032v16.032
	C23.532,268.861,30.71,276.039,39.565,276.039z"/>
<path d="M55.677,244.491h-0.08c-4.142,0-7.46,3.358-7.46,7.5s3.398,7.5,7.54,7.5s7.5-3.358,7.5-7.5S59.819,244.491,55.677,244.491z"
	/>
<path d="M472.436,172.346h-16.032c-4.142,0-7.5,3.358-7.5,7.5s3.358,7.5,7.5,7.5h16.032c13.545,0,24.564,11.02,24.564,24.564
	s-11.02,24.564-24.564,24.564h-8.589c-1-1.769-2.168-3.457-3.515-5.026c-6.001-6.994-14.728-11.006-23.944-11.006H302.262
	c-9.67,0-18.669,4.34-24.689,11.908c-3.63,4.563-5.862,9.918-6.594,15.515c-4.565-2.178-9.652-3.375-14.979-3.375
	s-10.414,1.197-14.979,3.375c-0.733-5.597-2.965-10.952-6.594-15.515c-6.02-7.568-15.019-11.908-24.689-11.908h-25.883
	c-4.142,0-7.5,3.358-7.5,7.5s3.358,7.5,7.5,7.5h25.883c5.072,0,9.792,2.277,12.95,6.247c3.158,3.969,4.315,9.081,3.174,14.023
	l-8.647,37.472c-4.275,18.528-20.542,31.468-39.557,31.468H97.999c-16.196,0-29.739-11.619-32.202-27.627l-2.075-13.486h7.907
	c7.035,0,13.354-3.107,17.67-8.016h54.475c8.556,0,15.516-6.96,15.516-15.516v-24.049c0-8.556-6.96-15.516-15.516-15.516H39.564
	c-7.158,0-13.575,3.216-17.895,8.275c-4.214-4.494-6.67-10.477-6.67-16.807c0-13.545,11.02-24.564,24.564-24.564h16.032
	c4.142,0,7.5-3.358,7.5-7.5s-3.358-7.5-7.5-7.5H39.564C17.749,172.346,0,190.094,0,211.91c0,12.621,6.042,24.397,16.039,31.803
	c-0.001,0.087-0.007,0.174-0.007,0.261v16.033c0,12.976,10.557,23.532,23.532,23.532h8.981l2.426,15.767
	c3.597,23.378,23.375,40.346,47.027,40.346h79.659c26.041,0,48.317-17.721,54.173-43.095l5.437-23.559
	c2.778-8.102,10.218-13.508,18.732-13.508c8.514,0,15.954,5.405,18.732,13.508l5.437,23.559
	c5.856,25.374,28.133,43.095,54.173,43.095h41.9c4.142,0,7.5-3.358,7.5-7.5s-3.358-7.5-7.5-7.5h-41.9
	c-19.015,0-35.282-12.94-39.557-31.468l-8.647-37.472c-1.141-4.942,0.016-10.054,3.174-14.023c3.158-3.97,7.878-6.247,12.95-6.247
	h134.126c4.834,0,9.412,2.104,12.56,5.773c3.148,3.669,4.532,8.514,3.797,13.292l-6.542,42.519
	c-2.463,16.008-16.006,27.627-32.202,27.627c-4.142,0-7.5,3.358-7.5,7.5s3.358,7.5,7.5,7.5c23.653,0,43.431-16.968,47.027-40.346
	l6.542-42.519c0.273-1.772,0.388-3.549,0.36-5.313h4.506c21.816,0,39.564-17.749,39.564-39.564S494.251,172.346,472.436,172.346z
	 M144.291,235.958v24.049c0,0.285-0.231,0.516-0.516,0.516H95.148c0.004-0.172,0.013-0.343,0.013-0.516v-16.033
	c0-3.009-0.574-5.885-1.608-8.532h50.221C144.059,235.442,144.291,235.674,144.291,235.958z M31.032,260.007v-16.033
	c0-4.705,3.828-8.532,8.532-8.532h32.064c4.705,0,8.532,3.828,8.532,8.532v16.033c0,4.705-3.828,8.532-8.532,8.532H39.564
	C34.86,268.54,31.032,264.712,31.032,260.007z"/>
<g>
</g>
<g>
</g>
<g>
</g>
<g>
</g>
<g>
</g>
<g>
</g>
<g>
</g>
<g>
</g>
<g>
</g>
<g>
</g>
<g>
</g>
<g>
</g>
<g>
</g>
<g>
</g>
<g>
</g>
</svg>
