<?xml version="1.0" encoding="iso-8859-1"?>
<!-- Generator: Adobe Illustrator 19.0.0, SVG Export Plug-In . SVG Version: 6.00 Build 0)  -->
<svg version="1.1" id="Capa_1" xmlns="http://www.w3.org/2000/svg" xmlns:xlink="http://www.w3.org/1999/xlink" x="0px" y="0px"
	 viewBox="0 0 511.999 511.999" style="enable-background:new 0 0 511.999 511.999;" xml:space="preserve">
<g>
	<path style="fill:#9C969E;" d="M63.613,191.87H15.516c-4.427,0-8.016,3.589-8.016,8.016v17.477c0,3.821,2.697,7.111,6.444,7.86
		l33.637,6.727L63.613,191.87z"/>
	<path style="fill:#9C969E;" d="M448.387,191.87h48.097c4.427,0,8.016,3.589,8.016,8.016v17.477c0,3.821-2.697,7.111-6.444,7.86
		l-33.637,6.727L448.387,191.87z"/>
</g>
<path style="fill:#EDEBED;" d="M63.613,191.87c-8.854,0-16.032,7.178-16.032,16.032v67.218c0,24.857,93.312,45.008,208.419,45.008
	s208.419-20.151,208.419-45.008v-67.218c0-8.854-7.178-16.032-16.032-16.032H63.613z"/>
<path style="fill:#59D8FF;" d="M79.645,223.934v35.595c0,3.3,1.945,6.256,5.018,7.459c23.615,9.249,82.882,21.074,171.337,21.074
	s147.723-11.826,171.337-21.074c3.073-1.203,5.018-4.159,5.018-7.459v-35.595H79.645z"/>
<g>
	<path style="fill:#99E7FF;" d="M392.274,255.999c0-11.931-3.751-22.972-10.1-32.065h-92.025c-6.349,9.093-10.1,20.133-10.1,32.065
		c0,11.659,3.56,22.485,9.647,31.458c40.764-1.463,73.809-5.454,98.355-10.125C390.758,270.753,392.274,263.556,392.274,255.999z"/>
	<path style="fill:#99E7FF;" d="M119.726,255.999c0,7.557,1.516,14.754,4.224,21.333c24.546,4.671,57.591,8.662,98.355,10.125
		c6.087-8.973,9.647-19.799,9.647-31.458c0-11.931-3.751-22.972-10.1-32.065h-92.025
		C123.477,233.027,119.726,244.068,119.726,255.999z"/>
</g>
<g>
	<path style="fill:#CCF3FF;" d="M143.774,255.999c0,11.05,5.592,20.79,14.098,26.556c9.398,1.147,19.605,2.145,30.456,2.985
		c11.504-4.87,19.576-16.262,19.576-29.54c0-17.709-14.356-32.065-32.065-32.065S143.774,238.29,143.774,255.999z"/>
	<path style="fill:#CCF3FF;" d="M304.097,255.999c0,13.278,8.071,24.671,19.576,29.54c10.851-0.839,21.057-1.838,30.456-2.985
		c8.505-5.766,14.098-15.506,14.098-26.556c0-17.709-14.356-32.065-32.065-32.065C318.452,223.934,304.097,238.29,304.097,255.999z"
		/>
</g>
<path d="M432.355,216.435h-64.129c-4.142,0-7.5,3.358-7.5,7.5s3.358,7.5,7.5,7.5h9.895c4.362,7.428,6.653,15.845,6.653,24.564
	c0,5.048-0.774,9.989-2.282,14.732c-22.831,4.091-52.683,7.583-88.726,9.067c-4.076-7.241-6.218-15.39-6.218-23.799
	c0-8.72,2.291-17.137,6.653-24.564h41.96c4.142,0,7.5-3.358,7.5-7.5s-3.358-7.5-7.5-7.5H79.645c-4.142,0-7.5,3.358-7.5,7.5v40.874
	c0,2.862,1.628,5.474,4.198,6.734c11.269,5.526,32.485,11.099,58.208,15.29c0.409,0.066,0.814,0.099,1.215,0.099
	c3.611,0,6.793-2.615,7.393-6.295c0.666-4.088-2.108-7.942-6.196-8.608c-2.528-0.412-5.011-0.839-7.447-1.278
	c-1.512-4.748-2.29-9.693-2.29-14.75c0-8.719,2.291-17.136,6.653-24.564h83.919c4.362,7.427,6.653,15.844,6.653,24.564
	c0,8.386-2.147,16.555-6.22,23.796c-17.234-0.703-33.839-1.882-49.615-3.558c-4.118-0.443-7.813,2.546-8.25,6.666
	c-0.438,4.119,2.547,7.813,6.666,8.25c27.547,2.926,57.481,4.41,88.968,4.41c89.783,0,156.066-12.452,179.657-24.021
	c2.569-1.26,4.198-3.872,4.198-6.734v-40.874C439.855,219.792,436.497,216.435,432.355,216.435z M113.265,267.468
	c-10.664-2.406-19.689-5.003-26.12-7.555v-28.479h30.005c-3.237,7.72-4.925,16.031-4.925,24.564
	C112.226,259.878,112.58,263.707,113.265,267.468z M234.631,280.319c3.171-7.664,4.821-15.911,4.821-24.32
	c0-8.534-1.688-16.845-4.925-24.564h42.946c-3.237,7.719-4.925,16.03-4.925,24.564c0,8.431,1.654,16.662,4.824,24.318
	c-6.929,0.157-14.043,0.247-21.373,0.247C248.786,280.563,241.665,280.476,234.631,280.319z M424.855,259.913
	c-6.068,2.41-14.847,5.025-26.116,7.559c0.686-3.763,1.036-7.595,1.036-11.473c0-8.534-1.688-16.845-4.925-24.564h30.005
	L424.855,259.913L424.855,259.913z"/>
<path d="M496.484,184.37H15.516C6.96,184.37,0,191.331,0,199.886v17.477c0,7.371,5.246,13.77,12.473,15.215L40.08,238.1v37.021
	c0,16.618,21.903,29.426,66.961,39.156c39.87,8.609,92.771,13.351,148.958,13.351s109.088-4.742,148.958-13.351
	c45.058-9.73,66.961-22.539,66.961-39.156v-37.022l27.607-5.522c7.228-1.445,12.474-7.844,12.474-15.215v-17.477
	C512,191.331,505.04,184.37,496.484,184.37z M15.414,217.869c-0.24-0.048-0.414-0.261-0.414-0.506v-17.477
	c0-0.285,0.231-0.516,0.516-0.516h26.172c-1.034,2.647-1.608,5.523-1.608,8.532v14.9L15.414,217.869z M401.792,299.615
	c-38.86,8.392-90.637,13.013-145.792,13.013s-106.931-4.622-145.792-13.013c-45.224-9.766-55.128-20.993-55.128-24.494v-67.218
	c0-4.705,3.828-8.532,8.532-8.532h384.774c4.705,0,8.532,3.828,8.532,8.532v67.218C456.919,278.622,447.016,289.849,401.792,299.615
	z M497,217.363c0,0.245-0.174,0.458-0.415,0.506l-24.666,4.933v-14.9c0-3.009-0.574-5.885-1.608-8.532h26.172
	c0.285,0,0.516,0.231,0.516,0.516v17.477H497z"/>
<g>
</g>
<g>
</g>
<g>
</g>
<g>
</g>
<g>
</g>
<g>
</g>
<g>
</g>
<g>
</g>
<g>
</g>
<g>
</g>
<g>
</g>
<g>
</g>
<g>
</g>
<g>
</g>
<g>
</g>
</svg>
