<?xml version="1.0" encoding="iso-8859-1"?>
<!-- Generator: Adobe Illustrator 19.0.0, SVG Export Plug-In . SVG Version: 6.00 Build 0)  -->
<svg version="1.1" id="Capa_1" xmlns="http://www.w3.org/2000/svg" xmlns:xlink="http://www.w3.org/1999/xlink" x="0px" y="0px"
	 viewBox="0 0 511.998 511.998" style="enable-background:new 0 0 511.998 511.998;" xml:space="preserve">
<path style="fill:#5D5360;" d="M284.48,104.539c-2.716-5.431-8.267-8.862-14.34-8.862h-28.28c-6.073,0-11.624,3.431-14.34,8.862
	l-11.601,23.202h80.161L284.48,104.539z"/>
<path style="fill:#AEA8AF;" d="M496.484,328.145H15.516c-4.427,0-8.016-3.589-8.016-8.016v-48.097c0-4.427,3.589-8.016,8.016-8.016
	h480.968c4.427,0,8.016,3.589,8.016,8.016v48.097C504.5,324.556,500.911,328.145,496.484,328.145z"/>
<path style="fill:#99E9DF;" d="M440.371,416.323H71.629c-17.709,0-32.065-14.356-32.065-32.065V207.903
	c0-17.709,14.356-32.065,32.065-32.065h368.742c17.709,0,32.065,14.356,32.065,32.065v176.355
	C472.435,401.967,458.08,416.323,440.371,416.323z"/>
<rect x="71.63" y="207.9" style="fill:#4BD7C8;" width="368.74" height="176.35"/>
<path style="fill:#EDEBED;" d="M191.871,175.839l17.043,28.405c4.346,7.244,12.174,11.676,20.621,11.676h52.93
	c8.447,0,16.275-4.432,20.621-11.676l17.043-28.405H191.871z"/>
<path d="M496.484,256.516h-16.548v-48.613c0-13.014-6.318-24.578-16.046-31.793c0.003-0.091,0.014-0.18,0.014-0.272
	c0-30.656-24.94-55.597-55.597-55.597H300.716l-9.528-19.056c-4.012-8.024-12.077-13.009-21.047-13.009h-28.28
	c-8.971,0-17.036,4.985-21.047,13.009l-9.528,19.056h-91.559c-28.333,0-51.768,21.31-55.159,48.741
	c-18.456,3.341-32.502,19.516-32.502,38.921v48.613h-16.55C6.96,256.516,0,263.477,0,272.032v48.097
	c0,8.556,6.96,15.516,15.516,15.516h16.548v48.613c0,21.816,17.749,39.564,39.564,39.564H440.37
	c21.816,0,39.564-17.749,39.564-39.564v-48.613h16.548c8.556,0,15.516-6.96,15.516-15.516v-48.097
	C512,263.477,505.04,256.516,496.484,256.516z M234.229,107.894c1.455-2.909,4.379-4.717,7.631-4.717h28.28
	c3.252,0,6.176,1.808,7.631,4.717l6.174,12.348h-55.891L234.229,107.894z M119.726,135.242h288.581
	c20.105,0,36.833,14.694,40.035,33.904c-2.575-0.529-5.241-0.807-7.971-0.807H79.835C83.365,149.526,99.903,135.242,119.726,135.242
	z M306.882,183.339l-10.228,17.046c-2.974,4.956-8.411,8.035-14.19,8.035h-52.93c-5.779,0-11.216-3.079-14.19-8.035l-10.228-17.046
	H306.882z M15.516,320.645c-0.285,0-0.516-0.231-0.516-0.516v-48.097c0-0.285,0.231-0.516,0.516-0.516h16.548v49.129H15.516z
	 M464.936,384.258c0,13.545-11.02,24.564-24.564,24.564H71.629c-13.545,0-24.564-11.02-24.564-24.564V207.903
	c0-13.545,11.02-24.564,24.564-24.564h115.996l14.858,24.764c5.668,9.448,16.035,15.317,27.052,15.317h52.93
	c11.018,0,21.384-5.869,27.052-15.317l14.858-24.764h115.996c13.545,0,24.564,11.02,24.564,24.564v176.355H464.936z M497,320.129
	c0,0.285-0.231,0.516-0.516,0.516h-16.548v-49.129h16.548c0.285,0,0.516,0.231,0.516,0.516V320.129z"/>
<path d="M71.629,343.657c4.142,0,7.5-3.358,7.5-7.5V215.403h88.694c4.142,0,7.5-3.358,7.5-7.5s-3.358-7.5-7.5-7.5H71.629
	c-4.142,0-7.5,3.358-7.5,7.5v128.254C64.129,340.299,67.487,343.657,71.629,343.657z"/>
<path d="M440.371,248.504c-4.142,0-7.5,3.358-7.5,7.5v120.754H79.129v-8.53c0-4.142-3.358-7.5-7.5-7.5s-7.5,3.358-7.5,7.5v16.03
	c0,4.142,3.358,7.5,7.5,7.5h368.742c4.142,0,7.5-3.358,7.5-7.5V256.004C447.871,251.862,444.513,248.504,440.371,248.504z"/>
<path d="M440.371,200.403h-96.194c-4.142,0-7.5,3.358-7.5,7.5s3.358,7.5,7.5,7.5h88.694v8.53c0,4.142,3.358,7.5,7.5,7.5
	s7.5-3.358,7.5-7.5v-16.03C447.871,203.761,444.513,200.403,440.371,200.403z"/>
<g>
</g>
<g>
</g>
<g>
</g>
<g>
</g>
<g>
</g>
<g>
</g>
<g>
</g>
<g>
</g>
<g>
</g>
<g>
</g>
<g>
</g>
<g>
</g>
<g>
</g>
<g>
</g>
<g>
</g>
</svg>
