<?xml version="1.0" encoding="iso-8859-1"?>
<!-- Generator: Adobe Illustrator 19.0.0, SVG Export Plug-In . SVG Version: 6.00 Build 0)  -->
<svg version="1.1" id="Capa_1" xmlns="http://www.w3.org/2000/svg" xmlns:xlink="http://www.w3.org/1999/xlink" x="0px" y="0px"
	 viewBox="0 0 512.001 512.001" style="enable-background:new 0 0 512.001 512.001;" xml:space="preserve">
<polygon style="fill:#99E7FF;" points="364.216,159.806 380.25,320.129 420.331,159.806 "/>
<path style="fill:#AEA8AF;" d="M115.718,159.806c-13.282,0-24.048,10.767-24.048,24.048v160.323c0,8.854,7.178,16.032,16.032,16.032
	s16.032-7.178,16.032-16.032V223.935c0-4.427,3.589-8.016,8.016-8.016h32.065v-56.113H115.718z"/>
<path style="fill:#EDEBED;" d="M348.185,127.742H187.863c-17.709,0-32.065,14.356-32.065,32.065v272.548H380.25V159.806
	C380.25,142.097,365.895,127.742,348.185,127.742z"/>
<path style="fill:#DBD9DC;" d="M251.992,127.742h-64.129c-17.709,0-32.065,14.356-32.065,32.065v272.548h64.129V159.806
	C219.927,142.097,234.283,127.742,251.992,127.742z"/>
<rect x="155.8" y="159.81" style="fill:#CCF3FF;" width="224.45" height="272.55"/>
<rect x="155.8" y="159.81" style="fill:#99E7FF;" width="64.13" height="272.55"/>
<path style="fill:#EDEBED;" d="M380.25,504.5H155.798c-4.427,0-8.016-3.589-8.016-8.016v-64.129c0-4.427,3.589-8.016,8.016-8.016
	H380.25c4.427,0,8.016,3.589,8.016,8.016v64.129C388.266,500.911,384.677,504.5,380.25,504.5z"/>
<path style="fill:#DBD9DC;" d="M211.911,496.484v-64.129c0-4.427,3.589-8.016,8.016-8.016h-64.129c-4.427,0-8.016,3.589-8.016,8.016
	v64.129c0,4.427,3.589,8.016,8.016,8.016h64.129C215.5,504.5,211.911,500.911,211.911,496.484z"/>
<path style="fill:#99E7FF;" d="M348.185,231.952c-13.372,0-13.372,8.016-26.744,8.016c-13.372,0-13.372-8.016-26.744-8.016
	c-13.363,0-13.363,8.016-26.726,8.016c-13.351,0-13.351-8.016-26.703-8.016c-13.349,0-13.349,8.016-26.699,8.016
	c-13.353,0-13.353-8.016-26.707-8.016h-32.065v192.387H380.25V231.952H348.185z"/>
<path style="fill:#59D8FF;" d="M219.927,239.383c-1.549,0.338-3.247,0.585-5.358,0.585c-13.353,0-13.353-8.016-26.706-8.016h-32.065
	v192.387h64.129V239.383z"/>
<path d="M251.384,87.053c-2.929,2.929-2.929,7.678,0,10.607c2.929,2.928,7.678,2.929,10.607,0c3.327-3.327,8.74-3.327,12.067,0
	c1.465,1.464,3.384,2.196,5.303,2.196s3.839-0.732,5.304-2.197c2.929-2.929,2.928-7.678,0-10.607
	C275.488,77.879,260.56,77.88,251.384,87.053z"/>
<path d="M205.308,40.978C222.06,24.226,244.333,15,268.024,15s45.964,9.226,62.716,25.978c1.464,1.464,3.384,2.197,5.303,2.197
	s3.839-0.732,5.303-2.197c2.929-2.929,2.929-7.678,0-10.606C321.762,10.786,295.722,0,268.024,0
	c-27.697,0-53.737,10.786-73.322,30.371c-2.929,2.929-2.929,7.678,0,10.606C197.63,43.906,202.379,43.906,205.308,40.978z"/>
<path d="M307.702,71.516c1.919,0,3.839-0.732,5.303-2.197c2.929-2.929,2.929-7.678,0-10.606c-24.803-24.803-65.16-24.802-89.962,0
	c-2.929,2.929-2.929,7.678,0,10.606c2.929,2.929,7.678,2.929,10.606,0c18.955-18.954,49.796-18.954,68.75,0
	C303.863,70.783,305.783,71.516,307.702,71.516z"/>
<path d="M427.606,161.625c0.561-2.24,0.057-4.614-1.364-6.435s-3.602-2.884-5.912-2.884h-33.303
	c-3.515-18.241-19.591-32.065-38.842-32.065H187.863c-19.251,0-35.327,13.824-38.842,32.065h-33.303
	c-17.396,0-31.548,14.152-31.548,31.548v160.322c0,12.976,10.557,23.532,23.532,23.532s23.532-10.557,23.532-23.532v-120.24
	c0-0.285,0.231-0.516,0.516-0.516h16.548v195.362c-4.774,2.649-8.016,7.738-8.016,13.574v64.129c0,8.556,6.96,15.516,15.516,15.516
	H380.25c8.556,0,15.516-6.96,15.516-15.516v-64.129c0-5.836-3.242-10.925-8.016-13.574v-97.73L427.606,161.625z M387.75,259.206
	v-91.899h22.975L387.75,259.206z M131.75,208.419c-8.556,0-15.516,6.96-15.516,15.516v120.242c0,4.705-3.828,8.532-8.532,8.532
	s-8.532-3.828-8.532-8.532V183.855c0-9.125,7.423-16.548,16.548-16.548h32.581v41.113L131.75,208.419L131.75,208.419z
	 M380.766,496.484c0,0.285-0.231,0.516-0.516,0.516H155.798c-0.285,0-0.516-0.231-0.516-0.516v-64.129
	c0-0.285,0.231-0.516,0.516-0.516h16.029c4.142,0,7.5-3.358,7.5-7.5s-3.358-7.5-7.5-7.5h-8.529V167.307h168.853
	c4.142,0,7.5-3.358,7.5-7.5s-3.358-7.5-7.5-7.5H164.473c3.178-9.888,12.46-17.065,23.389-17.065h160.323
	c10.93,0,20.211,7.177,23.389,17.065h-7.359c-4.142,0-7.5,3.358-7.5,7.5s3.358,7.5,7.5,7.5h8.534v249.532H203.894
	c-4.142,0-7.5,3.358-7.5,7.5s3.358,7.5,7.5,7.5H380.25c0.285,0,0.516,0.231,0.516,0.516V496.484z"/>
<path d="M292.073,448.903H179.847c-4.142,0-7.5,3.358-7.5,7.5s3.358,7.5,7.5,7.5h112.226c4.142,0,7.5-3.358,7.5-7.5
	S296.215,448.903,292.073,448.903z"/>
<path d="M356.282,448.903h-0.08c-4.142,0-7.46,3.358-7.46,7.5s3.398,7.5,7.54,7.5s7.5-3.358,7.5-7.5
	S360.424,448.903,356.282,448.903z"/>
<path d="M324.137,448.903h-0.08c-4.142,0-7.46,3.358-7.46,7.5s3.398,7.5,7.54,7.5s7.5-3.358,7.5-7.5
	S328.279,448.903,324.137,448.903z"/>
<path d="M187.863,239.452c4.599,0,6.546,1.169,9.493,2.938c3.769,2.262,8.458,5.078,17.213,5.078c8.753,0,13.443-2.816,17.21-5.078
	c2.946-1.769,4.893-2.938,9.489-2.938c4.597,0,6.543,1.169,9.49,2.938c3.769,2.263,8.458,5.078,17.212,5.078
	c8.758,0,13.451-2.815,17.221-5.077c2.951-1.77,4.9-2.939,9.504-2.939c4.61,0,6.562,1.17,9.517,2.941
	c3.772,2.261,8.466,5.075,17.228,5.075s13.456-2.814,17.229-5.075c2.954-1.771,4.905-2.941,9.516-2.941c4.142,0,7.5-3.358,7.5-7.5
	s-3.358-7.5-7.5-7.5c-8.762,0-13.456,2.814-17.228,5.075c-2.954,1.771-4.906,2.941-9.516,2.941s-6.562-1.17-9.516-2.941
	c-3.772-2.261-8.466-5.075-17.229-5.075c-8.758,0-13.451,2.815-17.221,5.077c-2.951,1.77-4.9,2.939-9.505,2.939
	c-4.597,0-6.544-1.169-9.491-2.938c-3.768-2.263-8.458-5.078-17.211-5.078c-8.753,0-13.443,2.816-17.21,5.078
	c-2.946,1.769-4.893,2.938-9.489,2.938c-4.598,0-6.545-1.169-9.493-2.938c-3.769-2.262-8.459-5.078-17.214-5.078
	c-4.142,0-7.5,3.358-7.5,7.5S183.721,239.452,187.863,239.452z"/>
<g>
</g>
<g>
</g>
<g>
</g>
<g>
</g>
<g>
</g>
<g>
</g>
<g>
</g>
<g>
</g>
<g>
</g>
<g>
</g>
<g>
</g>
<g>
</g>
<g>
</g>
<g>
</g>
<g>
</g>
</svg>
