<?xml version="1.0" encoding="iso-8859-1"?>
<!-- Generator: Adobe Illustrator 19.0.0, SVG Export Plug-In . SVG Version: 6.00 Build 0)  -->
<svg version="1.1" id="Capa_1" xmlns="http://www.w3.org/2000/svg" xmlns:xlink="http://www.w3.org/1999/xlink" x="0px" y="0px"
	 viewBox="0 0 512 512" style="enable-background:new 0 0 512 512;" xml:space="preserve">
<path style="fill:#DBD9DC;" d="M304.097,231.952h-96.194c-8.854,0-16.032-7.178-16.032-16.032v-64.13h128.258v64.129
	C320.129,224.774,312.951,231.952,304.097,231.952z"/>
<rect x="215.92" y="231.95" style="fill:#9C969E;" width="80.16" height="48.1"/>
<rect x="215.92" y="231.95" style="fill:#867E88;" width="80.16" height="24.05"/>
<g>
	<path style="fill:#EDEBED;" d="M376.238,255.995L376.238,255.995c-8.854,0-16.032-7.178-16.032-16.032v-48.097
		c0-8.854,7.178-16.032,16.032-16.032l0,0c8.854,0,16.032,7.178,16.032,16.032v48.097
		C392.27,248.817,385.092,255.995,376.238,255.995z"/>
	<path style="fill:#EDEBED;" d="M376.242,312.108L376.242,312.108c-8.854,0-16.032-7.178-16.032-16.032l0,0
		c0-8.854,7.178-16.032,16.032-16.032l0,0c8.854,0,16.032,7.178,16.032,16.032l0,0C392.274,304.93,385.096,312.108,376.242,312.108z
		"/>
	<path style="fill:#EDEBED;" d="M344.177,87.661H167.823c-8.854,0-16.032,7.178-16.032,16.032v6.071
		c0,6.378,2.534,12.495,7.043,17.005l17.978,17.977c4.51,4.51,10.627,7.044,17.004,7.044h124.368c6.378,0,12.495-2.534,17.004-7.044
		l17.978-17.977c4.51-4.51,7.043-10.627,7.043-17.005v-6.071C360.21,94.839,353.032,87.661,344.177,87.661z"/>
	<path style="fill:#EDEBED;" d="M291.931,26.832C289.683,15.591,279.813,7.5,268.35,7.5h-24.7c-11.464,0-21.333,8.091-23.581,19.332
		l-12.166,60.829h96.194L291.931,26.832z"/>
	<path style="fill:#EDEBED;" d="M135.758,256L135.758,256c-8.854,0-16.032-7.178-16.032-16.032v-48.097
		c0-8.854,7.178-16.032,16.032-16.032l0,0c8.854,0,16.032,7.178,16.032,16.032v48.097C151.79,248.822,144.612,256,135.758,256z"/>
	<path style="fill:#EDEBED;" d="M135.758,312.113L135.758,312.113c-8.854,0-16.032-7.178-16.032-16.032l0,0
		c0-8.854,7.178-16.032,16.032-16.032l0,0c8.854,0,16.032,7.178,16.032,16.032l0,0C151.79,304.935,144.612,312.113,135.758,312.113z
		"/>
</g>
<rect x="191.87" y="151.79" style="fill:#C9C6CA;" width="128.26" height="24.626"/>
<path style="fill:#EDEBED;" d="M223.935,360.21h-16.032c-8.854,0-16.032-7.178-16.032-16.032v-64.129
	c0-8.854,7.178-16.032,16.032-16.032h16.032c8.854,0,16.032,7.178,16.032,16.032v64.129
	C239.968,353.032,232.79,360.21,223.935,360.21z"/>
<path style="fill:#DBD9DC;" d="M207.903,264.016c-8.854,0-16.032,7.178-16.032,16.032v64.129c0,8.854,7.178,16.032,16.032,16.032
	h8.016v-96.194L207.903,264.016L207.903,264.016z"/>
<path style="fill:#EDEBED;" d="M223.935,472.435h-16.032c-8.854,0-16.032-7.178-16.032-16.032v-48.097
	c0-8.854,7.178-16.032,16.032-16.032h16.032c8.854,0,16.032,7.178,16.032,16.032v48.097
	C239.968,465.258,232.79,472.435,223.935,472.435z"/>
<path style="fill:#DBD9DC;" d="M207.903,392.274c-8.854,0-16.032,7.178-16.032,16.032v48.097c0,8.854,7.178,16.032,16.032,16.032
	h8.016v-80.161L207.903,392.274L207.903,392.274z"/>
<path style="fill:#EDEBED;" d="M304.088,360.205h-16.032c-8.854,0-16.032-7.178-16.032-16.032v-64.129
	c0-8.854,7.178-16.032,16.032-16.032h16.032c8.854,0,16.032,7.178,16.032,16.032v64.129
	C320.12,353.027,312.942,360.205,304.088,360.205z"/>
<path style="fill:#DBD9DC;" d="M288.056,264.011c-8.855,0-16.032,7.178-16.032,16.032v64.129c0,8.854,7.178,16.032,16.032,16.032
	h8.025V264.01L288.056,264.011L288.056,264.011z"/>
<path style="fill:#EDEBED;" d="M304.088,472.431h-16.032c-8.854,0-16.032-7.178-16.032-16.032v-48.097
	c0-8.854,7.178-16.032,16.032-16.032h16.032c8.854,0,16.032,7.178,16.032,16.032v48.097
	C320.12,465.253,312.942,472.431,304.088,472.431z"/>
<g>
	<path style="fill:#DBD9DC;" d="M288.056,392.269c-8.855,0-16.032,7.178-16.032,16.032v48.097c0,8.854,7.178,16.032,16.032,16.032
		h8.025v-80.161H288.056z"/>
	<path style="fill:#DBD9DC;" d="M272.032,7.823c-1.207-0.187-2.431-0.323-3.683-0.323h-24.698c-11.464,0-21.334,8.091-23.582,19.332
		l-12.166,60.829h32.065l12.166-60.829C254.136,16.82,262.196,9.346,272.032,7.823z"/>
</g>
<path d="M399.774,239.968v-48.097c0-12.976-10.557-23.532-23.533-23.532c-0.253,0-0.504,0.011-0.756,0.019l-15.991-37.362
	c5.307-5.82,8.215-13.302,8.215-21.231v-6.071c0-12.976-10.557-23.532-23.532-23.532h-33.932l-10.96-54.8
	C296.346,10.666,283.335,0,268.35,0h-24.7c-14.986,0-27.996,10.666-30.936,25.361l-10.96,54.8h-33.932
	c-12.976,0-23.532,10.557-23.532,23.532v6.071c0,7.929,2.907,15.411,8.215,21.231l-15.991,37.362
	c-0.252-0.008-0.503-0.019-0.756-0.019c-12.976,0-23.532,10.556-23.532,23.532v48.097c0,10.354,6.724,19.161,16.033,22.3v11.513
	c-9.308,3.139-16.033,11.946-16.033,22.3c0,12.976,10.557,23.532,23.533,23.532c12.976,0,23.532-10.557,23.532-23.532
	c0-10.354-6.724-19.16-16.032-22.299v-11.514c9.308-3.14,16.032-11.946,16.032-22.3V191.87c0-7.361-3.4-13.941-8.709-18.259
	l13.334-31.154l7.592,7.593c3.66,3.659,8.061,6.303,12.863,7.803v58.066c0,12.976,10.557,23.532,23.532,23.532h0.516v17.064h-0.516
	c-12.976,0-23.532,10.557-23.532,23.532v64.129c0,12.976,10.557,23.532,23.532,23.532h0.516v17.064h-0.516
	c-12.976,0-23.532,10.556-23.532,23.532v48.097c0,4.052,1.03,7.868,2.84,11.2c-11.1,4.891-18.873,15.993-18.873,28.881v8.016
	c0,4.142,3.358,7.5,7.5,7.5h64.129c4.142,0,7.5-3.358,7.5-7.5s-3.358-7.5-7.5-7.5h-56.629v-0.516
	c0-9.125,7.423-16.548,16.548-16.548h24.048c12.976,0,23.532-10.557,23.532-23.532v-48.097c0-12.976-10.557-23.532-23.532-23.532
	h-0.516V367.71h0.516c12.976,0,23.532-10.557,23.532-23.532v-56.629h17.064v56.629c0,12.976,10.557,23.532,23.532,23.532h0.516
	v17.064h-0.516c-12.976,0-23.532,10.556-23.532,23.532v48.097c0,12.976,10.557,23.532,23.532,23.532h24.048
	c9.125,0,16.548,7.424,16.548,16.548V497h-56.629c-4.142,0-7.5,3.358-7.5,7.5s3.358,7.5,7.5,7.5h64.129c4.142,0,7.5-3.358,7.5-7.5
	v-8.016c0-12.888-7.772-23.99-18.873-28.881c1.811-3.332,2.84-7.148,2.84-11.2v-48.097c0-12.976-10.557-23.532-23.532-23.532h-0.516
	V367.71h0.516c12.976,0,23.532-10.557,23.532-23.532v-64.129c0-12.976-10.557-23.532-23.532-23.532h-0.516v-17.064h0.516
	c12.976,0,23.532-10.557,23.532-23.532v-58.066c4.802-1.5,9.204-4.145,12.863-7.804l7.592-7.592l13.334,31.153
	c-5.309,4.318-8.709,10.898-8.709,18.26v48.097c0,10.354,6.724,19.16,16.032,22.3v11.514c-9.308,3.139-16.032,11.946-16.032,22.299
	c0,12.976,10.557,23.532,23.532,23.532l0,0c12.976,0,23.532-10.557,23.532-23.532c0-10.354-6.724-19.161-16.033-22.3v-11.513
	C393.05,259.128,399.774,250.322,399.774,239.968z M135.758,304.613L135.758,304.613c-4.705,0-8.533-3.828-8.533-8.532
	s3.828-8.532,8.533-8.532c4.705,0,8.532,3.828,8.532,8.532S140.463,304.613,135.758,304.613z M144.291,239.968
	c0,4.705-3.828,8.532-8.532,8.532l0,0c-4.705,0-8.532-3.828-8.532-8.532v-48.097c0-4.705,3.828-8.532,8.533-8.532
	c4.705,0,8.532,3.827,8.532,8.532v48.097H144.291z M232.468,408.307v48.097c0,4.705-3.828,8.532-8.532,8.532h-16.032
	c-4.705,0-8.532-3.828-8.532-8.532v-48.097c0-4.705,3.828-8.532,8.532-8.532h16.032C228.64,399.774,232.468,403.602,232.468,408.307
	z M312.629,408.307v48.097c0,4.705-3.828,8.532-8.532,8.532h-16.032c-4.705,0-8.532-3.828-8.532-8.532v-48.097
	c0-4.705,3.828-8.532,8.532-8.532h16.032C308.801,399.774,312.629,403.602,312.629,408.307z M227.423,28.303
	C228.965,20.595,235.79,15,243.65,15h24.699c7.861,0,14.685,5.595,16.227,13.303l10.371,51.858h-77.896L227.423,28.303z
	 M232.468,344.178c0,4.704-3.828,8.532-8.532,8.532h-16.032c-4.705,0-8.532-3.828-8.532-8.532v-64.129
	c0-4.705,3.828-8.532,8.532-8.532h16.032c4.705,0,8.532,3.828,8.532,8.532V344.178z M312.629,280.048v64.129
	c0,4.704-3.828,8.532-8.532,8.532h-16.032c-4.705,0-8.532-3.828-8.532-8.532v-64.129c0-4.705,3.828-8.532,8.532-8.532h16.032
	C308.801,271.516,312.629,275.344,312.629,280.048z M288.581,256.516h-0.516c-10.354,0-19.16,6.724-22.3,16.032h-19.53
	c-3.139-9.308-11.946-16.032-22.3-16.032h-0.516v-17.064h65.161L288.581,256.516L288.581,256.516z M329.886,139.443
	c-3.126,3.125-7.282,4.847-11.702,4.847h-14.085c-4.142,0-7.5,3.358-7.5,7.5c0,4.143,3.358,7.5,7.5,7.5h8.53v56.629
	c0,4.705-3.828,8.532-8.532,8.532h-96.193c-4.705,0-8.532-3.828-8.532-8.532V159.29h72.663c4.142,0,7.5-3.357,7.5-7.5
	c0-4.142-3.358-7.5-7.5-7.5h-78.218c-4.42,0-8.576-1.721-11.702-4.847l-17.977-17.977c-3.125-3.125-4.847-7.282-4.847-11.702v-6.071
	c0-4.704,3.828-8.532,8.532-8.532h176.354c4.705,0,8.532,3.828,8.532,8.532v6.071c0,4.42-1.721,8.576-4.847,11.702L329.886,139.443z
	 M367.709,191.871c0-4.705,3.828-8.532,8.533-8.532s8.532,3.827,8.532,8.532v48.097c0,4.705-3.828,8.532-8.533,8.532
	s-8.532-3.828-8.532-8.532V191.871z M376.242,304.613c-4.705,0-8.532-3.828-8.532-8.532s3.828-8.532,8.533-8.532
	s8.532,3.828,8.532,8.532S380.947,304.613,376.242,304.613z"/>
<path d="M288.064,176.354h-64.129c-4.142,0-7.5,3.358-7.5,7.5c0,4.143,3.358,7.5,7.5,7.5h64.129c4.142,0,7.5-3.357,7.5-7.5
	C295.564,179.713,292.207,176.354,288.064,176.354z"/>
<path d="M272.032,40.081h-32.064c-4.142,0-7.5,3.358-7.5,7.5s3.358,7.5,7.5,7.5h32.064c4.142,0,7.5-3.358,7.5-7.5
	S276.174,40.081,272.032,40.081z"/>
<g>
</g>
<g>
</g>
<g>
</g>
<g>
</g>
<g>
</g>
<g>
</g>
<g>
</g>
<g>
</g>
<g>
</g>
<g>
</g>
<g>
</g>
<g>
</g>
<g>
</g>
<g>
</g>
<g>
</g>
</svg>
