<?xml version="1.0" encoding="iso-8859-1"?>
<!-- Generator: Adobe Illustrator 19.0.0, SVG Export Plug-In . SVG Version: 6.00 Build 0)  -->
<svg version="1.1" id="Capa_1" xmlns="http://www.w3.org/2000/svg" xmlns:xlink="http://www.w3.org/1999/xlink" x="0px" y="0px"
	 viewBox="0 0 511.998 511.998" style="enable-background:new 0 0 511.998 511.998;" xml:space="preserve">
<path style="fill:#EDEBED;" d="M445.702,49.305l-80.997-33.352C351.15,10.371,336.633,7.5,321.975,7.5H190.022
	c-14.658,0-29.175,2.872-42.73,8.453L66.296,49.305c-21.026,8.658-34.748,29.148-34.748,51.886v289.673
	c0,6.413,3.822,12.21,9.717,14.736l62.428,26.755v56.113c0,8.854,7.178,16.032,16.032,16.032h272.548
	c8.854,0,16.032-7.178,16.032-16.032v-56.113l62.428-26.755c5.895-2.526,9.717-8.322,9.717-14.736V101.191
	C480.451,78.453,466.728,57.962,445.702,49.305z"/>
<path style="fill:#DBD9DC;" d="M255.976,119.726c17.32-7.48,67.44-34.61,98.941-107.254C344.26,9.198,333.163,7.5,321.976,7.5
	H190.022c-11.202,0-22.313,1.705-32.984,4.987C188.511,85.031,238.549,112.197,255.976,119.726z"/>
<path style="fill:#99E9DF;" d="M364.706,15.953c-8.282-3.41-16.944-5.679-25.757-7.029c-26.023,57.92-64.508,83.615-82.973,93.071
	c-18.462-9.459-56.987-35.159-82.998-93.06c-8.788,1.352-17.426,3.618-25.685,7.019l-5.272,2.171
	c33.065,76.958,85.703,106.86,107.598,116.319c2.028,0.877,4.188,1.315,6.357,1.315c2.161,0,4.329-0.438,6.357-1.311
	c21.93-9.47,74.542-39.342,107.602-116.341L364.706,15.953z"/>
<circle style="fill:#4BD7C8;" cx="344.179" cy="280.05" r="16.03"/>
<g>
	<circle style="fill:#99E9DF;" cx="280.049" cy="199.89" r="16.03"/>
	<circle style="fill:#99E9DF;" cx="280.049" cy="360.21" r="16.03"/>
	<path style="fill:#99E9DF;" d="M31.547,390.864c0,6.413,3.822,12.21,9.717,14.736l62.428,26.755v-35.572l-72.145-30.92
		C31.547,365.863,31.547,390.864,31.547,390.864z"/>
	<path style="fill:#99E9DF;" d="M480.451,390.864c0,6.413-3.822,12.21-9.717,14.736l-62.428,26.755v-35.572l72.145-30.92
		L480.451,390.864L480.451,390.864z"/>
	<path style="fill:#99E9DF;" d="M103.693,472.435v16.032c0,8.854,7.178,16.032,16.032,16.032h272.548
		c8.854,0,16.032-7.178,16.032-16.032v-16.032H103.693z"/>
</g>
<path style="fill:#C9C6CA;" d="M197.943,7.5c19.5,35.73,43.437,55.011,58.033,64.129c14.584-9.111,38.497-28.382,58.003-64.129
	H197.943z"/>
<path style="fill:#DBD9DC;" d="M432.354,139.766c0-6.641-5.384-12.024-12.024-12.024c-6.64,0-12.024,5.383-12.024,12.024v292.589
	l24.048-10.307L432.354,139.766L432.354,139.766z"/>
<polygon style="fill:#4BD7C8;" points="432.354,386.477 408.305,396.783 408.305,432.355 432.354,422.048 "/>
<path style="fill:#DBD9DC;" d="M79.644,139.766c0-6.641,5.384-12.024,12.024-12.024s12.024,5.383,12.024,12.024v292.589
	l-24.048-10.307C79.644,422.048,79.644,139.766,79.644,139.766z"/>
<polygon style="fill:#4BD7C8;" points="79.644,386.477 103.693,396.783 103.693,432.355 79.644,422.048 "/>
<path d="M103.692,128.258c-4.142,0-7.5,3.358-7.5,7.5v16.035c0,4.142,3.358,7.5,7.5,7.5s7.5-3.358,7.5-7.5v-16.035
	C111.192,131.616,107.834,128.258,103.692,128.258z"/>
<path d="M448.558,42.37L367.561,9.018c-8.788-3.619-17.872-6.151-27.156-7.594C335.124,0.5,327.195,0,321.976,0H190.022
	c-15.717,0-31.054,3.034-45.585,9.018L63.44,42.37c-23.93,9.853-39.393,32.942-39.393,58.821v289.672
	c0,9.426,5.598,17.916,14.262,21.629l57.883,24.807v51.167c0,12.976,10.557,23.532,23.532,23.532h272.549
	c12.976,0,23.532-10.557,23.532-23.532v-51.167l57.883-24.807c8.664-3.713,14.262-12.204,14.262-21.629V101.191
	C487.951,75.312,472.488,52.223,448.558,42.37z M190.022,15h131.953c1.727,0,3.448,0.042,5.163,0.126
	c-22.181,51.281-56.867,72.4-71.132,79.212c-14.254-6.81-48.966-27.941-71.145-79.212C186.577,15.042,188.297,15,190.022,15z
	 M169.383,17.047c25.133,61.625,66.641,85.094,83.66,92.417c0.946,0.407,1.955,0.61,2.964,0.61c1.008,0,2.017-0.203,2.963-0.61
	c7.653-3.291,22.953-11.12,39.428-26.575c18.673-17.516,33.524-39.648,44.215-65.843c5.595,1.125,11.098,2.712,16.482,4.756
	c-33.804,84.65-97.816,105.224-100.602,106.081c-1.604,0.498-3.362,0.504-5.005-0.006c-2.77-0.852-66.777-21.42-100.583-106.075
	C158.287,19.759,163.789,18.172,169.383,17.047z M96.192,420.981l-51.973-22.275c-3.142-1.346-5.171-4.425-5.171-7.842v-13.626
	l57.145,24.491L96.192,420.981L96.192,420.981z M472.951,390.864c0,3.417-2.03,6.496-5.171,7.842l-51.974,22.275v-19.252
	l57.145-24.491V390.864z M472.951,360.918l-57.145,24.491V135.758c0-4.142-3.358-7.5-7.5-7.5s-7.5,3.358-7.5,7.5v329.177H384.26
	c-4.142,0-7.5,3.358-7.5,7.5s3.358,7.5,7.5,7.5h16.546v8.532c0,4.705-3.828,8.532-8.532,8.532H119.725
	c-4.705,0-8.532-3.828-8.532-8.532v-8.532h241.002c4.142,0,7.5-3.358,7.5-7.5s-3.358-7.5-7.5-7.5H111.192V319.613H225.31
	c2.279,0,4.421,0.888,6.033,2.499l27.634,27.635c-1.573,3.154-2.462,6.706-2.462,10.463c0,12.976,10.557,23.532,23.532,23.532
	s23.532-10.557,23.532-23.532s-10.557-23.532-23.532-23.532c-3.757,0-7.309,0.89-10.463,2.463l-27.635-27.635
	c-4.445-4.444-10.354-6.892-16.639-6.892H111.192V287.55h210.684c3.139,9.308,11.946,16.032,22.3,16.032
	c12.976,0,23.532-10.557,23.532-23.532s-10.557-23.532-23.532-23.532c-10.353,0-19.16,6.724-22.3,16.032H111.192v-17.064H225.31
	c6.286,0,12.195-2.448,16.64-6.893l27.634-27.635c3.154,1.573,6.706,2.463,10.463,2.463c12.976,0,23.532-10.557,23.532-23.532
	s-10.557-23.532-23.532-23.532s-23.532,10.557-23.532,23.532c0,3.757,0.89,7.309,2.462,10.463l-27.634,27.635
	c-1.612,1.611-3.754,2.499-6.033,2.499H111.192v-56.628c0-4.142-3.358-7.5-7.5-7.5s-7.5,3.358-7.5,7.5v201.553L39.047,360.92
	V101.191c0-19.777,11.816-37.421,30.104-44.951l69.867-28.769c36.475,91.162,107.007,113.804,110.041,114.737
	c2.243,0.697,4.578,1.05,6.94,1.05s4.697-0.353,6.921-1.044c3.051-0.938,73.587-23.587,110.06-114.743l69.867,28.769
	c18.287,7.53,30.104,25.174,30.104,44.951V360.918z M271.515,360.209c0-4.705,3.828-8.532,8.532-8.532s8.532,3.828,8.532,8.532
	s-3.828,8.532-8.532,8.532S271.515,364.914,271.515,360.209z M335.644,280.048c0-4.705,3.828-8.532,8.532-8.532
	s8.532,3.828,8.532,8.532s-3.828,8.532-8.532,8.532S335.644,284.753,335.644,280.048z M271.515,199.887
	c0-4.705,3.828-8.532,8.532-8.532s8.532,3.828,8.532,8.532s-3.828,8.532-8.532,8.532S271.515,204.592,271.515,199.887z"/>
<g>
</g>
<g>
</g>
<g>
</g>
<g>
</g>
<g>
</g>
<g>
</g>
<g>
</g>
<g>
</g>
<g>
</g>
<g>
</g>
<g>
</g>
<g>
</g>
<g>
</g>
<g>
</g>
<g>
</g>
</svg>
