<?xml version="1.0" encoding="iso-8859-1"?>
<!-- Generator: Adobe Illustrator 19.0.0, SVG Export Plug-In . SVG Version: 6.00 Build 0)  -->
<svg version="1.1" id="Capa_1" xmlns="http://www.w3.org/2000/svg" xmlns:xlink="http://www.w3.org/1999/xlink" x="0px" y="0px"
	 viewBox="0 0 512 512" style="enable-background:new 0 0 512 512;" xml:space="preserve">
<path style="fill:#CCF4EF;" d="M416.323,344.177H95.676c-13.282,0-24.048-10.767-24.048-24.048v-8.016h368.742v8.016
	C440.371,333.411,429.604,344.177,416.323,344.177z"/>
<rect x="159.809" y="7.5" style="fill:#9C969E;" width="192.39" height="304.61"/>
<circle style="fill:#99E9DF;" cx="255.999" cy="488.47" r="16.03"/>
<g>
	<circle style="fill:#4BD7C8;" cx="207.899" cy="440.37" r="16.03"/>
	<circle style="fill:#4BD7C8;" cx="304.1" cy="440.37" r="16.03"/>
</g>
<g>
	<circle style="fill:#99E9DF;" cx="376.24" cy="376.24" r="16.03"/>
	<circle style="fill:#99E9DF;" cx="135.759" cy="376.24" r="16.03"/>
	<path style="fill:#99E9DF;" d="M158.169,201.971c1.887-5.646,2.242-11.991,0.543-18.568c-2.889-11.181-12.108-20.135-23.363-22.721
		c-21.014-4.83-39.671,11.001-39.671,31.19c0,3.732,0.644,7.31,1.822,10.637c1.632,4.608,0.992,9.861-1.933,13.778
		c-6.456,8.646-9.534,19.92-7.043,32.052c3.136,15.268,15.4,27.67,30.664,30.825c25.875,5.348,48.635-14.266,48.635-39.195
		c0-8.877-2.944-17.013-7.859-23.62C156.91,212.243,156.548,206.822,158.169,201.971z"/>
</g>
<path style="fill:#4BD7C8;" d="M143.235,271.147c-15.264-3.155-27.529-15.557-30.664-30.825
	c-2.491-12.131,0.587-23.406,7.043-32.051c2.925-3.917,3.565-9.17,1.933-13.778c-1.178-3.327-1.822-6.905-1.822-10.637
	c0-9.512,4.173-18.022,10.752-23.893c-18.938-1.565-34.8,13.299-34.8,31.909c0,3.732,0.644,7.31,1.822,10.637
	c1.632,4.608,0.992,9.861-1.933,13.778c-6.456,8.646-9.534,19.92-7.043,32.052c3.136,15.268,15.401,27.67,30.664,30.825
	c12.266,2.535,23.798-0.584,32.571-7.176C148.971,271.985,146.128,271.745,143.235,271.147z"/>
<path style="fill:#C9C6CA;" d="M392.273,239.968L392.273,239.968c-8.854,0-16.032-7.178-16.032-16.032v-16.032h32.065v16.032
	C408.306,232.79,401.129,239.968,392.273,239.968z"/>
<path d="M448.387,304.613h-48.613v-58.378c9.308-3.139,16.032-11.946,16.032-22.3v-16.032c0-4.142-3.358-7.5-7.5-7.5h-32.065
	c-4.142,0-7.5,3.358-7.5,7.5v16.032c0,10.354,6.724,19.16,16.033,22.3v58.378h-25.081V7.5c0-4.142-3.358-7.5-7.5-7.5H159.807
	c-4.142,0-7.5,3.358-7.5,7.5v153.261c-4.446-3.51-9.642-6.094-15.278-7.389c-12.059-2.77-24.421-0.025-33.916,7.534
	c-9.491,7.558-14.935,18.844-14.935,30.965c0,4.499,0.758,8.92,2.252,13.141c0.833,2.351,0.498,4.951-0.873,6.787
	c-8.19,10.967-11.167,24.479-8.38,38.048c3.735,18.188,18.401,32.922,36.493,36.662c0.857,0.177,1.714,0.329,2.572,0.46v17.645
	H63.612c-4.142,0-7.5,3.358-7.5,7.5s3.358,7.5,7.5,7.5h104.21c4.142,0,7.5-3.358,7.5-7.5s-3.358-7.5-7.5-7.5h-0.516v-25.081h16.548
	c4.142,0,7.5-3.358,7.5-7.5s-3.358-7.5-7.5-7.5h-15.359c3.145-5.209,5.266-10.99,6.228-17.064h9.131c4.142,0,7.5-3.358,7.5-7.5
	s-3.358-7.5-7.5-7.5h-9.129c-0.971-6.035-3.12-11.801-6.358-17.064h71.6c4.142,0,7.5-3.358,7.5-7.5s-3.358-7.5-7.5-7.5h-72.661
	v-17.064h16.548c4.142,0,7.5-3.358,7.5-7.5s-3.358-7.5-7.5-7.5h-16.548v-17.064h16.548c4.142,0,7.5-3.358,7.5-7.5
	s-3.358-7.5-7.5-7.5h-16.548v-17.065h72.661c4.142,0,7.5-3.358,7.5-7.5s-3.358-7.5-7.5-7.5h-72.661V87.145h16.548
	c4.142,0,7.5-3.358,7.5-7.5s-3.358-7.5-7.5-7.5h-16.548V55.081h16.548c4.142,0,7.5-3.358,7.5-7.5s-3.358-7.5-7.5-7.5h-16.548V15
	h177.387v25.081h-72.661c-4.142,0-7.5,3.358-7.5,7.5s3.358,7.5,7.5,7.5h72.661v17.064h-72.661c-4.142,0-7.5,3.358-7.5,7.5
	s3.358,7.5,7.5,7.5h72.661v17.064h-16.548c-4.142,0-7.5,3.358-7.5,7.5s3.358,7.5,7.5,7.5h16.548v17.065h-72.661
	c-4.142,0-7.5,3.358-7.5,7.5s3.358,7.5,7.5,7.5h72.661v17.064h-72.661c-4.142,0-7.5,3.358-7.5,7.5s3.358,7.5,7.5,7.5h72.661v17.064
	h-16.548c-4.142,0-7.5,3.358-7.5,7.5s3.358,7.5,7.5,7.5h16.548v17.064h-72.661c-4.142,0-7.5,3.358-7.5,7.5s3.358,7.5,7.5,7.5h72.661
	v17.064h-72.661c-4.142,0-7.5,3.358-7.5,7.5s3.358,7.5,7.5,7.5h72.661v25.081H199.886c-4.142,0-7.5,3.358-7.5,7.5s3.358,7.5,7.5,7.5
	h0.516v49.129h-42.345c-3.139-9.308-11.946-16.032-22.3-16.032c-12.976,0-23.533,10.557-23.533,23.532
	c0,12.976,10.557,23.533,23.533,23.533c10.354,0,19.16-6.724,22.3-16.033h42.345v34.33c-9.308,3.139-16.032,11.946-16.032,22.3
	c0,12.976,10.557,23.532,23.532,23.532s23.532-10.557,23.532-23.532c0-10.354-6.724-19.16-16.032-22.3v-98.459h33.097v146.555
	c-9.308,3.139-16.032,11.946-16.032,22.3c0,12.977,10.556,23.534,23.532,23.534c12.976,0,23.532-10.557,23.532-23.532
	c0-10.354-6.724-19.16-16.032-22.3V319.613h33.097v98.459c-9.308,3.139-16.032,11.946-16.032,22.3
	c0,12.976,10.557,23.532,23.532,23.532s23.532-10.557,23.532-23.532c0-10.354-6.724-19.16-16.032-22.3v-34.33h42.345
	c3.139,9.308,11.946,16.033,22.3,16.033c12.976,0,23.533-10.557,23.533-23.533c0-12.976-10.557-23.532-23.533-23.532
	c-10.354,0-19.16,6.724-22.3,16.032h-42.345v-49.129h136.791c4.142,0,7.5-3.358,7.5-7.5S452.529,304.613,448.387,304.613z
	 M383.742,215.403h17.065v8.532c0,4.705-3.828,8.532-8.532,8.532c-4.705,0-8.533-3.828-8.533-8.532V215.403z M95.87,246.829
	c-1.913-9.314,0.114-18.567,5.706-26.055c4.396-5.886,5.514-13.65,2.994-20.769c-0.924-2.608-1.392-5.345-1.392-8.134
	c0-7.526,3.382-14.536,9.279-19.231c4.42-3.52,9.684-5.341,15.233-5.341c1.965,0,3.968,0.229,5.979,0.691
	c8.599,1.976,15.579,8.763,17.782,17.289c1.27,4.914,1.137,9.73-0.395,14.314c-2.504,7.495-1.424,15.432,2.89,21.23
	c4.172,5.608,6.377,12.228,6.377,19.144c0,9.841-4.382,19.055-12.023,25.278c-3.909,3.184-8.339,5.352-13.058,6.457V256
	c0-4.142-3.358-7.5-7.5-7.5s-7.5,3.358-7.5,7.5v15.704C108.15,269.004,98.385,259.074,95.87,246.829z M135.242,304.613v-17.681
	c6.025-0.956,11.813-3.053,17.065-6.22v23.901H135.242z M135.757,384.774c-4.705,0-8.533-3.828-8.533-8.533s3.828-8.532,8.533-8.532
	s8.532,3.828,8.532,8.532C144.29,380.947,140.462,384.774,135.757,384.774z M207.902,448.903c-4.705,0-8.532-3.828-8.532-8.532
	s3.828-8.532,8.532-8.532s8.532,3.828,8.532,8.532S212.607,448.903,207.902,448.903z M255.999,497c-4.705,0-8.532-3.828-8.532-8.532
	s3.828-8.532,8.532-8.532s8.532,3.828,8.532,8.532S260.704,497,255.999,497z M376.242,367.709c4.705,0,8.533,3.828,8.533,8.532
	c0,4.705-3.828,8.533-8.533,8.533s-8.532-3.828-8.532-8.533C367.709,371.537,371.536,367.709,376.242,367.709z M304.096,448.903
	c-4.705,0-8.532-3.828-8.532-8.532s3.828-8.532,8.532-8.532s8.532,3.828,8.532,8.532S308.801,448.903,304.096,448.903z"/>
<path d="M215.919,279.532h24.048c4.142,0,7.5-3.358,7.5-7.5s-3.358-7.5-7.5-7.5h-24.048c-4.142,0-7.5,3.358-7.5,7.5
	S211.776,279.532,215.919,279.532z"/>
<path d="M215.919,247.468h24.048c4.142,0,7.5-3.358,7.5-7.5s-3.358-7.5-7.5-7.5h-24.048c-4.142,0-7.5,3.358-7.5,7.5
	S211.776,247.468,215.919,247.468z"/>
<path d="M272.032,215.403h24.048c4.142,0,7.5-3.358,7.5-7.5s-3.358-7.5-7.5-7.5h-24.048c-4.142,0-7.5,3.358-7.5,7.5
	S267.89,215.403,272.032,215.403z"/>
<path d="M215.919,183.339h24.048c4.142,0,7.5-3.358,7.5-7.5s-3.358-7.5-7.5-7.5h-24.048c-4.142,0-7.5,3.358-7.5,7.5
	S211.776,183.339,215.919,183.339z"/>
<path d="M215.919,151.274h24.048c4.142,0,7.5-3.358,7.5-7.5s-3.358-7.5-7.5-7.5h-24.048c-4.142,0-7.5,3.358-7.5,7.5
	S211.776,151.274,215.919,151.274z"/>
<path d="M272.032,119.209h24.048c4.142,0,7.5-3.358,7.5-7.5s-3.358-7.5-7.5-7.5h-24.048c-4.142,0-7.5,3.358-7.5,7.5
	S267.89,119.209,272.032,119.209z"/>
<path d="M215.919,87.145h24.048c4.142,0,7.5-3.358,7.5-7.5s-3.358-7.5-7.5-7.5h-24.048c-4.142,0-7.5,3.358-7.5,7.5
	S211.776,87.145,215.919,87.145z"/>
<path d="M215.919,55.081h24.048c4.142,0,7.5-3.358,7.5-7.5s-3.358-7.5-7.5-7.5h-24.048c-4.142,0-7.5,3.358-7.5,7.5
	S211.776,55.081,215.919,55.081z"/>
<g>
</g>
<g>
</g>
<g>
</g>
<g>
</g>
<g>
</g>
<g>
</g>
<g>
</g>
<g>
</g>
<g>
</g>
<g>
</g>
<g>
</g>
<g>
</g>
<g>
</g>
<g>
</g>
<g>
</g>
</svg>
