<?xml version="1.0" encoding="iso-8859-1"?>
<!-- Generator: Adobe Illustrator 19.0.0, SVG Export Plug-In . SVG Version: 6.00 Build 0)  -->
<svg version="1.1" id="Capa_1" xmlns="http://www.w3.org/2000/svg" xmlns:xlink="http://www.w3.org/1999/xlink" x="0px" y="0px"
	 viewBox="0 0 512 512" style="enable-background:new 0 0 512 512;" xml:space="preserve">
<path style="fill:#E5F9FF;" d="M256,496.484L256,496.484c-22.136,0-40.081-17.945-40.081-40.081v-104.21h80.161v104.21
	C296.081,478.539,278.136,496.484,256,496.484z"/>
<path style="fill:#FFFFFF;" d="M256,416.323L256,416.323c-13.282,0-24.048-10.767-24.048-24.048V360.21h48.097v32.065
	C280.048,405.556,269.282,416.323,256,416.323z"/>
<rect x="328.14" y="151.79" style="fill:#9C969E;" width="64.13" height="128.26"/>
<rect x="143.77" y="151.79" style="fill:#99E9DF;" width="80.16" height="128.26"/>
<rect x="103.69" y="215.92" style="fill:#9C969E;" width="72.14" height="64.13"/>
<rect x="39.565" y="199.89" style="fill:#99E7FF;" width="72.14" height="80.16"/>
<path style="fill:#59D8FF;" d="M256,39.565l-45.749,45.749c-1.503,1.503-2.348,3.542-2.348,5.668v189.067H256V39.565z"/>
<rect x="239.97" y="111.71" style="fill:#867E88;" width="56.11" height="168.34"/>
<path style="fill:#DBD9DC;" d="M175.839,312.113l19.617,39.234c2.716,5.431,8.267,8.863,14.34,8.863h92.409
	c6.073,0,11.624-3.431,14.34-8.863l19.617-39.234H175.839z"/>
<path style="fill:#B7B2B8;" d="M23.532,280.048l11.601,23.202c2.716,5.431,8.267,8.863,14.34,8.863h413.054
	c6.073,0,11.624-3.431,14.34-8.863l11.601-23.202H23.532z"/>
<path style="fill:#AEA8AF;" d="M187.44,303.25l-11.601-23.202H23.532l11.601,23.202c2.716,5.431,8.267,8.863,14.34,8.863H201.78
	C195.707,312.113,190.156,308.682,187.44,303.25z"/>
<path style="fill:#99E9DF;" d="M296.081,79.645v200.403h40.081V115.562c0-2.435-1.107-4.738-3.008-6.26L296.081,79.645z"/>
<rect x="368.23" y="215.92" style="fill:#99E7FF;" width="104.21" height="64.13"/>
<path style="fill:#C9C6CA;" d="M243.391,336.161h80.746l12.024-24.048H175.839l19.618,39.234c2.716,5.432,8.267,8.863,14.34,8.863
	h26.163l-3.323-6.647C228.639,345.568,234.452,336.161,243.391,336.161z"/>
<path d="M504.5,272.548h-24.564v-56.629c0-4.142-3.358-7.5-7.5-7.5h-40.597v-32.581c0-4.142-3.358-7.5-7.5-7.5s-7.5,3.358-7.5,7.5
	v32.581h-17.064V151.79c0-4.142-3.358-7.5-7.5-7.5h-48.613v-32.581c0-2.278-1.036-4.433-2.815-5.856L303.581,76.04V55.597
	c0-4.142-3.358-7.5-7.5-7.5s-7.5,3.358-7.5,7.5v48.613H263.5V39.567c0-0.001,0-0.003,0-0.005V7.5c0-4.142-3.358-7.5-7.5-7.5
	s-7.5,3.358-7.5,7.5v28.958l-45.9,45.9c-1.407,1.406-2.197,3.314-2.197,5.303v56.629h-17.064v-32.581c0-4.142-3.358-7.5-7.5-7.5
	s-7.5,3.358-7.5,7.5v32.581h-24.564c-4.142,0-7.5,3.358-7.5,7.5v56.629H119.21v-8.532c0-4.142-3.358-7.5-7.5-7.5H39.564
	c-4.142,0-7.5,3.358-7.5,7.5v72.661H7.5c-4.142,0-7.5,3.358-7.5,7.5s3.358,7.5,7.5,7.5h11.397l9.528,19.056
	c4.012,8.024,12.077,13.008,21.048,13.008h121.731l17.544,35.088c4.011,8.024,12.076,13.009,21.048,13.009h92.409
	c8.972,0,17.037-4.985,21.047-13.008l17.544-35.088h121.731c8.971,0,17.036-4.984,21.048-13.008l9.528-19.056H504.5
	c4.142,0,7.5-3.358,7.5-7.5S508.642,272.548,504.5,272.548z M464.936,272.548h-89.21v-49.129h89.21V272.548z M328.661,115.314
	v52.509c0,4.142,3.358,7.5,7.5,7.5s7.5-3.358,7.5-7.5v-8.532h41.113v49.129h-16.549c-4.142,0-7.5,3.358-7.5,7.5v56.629h-17.064
	v-72.66c0-4.142-3.358-7.5-7.5-7.5s-7.5,3.358-7.5,7.5v72.66H303.58V95.25L328.661,115.314z M288.581,272.548h-41.113V119.209
	h41.113V272.548z M215.403,90.768L248.5,57.671v46.539h-8.532c-4.142,0-7.5,3.358-7.5,7.5v160.839h-17.064V90.768H215.403z
	 M151.274,159.291h49.129v113.258h-17.064V215.92c0-4.142-3.358-7.5-7.5-7.5h-24.564v-49.129H151.274z M47.064,207.387h57.145
	v24.564c0,4.142,3.358,7.5,7.5,7.5s7.5-3.358,7.5-7.5v-8.532h49.129v49.129h-49.129v-8.532c0-4.142-3.358-7.5-7.5-7.5
	s-7.5,3.358-7.5,7.5v8.532H47.064V207.387z M309.835,347.994c-1.454,2.909-4.378,4.716-7.631,4.716h-92.409
	c-3.253,0-6.177-1.807-7.631-4.716l-14.19-28.38h136.052L309.835,347.994z M470.159,299.896c-1.455,2.909-4.379,4.716-7.632,4.716
	H49.473c-3.253,0-6.177-1.807-7.632-4.716l-6.174-12.348h440.666L470.159,299.896z"/>
<path d="M256,384.774c-4.142,0-7.5,3.358-7.5,7.5V504.5c0,4.142,3.358,7.5,7.5,7.5s7.5-3.358,7.5-7.5V392.274
	C263.5,388.132,260.142,384.774,256,384.774z"/>
<path d="M296.081,440.887c-4.142,0-7.5,3.358-7.5,7.5v16.033c0,4.142,3.358,7.5,7.5,7.5s7.5-3.358,7.5-7.5v-16.033
	C303.581,444.245,300.223,440.887,296.081,440.887z"/>
<path d="M296.081,384.774c-4.142,0-7.5,3.358-7.5,7.5v24.048c0,4.142,3.358,7.5,7.5,7.5s7.5-3.358,7.5-7.5v-24.048
	C303.581,388.132,300.223,384.774,296.081,384.774z"/>
<path d="M215.92,440.887c-4.142,0-7.5,3.358-7.5,7.5v16.033c0,4.142,3.358,7.5,7.5,7.5s7.5-3.358,7.5-7.5v-16.033
	C223.42,444.245,220.062,440.887,215.92,440.887z"/>
<path d="M215.92,384.774c-4.142,0-7.5,3.358-7.5,7.5v24.048c0,4.142,3.358,7.5,7.5,7.5s7.5-3.358,7.5-7.5v-24.048
	C223.42,388.132,220.062,384.774,215.92,384.774z"/>
<g>
</g>
<g>
</g>
<g>
</g>
<g>
</g>
<g>
</g>
<g>
</g>
<g>
</g>
<g>
</g>
<g>
</g>
<g>
</g>
<g>
</g>
<g>
</g>
<g>
</g>
<g>
</g>
<g>
</g>
</svg>
