<?xml version="1.0" encoding="iso-8859-1"?>
<!-- Generator: Adobe Illustrator 19.0.0, SVG Export Plug-In . SVG Version: 6.00 Build 0)  -->
<svg version="1.1" id="Capa_1" xmlns="http://www.w3.org/2000/svg" xmlns:xlink="http://www.w3.org/1999/xlink" x="0px" y="0px"
	 viewBox="0 0 512 512" style="enable-background:new 0 0 512 512;" xml:space="preserve">
<path style="fill:#99E7FF;" d="M253.788,113.377L98.932,33.782L86.263,63.309l152.846,78.56c7.868,4.053,17.531,0.961,21.585-6.907
	C264.747,127.095,261.656,117.431,253.788,113.377z"/>
<path style="fill:#59D8FF;" d="M299.848,24.279H75.496l14.022,32.05h210.33c8.85,0,16.025-7.175,16.025-16.025
	S308.698,24.279,299.848,24.279z"/>
<path style="fill:#00C3FF;" d="M88.894,30.758c-4.805-6.479-13.863-8.51-20.998-4.358c-7.66,4.458-10.256,14.283-5.797,21.943
	L205.7,294.17l48.181-38.31L88.894,30.758z"/>
<path style="fill:#867E88;" d="M303.215,174.895l-7.123-3.67c-7.868-4.053-10.96-13.717-6.907-21.585l0,0
	c4.053-7.868,13.717-10.96,21.585-6.907l7.123,3.67c7.868,4.053,10.96,13.717,6.907,21.585l0,0
	C320.747,175.856,311.083,178.948,303.215,174.895z"/>
<path style="fill:#C9C6CA;" d="M286.895,287.821c-1.734-22.54-20.529-39.944-43.135-39.944s-41.402,17.405-43.135,39.944
	l-12.952,176.616h112.176L286.895,287.821z"/>
<path style="fill:#B7B2B8;" d="M259.785,250.946c-4.966-1.982-10.377-3.069-16.025-3.069c-22.606,0-41.402,17.405-43.135,39.944
	l-12.952,176.616h32.05l12.952-176.616C233.975,270.913,244.877,256.896,259.785,250.946z"/>
<circle style="fill:#9C969E;" cx="243.759" cy="295.95" r="16.02"/>
<path style="fill:#867E88;" d="M379.973,55.575h-8.013c-8.85,0-16.025-7.175-16.025-16.025l0,0c0-8.85,7.175-16.025,16.025-16.025
	h8.013c8.85,0,16.025,7.175,16.025,16.025l0,0C395.998,48.401,388.824,55.575,379.973,55.575z"/>
<path style="fill:#B7B2B8;" d="M179.66,456.425h128.201c4.425,0,8.013,3.587,8.013,8.013V504.5H171.647v-40.063
	C171.647,460.012,175.234,456.425,179.66,456.425z"/>
<path style="fill:#AEA8AF;" d="M219.722,456.425h-40.063c-4.425,0-8.013,3.587-8.013,8.013V504.5h40.063v-40.063
	C211.71,460.012,215.297,456.425,219.722,456.425z"/>
<path d="M220.222,296.08c0,12.976,10.557,23.532,23.532,23.532c12.975,0,23.532-10.557,23.532-23.532s-10.557-23.532-23.532-23.532
	C230.779,272.548,220.222,283.105,220.222,296.08z M252.287,296.08c0,4.705-3.828,8.532-8.532,8.532s-8.532-3.828-8.532-8.532
	s3.828-8.532,8.532-8.532S252.287,291.376,252.287,296.08z"/>
<path d="M448.014,49.356l-21.581,14.387l-32.27-5.378c5.703-4.298,9.397-11.126,9.397-18.801s-3.695-14.502-9.397-18.801
	l32.269-5.378l21.581,14.387c1.279,0.853,2.724,1.261,4.153,1.261c2.423,0,4.802-1.173,6.247-3.341
	c2.298-3.446,1.367-8.103-2.08-10.4L432.286,1.26c-1.585-1.057-3.515-1.471-5.393-1.158l-41.398,6.9
	c-5.316,0.885-9.589,4.372-11.64,9.03h-1.842c-10.354,0-19.16,6.724-22.3,16.032h-27.546c-3.139-9.308-11.946-16.032-22.3-16.032
	H76.315c-4.813,0-9.915,2.52-12.275,3.894c-5.438,3.165-9.317,8.258-10.925,14.341c-1.607,6.083-0.749,12.428,2.416,17.866
	l137.512,236.27l-12.346,160.5h-1.071c-8.556,0-15.516,6.96-15.516,15.516V497h-16.548c-4.142,0-7.5,3.358-7.5,7.5
	s3.358,7.5,7.5,7.5h192.387c4.142,0,7.5-3.358,7.5-7.5s-3.358-7.5-7.5-7.5h-16.548v-32.581c0-8.556-6.96-15.516-15.516-15.516
	h-1.071l-12.425-161.532c-1.778-23.111-19.179-41.814-41.273-46.003l-99.307-134.945l81.86,42.172
	c3.383,1.743,7.053,2.625,10.751,2.625c2.411,0,4.835-0.375,7.197-1.131c3.518-1.125,6.638-3.034,9.211-5.536l17.358,8.942
	c-0.545,3.549-0.271,7.202,0.855,10.722c1.916,5.987,6.048,10.869,11.636,13.748l7.126,3.671c3.383,1.743,7.053,2.625,10.751,2.625
	c2.411,0,4.835-0.375,7.198-1.131c3.518-1.125,6.638-3.034,9.211-5.536l39.376,20.285c0.168,5.458,3.208,10.671,8.396,13.343
	c2.267,1.167,4.69,1.721,7.08,1.721c5.628,0,11.068-3.07,13.819-8.408l0,0c3.918-7.605,0.917-16.981-6.688-20.898
	c-5.188-2.673-11.196-2.122-15.737,0.909l-39.361-20.278c0.545-3.549,0.271-7.202-0.855-10.722
	c-1.916-5.987-6.048-10.87-11.636-13.749l-7.125-3.67c-5.588-2.879-11.961-3.409-17.949-1.494c-3.518,1.125-6.639,3.034-9.211,5.536
	l-17.367-8.948c1.472-9.712-3.277-19.723-12.481-24.465l-84.749-43.661h127.394c10.354,0,19.16-6.724,22.3-16.032h27.546
	c3.139,9.308,11.946,16.032,22.3,16.032h1.842c2.052,4.658,6.324,8.145,11.64,9.031l41.398,6.899
	c0.41,0.068,0.822,0.102,1.233,0.102c1.471,0,2.921-0.433,4.16-1.26l24.048-16.032c3.447-2.297,4.378-6.954,2.08-10.4
	C456.117,47.99,451.46,47.059,448.014,49.356z M71.585,32.89c3.709-2.158,8.634-1.129,11.194,2.323l151.701,206.14
	c-15.54,2.919-28.758,13.019-35.876,26.786L68.494,44.588C66.121,40.511,67.508,35.263,71.585,32.89z M279.431,288.521
	l12.337,160.382h-7.934c-4.142,0-7.5,3.358-7.5,7.5s3.358,7.5,7.5,7.5h24.049c0.285,0,0.516,0.231,0.516,0.516V497h-129.29v-32.581
	c0-0.285,0.231-0.516,0.516-0.516h72.145c4.142,0,7.5-3.358,7.5-7.5s-3.358-7.5-7.5-7.5h-56.03l12.337-160.382
	c1.425-18.526,17.096-33.038,35.677-33.038S278.006,269.996,279.431,288.521z M300.853,148.92c2.169-0.694,4.481-0.503,6.508,0.542
	l7.126,3.671c2.026,1.043,3.524,2.814,4.219,4.984c0.694,2.171,0.502,4.482-0.542,6.508c-1.043,2.026-2.813,3.524-4.984,4.219
	c-2.17,0.695-4.481,0.501-6.507-0.542l-7.126-3.672c-2.026-1.043-3.524-2.814-4.219-4.984s-0.502-4.481,0.542-6.508
	C296.912,151.113,298.682,149.614,300.853,148.92z M250.352,120.092c2.026,1.044,3.524,2.814,4.219,4.985
	c0.694,2.17,0.502,4.481-0.542,6.507s-2.814,3.524-4.985,4.219c-2.171,0.694-4.482,0.502-6.507-0.542l-108.73-56.014l-11.885-16.15
	h17.798L250.352,120.092z M299.867,48.097H110.884L98.326,31.032h201.542c4.705,0,8.532,3.828,8.532,8.532
	S304.572,48.097,299.867,48.097z M363.48,39.564c0-4.705,3.828-8.532,8.532-8.532h8.017c4.705,0,8.532,3.828,8.532,8.532
	s-3.828,8.532-8.532,8.532h-8.017C367.308,48.097,363.48,44.269,363.48,39.564z"/>
<g>
</g>
<g>
</g>
<g>
</g>
<g>
</g>
<g>
</g>
<g>
</g>
<g>
</g>
<g>
</g>
<g>
</g>
<g>
</g>
<g>
</g>
<g>
</g>
<g>
</g>
<g>
</g>
<g>
</g>
</svg>
