<?xml version="1.0" encoding="iso-8859-1"?>
<!-- Generator: Adobe Illustrator 19.0.0, SVG Export Plug-In . SVG Version: 6.00 Build 0)  -->
<svg version="1.1" id="Capa_1" xmlns="http://www.w3.org/2000/svg" xmlns:xlink="http://www.w3.org/1999/xlink" x="0px" y="0px"
	 viewBox="0 0 512 512" style="enable-background:new 0 0 512 512;" xml:space="preserve">
<path style="fill:#C9C6CA;" d="M239.967,71.629v50.436c0,3.733,0.869,7.416,2.539,10.755L256,159.806l13.493-26.987
	c1.67-3.339,2.539-7.021,2.539-10.755V71.629H239.967z"/>
<g>
	<rect x="239.97" y="71.63" style="fill:#9C969E;" width="32.06" height="32.06"/>
	<path style="fill:#9C969E;" d="M424.339,7.5H87.661c-8.854,0-16.032,7.178-16.032,16.032V504.5h368.742V23.532
		C440.371,14.678,433.191,7.5,424.339,7.5z M408.306,424.339H103.694V39.565h304.613v384.774H408.306z"/>
</g>
<rect x="71.63" y="424.34" style="fill:#B7B2B8;" width="368.74" height="80.16"/>
<polygon style="fill:#CCF3FF;" points="207.902,341.621 256,369.467 304.096,341.621 304.096,285.814 256,257.969 207.902,285.814 
	"/>
<path d="M310.414,289.47h0.078H310.414z M249.643,254.29c0,0,0,0.004,0.008,0.004C249.643,254.293,249.643,254.29,249.643,254.29z"
	/>
<path d="M408.307,448.903H103.693c-4.142,0-7.5,3.358-7.5,7.5s3.358,7.5,7.5,7.5h304.613c4.142,0,7.5-3.358,7.5-7.5
	S412.449,448.903,408.307,448.903z"/>
<path d="M456.403,497h-8.532V23.532C447.871,10.557,437.314,0,424.339,0H87.661C74.686,0,64.129,10.557,64.129,23.532V497h-8.532
	c-4.142,0-7.5,3.358-7.5,7.5s3.358,7.5,7.5,7.5h400.807c4.142,0,7.5-3.358,7.5-7.5S460.545,497,456.403,497z M87.661,15h336.678
	c4.705,0,8.532,3.828,8.532,8.532v393.307h-17.064V119.726c0-4.142-3.358-7.5-7.5-7.5s-7.5,3.358-7.5,7.5v184.887h-65.162v-26.097
	c0-6.717-3.611-12.982-9.426-16.349l-60.754-35.173l0,0c-5.838-3.38-13.091-3.38-18.93,0l-60.755,35.174
	c-5.813,3.367-9.425,9.631-9.425,16.349v26.097h-65.162V79.129h121.274v48.613c0,1.165,0.271,2.313,0.792,3.354l15.24,30.481v38.311
	c0,4.142,3.358,7.5,7.5,7.5c4.142,0,7.5-3.358,7.5-7.5v-38.311l15.24-30.481c0.521-1.042,0.792-2.189,0.792-3.354V79.129h121.274
	v8.526c0,4.142,3.358,7.5,7.5,7.5s7.5-3.358,7.5-7.5V39.564c0-4.142-3.358-7.5-7.5-7.5H103.693c-4.142,0-7.5,3.358-7.5,7.5v377.274
	H79.129V23.532C79.129,18.828,82.957,15,87.661,15z M256,287.548c4.142,0,7.5-3.358,7.5-7.5v-36.86l49.676,28.76l-55.226,31.973
	c-1.203,0.696-2.698,0.696-3.9,0l-55.227-31.973l49.676-28.76v36.86C248.5,284.19,251.858,287.548,256,287.548z M230.426,328.531
	c-2.075-3.585-6.665-4.809-10.249-2.733l-28.823,16.687v-57.528l55.18,31.946c0.638,0.37,1.296,0.691,1.965,0.98v66.361
	l-49.668-28.755l28.862-16.709C231.277,336.705,232.501,332.116,230.426,328.531z M263.5,317.884
	c0.669-0.289,1.327-0.611,1.965-0.98l55.18-31.946v57.528l-28.823-16.687c-3.583-2.075-8.173-0.852-10.249,2.733
	s-0.852,8.173,2.733,10.249l28.862,16.709L263.5,384.245V317.884z M400.807,64.129H111.193V47.064h289.613v17.065H400.807z
	 M256,143.036l-8.532-17.065v-14.778h17.064v14.778L256,143.036z M264.532,96.193h-17.064V79.129h17.064V96.193z M79.129,431.839
	h40.6c4.142,0,7.5-3.358,7.5-7.5s-3.358-7.5-7.5-7.5h-8.536v-97.226h65.162v29.304c0,6.718,3.612,12.983,9.426,16.349l60.754,35.173
	c2.919,1.69,6.192,2.535,9.465,2.535c3.273,0,6.546-0.845,9.465-2.535l60.754-35.173c5.814-3.366,9.426-9.631,9.426-16.349v-29.304
	h65.162v97.226H151.793c-4.142,0-7.5,3.358-7.5,7.5s3.358,7.5,7.5,7.5h281.078V497H79.129V431.839z"/>
<g>
</g>
<g>
</g>
<g>
</g>
<g>
</g>
<g>
</g>
<g>
</g>
<g>
</g>
<g>
</g>
<g>
</g>
<g>
</g>
<g>
</g>
<g>
</g>
<g>
</g>
<g>
</g>
<g>
</g>
</svg>
