<?xml version="1.0" encoding="iso-8859-1"?>
<!-- Generator: Adobe Illustrator 19.0.0, SVG Export Plug-In . SVG Version: 6.00 Build 0)  -->
<svg version="1.1" id="Capa_1" xmlns="http://www.w3.org/2000/svg" xmlns:xlink="http://www.w3.org/1999/xlink" x="0px" y="0px"
	 viewBox="0 0 512 512" style="enable-background:new 0 0 512 512;" xml:space="preserve">
<polygon style="fill:#EDEBED;" points="207.903,7.5 23.532,167.823 23.532,336.162 392.274,336.162 392.274,167.823 "/>
<polygon style="fill:#99E7FF;" points="360.21,336.162 55.597,336.162 55.597,183.855 207.903,47.581 360.21,183.855 "/>
<polygon style="fill:#59D8FF;" points="207.903,47.581 55.597,183.855 55.597,336.162 79.645,336.162 79.645,194.607 
	207.903,79.645 336.161,194.607 336.161,336.162 360.21,336.162 360.21,183.855 "/>
<rect x="55.6" y="304.1" style="fill:#00C3FF;" width="304.61" height="32.06"/>
<g>
	<rect x="55.6" y="304.1" style="fill:#00AAF0;" width="24.05" height="32.06"/>
	<rect x="336.16" y="304.1" style="fill:#00AAF0;" width="24.05" height="32.06"/>
</g>
<polygon style="fill:#00C3FF;" points="73.515,167.823 55.597,183.855 55.597,199.887 360.21,199.887 360.21,183.855 
	342.291,167.823 "/>
<g>
	<polygon style="fill:#00AAF0;" points="79.645,194.607 109.581,167.823 73.515,167.823 55.597,183.855 55.597,199.887 
		79.645,199.887 	"/>
	<polygon style="fill:#00AAF0;" points="342.291,167.823 306.226,167.823 336.161,194.607 336.161,199.887 360.21,199.887 
		360.21,183.855 	"/>
</g>
<circle style="fill:#EDEBED;" cx="368.23" cy="368.23" r="136.27"/>
<circle style="fill:#FFFFFF;" cx="368.23" cy="368.23" r="112.23"/>
<g>
	<circle style="fill:#99E9DF;" cx="280.05" cy="384.26" r="16.03"/>
	<circle style="fill:#99E9DF;" cx="456.4" cy="352.19" r="16.03"/>
</g>
<g>
	<circle style="fill:#4BD7C8;" cx="352.19" cy="280.05" r="16.03"/>
	<circle style="fill:#4BD7C8;" cx="384.26" cy="456.4" r="16.03"/>
	<path style="fill:#4BD7C8;" d="M392.274,408.307h-48.097c-8.854,0-16.032-7.178-16.032-16.032v-48.097
		c0-8.854,7.178-16.032,16.032-16.032h48.097c8.854,0,16.032,7.178,16.032,16.032v48.097
		C408.307,401.129,401.129,408.307,392.274,408.307z"/>
</g>
<rect x="352.19" y="352.19" style="fill:#99E9DF;" width="32.06" height="32.06"/>
<path d="M368.226,224.452c-79.277,0-143.774,64.497-143.774,143.774S288.948,512,368.226,512S512,447.503,512,368.226
	S447.503,224.452,368.226,224.452z M368.226,497c-71.006,0-128.774-57.768-128.774-128.774s57.768-128.774,128.774-128.774
	S497,297.219,497,368.226S439.232,497,368.226,497z"/>
<path d="M434.104,359.694c3.139,9.308,11.946,16.032,22.3,16.032c12.976,0,23.532-10.557,23.532-23.532
	s-10.557-23.532-23.532-23.532c-10.354,0-19.16,6.724-22.3,16.032h-18.297v-0.516c0-12.976-10.557-23.532-23.532-23.532h-0.516
	v-13.442l21.852-21.852c2.929-2.929,2.929-7.678,0-10.606c-2.929-2.929-7.678-2.929-10.606,0l-24.048,24.048
	c-1.407,1.406-2.197,3.314-2.197,5.303v16.548h-17.065v-18.297c9.308-3.139,16.032-11.946,16.032-22.3
	c0-12.976-10.557-23.532-23.532-23.532s-23.532,10.557-23.532,23.532c0,10.354,6.724,19.16,16.032,22.3v18.297h-0.516
	c-12.976,0-23.532,10.557-23.532,23.532v0.516h-13.442l-21.852-21.852c-2.929-2.929-7.678-2.929-10.606,0
	c-2.929,2.929-2.929,7.678,0,10.606l24.048,24.048c1.406,1.407,3.314,2.197,5.303,2.197h16.548v17.065h-18.297
	c-3.139-9.309-11.946-16.033-22.3-16.033c-12.976,0-23.532,10.557-23.532,23.533c0,12.976,10.557,23.532,23.532,23.532
	c10.354,0,19.16-6.724,22.3-16.032h18.297v0.516c0,12.976,10.557,23.532,23.532,23.532h0.516v13.442L322.842,451.1
	c-2.929,2.929-2.929,7.678,0,10.606c1.464,1.464,3.384,2.197,5.303,2.197s3.839-0.732,5.303-2.197l24.048-24.048
	c1.407-1.406,2.197-3.314,2.197-5.303v-16.548h17.065v18.297c-9.308,3.139-16.033,11.946-16.033,22.3
	c0,12.976,10.557,23.532,23.533,23.532c12.976,0,23.532-10.557,23.532-23.532c0-10.354-6.724-19.16-16.032-22.3v-18.297h0.516
	c12.976,0,23.532-10.557,23.532-23.532v-0.516h13.442L451.1,413.61c1.464,1.464,3.384,2.197,5.303,2.197s3.839-0.732,5.303-2.197
	c2.929-2.929,2.929-7.678,0-10.606l-24.048-24.048c-1.406-1.407-3.314-2.197-5.303-2.197h-16.548v-17.065H434.104z M456.403,343.661
	c4.705,0,8.532,3.828,8.532,8.532s-3.828,8.532-8.532,8.532s-8.532-3.828-8.532-8.532S451.699,343.661,456.403,343.661z
	 M352.193,271.516c4.705,0,8.532,3.828,8.532,8.532s-3.828,8.532-8.532,8.532s-8.532-3.828-8.532-8.532
	S347.489,271.516,352.193,271.516z M280.048,392.791c-4.705,0-8.532-3.828-8.532-8.532c0-4.705,3.828-8.533,8.532-8.533
	s8.532,3.828,8.532,8.533C288.581,388.963,284.753,392.791,280.048,392.791z M384.258,464.936c-4.705,0-8.533-3.828-8.533-8.532
	s3.828-8.532,8.533-8.532s8.532,3.828,8.532,8.532S388.963,464.936,384.258,464.936z M400.807,392.275
	c0,4.705-3.828,8.532-8.532,8.532h-48.097c-4.705,0-8.532-3.828-8.532-8.532v-48.097c0-4.705,3.828-8.532,8.532-8.532h48.097
	c4.705,0,8.532,3.828,8.532,8.532L400.807,392.275L400.807,392.275z"/>
<path d="M215.92,296.597h-0.516v-89.209H360.21c4.142,0,7.5-3.358,7.5-7.5V182.43c0-2.171-0.94-4.235-2.579-5.66L212.825,44.332
	c-2.822-2.454-7.021-2.454-9.843,0L50.675,176.771c-1.638,1.424-2.579,3.489-2.579,5.66v33.488c0,4.142,3.358,7.5,7.5,7.5
	s7.5-3.358,7.5-7.5v-8.531h137.307v89.209H63.097v-48.614c0-4.142-3.358-7.5-7.5-7.5s-7.5,3.358-7.5,7.5v80.678H31.032V171.24
	L207.903,17.439L384.775,171.24v28.647c0,4.142,3.358,7.5,7.5,7.5s7.5-3.358,7.5-7.5v-32.064c0-2.171-0.94-4.235-2.579-5.66
	L212.825,1.841c-2.822-2.454-7.021-2.454-9.843,0L18.611,162.163c-1.638,1.424-2.579,3.489-2.579,5.66v160.838H7.5
	c-4.142,0-7.5,3.358-7.5,7.5s3.358,7.5,7.5,7.5h200.403c4.142,0,7.5-3.358,7.5-7.5s-3.358-7.5-7.5-7.5H63.097v-17.064H215.92
	c4.142,0,7.5-3.358,7.5-7.5S220.062,296.597,215.92,296.597z M92.451,160.323l107.953-93.87v93.87H92.451z M215.403,66.453
	l107.952,93.87H215.403V66.453z M63.097,185.848l12.104-10.525h265.405l12.104,10.525v6.54H63.097V185.848z"/>
<g>
</g>
<g>
</g>
<g>
</g>
<g>
</g>
<g>
</g>
<g>
</g>
<g>
</g>
<g>
</g>
<g>
</g>
<g>
</g>
<g>
</g>
<g>
</g>
<g>
</g>
<g>
</g>
<g>
</g>
</svg>
