<?xml version="1.0" encoding="iso-8859-1"?>
<!-- Generator: Adobe Illustrator 19.0.0, SVG Export Plug-In . SVG Version: 6.00 Build 0)  -->
<svg version="1.1" id="Capa_1" xmlns="http://www.w3.org/2000/svg" xmlns:xlink="http://www.w3.org/1999/xlink" x="0px" y="0px"
	 viewBox="0 0 512 512" style="enable-background:new 0 0 512 512;" xml:space="preserve">
<path style="fill:#EDEBED;" d="M424.339,336.161H23.532V31.548c0-4.427,3.589-8.016,8.016-8.016h384.774
	c4.427,0,8.016,3.589,8.016,8.016v304.613H424.339z"/>
<rect x="135.76" y="87.66" style="fill:#99E7FF;" width="176.35" height="144.29"/>
<rect x="135.76" y="87.66" style="fill:#59D8FF;" width="176.35" height="24.05"/>
<rect x="23.532" y="87.66" style="fill:#99E7FF;" width="80.16" height="144.29"/>
<rect x="23.532" y="87.66" style="fill:#59D8FF;" width="80.16" height="24.05"/>
<rect x="23.532" y="272.03" style="fill:#B7B2B8;" width="400.81" height="64.13"/>
<g>
	<rect x="55.6" y="304.1" style="fill:#59D8FF;" width="40.08" height="32.06"/>
	<rect x="151.79" y="304.1" style="fill:#59D8FF;" width="40.08" height="32.06"/>
	<rect x="247.98" y="304.1" style="fill:#59D8FF;" width="40.08" height="32.06"/>
</g>
<path style="fill:#6F6571;" d="M368.226,488.468h112.226c13.282,0,24.048-10.767,24.048-24.048V256
	c0-13.282-10.767-24.048-24.048-24.048H368.226c-13.282,0-24.048,10.767-24.048,24.048v208.419
	C344.177,477.701,354.944,488.468,368.226,488.468z"/>
<path style="fill:#5D5360;" d="M368.226,464.419V256c0-13.282,10.767-24.048,24.048-24.048h-24.048
	c-13.282,0-24.048,10.767-24.048,24.048v208.419c0,13.282,10.767,24.048,24.048,24.048h24.048
	C378.993,488.468,368.226,477.701,368.226,464.419z"/>
<rect x="344.18" y="272.03" style="fill:#99E9DF;" width="160.32" height="176.35"/>
<path style="fill:#CCF4EF;" d="M448.387,344.177H400.29c-8.854,0-16.032-7.178-16.032-16.032l0,0
	c0-8.854,7.178-16.032,16.032-16.032h48.097c8.854,0,16.032,7.178,16.032,16.032l0,0C464.419,337,457.241,344.177,448.387,344.177z"
	/>
<path style="fill:#FFFFFF;" d="M400.29,344.177L400.29,344.177c-8.854,0-16.032-7.178-16.032-16.032l0,0
	c0-8.854,7.178-16.032,16.032-16.032l0,0c8.854,0,16.032,7.178,16.032,16.032l0,0C416.323,337,409.145,344.177,400.29,344.177z"/>
<path style="fill:#CCF4EF;" d="M400.29,376.242h48.097c8.854,0,16.032,7.178,16.032,16.032l0,0c0,8.854-7.178,16.032-16.032,16.032
	H400.29c-8.854,0-16.032-7.178-16.032-16.032l0,0C384.258,383.421,391.436,376.242,400.29,376.242z"/>
<path style="fill:#FFFFFF;" d="M448.387,376.242L448.387,376.242c8.854,0,16.032,7.178,16.032,16.032l0,0
	c0,8.854-7.178,16.032-16.032,16.032l0,0c-8.854,0-16.032-7.178-16.032-16.032l0,0C432.355,383.421,439.533,376.242,448.387,376.242
	z"/>
<path d="M407.699,183.248c-2.929,2.929-2.929,7.678,0,10.606c2.929,2.929,7.678,2.929,10.606,0c1.612-1.611,3.754-2.499,6.034-2.499
	c2.279,0,4.421,0.888,6.033,2.499c1.464,1.464,3.384,2.197,5.303,2.197s3.839-0.732,5.303-2.197c2.929-2.929,2.929-7.678,0-10.606
	c-4.445-4.445-10.354-6.893-16.64-6.893C418.053,176.355,412.144,178.803,407.699,183.248z"/>
<path d="M351.017,126.565c-2.929,2.929-2.929,7.678,0,10.606c2.929,2.929,7.678,2.929,10.606,0
	c16.752-16.752,39.025-25.978,62.716-25.978s45.964,9.226,62.716,25.978c1.464,1.464,3.384,2.197,5.303,2.197
	s3.839-0.732,5.303-2.197c2.929-2.929,2.929-7.678,0-10.606c-19.585-19.585-45.625-30.371-73.322-30.371
	S370.602,106.98,351.017,126.565z"/>
<path d="M469.32,165.513c2.929-2.929,2.929-7.678,0-10.606c-12.015-12.015-27.99-18.632-44.981-18.632
	c-16.992,0-32.966,6.617-44.981,18.632c-2.929,2.929-2.929,7.678,0,10.606c1.464,1.464,3.384,2.197,5.303,2.197
	s3.839-0.732,5.303-2.197c9.182-9.182,21.389-14.238,34.375-14.238c12.985,0,25.192,5.057,34.375,14.238
	C461.642,168.441,466.391,168.441,469.32,165.513z"/>
<path d="M31.032,279.533h281.081c4.142,0,7.5-3.358,7.5-7.5s-3.358-7.5-7.5-7.5H31.032v-25.081h72.661c4.142,0,7.5-3.358,7.5-7.5
	V87.661c0-4.142-3.358-7.5-7.5-7.5H31.032V31.032h385.807v40.597c0,4.142,3.358,7.5,7.5,7.5s7.5-3.358,7.5-7.5V23.532
	c0-4.142-3.358-7.5-7.5-7.5H23.532c-4.142,0-7.5,3.358-7.5,7.5v305.129H7.5c-4.142,0-7.5,3.358-7.5,7.5s3.358,7.5,7.5,7.5h304.613
	c4.142,0,7.5-3.358,7.5-7.5s-3.358-7.5-7.5-7.5h-16.548v-24.564c0-4.142-3.358-7.5-7.5-7.5h-40.081c-4.142,0-7.5,3.358-7.5,7.5
	v24.564h-41.113v-24.564c0-4.142-3.358-7.5-7.5-7.5H151.79c-4.142,0-7.5,3.358-7.5,7.5v24.564h-41.113v-24.564
	c0-4.142-3.358-7.5-7.5-7.5h-40.08c-4.142,0-7.5,3.358-7.5,7.5v24.564H31.032V279.533z M31.032,224.452v-17.064h65.161v17.064
	H31.032z M96.193,95.161v97.226H31.032V95.161H96.193z M255.484,311.597h25.081v17.064h-25.081L255.484,311.597L255.484,311.597z
	 M159.291,311.597h25.081v17.064h-25.081V311.597z M63.097,311.597h25.081v17.064H63.097V311.597z"/>
<path d="M480.452,224.452H368.226c-17.396,0-31.548,14.152-31.548,31.548v208.419c0,17.396,14.152,31.548,31.548,31.548h112.226
	c17.396,0,31.548-14.152,31.548-31.548V256C512,238.604,497.848,224.452,480.452,224.452z M351.677,279.533H497v161.355H351.677
	V279.533z M368.226,239.452h112.226c9.125,0,16.548,7.423,16.548,16.548v8.532H351.677V256
	C351.677,246.875,359.101,239.452,368.226,239.452z M480.452,480.968H368.226c-9.125,0-16.548-7.423-16.548-16.548v-8.532H497v8.532
	C497,473.544,489.577,480.968,480.452,480.968z"/>
<path d="M400.291,351.677h48.097c12.976,0,23.532-10.557,23.532-23.532s-10.557-23.532-23.532-23.532h-48.097
	c-12.976,0-23.532,10.557-23.532,23.532S387.315,351.677,400.291,351.677z M456.919,328.145c0,4.705-3.828,8.532-8.532,8.532
	h-26.172c1.034-2.647,1.608-5.523,1.608-8.532s-0.574-5.885-1.608-8.532h26.172C453.092,319.613,456.919,323.44,456.919,328.145z
	 M400.291,319.613c4.705,0,8.532,3.828,8.532,8.532s-3.828,8.532-8.532,8.532s-8.532-3.828-8.532-8.532
	S395.586,319.613,400.291,319.613z"/>
<path d="M448.387,368.742H400.29c-12.976,0-23.532,10.557-23.532,23.533c0,12.976,10.557,23.532,23.532,23.532h48.097
	c12.976,0,23.532-10.557,23.532-23.532C471.919,379.298,461.363,368.742,448.387,368.742z M391.758,392.274
	c0-4.705,3.828-8.533,8.532-8.533h26.172c-1.034,2.647-1.608,5.523-1.608,8.533c0,3.009,0.574,5.885,1.608,8.532H400.29
	C395.586,400.807,391.758,396.979,391.758,392.274z M448.387,400.807c-4.705,0-8.532-3.828-8.532-8.532
	c0-4.705,3.828-8.533,8.532-8.533s8.532,3.828,8.532,8.533C456.919,396.979,453.092,400.807,448.387,400.807z"/>
<path d="M312.113,80.161H135.758c-4.142,0-7.5,3.358-7.5,7.5v144.291c0,4.142,3.358,7.5,7.5,7.5h176.354c4.142,0,7.5-3.358,7.5-7.5
	V87.661C319.613,83.519,316.255,80.161,312.113,80.161z M304.613,95.161v97.226H143.258V95.161H304.613z M143.258,224.452v-17.064
	h161.354v17.064H143.258z"/>
<g>
</g>
<g>
</g>
<g>
</g>
<g>
</g>
<g>
</g>
<g>
</g>
<g>
</g>
<g>
</g>
<g>
</g>
<g>
</g>
<g>
</g>
<g>
</g>
<g>
</g>
<g>
</g>
<g>
</g>
</svg>
