<?xml version="1.0" encoding="iso-8859-1"?>
<!-- Generator: Adobe Illustrator 19.0.0, SVG Export Plug-In . SVG Version: 6.00 Build 0)  -->
<svg version="1.1" id="Capa_1" xmlns="http://www.w3.org/2000/svg" xmlns:xlink="http://www.w3.org/1999/xlink" x="0px" y="0px"
	 viewBox="0 0 512 512" style="enable-background:new 0 0 512 512;" xml:space="preserve">
<path style="fill:#6F6571;" d="M312.113,7.5h-80.161c-8.854,0-16.032,7.178-16.032,16.032v464.935
	c0,8.854,7.178,16.032,16.032,16.032h80.161c8.854,0,16.032-7.178,16.032-16.032V23.532C328.145,14.678,320.967,7.5,312.113,7.5z"/>
<path style="fill:#5D5360;" d="M239.968,488.468V23.532c0-8.855,7.178-16.032,16.032-16.032h-24.048
	c-8.854,0-16.032,7.178-16.032,16.032v464.935c0,8.854,7.178,16.032,16.032,16.032H256
	C247.146,504.5,239.968,497.322,239.968,488.468z"/>
<rect x="215.92" y="119.73" style="fill:#C9C6CA;" width="112.23" height="272.55"/>
<rect x="215.92" y="119.73" style="fill:#B7B2B8;" width="24.05" height="272.55"/>
<path style="fill:#C9C6CA;" d="M151.79,231.952c-4.427,0-8.016,3.589-8.016,8.016v32.065c0,4.427,3.589,8.016,8.016,8.016h24.048
	v-48.097L151.79,231.952L151.79,231.952z"/>
<path style="fill:#4BD7C8;" d="M215.919,151.79h112.226c22.136,0,40.081,17.945,40.081,40.081v128.258
	c0,22.136-17.945,40.081-40.081,40.081H215.919c-22.136,0-40.081-17.945-40.081-40.081V191.871
	C175.839,169.735,193.783,151.79,215.919,151.79z"/>
<path style="fill:#99E9DF;" d="M328.145,336.161H215.919c-8.854,0-16.032-7.178-16.032-16.032V191.871
	c0-8.854,7.178-16.032,16.032-16.032h112.226c8.854,0,16.032,7.178,16.032,16.032v128.258
	C344.177,328.983,337,336.161,328.145,336.161z"/>
<path d="M335.645,144.887V23.532C335.645,10.557,325.088,0,312.113,0h-80.161c-12.976,0-23.532,10.557-23.532,23.532v121.355
	c-22.685,3.608-40.081,23.3-40.081,46.984v32.581H151.79c-8.556,0-15.516,6.96-15.516,15.516v32.064
	c0,8.556,6.96,15.516,15.516,15.516h16.548v32.581c0,23.684,17.396,43.376,40.081,46.984v121.355
	c0,12.976,10.557,23.532,23.532,23.532h80.161c12.976,0,23.532-10.557,23.532-23.532V367.113
	c22.685-3.608,40.081-23.3,40.081-46.984V191.871C375.726,168.187,358.329,148.495,335.645,144.887z M231.952,15h80.161
	c4.705,0,8.532,3.828,8.532,8.532v88.693h-8.534c-4.142,0-7.5,3.358-7.5,7.5s3.358,7.5,7.5,7.5h8.534v17.065h-97.226v-17.065h56.629
	c4.142,0,7.5-3.358,7.5-7.5s-3.358-7.5-7.5-7.5h-56.629V23.532C223.419,18.828,227.247,15,231.952,15z M151.791,272.548
	c-0.285,0-0.516-0.231-0.516-0.516v-32.064c0-0.285,0.231-0.516,0.516-0.516h16.548v33.097h-16.548V272.548z M312.113,497h-80.161
	c-4.705,0-8.532-3.828-8.532-8.532v-88.693h8.534c4.142,0,7.5-3.358,7.5-7.5s-3.358-7.5-7.5-7.5h-8.534V367.71h97.226v17.065
	h-56.629c-4.142,0-7.5,3.358-7.5,7.5s3.358,7.5,7.5,7.5h56.629v88.693C320.645,493.172,316.816,497,312.113,497z M360.726,320.129
	c0,17.965-14.616,32.581-32.581,32.581H215.919c-17.965,0-32.581-14.616-32.581-32.581V191.871
	c0-17.965,14.616-32.581,32.581-32.581h112.226c17.965,0,32.581,14.616,32.581,32.581V320.129z"/>
<path d="M280.048,424.855h-16.032c-4.142,0-7.5,3.358-7.5,7.5s3.358,7.5,7.5,7.5h16.032c4.142,0,7.5-3.358,7.5-7.5
	S284.19,424.855,280.048,424.855z"/>
<path d="M280.048,464.936h-16.032c-4.142,0-7.5,3.358-7.5,7.5s3.358,7.5,7.5,7.5h16.032c4.142,0,7.5-3.358,7.5-7.5
	S284.19,464.936,280.048,464.936z"/>
<path d="M255.393,290.777c-2.929,2.929-2.929,7.678,0,10.606c2.929,2.929,7.678,2.929,10.606,0c1.611-1.611,3.754-2.499,6.033-2.499
	s4.422,0.888,6.033,2.499c1.464,1.464,3.384,2.197,5.303,2.197s3.839-0.732,5.303-2.197c2.929-2.929,2.929-7.678,0-10.606
	C279.497,281.602,264.566,281.602,255.393,290.777z"/>
<path d="M272.032,203.724c-27.697,0-53.737,10.786-73.322,30.371c-2.929,2.929-2.929,7.678,0,10.606
	c2.929,2.929,7.678,2.929,10.606,0c16.752-16.752,39.025-25.978,62.716-25.978s45.964,9.226,62.716,25.978
	c1.464,1.464,3.384,2.197,5.303,2.197s3.839-0.732,5.303-2.197c2.929-2.929,2.929-7.678,0-10.606
	C325.77,214.509,299.729,203.724,272.032,203.724z"/>
<path d="M227.051,262.436c-2.929,2.929-2.929,7.678,0,10.606c2.929,2.929,7.678,2.929,10.606,0
	c18.954-18.954,49.795-18.954,68.749,0c1.464,1.464,3.384,2.197,5.303,2.197s3.839-0.732,5.303-2.197
	c2.929-2.929,2.929-7.678,0-10.606C292.21,237.633,251.854,237.633,227.051,262.436z"/>
<g>
</g>
<g>
</g>
<g>
</g>
<g>
</g>
<g>
</g>
<g>
</g>
<g>
</g>
<g>
</g>
<g>
</g>
<g>
</g>
<g>
</g>
<g>
</g>
<g>
</g>
<g>
</g>
<g>
</g>
</svg>
