<?xml version="1.0" encoding="iso-8859-1"?>
<!-- Generator: Adobe Illustrator 19.0.0, SVG Export Plug-In . SVG Version: 6.00 Build 0)  -->
<svg version="1.1" id="Capa_1" xmlns="http://www.w3.org/2000/svg" xmlns:xlink="http://www.w3.org/1999/xlink" x="0px" y="0px"
	 viewBox="0 0 512 512" style="enable-background:new 0 0 512 512;" xml:space="preserve">
<path style="fill:#6F6571;" d="M376.242,7.5H135.758c-17.709,0-32.065,14.356-32.065,32.065v204.529
	c0,12.756,5.067,24.989,14.087,34.009l212.309,212.31c9.02,9.02,21.254,14.088,34.011,14.088h12.142
	c17.709,0,32.065-14.356,32.065-32.065V39.565C408.306,21.856,393.951,7.5,376.242,7.5z"/>
<path style="fill:#5D5360;" d="M312.113,239.968H103.695v4.126c0,12.756,5.067,24.989,14.087,34.009l212.31,212.31
	c9.02,9.02,21.254,14.088,34.01,14.088h4.125v-208.42C368.227,265.09,343.103,239.968,312.113,239.968z"/>
<polygon style="fill:#99E9DF;" points="376.242,440.371 376.242,71.629 135.758,71.629 135.758,296.08 280.049,440.371 "/>
<path style="fill:#867E88;" d="M376.242,504.5c-17.709,0-32.065-14.356-32.065-32.065V296.081c0-17.709-14.356-32.065-32.065-32.065
	H135.758c-17.709,0-32.065-14.356-32.065-32.065v12.142c0,12.756,5.067,24.989,14.087,34.009l212.31,212.31
	c9.02,9.02,21.254,14.088,34.01,14.088H376.242z"/>
<path style="fill:#9C969E;" d="M312.113,472.435V304.097c0-4.427-3.589-8.016-8.016-8.016H135.76L312.113,472.435z"/>
<path style="fill:#CCF4EF;" d="M159.807,95.677v144.29h152.306c9.347,0,18.097,2.358,25.807,6.442
	c2.269,1.202,4.867,1.603,7.334,0.894l0,0c4.109-1.18,6.94-4.938,6.94-9.212V95.677H159.807z"/>
<path d="M376.242,64.129H135.758c-4.142,0-7.5,3.358-7.5,7.5v160.323c0,4.142,3.358,7.5,7.5,7.5s7.5-3.358,7.5-7.5V79.129h225.483
	v361.242c0,4.142,3.358,7.5,7.5,7.5s7.5-3.358,7.5-7.5V71.629C383.742,67.487,380.384,64.129,376.242,64.129z"/>
<path d="M231.952,47.064h48.097c4.142,0,7.5-3.358,7.5-7.5s-3.358-7.5-7.5-7.5h-48.097c-4.142,0-7.5,3.358-7.5,7.5
	S227.811,47.064,231.952,47.064z"/>
<path d="M199.967,47.064c4.142,0,7.5-3.358,7.5-7.5s-3.358-7.5-7.5-7.5h-0.08c-4.142,0-7.46,3.358-7.46,7.5
	S195.826,47.064,199.967,47.064z"/>
<path d="M376.242,0H135.758c-21.816,0-39.565,17.749-39.565,39.564v204.529c0,14.851,5.783,28.812,16.284,39.313l212.31,212.309
	C335.287,506.217,349.249,512,364.1,512h12.142l0,0l0,0c21.816,0,39.564-17.749,39.564-39.564V39.564
	C415.807,17.749,398.059,0,376.242,0z M123.085,272.8c-1.606-1.606-3.051-3.329-4.348-5.139c5.159,2.469,10.931,3.855,17.022,3.855
	h176.355c13.545,0,24.564,11.02,24.564,24.564v176.355c0,6.091,1.386,11.863,3.855,17.021c-1.81-1.296-3.533-2.742-5.139-4.348
	L123.085,272.8z M376.242,497c-13.545,0-24.564-11.02-24.564-24.564V296.081c0-21.816-17.749-39.564-39.564-39.564H135.758
	c-13.545,0-24.564-11.02-24.564-24.564V39.564c0-13.545,11.02-24.564,24.565-24.564h240.483c13.545,0,24.565,11.02,24.565,24.564
	v432.871C400.807,485.98,389.787,497,376.242,497z"/>
<g>
</g>
<g>
</g>
<g>
</g>
<g>
</g>
<g>
</g>
<g>
</g>
<g>
</g>
<g>
</g>
<g>
</g>
<g>
</g>
<g>
</g>
<g>
</g>
<g>
</g>
<g>
</g>
<g>
</g>
</svg>
