<?xml version="1.0" encoding="iso-8859-1"?>
<!-- Generator: Adobe Illustrator 19.0.0, SVG Export Plug-In . SVG Version: 6.00 Build 0)  -->
<svg version="1.1" id="Capa_1" xmlns="http://www.w3.org/2000/svg" xmlns:xlink="http://www.w3.org/1999/xlink" x="0px" y="0px"
	 viewBox="0 0 512.001 512.001" style="enable-background:new 0 0 512.001 512.001;" xml:space="preserve">
<path style="fill:#59D8FF;" d="M288.065,103.694h-64.129c-26.563,0-48.097-21.534-48.097-48.097l0,0
	c0-26.563,21.534-48.097,48.097-48.097h64.129c26.563,0,48.097,21.534,48.097,48.097l0,0
	C336.161,82.16,314.628,103.694,288.065,103.694z"/>
<path style="fill:#AEA8AF;" d="M312.114,312.113v112.225l-26.795-33.494c-3.411-4.264-5.27-9.562-5.27-15.023v-63.709
	L312.114,312.113z"/>
<path style="fill:#DBD9DC;" d="M328.146,472.435h-32.065l-8.016,32.065h56.113v-16.032C344.179,479.613,337,472.435,328.146,472.435
	z"/>
<path style="fill:#AEA8AF;" d="M199.887,312.113v112.225l26.795-33.494c3.411-4.264,5.27-9.562,5.27-15.023v-63.709L199.887,312.113
	z"/>
<rect x="215.921" y="231.95" style="fill:#C9C6CA;" width="80.16" height="48.1"/>
<rect x="215.921" y="231.95" style="fill:#B7B2B8;" width="80.16" height="24.05"/>
<path style="fill:#DBD9DC;" d="M304.097,231.952h-96.194c-8.854,0-16.032-7.178-16.032-16.032v-56.113h128.258v56.113
	C320.13,224.774,312.951,231.952,304.097,231.952z"/>
<path style="fill:#C9C6CA;" d="M320.13,159.807H191.872v30.737l26.689,7.625c5.775,15.052,20.38,25.767,37.44,25.767
	s31.664-10.715,37.44-25.767l26.689-7.625V159.807z"/>
<path style="fill:#EDEBED;" d="M336.161,135.758H175.84c-8.855,0-16.032,7.178-16.032,16.032v4.581L256,183.855l96.194-27.484
	v-4.581C352.195,142.936,345.016,135.758,336.161,135.758z"/>
<path style="fill:#DBD9DC;" d="M183.855,472.435h32.065l8.016,32.065h-56.113v-16.032
	C167.824,479.613,175.002,472.435,183.855,472.435z"/>
<path style="fill:#C9C6CA;" d="M312.114,312.113H199.887c-8.854,0-16.032-7.178-16.032-16.032l0,0
	c0-8.854,7.178-16.032,16.032-16.032h112.226c8.854,0,16.032,7.178,16.032,16.032l0,0
	C328.146,304.935,320.968,312.113,312.114,312.113z"/>
<rect x="215.921" y="280.05" style="fill:#DBD9DC;" width="80.16" height="32.06"/>
<g>
	<rect x="199.891" y="312.11" style="fill:#9C969E;" width="32.06" height="24.05"/>
	<rect x="280.05" y="312.11" style="fill:#9C969E;" width="32.06" height="24.05"/>
</g>
<circle style="fill:#99E9DF;" cx="256" cy="183.85" r="16.03"/>
<path style="fill:#99E7FF;" d="M288.065,79.645h-64.129c-13.282,0-24.048-10.767-24.048-24.048l0,0
	c0-13.282,10.767-24.048,24.048-24.048h64.129c13.282,0,24.048,10.767,24.048,24.048l0,0
	C312.114,68.878,301.346,79.645,288.065,79.645z"/>
<path d="M215.92,40.081c-4.142,0-7.5,3.358-7.5,7.5v16.033c0,4.142,3.358,7.5,7.5,7.5s7.5-3.358,7.5-7.5V47.581
	C223.42,43.438,220.063,40.081,215.92,40.081z"/>
<path d="M296.081,71.113c4.142,0,7.5-3.358,7.5-7.5V47.581c0-4.142-3.358-7.5-7.5-7.5c-4.142,0-7.5,3.358-7.5,7.5v16.033
	C288.581,67.755,291.94,71.113,296.081,71.113z"/>
<path d="M363.336,307.414c-2.212-1.19-3.642-3.939-3.642-7.003V151.79c0-12.976-10.557-23.532-23.533-23.532H263.5v-17.064h24.565
	c28.112,0,51.401-20.977,55.077-48.097h1.036c4.142,0,7.5-3.357,7.5-7.5c0-4.142-3.358-7.5-7.5-7.5h-1.036
	C339.468,20.977,316.177,0,288.065,0h-64.129c-28.112,0-51.401,20.977-55.077,48.097h-1.036c-4.142,0-7.5,3.358-7.5,7.5
	c0,4.143,3.358,7.5,7.5,7.5h1.036c3.675,27.12,26.965,48.097,55.077,48.097h24.564v17.064h-8.532c-4.142,0-7.5,3.358-7.5,7.5
	s3.358,7.5,7.5,7.5h96.193c4.705,0,8.533,3.828,8.533,8.532v2.437l-67.163,20.148c-3.654-8.267-11.927-14.052-21.531-14.052
	c-9.604,0-17.877,5.786-21.531,14.052l-67.163-20.148v-2.437c0-4.705,3.828-8.532,8.533-8.532h32.063c4.142,0,7.5-3.358,7.5-7.5
	s-3.358-7.5-7.5-7.5H175.84c-12.976,0-23.533,10.557-23.533,23.532v148.621c0,3.063-1.429,5.813-3.641,7.003
	c-7.643,4.113-12.391,12.057-12.391,20.731c0,12.976,10.557,23.532,23.532,23.532s23.532-10.557,23.532-23.532
	c0-4.142-3.358-7.5-7.5-7.5s-7.5,3.358-7.5,7.5c0,4.705-3.828,8.532-8.532,8.532s-8.532-3.828-8.532-8.532
	c0-3.146,1.724-6.029,4.5-7.522c7.113-3.829,11.532-11.574,11.532-20.211V169.887l17.065,5.12v40.913
	c0,12.976,10.557,23.532,23.533,23.532h0.515v33.097h-8.532c-12.976,0-23.532,10.557-23.532,23.533
	c0,10.354,6.724,19.16,16.032,22.299v146.556h-8.532c-12.976,0-23.532,10.557-23.532,23.532V504.5c0,4.142,3.358,7.5,7.5,7.5h56.113
	c2.31,0,4.49-1.064,5.912-2.885c1.421-1.82,1.925-4.193,1.364-6.435l-8.016-32.064c-0.834-3.338-3.834-5.681-7.276-5.681h-8.532
	V426.97l25.151-31.439c4.458-5.572,6.913-12.572,6.913-19.708v-56.209h33.097v56.209c0,7.136,2.455,14.135,6.914,19.708
	l25.151,31.439v37.966h-8.532c-3.441,0-6.441,2.342-7.276,5.681l-8.017,32.064c-0.561,2.241-0.057,4.614,1.364,6.435
	c1.421,1.821,3.602,2.885,5.912,2.885h56.113c4.142,0,7.5-3.358,7.5-7.5v-16.032c0-12.976-10.557-23.532-23.532-23.532h-8.532
	V318.38c9.308-3.139,16.032-11.946,16.032-22.299c0-12.976-10.557-23.533-23.532-23.533h-8.533v-33.097h0.517
	c12.976,0,23.532-10.557,23.532-23.532v-40.913l17.064-5.12V300.41c0,8.638,4.419,16.383,11.533,20.211
	c2.775,1.494,4.499,4.376,4.499,7.522c0,4.705-3.828,8.532-8.532,8.532c-4.704,0-8.532-3.828-8.532-8.532c0-4.142-3.358-7.5-7.5-7.5
	c-4.142,0-7.5,3.358-7.5,7.5c0,12.976,10.557,23.532,23.532,23.532c12.975,0,23.532-10.557,23.532-23.532
	C375.727,319.471,370.979,311.527,363.336,307.414z M223.937,96.193c-22.385,0-40.597-18.211-40.597-40.597
	C183.34,33.212,201.551,15,223.937,15h64.129c22.385,0,40.597,18.212,40.597,40.597s-18.211,40.597-40.597,40.597L223.937,96.193
	L223.937,96.193z M256,175.323c4.705,0,8.532,3.828,8.532,8.532s-3.828,8.532-8.532,8.532c-4.704,0-8.532-3.828-8.532-8.532
	S251.296,175.323,256,175.323z M210.064,479.936L214.331,497h-39.007v-8.532c0-4.705,3.828-8.532,8.532-8.532L210.064,479.936
	L210.064,479.936z M199.887,304.613c-4.705,0-8.532-3.828-8.532-8.532s3.828-8.533,8.532-8.533h8.532v17.065H199.887z
	 M224.452,375.822c0,3.743-1.288,7.415-3.626,10.338l-13.438,16.798v-83.345h17.064L224.452,375.822L224.452,375.822z
	 M223.42,304.613v-17.065H256c4.142,0,7.5-3.357,7.5-7.5c0-4.142-3.358-7.5-7.5-7.5H223.42v-33.097h65.161v33.097h-0.516
	c-4.142,0-7.5,3.358-7.5,7.5c0,4.143,3.358,7.5,7.5,7.5h0.516v17.065H223.42z M291.175,386.16
	c-2.338-2.924-3.626-6.595-3.626-10.338v-56.209h17.065v83.345L291.175,386.16z M328.146,479.936c4.705,0,8.532,3.828,8.532,8.532
	V497h-39.008l4.267-17.064H328.146z M312.114,287.548c4.705,0,8.532,3.828,8.532,8.533s-3.828,8.532-8.532,8.532h-8.533v-17.065
	H312.114z M312.63,215.919c0,4.705-3.828,8.532-8.532,8.532h-96.193c-4.705,0-8.533-3.827-8.533-8.532v-36.413l33.821,10.146
	c2.589,10.181,11.832,17.735,22.808,17.735c10.976,0,20.219-7.554,22.808-17.735l33.822-10.146L312.63,215.919L312.63,215.919z"/>
<g>
</g>
<g>
</g>
<g>
</g>
<g>
</g>
<g>
</g>
<g>
</g>
<g>
</g>
<g>
</g>
<g>
</g>
<g>
</g>
<g>
</g>
<g>
</g>
<g>
</g>
<g>
</g>
<g>
</g>
</svg>
