<?xml version="1.0" encoding="iso-8859-1"?>
<!-- Generator: Adobe Illustrator 19.0.0, SVG Export Plug-In . SVG Version: 6.00 Build 0)  -->
<svg version="1.1" id="Capa_1" xmlns="http://www.w3.org/2000/svg" xmlns:xlink="http://www.w3.org/1999/xlink" x="0px" y="0px"
	 viewBox="0 0 512 512" style="enable-background:new 0 0 512 512;" xml:space="preserve">
<path style="fill:#6F6571;" d="M320.129,247.98h-128.26c-70.836,0-128.26,57.424-128.26,128.26l0,0
	c0,29.709,10.196,56.983,27.15,78.727c-12.079-17.901-19.134-39.474-19.134-62.695c0-61.982,50.247-112.228,112.228-112.228h144.292
	c61.981,0,112.228,50.246,112.228,112.228c0,23.221-7.055,44.793-19.134,62.695c16.954-21.743,27.15-49.018,27.15-78.727l0,0
	C448.389,305.403,390.965,247.98,320.129,247.98z"/>
<polygon style="fill:#E5F9FF;" points="191.869,175.833 255.999,207.899 320.129,175.833 320.129,231.947 191.869,231.947 "/>
<path style="fill:#DBD9DC;" d="M328.146,280.045H183.854v-40.082c0-8.854,7.178-16.032,16.032-16.032h112.228
	c8.854,0,16.032,7.178,16.032,16.032V280.045z"/>
<rect x="183.852" y="255.993" style="fill:#C9C6CA;" width="144.292" height="24.05"/>
<circle style="fill:#B7B2B8;" cx="256.003" cy="264.013" r="16.03"/>
<path style="fill:#CCF3FF;" d="M207.903,117.164L256,145.01l48.098-27.845V61.356L255.999,33.51l-48.097,27.845V117.164z
	 M262.356,29.831c0,0,0,0.004-0.008,0.004C262.356,29.835,262.356,29.831,262.356,29.831z"/>
<path d="M335.645,241.361v-1.398c0-7.035-3.107-13.354-8.016-17.67v-54.477c0-4.142-3.358-7.5-7.5-7.5s-7.5,3.358-7.5,7.5v48.627
	c-0.172-0.004-0.343-0.013-0.516-0.013h-16.548v-24.565c0-4.142-3.358-7.5-7.5-7.5s-7.5,3.358-7.5,7.5v24.565H263.5v-16.547
	c0-4.142-3.358-7.5-7.5-7.5c-4.142,0-7.5,3.358-7.5,7.5v16.548h-17.065v-24.565c0-4.142-3.358-7.5-7.5-7.5
	c-4.142,0-7.5,3.358-7.5,7.5v24.565h-16.548c-0.173,0-0.344,0.009-0.517,0.013v-48.627c0-4.142-3.358-7.5-7.5-7.5
	c-4.142,0-7.5,3.358-7.5,7.5v54.477c-4.909,4.316-8.016,10.635-8.016,17.67v1.398c-67.976,7.74-120.244,65.67-120.244,134.878
	c0,74.858,60.902,135.76,135.76,135.76H320.13c74.858,0,135.76-60.902,135.76-135.76
	C455.89,307.031,403.621,249.101,335.645,241.361z M312.113,231.431c4.705,0,8.532,3.828,8.532,8.532v32.581h-42.722
	c1.034-2.647,1.608-5.523,1.608-8.532c0-12.976-10.557-23.532-23.532-23.532c-12.975,0-23.532,10.557-23.532,23.532
	c0,3.009,0.574,5.885,1.608,8.532h-42.722v-32.581c0-4.705,3.828-8.532,8.532-8.532L312.113,231.431L312.113,231.431z
	 M247.467,264.012c0-4.705,3.828-8.532,8.532-8.532c4.704,0,8.532,3.828,8.532,8.532c0,4.704-3.828,8.532-8.532,8.532
	C251.295,272.544,247.467,268.716,247.467,264.012z M176.353,256.474v16.312c-42.923,2.667-79.788,28.046-98.693,64.239
	C92.312,294.482,130.12,262.405,176.353,256.474z M320.13,497H191.869c-38.04,0-72.021-17.685-94.172-45.26
	c-11.704-16.902-18.571-37.398-18.571-59.469c0-57.747,46.98-104.727,104.727-104.727l0,0h144.292l0,0
	c5.012,0,10.049,0.357,14.971,1.061c4.099,0.592,7.9-2.262,8.486-6.362c0.586-4.1-2.262-7.9-6.362-8.486
	c-3.167-0.453-6.376-0.766-9.596-0.966v-16.317c46.177,5.924,83.949,37.928,98.64,80.392c-1.677-3.208-3.488-6.356-5.463-9.418
	c-12.133-18.807-29.209-33.811-49.384-43.39c-3.741-1.776-8.215-0.183-9.992,3.558c-1.777,3.742-0.184,8.215,3.558,9.992
	c36.368,17.268,59.868,54.425,59.868,94.663c0,22.054-6.854,42.537-18.542,59.433C392.18,479.298,358.186,497,320.13,497z"/>
<path d="M185.779,140.809l60.754,35.173c2.92,1.691,6.192,2.536,9.466,2.536c3.273,0,6.546-0.845,9.465-2.535l60.755-35.173
	c5.814-3.366,9.426-9.631,9.426-16.349V54.057c0-6.718-3.612-12.982-9.426-16.349L265.466,2.536c-5.839-3.381-13.093-3.381-18.932,0
	l0,0l-60.755,35.173c-5.814,3.366-9.426,9.631-9.426,16.349v70.402C176.353,131.178,179.965,137.443,185.779,140.809z
	 M198.831,131.032l28.862-16.709c3.584-2.075,4.808-6.664,2.733-10.249c-2.076-3.585-6.664-4.809-10.249-2.733l-28.823,16.687
	V60.499l55.181,31.946c0.638,0.37,1.296,0.691,1.965,0.98v66.362L198.831,131.032z M263.499,159.788V93.426
	c0.669-0.289,1.327-0.611,1.965-0.98L320.645,60.5v57.529l-28.823-16.687c-3.584-2.076-8.173-0.852-10.249,2.733
	c-2.075,3.585-0.852,8.173,2.733,10.249l28.862,16.709L263.499,159.788z M248.499,18.73v36.86c0,4.142,3.358,7.5,7.5,7.5
	c4.142,0,7.5-3.358,7.5-7.5V18.73l49.677,28.76l-55.227,31.973c-1.203,0.696-2.698,0.696-3.9,0L198.823,47.49L248.499,18.73z"/>
<g>
</g>
<g>
</g>
<g>
</g>
<g>
</g>
<g>
</g>
<g>
</g>
<g>
</g>
<g>
</g>
<g>
</g>
<g>
</g>
<g>
</g>
<g>
</g>
<g>
</g>
<g>
</g>
<g>
</g>
</svg>
