<?xml version="1.0" encoding="iso-8859-1"?>
<!-- Generator: Adobe Illustrator 19.0.0, SVG Export Plug-In . SVG Version: 6.00 Build 0)  -->
<svg version="1.1" id="Capa_1" xmlns="http://www.w3.org/2000/svg" xmlns:xlink="http://www.w3.org/1999/xlink" x="0px" y="0px"
	 viewBox="0 0 512 512" style="enable-background:new 0 0 512 512;" xml:space="preserve">
<path style="fill:#6F6571;" d="M344.177,440.37H167.823c-13.282,0-24.048-10.767-24.048-24.048v-40.081h224.452v40.081
	C368.226,429.603,357.459,440.37,344.177,440.37z"/>
<path style="fill:#5D5360;" d="M175.839,416.322v-40.081h-32.065v40.081c0,13.282,10.767,24.048,24.048,24.048h32.065
	C186.605,440.37,175.839,429.603,175.839,416.322z"/>
<path style="fill:#6F6571;" d="M344.177,71.628H167.823c-13.282,0-24.048,10.767-24.048,24.048v40.081h224.452V95.676
	C368.226,82.395,357.459,71.628,344.177,71.628z"/>
<path style="fill:#5D5360;" d="M175.839,95.676v40.081h-32.065V95.676c0-13.282,10.767-24.048,24.048-24.048h32.065
	C186.605,71.628,175.839,82.395,175.839,95.676z"/>
<g>
	<rect x="223.94" y="264.019" style="fill:#867E88;" width="32.06" height="80.16"/>
	<rect x="143.77" y="280.049" style="fill:#867E88;" width="32.06" height="64.13"/>
	<rect x="336.16" y="247.979" style="fill:#867E88;" width="24.05" height="96.19"/>
</g>
<g>
	<rect x="39.565" y="215.919" style="fill:#C9C6CA;" width="64.13" height="128.26"/>
	<rect x="416.32" y="247.979" style="fill:#C9C6CA;" width="56.11" height="96.19"/>
</g>
<g>
	<rect x="87.66" y="247.979" style="fill:#9C969E;" width="56.11" height="96.19"/>
	<rect x="175.84" y="247.979" style="fill:#9C969E;" width="48.1" height="96.19"/>
	<rect x="360.21" y="199.889" style="fill:#9C969E;" width="56.11" height="144.29"/>
</g>
<rect x="256" y="231.949" style="fill:#C9C6CA;" width="80.16" height="112.23"/>
<circle style="fill:#5D5360;" cx="256" cy="408.309" r="16.03"/>
<path style="fill:#CCF4EF;" d="M320.129,199.886h-48.097c-8.854,0-16.032-7.178-16.032-16.032l0,0
	c0-8.854,7.178-16.032,16.032-16.032h48.097c8.854,0,16.032,7.178,16.032,16.032l0,0
	C336.161,192.708,328.983,199.886,320.129,199.886z"/>
<path style="fill:#99E9DF;" d="M207.903,199.886h-16.032c-8.854,0-16.032-7.178-16.032-16.032l0,0
	c0-8.854,7.178-16.032,16.032-16.032h16.032c8.854,0,16.032,7.178,16.032,16.032l0,0
	C223.935,192.708,216.758,199.886,207.903,199.886z"/>
<path d="M504.5,336.676h-24.564v-88.693c0-4.142-3.358-7.5-7.5-7.5h-48.613v-40.597c0-4.142-3.358-7.5-7.5-7.5h-8.532v-24.564
	c0-4.142-3.358-7.5-7.5-7.5s-7.5,3.358-7.5,7.5v24.564h-17.065v-96.71c0-17.396-14.152-31.548-31.548-31.548H167.823
	c-17.396,0-31.548,14.152-31.548,31.548v144.807h-25.081v-24.564c0-4.142-3.358-7.5-7.5-7.5h-8.532v-24.564
	c0-4.142-3.358-7.5-7.5-7.5s-7.5,3.358-7.5,7.5v24.564H39.564c-4.142,0-7.5,3.358-7.5,7.5v120.758H7.5c-4.142,0-7.5,3.358-7.5,7.5
	s3.358,7.5,7.5,7.5h104.206c4.142,0,7.5-3.358,7.5-7.5s-3.358-7.5-7.5-7.5H95.161v-81.193h41.113v160.839
	c0,17.396,14.152,31.548,31.548,31.548h176.354c17.396,0,31.548-14.152,31.548-31.548V207.386h33.097v129.29h-8.529
	c-4.142,0-7.5,3.358-7.5,7.5s3.358,7.5,7.5,7.5H504.5c4.142,0,7.5-3.358,7.5-7.5S508.642,336.676,504.5,336.676z M87.661,240.483
	c-4.142,0-7.5,3.358-7.5,7.5v88.693H47.064V223.418h49.129v17.064L87.661,240.483L87.661,240.483z M151.274,143.257h209.451v97.226
	h-17.064v-8.532c0-4.142-3.358-7.5-7.5-7.5H256c-4.142,0-7.5,3.358-7.5,7.5v24.564h-17.064v-8.532c0-4.142-3.358-7.5-7.5-7.5
	h-48.097c-4.142,0-7.5,3.358-7.5,7.5v24.564h-17.064v-129.29H151.274z M263.5,336.676V239.45h65.161v97.226H263.5z M231.436,336.676
	v-65.161H248.5v65.161H231.436z M183.339,336.676v-81.193h33.097v81.193H183.339z M151.274,336.676v-49.129h17.064v49.129H151.274z
	 M343.661,255.483h17.064v81.193h-17.064V255.483z M151.274,351.676h209.451v17.064H151.274V351.676z M167.823,79.128h176.354
	c9.125,0,16.548,7.423,16.548,16.548v32.581H151.274V95.676C151.274,86.551,158.698,79.128,167.823,79.128z M344.177,432.87H167.823
	c-9.125,0-16.548-7.423-16.548-16.548v-32.581h209.451v32.581C360.726,425.447,353.302,432.87,344.177,432.87z M423.823,255.483
	h41.113v81.193h-41.113V255.483z"/>
<path d="M239.968,111.192h32.064c4.142,0,7.5-3.358,7.5-7.5s-3.358-7.5-7.5-7.5h-32.064c-4.142,0-7.5,3.358-7.5,7.5
	S235.826,111.192,239.968,111.192z"/>
<path d="M256,384.773c-12.976,0-23.532,10.557-23.532,23.532s10.557,23.532,23.532,23.532c12.975,0,23.532-10.557,23.532-23.532
	S268.976,384.773,256,384.773z M256,416.838c-4.705,0-8.532-3.828-8.532-8.532s3.828-8.532,8.532-8.532
	c4.704,0,8.532,3.828,8.532,8.532S260.705,416.838,256,416.838z"/>
<path d="M191.871,207.386h0.516v8.532c0,4.142,3.358,7.5,7.5,7.5s7.5-3.358,7.5-7.5v-8.532h0.516
	c12.976,0,23.532-10.557,23.532-23.532c0-12.975-10.557-23.532-23.532-23.532h-16.032c-12.976,0-23.532,10.557-23.532,23.532
	C168.339,196.829,178.896,207.386,191.871,207.386z M191.871,175.322h16.032c4.705,0,8.532,3.828,8.532,8.532
	c0,4.704-3.828,8.532-8.532,8.532h-16.032c-4.705,0-8.532-3.828-8.532-8.532C183.339,179.15,187.167,175.322,191.871,175.322z"/>
<path d="M272.032,207.386h48.097c12.976,0,23.532-10.557,23.532-23.532c0-12.975-10.557-23.532-23.532-23.532h-48.097
	c-12.976,0-23.532,10.557-23.532,23.532C248.5,196.829,259.057,207.386,272.032,207.386z M272.032,175.322h48.097
	c4.705,0,8.532,3.828,8.532,8.532c0,4.704-3.828,8.532-8.532,8.532h-48.097c-4.705,0-8.532-3.828-8.532-8.532
	C263.5,179.15,267.328,175.322,272.032,175.322z"/>
<g>
</g>
<g>
</g>
<g>
</g>
<g>
</g>
<g>
</g>
<g>
</g>
<g>
</g>
<g>
</g>
<g>
</g>
<g>
</g>
<g>
</g>
<g>
</g>
<g>
</g>
<g>
</g>
<g>
</g>
</svg>
