<?xml version="1.0" encoding="iso-8859-1"?>
<!-- Generator: Adobe Illustrator 19.0.0, SVG Export Plug-In . SVG Version: 6.00 Build 0)  -->
<svg version="1.1" id="Capa_1" xmlns="http://www.w3.org/2000/svg" xmlns:xlink="http://www.w3.org/1999/xlink" x="0px" y="0px"
	 viewBox="0 0 512.002 512.002" style="enable-background:new 0 0 512.002 512.002;" xml:space="preserve">
<polygon style="fill:#E5F9FF;" points="409.465,480.267 102.536,480.267 102.536,359.111 256,439.882 409.465,359.111 "/>
<path style="fill:#CCF3FF;" d="M256,31.72l-129.233,74.82v149.754L256,331.113l129.233-74.82V106.54L256,31.72z M256,31.72
	L256,31.72L256,31.72L256,31.72z M243.861,10.751h0.079H243.861z"/>
<path style="fill:#DBD9DC;" d="M419.774,476.657c-1.368-2.736-4.165-4.465-7.224-4.465H99.451c-3.059,0-5.856,1.729-7.224,4.465
	L78.304,504.5h355.392L419.774,476.657z"/>
<path style="fill:#C9C6CA;" d="M220.607,472.192H99.451c-3.059,0-5.856,1.729-7.224,4.465L78.304,504.5h121.157l13.922-27.844
	C214.75,473.921,217.547,472.192,220.607,472.192z"/>
<path d="M110.868,283.755l129.233,74.82c4.904,2.839,10.4,4.258,15.898,4.258c5.497,0,10.996-1.42,15.898-4.258l129.233-74.82
	c9.766-5.654,15.832-16.176,15.832-27.461V106.54c0-11.284-6.066-21.808-15.832-27.461L271.9,4.259
	c-9.807-5.678-21.991-5.678-31.798,0l-129.233,74.82c-9.766,5.654-15.832,16.176-15.832,27.461v149.755
	C95.035,267.579,101.103,278.101,110.868,283.755z M118.384,270.774c-0.283-0.164-0.559-0.339-0.83-0.519l109.896-63.623
	c3.584-2.075,4.808-6.664,2.733-10.249c-2.076-3.585-6.664-4.809-10.249-2.733l-109.865,63.605
	c-0.019-0.319-0.032-0.639-0.032-0.961V106.54c0-0.316,0.014-0.63,0.031-0.943l130.034,75.283c2.656,1.538,5.489,2.644,8.398,3.349
	v161.838c-0.297-0.149-0.593-0.304-0.883-0.472L118.384,270.774z M264.383,345.593c-0.29,0.168-0.585,0.323-0.883,0.472V184.228
	c2.91-0.705,5.743-1.811,8.398-3.349l130.034-75.283c0.018,0.313,0.031,0.627,0.031,0.943v149.755c0,0.322-0.014,0.642-0.032,0.961
	l-109.853-63.598c-3.583-2.075-8.173-0.853-10.249,2.733c-2.075,3.585-0.852,8.173,2.733,10.249l109.883,63.615
	c-0.271,0.179-0.547,0.354-0.83,0.519L264.383,345.593z M247.617,17.241c0.29-0.168,0.585-0.323,0.883-0.472v124.263
	c0,4.142,3.358,7.5,7.5,7.5s7.5-3.358,7.5-7.5V16.769c0.297,0.149,0.593,0.304,0.883,0.472l129.233,74.82
	c0.289,0.167,0.569,0.345,0.845,0.528l-130.079,75.309c-5.171,2.994-11.596,2.993-16.766,0L117.538,92.589
	c0.276-0.183,0.557-0.361,0.845-0.528L247.617,17.241z"/>
<path d="M457.928,497h-19.595l-11.848-23.698c-1.974-3.949-5.433-6.783-9.518-7.978V359.116c0-4.142-3.358-7.5-7.5-7.5
	s-7.5,3.358-7.5,7.5v105.576h-36.154v-78.316c0-4.142-3.358-7.5-7.5-7.5s-7.5,3.358-7.5,7.5v78.316h-36.155v-51.56
	c0-4.142-3.358-7.5-7.5-7.5c-4.142,0-7.5,3.358-7.5,7.5v51.56H263.5v-24.81c0-4.142-3.358-7.5-7.5-7.5s-7.5,3.358-7.5,7.5v24.81
	h-36.155v-51.56c0-4.142-3.358-7.5-7.5-7.5c-4.142,0-7.5,3.358-7.5,7.5v51.56H161.19v-78.316c0-4.142-3.358-7.5-7.5-7.5
	c-4.142,0-7.5,3.358-7.5,7.5v78.316h-36.154V359.116c0-4.142-3.358-7.5-7.5-7.5s-7.5,3.358-7.5,7.5v106.209
	c-4.084,1.195-7.543,4.029-9.518,7.978l-11.848,23.698H54.074c-4.142,0-7.5,3.358-7.5,7.5c0,4.142,3.358,7.5,7.5,7.5h403.854
	c4.142,0,7.5-3.358,7.5-7.5C465.428,500.359,462.07,497,457.928,497z M98.935,480.012c0.099-0.197,0.296-0.319,0.516-0.319h313.1
	c0.22,0,0.417,0.122,0.516,0.319l8.494,16.989H90.439L98.935,480.012z"/>
<path d="M102.536,334.304c4.142,0,7.5-3.358,7.5-7.5V310.65c0-4.142-3.358-7.5-7.5-7.5s-7.5,3.358-7.5,7.5v16.154
	C95.035,330.946,98.394,334.304,102.536,334.304z"/>
<path d="M146.191,337.91v16.154c0,4.142,3.358,7.5,7.5,7.5c4.142,0,7.5-3.358,7.5-7.5V337.91c0-4.142-3.358-7.5-7.5-7.5
	C149.549,330.41,146.191,333.768,146.191,337.91z"/>
<path d="M197.345,364.666v16.154c0,4.142,3.358,7.5,7.5,7.5c4.142,0,7.5-3.358,7.5-7.5v-16.154c0-4.142-3.358-7.5-7.5-7.5
	C200.703,357.166,197.345,360.524,197.345,364.666z"/>
<path d="M248.499,391.419v16.157c0,4.142,3.358,7.5,7.5,7.5c4.142,0,7.5-3.358,7.5-7.5v-16.157c0-4.142-3.358-7.5-7.5-7.5
	S248.499,387.277,248.499,391.419z"/>
<path d="M401.965,310.651v16.154c0,4.142,3.358,7.5,7.5,7.5s7.5-3.358,7.5-7.5v-16.154c0-4.142-3.358-7.5-7.5-7.5
	S401.965,306.508,401.965,310.651z"/>
<path d="M350.81,337.91v16.154c0,4.142,3.358,7.5,7.5,7.5s7.5-3.358,7.5-7.5V337.91c0-4.142-3.358-7.5-7.5-7.5
	S350.81,333.768,350.81,337.91z"/>
<path d="M299.655,364.666v16.154c0,4.142,3.358,7.5,7.5,7.5c4.142,0,7.5-3.358,7.5-7.5v-16.154c0-4.142-3.358-7.5-7.5-7.5
	C303.013,357.166,299.655,360.524,299.655,364.666z"/>
<g>
</g>
<g>
</g>
<g>
</g>
<g>
</g>
<g>
</g>
<g>
</g>
<g>
</g>
<g>
</g>
<g>
</g>
<g>
</g>
<g>
</g>
<g>
</g>
<g>
</g>
<g>
</g>
<g>
</g>
</svg>
