<?xml version="1.0" encoding="iso-8859-1"?>
<!-- Generator: Adobe Illustrator 19.0.0, SVG Export Plug-In . SVG Version: 6.00 Build 0)  -->
<svg version="1.1" id="Capa_1" xmlns="http://www.w3.org/2000/svg" xmlns:xlink="http://www.w3.org/1999/xlink" x="0px" y="0px"
	 viewBox="0 0 512 512" style="enable-background:new 0 0 512 512;" xml:space="preserve">
<path style="fill:#99E7FF;" d="M480.452,79.645H31.548C18.267,79.645,7.5,90.412,7.5,103.694v272.548
	c0,13.282,10.767,24.048,24.048,24.048h448.903c13.282,0,24.048-10.767,24.048-24.048V103.694
	C504.5,90.412,493.733,79.645,480.452,79.645z"/>
<path style="fill:#FFFFFF;" d="M448.387,119.726H320.129c-8.854,0-16.032,7.178-16.032,16.032v24.048l-34.607,34.607
	c-2.02,2.02-0.589,5.474,2.267,5.474h32.34v16.032c0,8.854,7.178,16.032,16.032,16.032h128.258c8.854,0,16.032-7.178,16.032-16.032
	v-80.161C464.419,126.904,457.241,119.726,448.387,119.726z"/>
<path style="fill:#59D8FF;" d="M183.855,215.92h-64.129c-26.563,0-48.097-21.534-48.097-48.097l0,0
	c0-26.563,21.534-48.097,48.097-48.097h64.129c26.563,0,48.097,21.534,48.097,48.097l0,0
	C231.952,194.386,210.418,215.92,183.855,215.92z"/>
<rect x="87.66" y="272.03" style="fill:#DBD9DC;" width="128.26" height="96.19"/>
<path style="fill:#C9C6CA;" d="M215.919,272.033H87.661v30.737l26.689,7.625c5.775,15.052,20.38,25.767,37.44,25.767
	s31.664-10.715,37.44-25.767l26.689-7.625V272.033z"/>
<path style="fill:#EDEBED;" d="M231.952,247.984H71.629c-8.855,0-16.032,7.178-16.032,16.032v4.581l96.194,27.484l96.194-27.484
	v-4.581C247.984,255.162,240.805,247.984,231.952,247.984z"/>
<circle style="fill:#99E9DF;" cx="151.79" cy="296.08" r="16.03"/>
<path style="fill:#99E7FF;" d="M183.855,191.871h-64.129c-13.282,0-24.048-10.767-24.048-24.048l0,0
	c0-13.282,10.767-24.048,24.048-24.048h64.129c13.282,0,24.048,10.767,24.048,24.048l0,0
	C207.903,181.105,197.136,191.871,183.855,191.871z"/>
<path d="M480.452,72.145H31.548C14.152,72.145,0,86.297,0,103.693v272.548c0,17.396,14.152,31.549,31.548,31.549h64.645v17.064
	H79.645c-4.142,0-7.5,3.358-7.5,7.5s3.358,7.5,7.5,7.5h352.71c4.142,0,7.5-3.358,7.5-7.5s-3.358-7.5-7.5-7.5h-16.548V407.79h64.645
	c17.396,0,31.548-14.153,31.548-31.549V103.693C512,86.297,497.848,72.145,480.452,72.145z M497,376.242
	c0,9.125-7.423,16.549-16.548,16.549h-88.178c-4.142,0-7.5,3.358-7.5,7.5s3.358,7.5,7.5,7.5h8.533v17.064H111.193v-17.064h249.019
	c4.142,0,7.5-3.358,7.5-7.5s-3.358-7.5-7.5-7.5H31.548c-9.125,0-16.548-7.424-16.548-16.549V103.693
	c0-9.125,7.423-16.548,16.548-16.548h448.903c9.125,0,16.548,7.424,16.548,16.548L497,376.242L497,376.242z"/>
<path d="M264.016,360.727h-8.532v-96.71c0-12.976-10.557-23.532-23.532-23.532h-72.661v-17.064h24.564
	c28.112,0,51.401-20.977,55.077-48.097h1.036c4.142,0,7.5-3.358,7.5-7.5s-3.358-7.5-7.5-7.5h-1.036
	c-3.675-27.12-26.965-48.097-55.077-48.097h-64.129c-28.112,0-51.401,20.977-55.077,48.097h-1.036c-4.142,0-7.5,3.358-7.5,7.5
	s3.358,7.5,7.5,7.5h1.036c3.675,27.12,26.965,48.097,55.077,48.097h24.565v17.064h-8.535c-4.142,0-7.5,3.358-7.5,7.5
	s3.358,7.5,7.5,7.5h96.196c4.705,0,8.532,3.828,8.532,8.532v2.437l-67.162,20.148c-3.654-8.266-11.927-14.052-21.531-14.052
	s-17.877,5.786-21.531,14.052l-67.163-20.149v-2.437c0-4.705,3.828-8.532,8.532-8.532h32.063c4.142,0,7.5-3.358,7.5-7.5
	s-3.358-7.5-7.5-7.5H71.629c-12.976,0-23.532,10.557-23.532,23.532v96.71h-8.532c-4.142,0-7.5,3.358-7.5,7.5s3.358,7.5,7.5,7.5
	h224.452c4.142,0,7.5-3.358,7.5-7.5S268.158,360.727,264.016,360.727z M79.129,167.823c0-22.385,18.211-40.597,40.597-40.597h64.129
	c22.385,0,40.597,18.212,40.597,40.597s-18.211,40.597-40.597,40.597h-64.129C97.34,208.419,79.129,190.208,79.129,167.823z
	 M240.484,360.727H223.42v-72.662c0-0.277-0.017-0.549-0.047-0.818l17.111-5.133L240.484,360.727L240.484,360.727z M151.791,319.613
	c10.976,0,20.219-7.554,22.808-17.735l33.821-10.146v68.994H95.161v-68.994l33.822,10.146
	C131.572,312.059,140.815,319.613,151.791,319.613z M151.791,287.548c4.705,0,8.532,3.828,8.532,8.532s-3.828,8.532-8.532,8.532
	s-8.532-3.828-8.532-8.532S147.086,287.548,151.791,287.548z M63.097,282.112l17.111,5.133c-0.029,0.269-0.047,0.542-0.047,0.818
	v72.662H63.097V282.112z"/>
<path d="M111.709,152.307c-4.142,0-7.5,3.358-7.5,7.5v16.032c0,4.142,3.358,7.5,7.5,7.5s7.5-3.358,7.5-7.5v-16.032
	C119.209,155.665,115.852,152.307,111.709,152.307z"/>
<path d="M191.871,183.339c4.142,0,7.5-3.358,7.5-7.5v-16.032c0-4.142-3.358-7.5-7.5-7.5s-7.5,3.358-7.5,7.5v16.032
	C184.371,179.981,187.729,183.339,191.871,183.339z"/>
<path d="M448.387,112.226H320.129c-12.976,0-23.532,10.557-23.532,23.533V156.7l-37.884,37.884
	c-2.145,2.145-2.787,5.371-1.626,8.173c1.161,2.803,3.896,4.63,6.929,4.63h32.581v8.532c0,12.976,10.557,23.532,23.532,23.532
	h128.258c12.976,0,23.532-10.557,23.532-23.532v-80.161C471.919,122.782,461.363,112.226,448.387,112.226z M456.919,215.919
	c0,4.705-3.828,8.532-8.532,8.532H320.129c-4.705,0-8.532-3.828-8.532-8.532v-16.032c0-4.142-3.358-7.5-7.5-7.5h-21.974
	L309.4,165.11c1.407-1.406,2.197-3.314,2.197-5.303v-24.048c0-4.705,3.828-8.533,8.532-8.533h128.258
	c4.705,0,8.532,3.828,8.532,8.533V215.919z"/>
<path d="M424.339,152.307h-80.162c-4.142,0-7.5,3.358-7.5,7.5s3.358,7.5,7.5,7.5h80.162c4.142,0,7.5-3.358,7.5-7.5
	S428.481,152.307,424.339,152.307z"/>
<path d="M440.371,272.548H328.145c-4.142,0-7.5,3.358-7.5,7.5s3.358,7.5,7.5,7.5h112.226c4.142,0,7.5-3.358,7.5-7.5
	S444.513,272.548,440.371,272.548z"/>
<path d="M440.371,304.613h-64.129c-4.142,0-7.5,3.358-7.5,7.5s3.358,7.5,7.5,7.5h64.129c4.142,0,7.5-3.358,7.5-7.5
	S444.513,304.613,440.371,304.613z"/>
<path d="M344.177,304.613h-16.032c-4.142,0-7.5,3.358-7.5,7.5s3.358,7.5,7.5,7.5h16.032c4.142,0,7.5-3.358,7.5-7.5
	S348.319,304.613,344.177,304.613z"/>
<path d="M424.339,336.677h-48.097c-4.142,0-7.5,3.358-7.5,7.5s3.358,7.5,7.5,7.5h48.097c4.142,0,7.5-3.358,7.5-7.5
	S428.481,336.677,424.339,336.677z"/>
<path d="M344.177,336.677h-16.032c-4.142,0-7.5,3.358-7.5,7.5s3.358,7.5,7.5,7.5h16.032c4.142,0,7.5-3.358,7.5-7.5
	S348.319,336.677,344.177,336.677z"/>
<path d="M424.339,184.371h-80.162c-4.142,0-7.5,3.358-7.5,7.5s3.358,7.5,7.5,7.5h80.162c4.142,0,7.5-3.358,7.5-7.5
	S428.481,184.371,424.339,184.371z"/>
<g>
</g>
<g>
</g>
<g>
</g>
<g>
</g>
<g>
</g>
<g>
</g>
<g>
</g>
<g>
</g>
<g>
</g>
<g>
</g>
<g>
</g>
<g>
</g>
<g>
</g>
<g>
</g>
<g>
</g>
</svg>
