<?xml version="1.0" encoding="iso-8859-1"?>
<!-- Generator: Adobe Illustrator 19.0.0, SVG Export Plug-In . SVG Version: 6.00 Build 0)  -->
<svg version="1.1" id="Capa_1" xmlns="http://www.w3.org/2000/svg" xmlns:xlink="http://www.w3.org/1999/xlink" x="0px" y="0px"
	 viewBox="0 0 511.999 511.999" style="enable-background:new 0 0 511.999 511.999;" xml:space="preserve">
<circle style="fill:#E5F9FF;" cx="255.85" cy="143.771" r="136.27"/>
<circle style="fill:#99E7FF;" cx="255.85" cy="143.771" r="96.19"/>
<circle style="fill:#CCF3FF;" cx="255.85" cy="143.771" r="72.14"/>
<circle style="fill:#FFFFFF;" cx="255.85" cy="143.771" r="48.1"/>
<path style="fill:#6F6571;" d="M290.606,296.3c-10.045-1.634-18.725,6.076-18.725,15.813V143.774c0-9.738-8.68-17.446-18.724-15.813
	c-7.883,1.281-13.34,8.684-13.34,16.67v135.417c0-9.738-8.68-17.446-18.724-15.813c-7.883,1.281-13.34,8.684-13.34,16.67v15.175
	c0-9.738-8.68-17.446-18.724-15.813c-7.883,1.281-13.34,8.684-13.34,16.67v15.175c0-9.738-8.68-17.446-18.724-15.813
	c-7.883,1.282-13.34,8.684-13.34,16.67v51.432c0,7.864,0.965,15.7,2.872,23.329l10.288,41.152c1.907,7.63,2.872,15.464,2.872,23.329
	v52.288h128.258v-45.554c0-7.018,0.768-14.015,2.29-20.866l11.452-51.53c1.523-6.852,2.291-13.85,2.291-20.869v-52.709
	C303.945,304.984,298.489,297.582,290.606,296.3z"/>
<g>
	<path style="fill:#5D5360;" d="M172.815,428.883l-10.288-41.152c-1.908-7.63-2.872-15.465-2.872-23.329v-51.431
		c0-6.026,3.112-11.71,8.022-14.693c-3.284-1.909-7.281-2.725-11.514-1.828c-7.526,1.595-12.541,8.828-12.541,16.521v51.431
		c0,7.864,0.965,15.699,2.872,23.329l10.288,41.152c1.907,7.63,2.872,15.464,2.872,23.329V504.5h16.032v-52.288
		C175.687,444.347,174.723,436.512,172.815,428.883z"/>
	<path style="fill:#5D5360;" d="M183.703,320.129c4.427,0,8.016-3.589,8.016-8.016v-31.984c-0.888-0.001-1.776-0.011-2.692,0.138
		c-7.883,1.282-13.34,8.684-13.34,16.671v15.175C175.687,316.54,179.276,320.129,183.703,320.129z"/>
	<path style="fill:#5D5360;" d="M215.768,312.113c4.427,0,8.016-3.589,8.016-8.016v-40c-0.888-0.001-1.776-0.011-2.692,0.138
		c-7.883,1.282-13.34,8.684-13.34,16.671v15.175v8.016C207.752,308.524,211.341,312.113,215.768,312.113z"/>
	<path style="fill:#5D5360;" d="M247.832,296.081c4.427,0,8.016-3.589,8.016-8.016V127.823c-0.888-0.001-1.776-0.011-2.692,0.138
		c-7.883,1.282-13.34,8.684-13.34,16.671v135.417v8.016C239.816,292.492,243.405,296.081,247.832,296.081z"/>
	<path style="fill:#5D5360;" d="M287.913,328.145v-31.983c-8.846,0.01-16.032,7.103-16.032,15.951v16.032
		c0,4.427,3.589,8.016,8.016,8.016C284.324,336.161,287.913,332.572,287.913,328.145z"/>
</g>
<path d="M291.81,288.898c-4.251-0.691-8.535-0.224-12.429,1.287v-96.037c19.377-9.059,32.064-28.667,32.064-50.373
	c0-30.656-24.94-55.597-55.597-55.597s-55.597,24.941-55.597,55.597c0,21.704,12.688,41.315,32.064,50.373v63.972
	c-3.893-1.511-8.177-1.979-12.43-1.287c-9.119,1.484-16.412,8.628-18.801,17.661c-4.112-1.779-8.705-2.371-13.263-1.629
	c-9.119,1.484-16.412,8.628-18.801,17.661c-4.112-1.78-8.706-2.371-13.263-1.629c-11.193,1.821-19.635,12.17-19.635,24.073v51.429
	c0,8.471,1.042,16.933,3.096,25.149l10.288,41.152c1.757,7.03,2.648,14.267,2.648,21.511v52.287c0,4.142,3.358,7.5,7.5,7.5
	s7.5-3.358,7.5-7.5v-52.287c0-8.469-1.042-16.931-3.096-25.149l-10.288-41.153c-1.757-7.028-2.648-14.265-2.648-21.511v-51.427
	c0-4.554,3.094-8.625,7.043-9.268c2.581-0.42,5.071,0.256,7.011,1.905c1.913,1.627,3.01,3.998,3.01,6.505c0,4.142,3.358,7.5,7.5,7.5
	s7.5-3.358,7.5-7.5v-15.175c0-4.554,3.094-8.625,7.043-9.268c2.581-0.42,5.071,0.256,7.011,1.905c1.913,1.627,3.01,3.998,3.01,6.505
	c0,4.142,3.358,7.5,7.5,7.5s7.5-3.358,7.5-7.5v-15.175c0-4.554,3.094-8.625,7.043-9.267c2.583-0.421,5.072,0.256,7.011,1.905
	c1.913,1.627,3.01,3.998,3.01,6.505c0,4.142,3.358,7.5,7.5,7.5s7.5-3.358,7.5-7.5V144.632c0-4.554,3.094-8.625,7.043-9.268
	c2.581-0.42,5.072,0.256,7.011,1.905c1.913,1.627,3.01,3.998,3.01,6.505v168.339c0,4.142,3.358,7.5,7.5,7.5s7.5-3.358,7.5-7.5
	c0-2.507,1.097-4.878,3.01-6.505c1.938-1.649,4.431-2.325,7.01-1.906c3.95,0.643,7.044,4.714,7.044,9.268v52.712
	c0,6.46-0.71,12.934-2.112,19.24l-11.451,51.529c-1.639,7.374-2.469,14.941-2.469,22.494v45.554c0,4.142,3.358,7.5,7.5,7.5
	s7.5-3.358,7.5-7.5v-45.554c0-6.46,0.71-12.934,2.112-19.24l11.451-51.529c1.639-7.373,2.469-14.941,2.469-22.494v-52.711
	C311.445,301.068,303.004,290.719,291.81,288.898z M251.952,120.559c-11.194,1.821-19.635,12.17-19.635,24.073v32.227
	c-10.506-7.493-17.064-19.748-17.064-33.084c0-22.385,18.211-40.597,40.597-40.597s40.597,18.212,40.597,40.597
	c0,13.338-6.558,25.592-17.064,33.084v-33.084c0-6.914-3.022-13.449-8.292-17.931C265.822,121.364,258.848,119.437,251.952,120.559z
	"/>
<path d="M119.607,135.642c0.288,0.033,0.574,0.049,0.857,0.049c3.763,0,7.007-2.825,7.443-6.653c0.568-4.993,1.438-10,2.586-14.88
	c0.948-4.032-1.551-8.07-5.584-9.018s-8.07,1.551-9.018,5.583c-1.282,5.452-2.254,11.043-2.889,16.619
	C112.535,131.458,115.492,135.174,119.607,135.642z"/>
<path d="M372.113,88.335c1.287,2.695,3.973,4.269,6.773,4.269c1.083,0,2.185-0.236,3.228-0.734c3.737-1.785,5.32-6.263,3.535-10
	c-2.413-5.052-5.155-10.018-8.15-14.761c-2.211-3.501-6.843-4.549-10.346-2.337c-3.502,2.211-4.549,6.844-2.337,10.346
	C367.496,79.365,369.952,83.812,372.113,88.335z"/>
<path d="M162.77,51.741c1.836,0,3.676-0.67,5.123-2.023c3.669-3.433,7.578-6.683,11.617-9.661c3.334-2.458,4.044-7.154,1.586-10.487
	c-2.458-3.334-7.154-4.044-10.487-1.586c-4.507,3.323-8.869,6.951-12.963,10.781c-3.024,2.83-3.183,7.576-0.353,10.601
	C158.768,50.943,160.766,51.741,162.77,51.741z"/>
<path d="M130.743,89.138c1.084,0.547,2.237,0.806,3.374,0.806c2.741,0,5.382-1.508,6.701-4.122c2.262-4.48,4.815-8.876,7.591-13.065
	c2.288-3.453,1.343-8.107-2.11-10.395s-8.106-1.343-10.395,2.11c-3.099,4.678-5.951,9.586-8.477,14.589
	C125.56,82.761,127.045,87.272,130.743,89.138z"/>
<path d="M381.812,116.88c1.041,4.902,1.803,9.927,2.264,14.934c0.358,3.891,3.627,6.813,7.459,6.813c0.23,0,0.462-0.01,0.696-0.032
	c4.125-0.38,7.161-4.031,6.781-8.156c-0.514-5.591-1.365-11.201-2.527-16.676c-0.861-4.052-4.846-6.641-8.895-5.778
	C383.538,108.847,380.952,112.829,381.812,116.88z"/>
<path d="M294.435,20.879c4.789,1.502,9.54,3.307,14.122,5.366c0.999,0.448,2.042,0.661,3.069,0.661c2.862,0,5.597-1.648,6.846-4.428
	c1.697-3.778,0.011-8.217-3.768-9.915c-5.12-2.3-10.43-4.317-15.78-5.996c-3.955-1.24-8.162,0.959-9.401,4.912
	C288.284,15.431,290.483,19.64,294.435,20.879z"/>
<path d="M249.683,15.145c5.011-0.236,10.123-0.182,15.119,0.161c0.174,0.012,0.348,0.018,0.521,0.018
	c3.908,0,7.204-3.029,7.475-6.987c0.284-4.132-2.836-7.712-6.969-7.996c-5.57-0.383-11.267-0.443-16.851-0.18
	c-4.138,0.195-7.333,3.707-7.139,7.845S245.547,15.331,249.683,15.145z"/>
<path d="M202.782,25.722c0.975,0,1.965-0.191,2.919-0.595c4.623-1.956,9.41-3.656,14.23-5.053c3.979-1.153,6.269-5.313,5.116-9.292
	c-1.154-3.978-5.316-6.269-9.292-5.115c-5.386,1.561-10.735,3.461-15.9,5.647c-3.815,1.615-5.599,6.015-3.984,9.83
	C197.082,24.004,199.86,25.722,202.782,25.722z"/>
<path d="M334.434,41.751c3.975,3.066,7.813,6.402,11.408,9.915c1.458,1.426,3.35,2.135,5.241,2.135c1.948,0,3.896-0.755,5.365-2.259
	c2.895-2.963,2.84-7.711-0.123-10.606c-4.011-3.919-8.292-7.641-12.727-11.062c-3.28-2.53-7.989-1.922-10.52,1.357
	C330.548,34.511,331.155,39.221,334.434,41.751z"/>
<path d="M130.661,174.088c-1.176-4.872-2.074-9.874-2.67-14.867c-0.492-4.113-4.22-7.048-8.337-6.557
	c-4.113,0.491-7.049,4.224-6.558,8.336c0.667,5.576,1.67,11.164,2.983,16.606c0.829,3.436,3.9,5.743,7.285,5.743
	c0.582,0,1.174-0.068,1.765-0.211C129.156,182.166,131.632,178.114,130.661,174.088z"/>
<path d="M341.203,240.199c-3.761,3.332-7.757,6.475-11.876,9.343c-3.399,2.366-4.237,7.041-1.87,10.44
	c1.458,2.094,3.791,3.216,6.162,3.216c1.479,0,2.973-0.436,4.278-1.345c4.597-3.2,9.056-6.708,13.252-10.426
	c3.101-2.747,3.388-7.487,0.641-10.587C349.043,237.74,344.303,237.453,341.203,240.199z"/>
<path d="M379.415,201.802c-3.645-1.966-8.195-0.607-10.162,3.039c-2.383,4.416-5.056,8.74-7.946,12.855
	c-2.38,3.39-1.563,8.067,1.827,10.448c1.312,0.921,2.815,1.363,4.304,1.363c2.36,0,4.684-1.112,6.144-3.19
	c3.226-4.593,6.21-9.422,8.871-14.352C384.42,208.319,383.06,203.769,379.415,201.802z"/>
<path d="M175.666,261.48c2.315,0,4.6-1.069,6.067-3.083c2.44-3.347,1.704-8.039-1.644-10.479c-4.057-2.956-7.984-6.186-11.675-9.6
	c-3.04-2.813-7.786-2.628-10.599,0.412c-2.813,3.041-2.628,7.786,0.412,10.599c4.117,3.809,8.5,7.413,13.026,10.712
	C172.589,261.012,174.134,261.48,175.666,261.48z"/>
<path d="M302.725,263.753c-0.475,0.185-0.951,0.368-1.427,0.548c-3.875,1.464-5.83,5.792-4.366,9.667
	c1.134,3.002,3.987,4.851,7.018,4.851c0.88,0,1.776-0.156,2.649-0.486c0.53-0.2,1.059-0.403,1.586-0.61
	c3.858-1.508,5.763-5.858,4.255-9.716C310.933,264.15,306.584,262.244,302.725,263.753z"/>
<path d="M142.581,227.06c1.436,0,2.887-0.412,4.169-1.271c3.44-2.307,4.36-6.966,2.053-10.406
	c-2.799-4.176-5.377-8.557-7.662-13.021c-1.887-3.687-6.404-5.148-10.093-3.26c-3.687,1.887-5.146,6.406-3.259,10.093
	c2.551,4.986,5.43,9.878,8.556,14.54C137.791,225.894,140.164,227.06,142.581,227.06z"/>
<path d="M391.823,155.611c-4.102-0.581-7.896,2.275-8.477,6.375c-0.704,4.979-1.712,9.964-2.996,14.815
	c-1.06,4.004,1.328,8.109,5.332,9.169c0.643,0.17,1.288,0.251,1.923,0.251c3.32,0,6.356-2.222,7.246-5.584
	c1.434-5.421,2.56-10.989,3.347-16.551C398.779,159.986,395.924,156.191,391.823,155.611z"/>
<path d="M255.849,40.081c-57.177,0-103.693,46.517-103.693,103.694c0,36.917,19.875,71.339,51.87,89.833
	c1.182,0.683,2.473,1.008,3.747,1.008c2.59,0,5.11-1.344,6.5-3.748c2.073-3.586,0.846-8.174-2.74-10.247
	c-27.373-15.823-44.377-45.269-44.377-76.847c0-48.906,39.788-88.694,88.693-88.694s88.693,39.788,88.693,88.694
	c0,31.565-16.993,61.004-44.348,76.83c-3.585,2.074-4.81,6.662-2.736,10.248c2.074,3.585,6.662,4.81,10.248,2.736
	c31.974-18.498,51.836-52.913,51.836-89.814C359.542,86.598,313.025,40.081,255.849,40.081z"/>
<g>
</g>
<g>
</g>
<g>
</g>
<g>
</g>
<g>
</g>
<g>
</g>
<g>
</g>
<g>
</g>
<g>
</g>
<g>
</g>
<g>
</g>
<g>
</g>
<g>
</g>
<g>
</g>
<g>
</g>
</svg>
