<?xml version="1.0" encoding="iso-8859-1"?>
<!-- Generator: Adobe Illustrator 19.0.0, SVG Export Plug-In . SVG Version: 6.00 Build 0)  -->
<svg version="1.1" id="Capa_1" xmlns="http://www.w3.org/2000/svg" xmlns:xlink="http://www.w3.org/1999/xlink" x="0px" y="0px"
	 viewBox="0 0 512 512" style="enable-background:new 0 0 512 512;" xml:space="preserve">
<path style="fill:#E5F9FF;" d="M471.535,407H40.465c-4.399,0-7.965-3.566-7.965-7.965v-286.07c0-4.399,3.566-7.965,7.965-7.965
	h431.07c4.399,0,7.965,3.566,7.965,7.965v286.071C479.5,403.434,475.934,407,471.535,407z"/>
<path style="fill:#FFFFFF;" d="M256,151.79c-72.352,0-138.118,33.547-187.096,88.287c-8.066,9.015-8.066,22.831,0,31.846
	C117.882,326.663,183.648,360.21,256,360.21s138.118-33.547,187.096-88.287c8.066-9.015,8.066-22.831,0-31.846
	C394.118,185.337,328.352,151.79,256,151.79z"/>
<circle style="fill:#AEA8AF;" cx="256" cy="256" r="72.14"/>
<path style="fill:#9C969E;" d="M292.073,292.072c-39.845,0-72.145-32.301-72.145-72.145c0-10.58,2.333-20.596,6.424-29.649
	c-25.041,11.317-42.497,36.456-42.497,65.721c0,39.844,32.3,72.145,72.145,72.145c29.265,0,54.404-17.457,65.721-42.497
	C312.669,289.739,302.652,292.072,292.073,292.072z"/>
<circle style="fill:#6F6571;" cx="256" cy="256" r="32.06"/>
<circle style="fill:#99E7FF;" cx="456.4" cy="384.26" r="16.03"/>
<path d="M448.686,276.923c10.672-11.928,10.672-29.919,0-41.847C396.304,176.532,327.874,144.29,256,144.29
	s-140.304,32.242-192.686,90.786c-10.672,11.928-10.672,29.919,0,41.847C115.696,335.468,184.126,367.71,256,367.71
	S396.304,335.468,448.686,276.923z M256,352.71c-67.548,0-132.009-30.467-181.507-85.788c-5.479-6.125-5.479-15.72,0-21.844
	C123.991,189.757,188.452,159.29,256,159.29s132.009,30.467,181.507,85.788c5.479,6.125,5.479,15.72,0,21.844
	C388.009,322.243,323.548,352.71,256,352.71z"/>
<path d="M496.484,72.145h-56.113c-4.142,0-7.5,3.358-7.5,7.5s3.358,7.5,7.5,7.5h56.113c0.285,0,0.516,0.231,0.516,0.516v56.113
	c0,4.142,3.358,7.5,7.5,7.5s7.5-3.358,7.5-7.5V87.661C512,79.106,505.04,72.145,496.484,72.145z"/>
<path d="M7.5,151.274c4.142,0,7.5-3.358,7.5-7.5V87.661c0-0.285,0.231-0.516,0.516-0.516h56.113c4.142,0,7.5-3.358,7.5-7.5
	s-3.358-7.5-7.5-7.5H15.516C6.96,72.145,0,79.106,0,87.661v56.113C0,147.916,3.358,151.274,7.5,151.274z"/>
<path d="M71.629,424.855H15.516c-0.285,0-0.516-0.231-0.516-0.516v-56.113c0-4.142-3.358-7.5-7.5-7.5s-7.5,3.358-7.5,7.5v56.113
	c0,8.556,6.96,15.516,15.516,15.516h56.113c4.142,0,7.5-3.358,7.5-7.5S75.771,424.855,71.629,424.855z"/>
<path d="M504.5,360.726c-4.142,0-7.5,3.358-7.5,7.5v56.113c0,0.285-0.231,0.516-0.516,0.516h-56.113c-4.142,0-7.5,3.358-7.5,7.5
	s3.358,7.5,7.5,7.5h56.113c8.556,0,15.516-6.96,15.516-15.516v-56.113C512,364.084,508.642,360.726,504.5,360.726z"/>
<path d="M312.113,87.145h96.194c4.142,0,7.5-3.358,7.5-7.5s-3.358-7.5-7.5-7.5h-96.194c-4.142,0-7.5,3.358-7.5,7.5
	S307.971,87.145,312.113,87.145z"/>
<path d="M264.016,87.145h16.032c4.142,0,7.5-3.358,7.5-7.5s-3.358-7.5-7.5-7.5h-16.032c-4.142,0-7.5,3.358-7.5,7.5
	S259.874,87.145,264.016,87.145z"/>
<path d="M408.307,104.21h-64.129c-4.142,0-7.5,3.358-7.5,7.5s3.358,7.5,7.5,7.5h64.129c4.142,0,7.5-3.358,7.5-7.5
	S412.449,104.21,408.307,104.21z"/>
<path d="M215.919,424.855H103.693c-4.142,0-7.5,3.358-7.5,7.5s3.358,7.5,7.5,7.5h112.226c4.142,0,7.5-3.358,7.5-7.5
	S220.062,424.855,215.919,424.855z"/>
<path d="M103.693,407.79h32.065c4.142,0,7.5-3.358,7.5-7.5s-3.358-7.5-7.5-7.5h-32.065c-4.142,0-7.5,3.358-7.5,7.5
	S99.551,407.79,103.693,407.79z"/>
<path d="M183.855,407.79c4.142,0,7.5-3.358,7.5-7.5s-3.358-7.5-7.5-7.5h-16.032c-4.142,0-7.5,3.358-7.5,7.5s3.358,7.5,7.5,7.5
	H183.855z"/>
<path d="M32.064,111.71v32.064c0,4.142,3.358,7.5,7.5,7.5s7.5-3.358,7.5-7.5V111.71c0-4.142-3.358-7.5-7.5-7.5
	S32.064,107.568,32.064,111.71z"/>
<path d="M71.629,104.21c-4.142,0-7.5,3.358-7.5,7.5v16.032c0,4.142,3.358,7.5,7.5,7.5s7.5-3.358,7.5-7.5V111.71
	C79.129,107.568,75.771,104.21,71.629,104.21z"/>
<path d="M432.871,384.258c0,12.976,10.557,23.532,23.532,23.532s23.532-10.557,23.532-23.532s-10.557-23.532-23.532-23.532
	S432.871,371.282,432.871,384.258z M456.403,375.726c4.705,0,8.532,3.828,8.532,8.532s-3.828,8.532-8.532,8.532
	s-8.532-3.828-8.532-8.532S451.699,375.726,456.403,375.726z"/>
<path d="M384.258,248.5h-48.977c-3.794-40.411-37.895-72.145-79.281-72.145s-75.488,31.734-79.281,72.145h-48.977
	c-4.142,0-7.5,3.358-7.5,7.5s3.358,7.5,7.5,7.5h89.416c3.516,18.24,19.591,32.064,38.842,32.064s35.327-13.824,38.842-32.064h25.354
	c-3.73,32.123-31.089,57.145-64.196,57.145c-24.723,0-46.92-13.763-57.93-35.919c-1.843-3.709-6.344-5.222-10.054-3.379
	c-3.709,1.843-5.222,6.345-3.378,10.054c13.562,27.291,40.906,44.244,71.363,44.244c41.386,0,75.488-31.734,79.281-72.145h48.977
	c4.142,0,7.5-3.358,7.5-7.5S388.4,248.5,384.258,248.5z M256,191.355c33.107,0,60.466,25.022,64.196,57.145h-87.585
	c3.178-9.887,12.46-17.064,23.389-17.064c2.097,0,4.177,0.263,6.181,0.782c4.009,1.039,8.102-1.37,9.141-5.38
	c1.038-4.01-1.371-8.102-5.38-9.141c-3.232-0.837-6.577-1.261-9.942-1.261c-19.251,0-35.327,13.824-38.842,32.064h-25.354
	C195.534,216.377,222.893,191.355,256,191.355z M256,280.564c-10.93,0-20.211-7.177-23.389-17.064h46.779
	C276.211,273.387,266.93,280.564,256,280.564z"/>
<g>
</g>
<g>
</g>
<g>
</g>
<g>
</g>
<g>
</g>
<g>
</g>
<g>
</g>
<g>
</g>
<g>
</g>
<g>
</g>
<g>
</g>
<g>
</g>
<g>
</g>
<g>
</g>
<g>
</g>
</svg>
