<?xml version="1.0" encoding="iso-8859-1"?>
<!-- Generator: Adobe Illustrator 19.0.0, SVG Export Plug-In . SVG Version: 6.00 Build 0)  -->
<svg version="1.1" id="Capa_1" xmlns="http://www.w3.org/2000/svg" xmlns:xlink="http://www.w3.org/1999/xlink" x="0px" y="0px"
	 viewBox="0 0 512.001 512.001" style="enable-background:new 0 0 512.001 512.001;" xml:space="preserve">
<path style="fill:#EDEBED;" d="M432.355,159.806c-0.158,0-0.309,0.023-0.466,0.023c-3.981-36.079-34.539-64.153-71.679-64.153
	c-5.562,0-10.954,0.689-16.156,1.881c-21.901-39.355-63.869-66.01-112.103-66.01c-66.022,0-120.344,49.902-127.427,114.037
	c-5.441-1.166-11.075-1.811-16.864-1.811c-44.272,0-80.161,35.889-80.161,80.161s35.89,80.161,80.161,80.161h344.694
	c39.845,0,72.145-32.301,72.145-72.145C504.5,192.107,472.2,159.806,432.355,159.806z"/>
<path style="fill:#DBD9DC;" d="M167.823,272.032c-44.272,0-80.161-35.89-80.161-80.161c0-17.394,5.599-33.448,15.011-46.585
	c-4.872-0.931-9.868-1.511-15.011-1.511c-44.272,0-80.161,35.889-80.161,80.161s35.89,80.161,80.161,80.161h344.694
	c25.01,0,47.037-12.735,59.98-32.065H167.823z"/>
<circle style="fill:#99E9DF;" cx="199.89" cy="416.32" r="16.03"/>
<circle style="fill:#4BD7C8;" cx="119.73" cy="352.19" r="16.03"/>
<circle style="fill:#99E9DF;" cx="296.08" cy="416.32" r="16.03"/>
<g>
	<circle style="fill:#4BD7C8;" cx="376.24" cy="352.19" r="16.03"/>
	<circle style="fill:#4BD7C8;" cx="247.98" cy="464.42" r="16.03"/>
</g>
<path style="fill:#B7B2B8;" d="M296.081,256h-96.194c-8.854,0-16.032-7.178-16.032-16.032v-96.194
	c0-8.854,7.178-16.032,16.032-16.032h96.194c8.854,0,16.032,7.178,16.032,16.032v96.194C312.113,248.822,304.935,256,296.081,256z"
	/>
<rect x="215.92" y="159.81" style="fill:#99E9DF;" width="64.13" height="64.13"/>
<path d="M438.362,152.531c-7.182-37.116-39.698-64.353-78.152-64.353c-4.06,0-8.198,0.337-12.359,1.005
	c-24.604-40.314-68.516-65.134-115.898-65.134c-66.639,0-122.819,47.987-133.787,112.871c-3.51-0.429-7.022-0.645-10.504-0.645
	C39.325,136.274,0,175.599,0,223.936c0,48.336,39.325,87.661,87.661,87.661h64.129c4.142,0,7.5-3.358,7.5-7.5s-3.358-7.5-7.5-7.5
	H87.661C47.596,296.597,15,264.001,15,223.936c0-40.066,32.596-72.661,72.661-72.661c5.056,0,10.201,0.553,15.292,1.644
	c2.073,0.444,4.239-0.01,5.958-1.251c1.72-1.24,2.835-3.151,3.067-5.26c6.759-61.205,58.336-107.36,119.972-107.36
	c43.769,0,84.213,23.817,105.549,62.157c1.622,2.916,4.979,4.408,8.229,3.664c4.898-1.123,9.77-1.692,14.48-1.692
	c32.998,0,60.608,24.709,64.225,57.475c0.419,3.803,3.633,6.677,7.454,6.677c0.016,0,0.032,0,0.047,0
	c0.198-0.001,0.395-0.009,0.603-0.023c35.564,0.1,64.463,29.061,64.463,64.646c0,35.645-29,64.645-64.645,64.645H303.581v-34.329
	c9.308-3.139,16.032-11.946,16.032-22.3v-96.194c0-12.976-10.557-23.532-23.532-23.532h-96.193
	c-12.976,0-23.532,10.556-23.532,23.532v96.194c0,10.354,6.724,19.16,16.032,22.3v34.329h-8.531c-4.142,0-7.5,3.358-7.5,7.5
	s3.358,7.5,7.5,7.5h8.531v33.097h-50.362c-3.139-9.308-11.946-16.032-22.3-16.032c-12.976,0-23.532,10.557-23.532,23.532
	s10.557,23.532,23.532,23.532c10.354,0,19.161-6.724,22.3-16.032h50.362v34.329c-9.308,3.139-16.032,11.946-16.032,22.3
	c0,12.976,10.557,23.532,23.532,23.532s23.532-10.557,23.532-23.532c0-10.354-6.724-19.161-16.032-22.3v-82.426h33.097V442.12
	c-9.308,3.139-16.032,11.946-16.032,22.3c0,12.976,10.557,23.532,23.532,23.532s23.532-10.557,23.532-23.532
	c0-10.354-6.724-19.16-16.032-22.3V311.597h33.097v82.426c-9.308,3.139-16.032,11.946-16.032,22.3
	c0,12.976,10.557,23.532,23.532,23.532s23.532-10.557,23.532-23.532c0-10.354-6.724-19.161-16.032-22.3v-34.329h50.362
	c3.139,9.308,11.946,16.032,22.3,16.032c12.976,0,23.533-10.557,23.533-23.532s-10.557-23.532-23.533-23.532
	c-10.354,0-19.16,6.724-22.3,16.032h-50.362v-33.097h128.774c43.917,0,79.645-35.729,79.645-79.645
	C512,190.056,479.482,155.612,438.362,152.531z M119.726,360.726c-4.705,0-8.532-3.828-8.532-8.532s3.828-8.532,8.532-8.532
	c4.705,0,8.533,3.828,8.533,8.532S124.431,360.726,119.726,360.726z M199.887,424.855c-4.705,0-8.532-3.828-8.532-8.532
	c0-4.705,3.828-8.532,8.532-8.532s8.532,3.828,8.532,8.532C208.419,421.027,204.592,424.855,199.887,424.855z M247.984,472.952
	c-4.705,0-8.532-3.828-8.532-8.532s3.828-8.532,8.532-8.532s8.532,3.828,8.532,8.532S252.688,472.952,247.984,472.952z
	 M376.242,343.661c4.705,0,8.533,3.828,8.533,8.532s-3.828,8.532-8.533,8.532s-8.532-3.828-8.532-8.532
	S371.537,343.661,376.242,343.661z M296.081,424.855c-4.705,0-8.532-3.828-8.532-8.532c0-4.705,3.828-8.532,8.532-8.532
	s8.532,3.828,8.532,8.532S300.785,424.855,296.081,424.855z M191.355,143.774c0-4.705,3.828-8.532,8.532-8.532h96.193
	c4.705,0,8.532,3.828,8.532,8.532v96.194c0,4.705-3.828,8.532-8.532,8.532h-40.597v-17.064h24.564c4.142,0,7.5-3.358,7.5-7.5
	v-32.065c0-4.142-3.358-7.5-7.5-7.5s-7.5,3.358-7.5,7.5v24.565h-49.129v-49.129h56.629c4.142,0,7.5-3.358,7.5-7.5
	s-3.358-7.5-7.5-7.5h-64.129c-4.142,0-7.5,3.358-7.5,7.5v64.129c0,4.142,3.358,7.5,7.5,7.5h24.564V248.5h-40.597
	c-4.705,0-8.532-3.828-8.532-8.532v-96.194H191.355z M207.387,296.597V263.5h33.097v33.097H207.387z M255.484,296.597V263.5h33.097
	v33.097H255.484z"/>
<g>
</g>
<g>
</g>
<g>
</g>
<g>
</g>
<g>
</g>
<g>
</g>
<g>
</g>
<g>
</g>
<g>
</g>
<g>
</g>
<g>
</g>
<g>
</g>
<g>
</g>
<g>
</g>
<g>
</g>
</svg>
