<?xml version="1.0" encoding="iso-8859-1"?>
<!-- Generator: Adobe Illustrator 19.0.0, SVG Export Plug-In . SVG Version: 6.00 Build 0)  -->
<svg version="1.1" id="Capa_1" xmlns="http://www.w3.org/2000/svg" xmlns:xlink="http://www.w3.org/1999/xlink" x="0px" y="0px"
	 viewBox="0 0 512 512" style="enable-background:new 0 0 512 512;" xml:space="preserve">
<path style="fill:#EDEBED;" d="M490.578,261.56c8.49,3.942,13.922,12.452,13.922,21.812v64.813l-224.452-32.065V163.814
	L490.578,261.56z"/>
<path style="fill:#C9C6CA;" d="M434.588,364.211h-4.476c-3.45,0-6.514-2.208-7.605-5.481l-4.955-14.868
	c-0.817-2.452-1.234-5.02-1.234-7.604V284.05c0-8.854,7.178-16.032,16.032-16.032l0,0c8.854,0,16.032,7.178,16.032,16.032v52.208
	c0,2.585-0.417,5.152-1.234,7.604l-4.955,14.868C441.102,362.003,438.039,364.211,434.588,364.211z"/>
<path style="fill:#9C969E;" d="M416.318,324.13v12.127c0,2.584,0.417,5.152,1.234,7.604l4.955,14.867
	c1.091,3.274,4.154,5.482,7.605,5.482h4.477c3.45,0,6.514-2.208,7.605-5.482l4.955-14.867c0.817-2.452,1.234-5.02,1.234-7.604
	V324.13H416.318z"/>
<path style="fill:#EDEBED;" d="M21.422,261.56C12.931,265.503,7.5,274.011,7.5,283.372v64.813l224.452-32.065V163.814L21.422,261.56
	z"/>
<path style="fill:#867E88;" d="M304.097,210.535c0-4.252-1.689-8.33-4.696-11.337l-11.336-11.336l-5.439-27.193
	c-1.499-7.494-8.078-12.888-15.721-12.888h-21.81c-7.642,0-14.222,5.394-15.721,12.888l-5.439,27.193l-11.336,11.336
	c-3.007,3.007-4.696,7.085-4.696,11.337V316.12h8.016v32.065c0,8.854,7.178,16.032,16.032,16.032h48.097
	c8.854,0,16.032-7.178,16.032-16.032V316.12h8.016V210.535H304.097z"/>
<path style="fill:#C9C6CA;" d="M81.883,364.217h-4.476c-3.45,0-6.514-2.208-7.605-5.481l-4.955-14.868
	c-0.817-2.452-1.234-5.02-1.234-7.604v-52.208c0-8.854,7.178-16.032,16.032-16.032l0,0c8.854,0,16.032,7.178,16.032,16.032v52.208
	c0,2.585-0.417,5.152-1.234,7.604l-4.955,14.868C88.397,362.01,85.334,364.217,81.883,364.217z"/>
<g>
	<path style="fill:#6F6571;" d="M296.081,332.153H215.92c-4.427,0-8.016-3.589-8.016-8.016v-24.048h96.194v24.048
		C304.097,328.563,300.508,332.153,296.081,332.153z"/>
	<path style="fill:#6F6571;" d="M312.113,300.089h-16.032c-4.427,0-8.016-3.589-8.016-8.016v-64.129
		c0-4.427,3.589-8.016,8.016-8.016h16.032c4.427,0,8.016,3.589,8.016,8.016v64.129C320.129,296.5,316.54,300.089,312.113,300.089z"
		/>
	<path style="fill:#6F6571;" d="M215.919,300.089h-16.032c-4.427,0-8.016-3.589-8.016-8.016v-64.129
		c0-4.427,3.589-8.016,8.016-8.016h16.032c4.427,0,8.016,3.589,8.016,8.016v64.129C223.935,296.5,220.347,300.089,215.919,300.089z"
		/>
</g>
<path style="fill:#9C969E;" d="M63.613,324.136v12.127c0,2.584,0.417,5.152,1.234,7.604l4.955,14.867
	c1.091,3.274,4.154,5.482,7.605,5.482h4.477c3.45,0,6.514-2.208,7.605-5.482l4.955-14.867c0.817-2.452,1.234-5.02,1.234-7.604
	v-12.127H63.613z"/>
<path d="M494.015,254.725l-204.49-97.372c-2.858-9.995-12.081-17.07-22.62-17.07h-21.811c-10.539,0-19.762,7.075-22.62,17.07
	L17.985,254.725C7.06,259.927,0,271.107,0,283.208v81.009c0,4.142,3.358,7.5,7.5,7.5s7.5-3.358,7.5-7.5v-9.598l43.304-6.662
	l4.383,13.149c2.115,6.347,8.03,10.61,14.72,10.61h4.477c6.689,0,12.604-4.264,14.72-10.61l4.955-14.867
	c0.559-1.677,0.967-3.391,1.237-5.127l17.446-2.684v1.741c0,4.142,3.358,7.5,7.5,7.5c4.142,0,7.5-3.358,7.5-7.5v-4.048
	l65.296-10.045c0.629,5.01,3.645,9.285,7.882,11.635v10.475c0,12.976,10.557,23.532,23.532,23.532h48.097
	c12.976,0,23.532-10.557,23.532-23.532v-10.475c4.236-2.35,7.253-6.625,7.882-11.635l65.296,10.045v4.048c0,4.142,3.358,7.5,7.5,7.5
	s7.5-3.358,7.5-7.5v-1.741l17.446,2.684c0.27,1.736,0.678,3.451,1.237,5.127l4.955,14.868c2.116,6.346,8.031,10.609,14.72,10.609
	h4.477c6.689,0,12.605-4.264,14.72-10.61l4.383-13.15L497,354.62v9.598c0,4.142,3.358,7.5,7.5,7.5s7.5-3.358,7.5-7.5v-81.009
	C512,271.107,504.94,259.927,494.015,254.725z M88.177,336.265c0,1.782-0.286,3.542-0.849,5.232l-4.955,14.867
	c-0.07,0.211-0.267,0.354-0.49,0.354h-4.477c-0.222,0-0.419-0.142-0.489-0.353l-4.956-14.868c-0.563-1.69-0.849-3.45-0.849-5.232
	v-4.627h17.064L88.177,336.265L88.177,336.265z M88.177,316.636H71.113v-32.581c0-4.705,3.828-8.532,8.532-8.532
	s8.532,3.827,8.532,8.532C88.177,284.055,88.177,316.636,88.177,316.636z M120.242,323.252l-17.064,2.625v-41.821
	c0-12.976-10.557-23.532-23.532-23.532s-23.532,10.556-23.532,23.532v49.062L15,339.443v-56.235c0-6.347,3.703-12.212,9.434-14.941
	l95.808-45.621V323.252z M200.403,310.919l-65.162,10.024v-105.44l83.466-39.744l-1.681,8.405l-9.73,9.731
	c-4.445,4.444-6.893,10.354-6.893,16.64v1.892h-0.516c-8.556,0-15.516,6.96-15.516,15.516v64.129c0,8.556,6.96,15.517,15.516,15.517
	h0.516V310.919z M199.887,292.589c-0.285,0-0.516-0.231-0.516-0.517v-64.129c0-0.284,0.231-0.516,0.516-0.516h16.032
	c0.285,0,0.516,0.231,0.516,0.516c0,4.143,3.358,7.5,7.5,7.5s7.5-3.357,7.5-7.5c0-8.556-6.96-15.516-15.516-15.516h-0.516v-1.892
	c0-2.279,0.888-4.422,2.499-6.033l11.336-11.337c1.047-1.047,1.761-2.38,2.051-3.832l5.438-27.193
	c0.794-3.974,4.313-6.859,8.366-6.859h21.811c4.053,0,7.572,2.885,8.366,6.859l5.438,27.192c0.291,1.452,1.004,2.785,2.051,3.832
	l11.336,11.337c1.611,1.611,2.499,3.754,2.499,6.033v1.892h-0.516c-8.556,0-15.516,6.96-15.516,15.516v64.646h-49.129v-32.581
	c0-4.142-3.358-7.5-7.5-7.5s-7.5,3.358-7.5,7.5v32.064c0,0.285-0.231,0.517-0.516,0.517L199.887,292.589L199.887,292.589z
	 M288.581,348.185c0,4.705-3.828,8.532-8.532,8.532h-48.097c-4.705,0-8.532-3.828-8.532-8.532v-8.532h65.161V348.185z
	 M296.597,324.136c0,0.285-0.231,0.516-0.516,0.516H215.92c-0.285,0-0.516-0.231-0.516-0.516v-16.033
	c0-0.284,0.231-0.516,0.516-0.516h80.161c0.285,0,0.516,0.231,0.516,0.516V324.136z M296.081,292.589
	c-0.285,0-0.516-0.231-0.516-0.517v-64.129c0-0.284,0.231-0.516,0.516-0.516h16.032c0.285,0,0.516,0.231,0.516,0.516v64.129
	c0,0.285-0.231,0.517-0.516,0.517H296.081z M440.887,336.265c0,1.782-0.286,3.542-0.849,5.232l-4.956,14.868
	c-0.07,0.211-0.267,0.353-0.489,0.353h-4.477c-0.223,0-0.419-0.142-0.49-0.353l-4.955-14.868c-0.563-1.69-0.849-3.45-0.849-5.232
	v-4.627h17.064L440.887,336.265L440.887,336.265z M440.887,316.636h-17.064v-32.581c0-4.705,3.828-8.532,8.532-8.532
	s8.532,3.827,8.532,8.532L440.887,316.636L440.887,316.636z M497,339.443l-41.113-6.325v-49.062
	c0-12.976-10.557-23.532-23.532-23.532s-23.532,10.556-23.532,23.532v41.821l-17.064-2.625v-55.229c0-4.142-3.358-7.5-7.5-7.5
	s-7.5,3.358-7.5,7.5v52.921l-65.162-10.024v-3.331h0.516c8.556,0,15.516-6.961,15.516-15.517v-64.129
	c0-8.556-6.96-15.516-15.516-15.516h-0.516v-1.892c0-6.286-2.448-12.196-6.893-16.64l-9.73-9.731l-1.681-8.405l83.466,39.744v20.457
	c0,4.142,3.358,7.5,7.5,7.5s7.5-3.358,7.5-7.5v-13.314l95.808,45.621c5.73,2.729,9.434,8.594,9.434,14.941L497,339.443L497,339.443z
	"/>
<path d="M247.984,195.363h16.032c4.142,0,7.5-3.358,7.5-7.5s-3.358-7.5-7.5-7.5h-16.032c-4.142,0-7.5,3.358-7.5,7.5
	S243.842,195.363,247.984,195.363z"/>
<g>
</g>
<g>
</g>
<g>
</g>
<g>
</g>
<g>
</g>
<g>
</g>
<g>
</g>
<g>
</g>
<g>
</g>
<g>
</g>
<g>
</g>
<g>
</g>
<g>
</g>
<g>
</g>
<g>
</g>
</svg>
