<?xml version="1.0" encoding="iso-8859-1"?>
<!-- Generator: Adobe Illustrator 19.0.0, SVG Export Plug-In . SVG Version: 6.00 Build 0)  -->
<svg version="1.1" id="Capa_1" xmlns="http://www.w3.org/2000/svg" xmlns:xlink="http://www.w3.org/1999/xlink" x="0px" y="0px"
	 viewBox="0 0 512 512" style="enable-background:new 0 0 512 512;" xml:space="preserve">
<rect x="408.31" y="296.08" style="fill:#9C969E;" width="32.06" height="208.42"/>
<rect x="408.31" y="472.44" style="fill:#AEA8AF;" width="32.06" height="32.06"/>
<polygon style="fill:#867E88;" points="440.371,330.817 408.306,344.177 408.306,296.081 440.371,296.081 "/>
<rect x="71.63" y="296.08" style="fill:#9C969E;" width="32.06" height="208.42"/>
<rect x="71.63" y="472.44" style="fill:#AEA8AF;" width="32.06" height="32.06"/>
<polygon style="fill:#867E88;" points="71.629,330.817 103.694,344.177 103.694,296.081 71.629,296.081 "/>
<rect x="159.81" y="472.44" style="fill:#C9C6CA;" width="192.39" height="32.06"/>
<path style="fill:#DBD9DC;" d="M352.194,472.435H159.806c-13.282,0-24.048-10.767-24.048-24.048V320.129h240.484v128.258
	C376.242,461.669,365.475,472.435,352.194,472.435z"/>
<path style="fill:#C9C6CA;" d="M376.242,320.129H135.758v40.081l40.402,16.834c-0.214,2.389-0.321,4.794-0.321,7.215
	c0,44.201,35.96,80.161,80.161,80.161s80.161-35.96,80.161-80.161c0-2.42-0.107-4.826-0.321-7.215l40.402-16.834V320.129z"/>
<rect x="239.97" y="199.89" style="fill:#867E88;" width="32.06" height="72.14"/>
<rect x="239.97" y="219.93" style="fill:#9C969E;" width="32.06" height="52.1"/>
<path style="fill:#EDEBED;" d="M438.521,308.208L256,384.259L73.479,308.208c-5.974-2.489-9.866-8.327-9.866-14.799v-5.344
	c0-8.854,7.178-16.032,16.032-16.032h352.71c8.854,0,16.032,7.178,16.032,16.032v5.344
	C448.387,299.881,444.495,305.718,438.521,308.208z"/>
<circle style="fill:#DBD9DC;" cx="256" cy="384.26" r="56.11"/>
<path style="fill:#9C969E;" d="M440.371,127.742H71.629c-8.854,0-16.032-7.178-16.032-16.032V95.677
	c0-8.854,7.178-16.032,16.032-16.032h368.742c8.854,0,16.032,7.178,16.032,16.032v16.032
	C456.403,120.564,449.225,127.742,440.371,127.742z"/>
<path style="fill:#EDEBED;" d="M328.145,199.887h-144.29c-53.126,0-96.193-43.067-96.193-96.193l0,0
	c0-53.126,43.067-96.193,96.193-96.193h144.291c53.126,0,96.193,43.067,96.193,96.193l0,0
	C424.339,156.82,381.271,199.887,328.145,199.887z"/>
<path style="fill:#99E7FF;" d="M328.145,167.823c36.83,0,66.409-31.048,63.99-68.398c-2.207-34.085-32.031-59.86-66.188-59.86
	h-18.53c-2.126,0-4.165,0.845-5.668,2.348l-8.989,8.989c-3.007,3.007-7.085,4.696-11.337,4.696h-50.848
	c-4.252,0-8.33-1.689-11.337-4.696l-8.989-8.989c-1.503-1.503-3.542-2.348-5.668-2.348h-18.53c-34.156,0-63.981,25.775-66.188,59.86
	c-2.419,37.35,27.16,68.398,63.99,68.398H328.145z"/>
<g>
	<path style="fill:#CCF3FF;" d="M175.839,135.758L175.839,135.758c-13.282,0-24.048-10.767-24.048-24.048V95.677
		c0-13.282,10.767-24.048,24.048-24.048l0,0c13.282,0,24.048,10.767,24.048,24.048v16.032
		C199.887,124.991,189.12,135.758,175.839,135.758z"/>
	<path style="fill:#CCF3FF;" d="M336.161,135.758L336.161,135.758c-13.282,0-24.048-10.767-24.048-24.048V95.677
		c0-13.282,10.767-24.048,24.048-24.048l0,0c13.282,0,24.048,10.767,24.048,24.048v16.032
		C360.21,124.991,349.443,135.758,336.161,135.758z"/>
</g>
<circle style="fill:#99E9DF;" cx="256" cy="384.26" r="24.05"/>
<path d="M399.621,98.955c-0.718-11.123-4.012-21.626-9.79-31.218c-2.138-3.548-6.747-4.692-10.295-2.554s-4.691,6.747-2.554,10.294
	c4.528,7.515,7.108,15.739,7.67,24.443c1.024,15.866-4.369,30.957-15.186,42.495c-10.826,11.547-25.501,17.906-41.321,17.906
	H215.922c-4.142,0-7.5,3.358-7.5,7.5c0,4.143,3.358,7.5,7.5,7.5h112.223c19.721,0,38.771-8.254,52.264-22.647
	C394.092,138.081,400.915,119.002,399.621,98.955z"/>
<path d="M230.576,63.097h50.848c6.285,0,12.195-2.447,16.64-6.893l6.641-6.641c1.236-1.235,3.175-2.499,8.184-2.499h13.046
	c10.701,0,21.247,2.861,30.498,8.273c3.576,2.093,8.169,0.889,10.261-2.686c2.092-3.575,0.89-8.169-2.686-10.261
	c-11.547-6.756-24.712-10.327-38.073-10.327h-13.046c-8.006,0-14.152,2.254-18.791,6.893l-6.641,6.641
	c-1.611,1.611-3.754,2.499-6.033,2.499h-50.848c-2.279,0-4.422-0.888-6.033-2.499l-8.989-8.989
	c-2.931-2.93-6.827-4.544-10.971-4.544h-18.531c-38.883,0-71.244,29.375-73.672,66.876c-1.298,20.05,5.522,39.131,19.205,53.729
	c13.494,14.396,32.545,22.652,52.27,22.652c4.142,0,7.5-3.357,7.5-7.5c0-4.142-3.358-7.5-7.5-7.5c-15.823,0-30.5-6.36-41.326-17.911
	c-10.817-11.541-16.208-26.634-15.18-42.502c1.918-29.633,27.704-52.845,58.703-52.845h18.531c0.138,0,0.267,0.054,0.365,0.151
	l8.989,8.989C218.381,60.649,224.291,63.097,230.576,63.097z"/>
<path d="M168.339,95.678v16.032c0,4.142,3.358,7.5,7.5,7.5s7.5-3.358,7.5-7.5V95.678c0-4.143-3.358-7.5-7.5-7.5
	S168.339,91.535,168.339,95.678z"/>
<path d="M328.661,95.678v16.032c0,4.142,3.358,7.5,7.5,7.5s7.5-3.358,7.5-7.5V95.678c0-4.143-3.358-7.5-7.5-7.5
	S328.661,91.535,328.661,95.678z"/>
<path d="M440.371,72.146h-13.445C413.546,30.348,374.325,0,328.145,0h-144.29c-46.18,0-85.401,30.348-98.781,72.146H71.629
	c-12.976,0-23.532,10.556-23.532,23.532v16.032c0,12.976,10.557,23.532,23.532,23.532h13.445
	c13.38,41.797,52.601,72.145,98.781,72.145h48.612v57.145H79.645c-12.976,0-23.532,10.557-23.532,23.532v5.345
	c0,6.919,3.007,13.299,8.016,17.684V504.5c0,4.142,3.358,7.5,7.5,7.5s7.5-3.358,7.5-7.5v-24.564h17.064V504.5
	c0,4.142,3.358,7.5,7.5,7.5s7.5-3.358,7.5-7.5V332.047l17.065,7.11v109.229c0,14.812,10.262,27.265,24.048,30.64V504.5
	c0,4.142,3.358,7.5,7.5,7.5s7.5-3.358,7.5-7.5v-24.564h177.387V504.5c0,4.142,3.358,7.5,7.5,7.5s7.5-3.358,7.5-7.5v-25.473
	c13.786-3.375,24.049-15.829,24.049-30.64V339.158l17.06-7.108V504.5c0,4.143,3.358,7.5,7.5,7.5s7.5-3.357,7.5-7.5v-24.563h17.064
	V504.5c0,4.143,3.358,7.5,7.5,7.5s7.5-3.357,7.5-7.5v-31.977c0-0.029,0.004-0.058,0.004-0.087s-0.004-0.058-0.004-0.087V311.097
	c5.011-4.385,8.021-10.767,8.021-17.688v-5.345c0-12.976-10.557-23.532-23.532-23.532H279.532v-57.145h48.613
	c46.18,0,85.401-30.348,98.781-72.145h13.445c12.976,0,23.532-10.557,23.532-23.532V95.678
	C463.903,82.702,453.347,72.146,440.371,72.146z M71.629,120.242c-4.705,0-8.532-3.828-8.532-8.532V95.678
	c0-4.705,3.828-8.532,8.532-8.532h9.858c-0.868,5.39-1.326,10.917-1.326,16.548c0,5.632,0.458,11.158,1.326,16.549L71.629,120.242
	L71.629,120.242z M96.193,464.936H79.129V318.688l17.064,7.11C96.193,325.798,96.193,464.936,96.193,464.936z M415.802,464.936
	V325.799l17.064-7.11v146.246L415.802,464.936L415.802,464.936z M440.887,288.064v5.345c0,3.455-2.061,6.547-5.251,7.876
	l-124.3,51.792c-2.193-2.92-6.245-3.883-9.555-2.091c-3.643,1.971-4.999,6.521-3.028,10.165c10.15,18.762,6.705,42.4-8.378,57.483
	c-15.083,15.083-38.722,18.529-57.483,8.378c-3.643-1.971-8.194-0.615-10.166,3.028c-1.971,3.643-0.615,8.194,3.028,10.166
	c9.426,5.1,19.792,7.577,30.105,7.577c16.55,0,32.961-6.381,45.122-18.542c16.409-16.409,22.281-40.552,16.169-62.336l51.591-21.496
	v102.979c0,9.125-7.423,16.548-16.548,16.548H159.807c-9.125,0-16.548-7.424-16.548-16.548v-102.98l51.639,21.516
	c-4.388,15.608-2.864,32.756,5.156,47.58c1.357,2.509,3.938,3.933,6.604,3.933c1.205,0,2.428-0.291,3.562-0.905
	c3.643-1.971,4.999-6.522,3.028-10.166c-10.15-18.761-6.705-42.399,8.378-57.482c15.084-15.083,38.721-18.529,57.483-8.379
	c3.645,1.972,8.194,0.615,10.166-3.027c1.971-3.644,0.615-8.194-3.028-10.166c-24.554-13.283-55.488-8.774-75.227,10.965
	c-4.151,4.151-7.62,8.802-10.4,13.78L76.364,301.285c-3.19-1.329-5.251-4.421-5.251-7.876v-5.345c0-4.705,3.828-8.532,8.532-8.532
	h352.71C437.06,279.532,440.887,283.36,440.887,288.064z M264.532,264.532h-17.064v-57.145h17.064V264.532z M328.145,192.387
	h-144.29c-48.906,0-88.694-39.788-88.694-88.694C95.161,54.788,134.949,15,183.855,15h144.29c48.906,0,88.694,39.788,88.694,88.693
	C416.839,152.6,377.051,192.387,328.145,192.387z M448.903,111.71c0,4.704-3.828,8.532-8.532,8.532h-9.858
	c0.868-5.391,1.326-10.917,1.326-16.549s-0.458-11.158-1.326-16.548h9.858c4.705,0,8.532,3.827,8.532,8.532V111.71z"/>
<path d="M256,352.71c-17.396,0-31.549,14.152-31.549,31.549s14.153,31.549,31.549,31.549s31.549-14.152,31.549-31.549
	S273.396,352.71,256,352.71z M256,400.808c-9.125,0-16.549-7.424-16.549-16.549S246.875,367.71,256,367.71
	s16.549,7.424,16.549,16.549S265.125,400.808,256,400.808z"/>
<g>
</g>
<g>
</g>
<g>
</g>
<g>
</g>
<g>
</g>
<g>
</g>
<g>
</g>
<g>
</g>
<g>
</g>
<g>
</g>
<g>
</g>
<g>
</g>
<g>
</g>
<g>
</g>
<g>
</g>
</svg>
