<svg id="Layer_1" enable-background="new 0 0 512.002 512.002" height="512" viewBox="0 0 512.002 512.002" width="512" xmlns="http://www.w3.org/2000/svg"><g><g clip-rule="evenodd" fill-rule="evenodd"><path d="m76.001 256.001c0-99.411 80.589-180 180-180v-40c-121.503 0-220 98.497-220 220z" fill="#b278d3"/><path d="m76.001 256.001c0 99.411 80.589 180 180 180s180-80.589 180-180-80.589-180-180-180-180 80.589-180 180zm180 55.735c-66.274 0-120-14.767-120-32.982 0-12.448 25.497-23.835 65.926-29.444 2.942-27.262 26.029-48.487 54.074-48.487 28.044 0 51.131 21.224 54.074 48.487 40.429 5.609 65.926 16.997 65.926 29.444 0 18.215-53.726 32.982-120 32.982z" fill="#6d91ac"/><g fill="#b278d3"><path d="m256.001 436.001c-99.411 0-180-80.589-180-180h-40c0 121.503 98.497 220 220 220z"/><path d="m436.001 256.001c0 99.411-80.589 180-180 180v40c121.503 0 220-98.497 220-220z"/><path d="m256.001 76.001c99.411 0 180 80.589 180 180h40c0-121.503-98.497-220-220-220z"/></g><path d="m310.075 249.309c-2.943-27.262-26.029-48.487-54.074-48.487-28.044 0-51.131 21.225-54.074 48.487-.209 1.939-.317 3.909-.317 5.904 0 8.256 24.351 14.949 54.39 14.949s54.391-6.693 54.391-14.949c0-1.995-.107-3.965-.316-5.904z" fill="#66e0f7"/><path d="m310.391 255.213c0 8.256-24.351 14.949-54.391 14.949-30.039 0-54.39-6.693-54.39-14.949 0-1.995.107-3.964.317-5.904-40.429 5.609-65.926 16.997-65.926 29.444 0 18.216 53.726 32.982 120 32.982s120-14.767 120-32.982c0-12.448-25.497-23.835-65.926-29.444.209 1.939.316 3.909.316 5.904z" fill="#a7bdcd"/></g><g><path d="m502.002 246.001h-16.232c-5.113-118.882-100.887-214.656-219.769-219.769v-16.232c0-5.523-4.478-10-10-10s-10 4.477-10 10v16.231c-118.883 5.113-214.656 100.888-219.769 219.77h-16.232c-5.523 0-10 4.477-10 10s4.477 10 10 10h16.232c5.113 118.883 100.886 214.657 219.769 219.77v16.231c0 5.523 4.477 10 10 10s10-4.477 10-10v-16.232c118.882-5.113 214.656-100.887 219.769-219.769h16.232c5.522 0 10-4.477 10-10s-4.477-10-10-10zm-36.245 0h-20.019c-5.045-96.824-82.913-174.692-179.736-179.737v-20.019c107.853 5.082 194.673 91.902 199.755 199.756zm-219.756-199.756v20.019c-96.824 5.045-174.692 82.913-179.737 179.737h-20.019c5.082-107.854 91.903-194.674 199.756-199.756zm-199.756 219.756h20.045c1.611 30.646 10.579 60.483 26.228 86.846 2.82 4.75 8.956 6.314 13.704 3.495 4.749-2.819 6.314-8.955 3.495-13.704-13.817-23.276-21.815-49.586-23.404-76.637h9.689c5.523 0 10-4.477 10-10s-4.477-10-10-10h-9.698c5.002-85.791 73.907-154.696 159.698-159.698v9.699c0 5.523 4.477 10 10 10s10-4.477 10-10v-9.699c85.79 5.002 154.695 73.908 159.697 159.698h-9.699c-5.522 0-10 4.477-10 10s4.478 10 10 10h9.698c-5.002 85.79-73.907 154.696-159.697 159.698v-19.699c0-5.523-4.478-10-10-10s-10 4.477-10 10v19.69c-27.053-1.589-53.36-9.585-76.63-23.4-4.75-2.818-10.885-1.255-13.704 3.494s-1.255 10.885 3.494 13.704c26.357 15.647 56.191 24.613 86.84 26.224v20.045c-107.853-5.081-194.674-91.902-199.756-199.756zm219.756 199.757v-20.019c96.823-5.046 174.691-82.913 179.736-179.737h20.019c-5.081 107.853-91.901 194.673-199.755 199.756z"/><path d="m168.498 311.718c1.13.311 2.292.608 3.457.905l-3.26 12.167c-1.43 5.335 1.736 10.818 7.071 12.248.867.232 1.738.343 2.595.343 4.415 0 8.456-2.947 9.653-7.414l3.548-13.241c16.463 2.786 35.015 4.46 54.44 4.89v12.315c0 5.523 4.477 10 10 10s10-4.477 10-10v-12.315c19.425-.43 37.977-2.104 54.44-4.89l3.548 13.241c1.197 4.468 5.237 7.414 9.653 7.414.856 0 1.728-.111 2.595-.343 5.334-1.43 8.5-6.913 7.07-12.248l-3.261-12.167c1.164-.297 2.326-.594 3.456-.905 28.2-7.751 42.497-18.842 42.497-32.965 0-23.291-39.975-33.8-67.327-38.261-6.678-28.432-32.233-49.67-62.673-49.67s-55.995 21.238-62.673 49.67c-27.354 4.462-67.327 14.971-67.327 38.261.001 14.123 14.299 25.214 42.498 32.965zm87.503-100.896c23.706 0 43.131 18.68 44.332 42.093-4.645 2.897-20.172 7.247-44.332 7.247s-39.687-4.35-44.332-7.247c1.2-23.413 20.626-42.093 44.332-42.093zm-63.243 50.053c7.812 18.279 53.419 19.287 63.242 19.287s55.43-1.008 63.242-19.287c35.12 6.199 45.735 15.448 46.722 17.888-.717 1.762-7.355 8.449-30.511 14.4-21.508 5.528-49.725 8.572-79.454 8.572s-57.946-3.044-79.454-8.572c-23.156-5.951-29.794-12.638-30.511-14.4.99-2.44 11.605-11.688 46.724-17.888z"/><path d="m168.638 180.813c5.523 0 10-4.477 10-10s-4.477-10-10-10h-.007c-5.523 0-9.997 4.477-9.997 10s4.481 10 10.004 10z"/><path d="m344.645 177.813c5.522 0 10-4.477 10-10s-4.478-10-10-10h-.007c-5.522 0-9.997 4.477-9.997 10s4.482 10 10.004 10z"/><path d="m301.645 362.813h-.007c-5.522 0-9.997 4.477-9.997 10s4.481 10 10.004 10 10-4.477 10-10-4.478-10-10-10z"/><path d="m121.651 376.21c-3.905 3.905-3.905 10.237 0 14.142l.005.005c1.952 1.952 4.509 2.928 7.067 2.928 2.559 0 5.119-.977 7.072-2.93 3.905-3.905 3.902-10.24-.003-14.145-3.905-3.906-10.236-3.906-14.141 0z"/></g></g></svg>