<svg id="Layer_1" enable-background="new 0 0 512.007 512.007" height="512" viewBox="0 0 512.007 512.007" width="512" xmlns="http://www.w3.org/2000/svg"><g><g clip-rule="evenodd" fill-rule="evenodd"><path d="m256.004 274.515c40.052 0 72.52-8.924 72.52-19.932 0-2.66-.143-5.285-.422-7.871-3.924-36.35-34.706-64.649-72.098-64.649s-68.175 28.3-72.098 64.649c-.279 2.586-.422 5.212-.422 7.871-.001 11.008 32.468 19.932 72.52 19.932z" fill="#66e0f7"/><path d="m328.524 254.582c0 11.008-32.469 19.932-72.52 19.932s-72.52-8.924-72.52-19.932c0-2.66.143-5.285.422-7.871-53.906 7.479-87.902 22.662-87.902 39.259 0 24.288 71.634 43.977 160 43.977s160-19.689 160-43.977c0-16.597-33.996-31.78-87.901-39.259.278 2.586.421 5.212.421 7.871z" fill="#6d91ac"/></g><g><path d="m77.527 91.67c1.953 1.953 4.512 2.929 7.071 2.929s5.118-.976 7.071-2.929c3.905-3.905 3.905-10.237 0-14.143l-74.595-74.595c-3.906-3.905-10.236-3.905-14.143 0-3.905 3.905-3.905 10.237 0 14.143z"/><path d="m67.652 430.213-64.721 64.72c-3.905 3.905-3.905 10.237 0 14.143 1.953 1.953 4.512 2.929 7.071 2.929s5.119-.977 7.071-2.929l64.721-64.72c3.905-3.905 3.905-10.237 0-14.143-3.905-3.904-10.237-3.904-14.142 0z"/><path d="m203.68 451.275c-5.336-1.431-10.817 1.737-12.247 7.071l-11.005 41.071c-1.43 5.335 1.736 10.818 7.071 12.248.867.232 1.737.343 2.594.343 4.415 0 8.456-2.947 9.653-7.414l11.005-41.071c1.43-5.335-1.736-10.819-7.071-12.248z"/><path d="m444.355 430.213c-3.906-3.905-10.236-3.905-14.143 0-3.905 3.905-3.905 10.237 0 14.143l64.721 64.721c1.953 1.953 4.512 2.929 7.071 2.929s5.118-.976 7.071-2.929c3.905-3.905 3.905-10.237 0-14.143z"/><path d="m346.552 332.41c8.969-1.649 17.423-3.553 25.239-5.701 18.508-5.087 32.308-11.188 41.359-18.245l86.267 23.115c.867.232 1.737.343 2.594.343 4.416 0 8.456-2.947 9.653-7.414 1.43-5.335-1.736-10.818-7.071-12.248l-79.155-21.209c.371-1.659.566-3.352.566-5.082 0-25.204-39.655-38.547-73.886-45.367l107.52-28.81c5.335-1.429 8.501-6.913 7.071-12.248-1.43-5.334-6.916-8.503-12.247-7.071l-121.437 32.539c-2.844-7.383-6.713-14.256-11.444-20.444l68.777-68.776c3.905-3.905 3.905-10.237 0-14.143-3.905-3.904-10.237-3.905-14.143 0l-68.607 68.606c-6.145-4.94-13.006-9.017-20.406-12.051l44.376-165.614c1.43-5.335-1.736-10.818-7.071-12.248-5.337-1.431-10.817 1.737-12.247 7.071l-44.35 165.518c-3.89-.565-7.863-.871-11.906-.871-4.044 0-8.017.306-11.906.87l-32.305-120.56c-1.43-5.334-6.914-8.502-12.247-7.071-5.335 1.429-8.501 6.913-7.071 12.248l32.33 120.658c-7.4 3.034-14.261 7.112-20.406 12.052l-68.607-68.607c-3.906-3.905-10.236-3.905-14.143 0-3.905 3.905-3.905 10.237 0 14.143l68.777 68.777c-4.731 6.188-8.6 13.062-11.444 20.445l-166.391-44.586c-5.336-1.429-10.818 1.738-12.247 7.071-1.43 5.335 1.736 10.818 7.071 12.248l152.475 40.855c-34.233 6.821-73.886 20.163-73.886 45.367 0 1.73.195 3.422.566 5.082l-34.2 9.163c-5.335 1.429-8.501 6.913-7.071 12.247 1.197 4.468 5.237 7.415 9.653 7.415.856 0 1.728-.111 2.594-.343l41.312-11.069c9.051 7.057 22.852 13.157 41.359 18.244 7.815 2.148 16.269 4.053 25.239 5.701l-53.681 53.68c-3.905 3.905-3.905 10.237 0 14.143 1.953 1.953 4.512 2.929 7.071 2.929s5.119-.977 7.071-2.929l64.105-64.104c10.687 1.301 21.865 2.281 33.377 2.922l-8.668 32.347c-1.43 5.335 1.736 10.818 7.071 12.248.866.232 1.737.343 2.594.343 4.416 0 8.456-2.947 9.653-7.414l9.847-36.749c4.01.081 8.047.122 12.107.122 4.059 0 8.097-.041 12.107-.122l32.104 119.814c1.197 4.468 5.237 7.414 9.653 7.414.856 0 1.728-.111 2.594-.343 5.335-1.429 8.501-6.913 7.071-12.248l-30.924-115.413c11.511-.641 22.69-1.621 33.377-2.922l64.105 64.105c1.953 1.953 4.512 2.929 7.071 2.929s5.118-.976 7.071-2.929c3.905-3.905 3.905-10.237 0-14.143zm-28.043-79.221c-4.519 4.144-26.43 11.325-62.505 11.325s-57.986-7.182-62.505-11.325c.742-33.834 28.496-61.128 62.505-61.128s61.762 27.295 62.505 61.128zm-172.992 54.234c-32.415-8.909-39.514-18.507-39.514-21.454 0-5.366 17.391-19.113 67.92-27.613 2.073 8.685 11.515 15.39 28.151 19.962 14.536 3.996 33.688 6.196 53.93 6.196s39.394-2.2 53.93-6.196c16.636-4.572 26.077-11.277 28.151-19.963 50.529 8.5 67.92 22.247 67.92 27.613 0 2.946-7.099 12.544-39.514 21.454-29.381 8.076-68.619 12.523-110.486 12.523s-81.107-4.446-110.488-12.522z"/><path d="m427.409 94.599c2.559 0 5.119-.977 7.071-2.929l74.596-74.595c3.905-3.905 3.905-10.237 0-14.143-3.904-3.904-10.236-3.904-14.143 0l-74.596 74.595c-3.905 3.905-3.905 10.237 0 14.143 1.954 1.953 4.512 2.929 7.072 2.929z"/><path d="m212.749 407.46h-.007c-5.522 0-9.996 4.477-9.996 10s4.48 10 10.003 10 10-4.477 10-10-4.478-10-10-10z"/></g></g></svg>