<svg id="Layer_1" enable-background="new 0 0 512.001 512.001" height="512" viewBox="0 0 512.001 512.001" width="512" xmlns="http://www.w3.org/2000/svg"><g><g clip-rule="evenodd" fill-rule="evenodd"><g fill="#fff"><ellipse cx="166" cy="209.833" rx="40" ry="40" transform="matrix(.707 -.707 .707 .707 -99.754 178.838)"/><ellipse cx="256.001" cy="209.833" rx="40" ry="40" transform="matrix(.707 -.707 .707 .707 -73.394 242.479)"/><ellipse cx="346.002" cy="209.833" rx="40" ry="40" transform="matrix(.707 -.707 .707 .707 -47.033 306.119)"/></g><path d="m346.002 249.834c-22.091 0-40-17.909-40-40s17.909-40 40-40c22.092 0 40 17.909 40 40s-17.909 40-40 40zm-50.001-40.001c0 22.092-17.909 40-40 40s-40-17.909-40-40 17.909-40 40-40 40 17.909 40 40zm-127.579 93.556c7.353 14.946 19.493 26.956 42.847 26.956 0 17.611-9.393 27.334-13.405 42.309-2.708 10.109.608 17.261 9.707 19.863.47.134.955.257 1.455.367 14.047 3.084 29.703 5.286 46.976 5.286s32.929-2.201 46.976-5.286c.504-.111.993-.234 1.466-.37 9.091-2.605 12.403-9.755 9.696-19.86-4.012-14.975-13.405-24.699-13.405-42.309 23.354 0 35.494-12.009 42.846-26.954 9.104 1.469 19.974 2.444 34.498 2.444 58.84 0 73.245-42.981 73.245-96.001s-14.405-96.001-73.245-96.001-57.71 15.999-122.077 15.999-63.237-15.999-122.077-15.999-73.245 42.981-73.245 96.001 14.405 96.001 73.245 96.001c14.523-.001 25.393-.976 34.497-2.446zm-2.422-133.556c22.092 0 40 17.909 40 40 0 22.092-17.909 40-40 40-22.092 0-40-17.909-40-40s17.908-40 40-40z" fill="#66e0f7"/><path d="m304.442 392.514c-.473.136-.961.259-1.466.37-14.047 3.084-29.703 5.286-46.976 5.286s-32.929-2.201-46.976-5.286c-.5-.11-.985-.232-1.455-.367-17.156 55.467-121.569 19.143-121.569 109.485h340c.001-90.339-104.396-54.03-121.558-109.488z" fill="#66e0f7"/><ellipse cx="150.478" cy="31.25" fill="#ffea60" rx="21.25" ry="21.25" transform="matrix(.607 -.795 .795 .607 34.359 131.93)"/><ellipse cx="361.524" cy="31.25" fill="#ffea60" rx="21.25" ry="21.25" transform="matrix(.971 -.239 .239 .971 3.006 87.297)"/></g><g><path d="m301.001 231.612c8.11 16.689 25.233 28.222 45.001 28.222 27.57 0 50-22.43 50-50s-22.43-50-50-50c-19.768 0-36.891 11.533-45.001 28.222-8.11-16.689-25.232-28.222-45-28.222s-36.891 11.533-45 28.222c-8.11-16.689-25.233-28.222-45-28.222-27.57 0-50 22.43-50 50s22.43 50 50 50c19.768 0 36.891-11.532 45-28.221 8.11 16.689 25.233 28.221 45 28.221 19.768-.001 36.89-11.533 45-28.222zm45.001-51.779c16.542 0 30 13.458 30 30s-13.458 30-30 30-30-13.458-30-30c-.001-16.542 13.457-30 30-30zm-180.002 60c-16.542 0-30-13.458-30-30s13.458-30 30-30 30 13.458 30 30-13.458 30-30 30zm90.001 0c-16.542 0-30-13.458-30-30s13.458-30 30-30 30 13.458 30 30-13.458 30-30 30z"/><path d="m348.974 314.243c8.069.979 17.496 1.591 29.104 1.591 30.835 0 53.427-11.03 67.146-32.784 10.833-17.177 16.099-41.126 16.099-73.217s-5.266-56.04-16.099-73.217c-13.719-21.754-36.31-32.784-67.146-32.784-28.519 0-43.913 3.689-58.199 7.453 3.029-26.067 16.872-43.298 26.05-52.971 4.593 2.657 9.917 4.186 15.594 4.186 17.231 0 31.25-14.019 31.25-31.25s-14.018-31.25-31.249-31.25-31.25 14.019-31.25 31.25c0 4.248.855 8.298 2.397 11.994-11.096 11.461-31.407 35.416-33.247 73-10.761 2.102-23.807 3.588-43.423 3.588s-32.662-1.485-43.423-3.588c-1.84-37.583-22.151-61.539-33.247-73 1.542-3.695 2.397-7.746 2.397-11.994 0-17.231-14.019-31.25-31.25-31.25s-31.25 14.019-31.25 31.25 14.019 31.25 31.25 31.25c5.677 0 11-1.529 15.594-4.186 9.179 9.673 23.021 26.904 26.05 52.972-10.904-2.872-22.52-5.718-40.071-6.889-5.527-.368-10.276 3.802-10.644 9.313-.367 5.511 3.802 10.276 9.313 10.644 16.87 1.125 27.42 3.919 38.59 6.877 15.969 4.229 32.482 8.602 66.69 8.602s50.72-4.373 66.688-8.602c14.364-3.804 27.931-7.397 55.389-7.397 44.33 0 63.245 25.72 63.245 86.001s-18.915 86-63.245 86c-27.457 0-41.024-3.593-55.388-7.397-5.736-1.519-11.667-3.09-18.553-4.464-5.419-1.083-10.683 2.434-11.764 7.85-1.081 5.417 2.434 10.683 7.85 11.764 6.278 1.253 11.655 2.677 17.347 4.184 3.089.818 6.202 1.641 9.458 2.434-6.562 6.93-15.025 10.14-26.295 10.14-5.523 0-10 4.477-10 10 0 13.218 4.428 22.774 8.334 31.205 2.125 4.585 4.131 8.916 5.411 13.692.851 3.176.628 5.173.135 5.983-.473.778-1.852 1.467-3.783 1.891-30.967 6.8-58.694 6.8-89.661 0-1.931-.424-3.31-1.113-3.783-1.892-.493-.81-.716-2.807.135-5.983 1.28-4.776 3.287-9.106 5.411-13.691 3.907-8.431 8.335-17.987 8.335-31.206 0-5.523-4.477-10-10-10-11.267 0-19.733-3.21-26.296-10.14 3.256-.792 6.37-1.616 9.459-2.434 5.692-1.507 11.068-2.931 17.347-4.184 5.416-1.081 8.93-6.347 7.85-11.764-1.08-5.416-6.346-8.93-11.764-7.85-6.886 1.374-12.817 2.945-18.553 4.464-14.363 3.804-27.931 7.397-55.388 7.397-44.33 0-63.245-25.72-63.245-86 0-25.453 3.449-44.497 10.543-58.219 2.536-4.906.615-10.939-4.291-13.476-4.906-2.535-10.939-.615-13.476 4.291-8.597 16.63-12.776 38.678-12.776 67.404 0 32.09 5.266 56.04 16.099 73.217 13.719 21.754 36.31 32.784 67.146 32.784 11.606 0 21.033-.613 29.102-1.591 8.808 14.159 21.235 22.616 37.104 25.227-1.186 4.702-3.172 8.987-5.343 13.672-2.388 5.153-4.857 10.481-6.583 16.924-2.783 10.389-.396 17.454 2.096 21.552.992 1.631 2.419 3.468 4.425 5.205-8.113 13.023-25.316 18.157-44.87 23.986-32.904 9.808-73.854 22.013-73.854 81.193 0 5.523 4.477 10 10 10h340c5.523 0 10-4.477 10-10 0-59.179-40.947-71.388-73.848-81.198-19.569-5.835-36.764-10.971-44.866-23.989 2.001-1.735 3.425-3.569 4.416-5.197 2.492-4.098 4.879-11.164 2.096-21.552-1.726-6.443-4.195-11.771-6.583-16.925-2.17-4.684-4.156-8.97-5.342-13.671 15.87-2.612 28.296-11.07 37.103-25.228zm-198.496-271.743c-6.203 0-11.25-5.047-11.25-11.25s5.047-11.25 11.25-11.25 11.25 5.047 11.25 11.25c0 6.204-5.047 11.25-11.25 11.25zm211.046-22.5c6.204 0 11.25 5.047 11.25 11.25 0 6.204-5.047 11.25-11.25 11.25s-11.25-5.047-11.25-11.25 5.047-11.25 11.25-11.25zm-5.086 419.969c29.392 8.764 55.097 16.425 59.04 52.032h-318.954c3.943-35.606 29.65-43.265 59.043-52.026 23.064-6.875 46.838-13.976 58.07-35.94 14.461 2.774 28.385 4.133 42.363 4.133 13.983 0 27.912-1.36 42.379-4.136 11.247 21.964 35.011 29.065 58.059 35.937z"/><path d="m166 199.833h-.007c-5.523 0-9.997 4.477-9.997 10s4.481 10 10.004 10 10-4.477 10-10-4.477-10-10-10z"/><path d="m256.001 199.833h-.007c-5.523 0-9.997 4.477-9.997 10s4.481 10 10.004 10 10-4.477 10-10-4.477-10-10-10z"/><path d="m346.009 219.833c5.523 0 10-4.477 10-10s-4.477-10-10-10h-.007c-5.523 0-9.997 4.477-9.997 10s4.481 10 10.004 10z"/><path d="m264.891 352.211c-2.377 2.387-5.534 3.702-8.891 3.702-3.356 0-6.513-1.315-8.89-3.702-3.897-3.914-10.229-3.927-14.142-.031s-3.928 10.229-.031 14.142c6.158 6.185 14.348 9.591 23.063 9.591s16.906-3.406 23.063-9.591c3.897-3.914 3.883-10.246-.031-14.142-3.913-3.896-10.244-3.883-14.141.031z"/><path d="m106.515 127.746c5.523 0 10-4.477 10-10s-4.477-10-10-10h-.007c-5.523 0-9.996 4.477-9.996 10s4.48 10 10.003 10z"/></g></g></svg>