<svg id="Layer_1" enable-background="new 0 0 512.053 512.053" height="512" viewBox="0 0 512.053 512.053" width="512" xmlns="http://www.w3.org/2000/svg"><g><path clip-rule="evenodd" d="m328.593 168.233c-23.244 22.396-73.317 76.058-87.091 51.939-13.775-24.119 39.599-77.868 57.677-96.818 18.078-18.951 24.475-16.855 54.608-60.787 30.132-43.932-7.748-60.299-30.132-49.1-22.383 11.198-33.861 38.188-58.827 76.09s-99.668 110.888-120.33 130.7c1.395-29.076.368-48.131 12.963-63.984 24.625-30.996 27.934-78.027-2.198-87.503-30.132-9.475-37.019 44.794-44.767 70.636-7.748 25.843-8.121 36.954-39.114 92.084s-28.698 118.649-17.704 148.076l-43.644 43.669 78.773 78.82 40.631-40.654c75.76-.861 124.458-51.712 146.842-69.801 22.383-18.09 44.507-46.486 95.3-73.19s57.764-53.09 101.67-80.655 30.132-53.408 7.748-58.576c-22.383-5.169-54.208 23.112-78.313 53.261s-85.396 64.372-98.308 53.174c-12.913-11.198-2.069-44.908 33.227-67.305 35.297-22.397 68.756-64.144 86.835-82.233s55.098-33.595 56.82-61.16-34.436-33.595-60.263-9.476c-25.827 24.118-69.159 80.396-92.403 102.793z" fill="#88df8e" fill-rule="evenodd"/><g><path d="m511.622 196.548c-2.222-13.197-13.095-23.587-28.374-27.115-31.579-7.291-68.923 32.432-88.374 56.76-9.824 12.288-27.899 26.768-47.17 37.79-21.152 12.097-33.782 14.449-37.115 13.734-1.13-1.307-1.641-3.781-1.408-6.904.882-11.822 11.67-30.031 33.781-44.062 27.845-17.668 54.03-46.28 73.15-67.171 5.99-6.545 11.164-12.198 15.4-16.437 4.911-4.914 11.709-9.856 18.907-15.089 18.434-13.401 39.326-28.59 40.82-52.516.875-14.006-5.827-25.779-17.929-31.49-17.506-8.264-41.272-2.604-59.141 14.082-14.096 13.164-32.843 35.146-50.973 56.403-15.924 18.67-30.964 36.305-41.543 46.498-2.423 2.335-5.136 5.006-8.066 7.893-10.442 10.286-23.438 23.086-35.893 32.997-18.305 14.565-25.183 14.484-26.375 14.318-.359-.049-.596-.082-1.136-1.027-1.246-2.181-3.889-11.289 14.4-36.893 12.416-17.382 29.064-34.745 39.011-45.12 1.012-1.055 1.955-2.039 2.818-2.944 5.101-5.347 9.131-8.84 13.397-12.54 10.496-9.099 20.41-17.693 42.221-49.493 21.502-31.35 10.816-49.663 5.223-56.082-10.953-12.573-31.621-15.848-48.073-7.617-19.392 9.701-30.734 28.164-46.433 53.716-4.769 7.762-10.174 16.56-16.271 25.816-19.694 29.898-72.463 83.415-100.854 111.407.919-14.05 2.872-24.415 9.668-32.97 18.327-23.069 26.016-53.658 19.132-76.118-4.138-13.5-13.428-23.141-26.16-27.145-8.273-2.602-16.337-1.905-23.317 2.012-17.577 9.865-24.574 38.058-30.197 60.711-1.334 5.377-2.595 10.456-3.832 14.581-1.192 3.975-2.201 7.566-3.177 11.04-5.217 18.566-9.337 33.23-35.076 79.016-31.677 56.351-29.923 118.065-20.415 150.266l-39.287 39.31c-3.902 3.905-3.902 10.233 0 14.138l78.773 78.819c1.875 1.877 4.42 2.931 7.073 2.931s5.198-1.054 7.073-2.931l37.795-37.818c68.021-2.328 114.617-42.511 139.878-64.297 3.452-2.978 6.434-5.549 9.011-7.632 6.327-5.113 12.578-10.96 19.195-17.151 17.193-16.084 38.591-36.101 74.472-54.965 29.208-15.356 44.75-30.776 59.78-45.689 12.182-12.087 23.689-23.504 42.555-35.349 32.594-20.462 34.701-39.904 33.056-49.673zm-43.689 32.735c-20.744 13.023-33.586 25.766-46.007 38.09-14.628 14.514-28.444 28.222-55 42.184-38.268 20.119-60.757 41.157-78.828 58.062-6.346 5.936-12.339 11.543-18.104 16.201-2.826 2.284-5.92 4.952-9.502 8.042-25.509 22-68.204 58.822-131.168 59.538-2.614.03-5.112 1.082-6.959 2.931l-33.557 33.577-64.635-64.673 36.579-36.601c2.768-2.77 3.665-6.9 2.294-10.568-9.488-25.396-13.248-85.774 17.053-139.676 26.913-47.872 31.318-63.553 36.896-83.407.953-3.391 1.938-6.897 3.08-10.706 1.375-4.584 2.691-9.89 4.085-15.507 4.196-16.906 10.537-42.455 20.574-48.087 1.458-.818 3.63-1.601 7.529-.374 6.53 2.054 10.795 6.609 13.038 13.926 4.881 15.927-1.708 40.243-15.669 57.816-13.009 16.374-13.743 35.214-14.673 59.066-.132 3.398-.271 6.946-.449 10.659-1.327 27.657 2.747 46.502 6.341 63.129 2.396 11.085 4.466 20.658 4.451 31.021-.008 5.523 4.463 10.006 9.986 10.014h.015c5.516 0 9.992-4.468 10-9.986.018-12.515-2.373-23.571-4.903-35.276-3.157-14.604-6.713-31.053-6.063-54.01 20.466-19.734 93.546-91.208 118.843-129.612 6.271-9.52 11.764-18.46 16.61-26.349 13.964-22.729 24.053-39.152 38.34-46.299 8.133-4.07 19.145-2.754 24.048 2.871 5.354 6.145 2.935 17.673-6.638 31.63-20.359 29.683-29.331 37.46-38.829 45.694-4.431 3.841-9.013 7.813-14.769 13.846-.852.894-1.783 1.865-2.783 2.907-38.002 39.634-71.129 79.88-56.342 105.773 3.547 6.211 9 9.987 15.771 10.921 20.573 2.836 47.96-22.271 79.034-52.88 2.873-2.83 5.532-5.45 7.908-7.739 11.284-10.873 26.633-28.869 42.883-47.922 17.768-20.833 36.142-42.375 49.407-54.765 13.101-12.235 28.507-14.599 36.953-10.613 4.748 2.241 6.875 6.217 6.504 12.157-.908 14.531-17.029 26.252-32.62 37.586-7.852 5.708-15.269 11.101-21.292 17.128-4.547 4.549-9.858 10.352-16.007 17.071-18.363 20.063-43.511 47.542-69.112 63.787-24.597 15.607-41.479 38.947-43.01 59.46-.741 9.93 2.309 18.397 8.588 23.843 4.188 3.631 10.042 5.135 17.394 4.462 25.726-2.347 73.809-32.096 95.277-58.946 26.452-33.083 53.884-53.077 68.252-49.762 7.147 1.65 12.309 5.948 13.151 10.949 1.372 8.14-7.588 19.135-23.965 29.417z"/><path d="m228.016 263.918c-10.885-10.748-21.166-20.9-25.151-27.629-2.814-4.753-8.95-6.324-13.7-3.509-4.752 2.814-6.323 8.948-3.509 13.7 5.303 8.953 15.963 19.48 28.307 31.669 16.795 16.584 37.698 37.224 42.987 53.502 1.374 4.226 5.293 6.913 9.509 6.913 1.024 0 2.066-.159 3.092-.492 5.252-1.707 8.127-7.349 6.42-12.601-6.793-20.909-28.662-42.502-47.955-61.553z"/><path d="m144.817 347.709h-.007c-5.523 0-9.996 4.477-9.996 10s4.48 10 10.003 10 10-4.477 10-10-4.477-10-10-10z"/></g></g></svg>