<svg id="Layer_1" enable-background="new 0 0 512.059 512.059" height="512" viewBox="0 0 512.059 512.059" width="512" xmlns="http://www.w3.org/2000/svg"><g><g clip-rule="evenodd" fill-rule="evenodd"><circle cx="256.029" cy="222.002" fill="#6d91ac" r="22.5"/><path d="m256.029 199.502c12.426 0 22.5 10.074 22.5 22.5s-10.074 22.5-22.5 22.5-22.5-10.074-22.5-22.5 10.074-22.5 22.5-22.5zm-70 22.5c0 38.66 31.34 70 70 70s70-31.34 70-70-31.34-70-70-70-70 31.34-70 70z" fill="#fff"/><g fill="#b278d3"><path d="m256.029 152.002c38.66 0 70 31.34 70 70s-31.34 70-70 70-70-31.34-70-70 31.34-70 70-70zm-140 70v126.133c0 35-16.924 76-46.924 96s-6.328 81.022 50.001 48.5c31.809-18.365 44.354 9.367 72.165 9.367 31.81 0 31.26-15.5 64.759-15.5s32.948 15.5 64.759 15.5c27.81 0 40.356-27.732 72.165-9.367 56.329 32.522 80.001-28.5 50.001-48.5s-46.924-61-46.924-96v-126.133c0-77-63-140-140-140-77.002 0-140.002 63-140.002 140z"/><circle cx="256.029" cy="32.5" r="22.5"/></g></g><g><path d="m448.501 435.814c-25.006-16.671-42.471-52.727-42.471-87.68v-126.132c0-79.349-61.935-144.494-140-149.659v-8.924c13.041-4.229 22.499-16.487 22.499-30.919 0-17.92-14.579-32.5-32.5-32.5s-32.5 14.58-32.5 32.5c0 14.432 9.458 26.69 22.5 30.919v8.924c-78.065 5.164-140 70.309-140 149.659v126.132c0 34.954-17.465 71.009-42.471 87.68-18.275 12.184-23.091 37.023-10.962 56.55 10.589 17.05 35.672 29.621 71.51 8.931 14.841-8.57 22.962-4.578 35.255 1.467 8.809 4.332 18.792 9.24 31.91 9.24 17.988 0 27.442-4.566 35.784-8.595 7.671-3.705 14.297-6.905 28.975-6.905 14.677 0 21.303 3.2 28.975 6.905 8.341 4.028 17.796 8.595 35.783 8.595 13.117 0 23.102-4.909 31.91-9.24 12.292-6.044 20.409-10.038 35.255-1.467 13.274 7.665 25.071 10.765 35.204 10.764 17.224-.001 29.639-8.96 36.307-19.695 12.127-19.527 7.312-44.366-10.963-56.55zm-192.472-415.814c6.892 0 12.5 5.607 12.5 12.5s-5.607 12.5-12.5 12.5-12.5-5.607-12.5-12.5 5.608-12.5 12.5-12.5zm186.444 461.812c-7.976 12.841-24.617 13.652-44.521 2.163-9.665-5.581-18.128-7.605-25.662-7.605-11.243 0-20.417 4.51-28.418 8.444-7.518 3.696-14.618 7.188-23.085 7.188-13.411 0-19.748-3.061-27.085-6.604-8.634-4.169-18.419-8.896-37.673-8.896s-29.04 4.726-37.673 8.896c-7.338 3.544-13.675 6.604-27.086 6.604-8.466 0-15.567-3.492-23.084-7.188-13.363-6.57-29.993-14.746-54.08-.839-19.9 11.489-36.543 10.681-44.521-2.163-5.488-8.835-5.111-22.571 5.066-29.356 15.728-10.485 28.947-26.554 38.229-46.471 8.479-18.193 13.148-38.738 13.148-57.85v-126.133c0-71.682 58.318-130 130-130s130 58.318 130 130v126.132c0 19.112 4.669 39.657 13.147 57.85 9.282 19.917 22.502 35.986 38.229 46.472 10.181 6.784 10.557 20.52 5.069 29.356z"/><path d="m256.029 302.002c44.112 0 80-35.888 80-80s-35.888-80-80-80-80 35.888-80 80 35.889 80 80 80zm0-140c33.083 0 60 26.916 60 60s-26.916 60-60 60-60-26.916-60-60 26.916-60 60-60z"/><path d="m256.029 254.502c17.92 0 32.5-14.58 32.5-32.5s-14.579-32.5-32.5-32.5-32.5 14.58-32.5 32.5 14.58 32.5 32.5 32.5zm0-45c6.892 0 12.5 5.607 12.5 12.5s-5.607 12.5-12.5 12.5-12.5-5.607-12.5-12.5 5.608-12.5 12.5-12.5z"/><path d="m256.029 317.612c-10.655 0-20.669 4.165-28.198 11.727-3.897 3.914-3.883 10.246.031 14.142 3.913 3.896 10.246 3.883 14.142-.031 3.749-3.765 8.729-5.838 14.025-5.838 5.295 0 10.277 2.073 14.026 5.838 1.954 1.962 4.52 2.944 7.086 2.944 2.552 0 5.104-.971 7.056-2.914 3.914-3.896 3.928-10.229.03-14.142-7.529-7.561-17.544-11.726-28.198-11.726z"/><path d="m211.992 433.15c-1.462.164-3.027.246-4.65.246-9.193 0-13.751-2.509-19.521-5.687-6.608-3.639-14.833-8.167-29.167-8.167-5.523 0-10 4.477-10 10s4.477 10 10 10c9.193 0 13.751 2.509 19.521 5.687 6.608 3.639 14.833 8.167 29.167 8.167 2.362 0 4.674-.125 6.871-.37 5.489-.613 9.441-5.56 8.828-11.048-.614-5.489-5.557-9.446-11.049-8.828z"/><path d="m353.406 419.542c-14.334 0-22.559 4.528-29.167 8.167-5.771 3.177-10.328 5.687-19.521 5.687-1.625 0-3.191-.083-4.656-.247-5.48-.609-10.437 3.337-11.05 8.826-.614 5.489 3.337 10.436 8.825 11.05 2.201.246 4.516.371 6.881.371 14.334 0 22.559-4.528 29.167-8.167 5.771-3.177 10.328-5.687 19.521-5.687 5.522 0 10-4.477 10-10s-4.478-10-10-10z"/><path d="m256.029 419.542h-.007c-5.523 0-9.996 4.477-9.996 10s4.48 10 10.003 10 10-4.477 10-10-4.477-10-10-10z"/></g></g></svg>