<svg id="Layer_1" enable-background="new 0 0 512.002 512.002" height="512" viewBox="0 0 512.002 512.002" width="512" xmlns="http://www.w3.org/2000/svg"><g><g clip-rule="evenodd" fill-rule="evenodd"><path d="m256.001 50c77.32 0 140 17.909 140 40s-62.68 40-140 40-140-17.909-140-40 62.68-40 140-40zm0 120c110.457 0 200-35.817 200-80s-89.543-80-200-80-200 35.817-200 80 89.543 80 200 80z" fill="#8aa7bd"/><ellipse cx="256.001" cy="90" fill="#6d91ac" rx="140" ry="40"/><ellipse cx="256.001" cy="422.002" fill="#6d91ac" rx="140" ry="40"/><path d="m140.953 399.19c14.94-12.506 27.049-30.046 35.512-50.59-73.029 12.657-120.464 41.477-120.464 73.402 0 44.183 89.543 80 200 80s200-35.817 200-80c0-31.925-47.435-60.745-120.464-73.402 8.463 20.545 20.572 38.084 35.512 50.59l.011.018c15.724 6.467 24.941 14.323 24.941 22.794 0 22.091-62.68 40-140 40s-140-17.909-140-40c0-8.471 9.217-16.328 24.943-22.795z" fill="#8aa7bd"/><path d="m370.147 155.712c-29.957 25.684-48.263 71.713-48.263 121.356 0 50.175 18.696 96.616 49.165 122.121l-.028.007c-25.286-10.391-67.368-17.195-115.02-17.195-47.651 0-89.734 6.804-115.02 17.195l-.028-.007c30.469-25.506 49.165-71.946 49.165-122.121 0-49.643-18.305-95.673-48.263-121.356l.051-.005c32.361 9.008 71.682 14.293 114.095 14.293s81.733-5.285 114.094-14.292z" fill="#a7bdcd"/></g><g><path d="m211.97 117.936c-26.178-2.537-49.451-7.406-65.534-13.711-16.764-6.573-20.435-12.497-20.435-14.225 0-2.341 6.201-10.797 33.753-18.669 25.574-7.307 59.755-11.331 96.247-11.331s70.674 4.024 96.248 11.331c27.551 7.872 33.752 16.328 33.752 18.669 0 1.728-3.671 7.652-20.433 14.223-16.081 6.305-39.354 11.174-65.528 13.711-5.497.533-9.521 5.421-8.988 10.918.532 5.497 5.411 9.515 10.918 8.989 24.404-2.366 104.031-12.808 104.031-47.842 0-34.354-77.756-50-150-50s-150 15.646-150 50c0 35.037 79.633 45.477 104.039 47.843.328.032.653.047.977.047 5.088 0 9.44-3.867 9.941-9.037.533-5.496-3.491-10.384-8.988-10.916z"/><path d="m306.001 90c0-5.523-4.478-10-10-10h-80c-5.522 0-10 4.477-10 10s4.478 10 10 10h80c5.522 0 10-4.477 10-10z"/><path d="m342.891 339.77c-7.088-19.026-11.007-40.547-11.007-62.701 0-45.487 16.586-88.555 43.292-112.465 9.096-2.622 17.745-5.555 25.847-8.796 41.901-16.76 64.978-40.131 64.978-65.808s-23.076-49.048-64.978-65.808c-39.001-15.601-90.503-24.192-145.022-24.192s-106.022 8.591-145.022 24.192c-41.902 16.76-64.978 40.131-64.978 65.808s23.076 49.048 64.978 65.808c8.103 3.241 16.752 6.175 25.849 8.797 26.706 23.909 43.291 66.977 43.291 112.464 0 22.154-3.92 43.675-11.007 62.702-76.007 14.279-123.11 45.681-123.11 82.232 0 25.735 23.036 49.122 64.864 65.854 38.929 15.571 90.472 24.146 145.136 24.146s106.207-8.575 145.136-24.146c41.828-16.732 64.864-40.119 64.864-65.854-.001-36.551-47.104-67.954-123.111-82.233zm-276.89-249.77c0-33.109 78.03-70 190-70s190 36.891 190 70-78.03 70-190 70-190-36.891-190-70zm103.965 82.387c15.256 2.848 31.336 4.925 47.942 6.183 5.275 13.045 9.509 29.138 12.291 46.78.777 4.928 5.029 8.444 9.865 8.444.518 0 1.043-.04 1.57-.124 5.455-.86 9.181-5.98 8.32-11.436-2.472-15.681-5.912-29.918-10.259-42.497 5.399.171 10.836.262 16.305.262 30.136 0 59.345-2.63 86.035-7.613-19.188 27.826-30.153 65.021-30.153 104.682 0 38.909 10.492 75.321 28.934 102.917-24.591-5.182-54.02-7.984-84.816-7.984-5.246 0-10.446.089-15.595.249 6.2-18.671 10.483-40.833 12.469-64.832.456-5.504-3.637-10.335-9.141-10.791-5.521-.454-10.335 3.637-10.791 9.141-2.138 25.825-7.044 49.164-14.195 67.651-17.051 1.316-33.142 3.528-47.563 6.567 18.442-27.596 28.933-64.009 28.933-102.917.001-39.661-10.964-76.856-30.151-104.682zm-10.134 230.968c25.625-7.321 59.778-11.354 96.169-11.354s70.544 4.032 96.169 11.354c27.615 7.89 33.831 16.317 33.831 18.646s-6.216 10.756-33.831 18.646c-25.625 7.321-59.778 11.354-96.169 11.354s-70.544-4.032-96.169-11.354c-27.615-7.89-33.831-16.317-33.831-18.646s6.216-10.755 33.831-18.646zm233.876 65.931c-36.621 14.649-85.527 22.716-137.707 22.716s-101.086-8.067-137.707-22.716c-33.233-13.293-52.293-30.527-52.293-47.284 0-11.591 9.639-23.959 27.14-34.827 16.452-10.216 38.828-18.665 65.339-24.757-6.358 10.929-13.958 20.429-22.599 27.954-.094.081-.175.171-.265.255-19.671 8.373-29.615 18.888-29.615 31.374 0 15.969 16.263 28.713 48.337 37.877 27.361 7.818 63.467 12.123 101.663 12.123s74.302-4.305 101.663-12.123c32.074-9.164 48.337-21.908 48.337-37.877 0-12.486-9.944-23.001-29.613-31.374-.09-.084-.172-.174-.266-.256-8.641-7.525-16.242-17.025-22.6-27.954 26.514 6.093 48.892 14.542 65.344 24.76 17.498 10.867 27.135 23.234 27.135 34.824 0 16.757-19.06 33.992-52.293 47.285z"/><path d="m216.001 432.002h80c5.522 0 10-4.477 10-10s-4.478-10-10-10h-80c-5.522 0-10 4.477-10 10s4.478 10 10 10z"/><path d="m78.001 186c0-5.523-4.478-10-10-10h-.007c-5.522 0-9.997 4.477-9.997 10s4.481 10 10.004 10 10-4.477 10-10z"/><path d="m140.001 254c0-5.523-4.478-10-10-10h-.007c-5.522 0-9.997 4.477-9.997 10s4.481 10 10.004 10 10-4.477 10-10z"/><path d="m56.001 298c-5.522 0-9.996 4.477-9.996 10s4.481 10 10.004 10 10-4.477 10-10-4.478-10-10-10z"/><path d="m423.994 182c-5.522 0-9.997 4.477-9.997 10s4.481 10 10.004 10 10-4.477 10-10-4.478-10-10-10z"/><path d="m375.993 286c-5.522 0-9.996 4.477-9.996 10s4.481 10 10.004 10 10-4.477 10-10-4.478-10-10-10z"/><path d="m456.001 252h-.007c-5.522 0-9.997 4.477-9.997 10s4.481 10 10.004 10 10-4.477 10-10-4.478-10-10-10z"/><path d="m266.009 130c0-5.523-4.478-10-10-10h-.008c-5.522 0-9.996 4.477-9.996 10s4.481 10 10.004 10 10-4.477 10-10z"/></g></g></svg>