<svg id="Layer_1" enable-background="new 0 0 511.995 511.995" height="512" viewBox="0 0 511.995 511.995" width="512" xmlns="http://www.w3.org/2000/svg"><g><g clip-rule="evenodd" fill-rule="evenodd"><path d="m255.998 501.995c-45.899 0-195.29-166.807-195.29-295.15 0-106.273 88.25-197.251 195.29-196.843 107.04-.408 195.29 90.571 195.29 196.843 0 128.343-149.391 295.15-195.29 295.15z" fill="#ff5d7d"/><circle cx="255.998" cy="205.29" fill="#fff" r="155.29"/><g><path d="m255.998 224.266c52.568 0 95.183-11.713 95.183-26.161 0-3.491-.188-6.938-.554-10.331-5.149-47.709-45.551-84.852-94.629-84.852s-89.48 37.143-94.629 84.852c-.366 3.394-.554 6.841-.554 10.331 0 14.448 42.614 26.161 95.183 26.161z" fill="#66e0f7"/><path d="m351.181 198.105c0 14.449-42.615 26.161-95.183 26.161s-95.183-11.713-95.183-26.161c0-3.491.188-6.938.554-10.331-70.751 9.816-115.371 29.744-115.371 51.527 0 31.878 94.02 57.719 210 57.719s210-25.841 210-57.719c0-21.784-44.62-41.711-115.371-51.527.366 3.393.554 6.84.554 10.331z" fill="#6d91ac"/></g></g><g><path d="m475.998 239.301c0-9.558-4.981-18.363-14.835-26.321.084-2.236.125-4.236.125-6.135 0-54.213-22.521-107.742-61.79-146.861-38.849-38.702-89.523-59.984-142.702-59.984-.506 0-1.019 0-1.522 0-53.25 0-103.93 21.285-142.776 59.984-39.269 39.119-61.79 92.647-61.79 146.861 0 2.021.049 4.078.119 6.14-9.851 7.957-14.829 16.76-14.829 26.316 0 12.688 8.536 23.921 25.432 33.601 15.751 51.94 49.345 110.762 92.389 161.674 31.642 37.426 75.1 77.418 102.179 77.418 27.08 0 70.542-39.993 102.186-77.42 43.047-50.914 76.644-109.738 92.393-161.679 16.888-9.677 25.421-20.909 25.421-33.594zm-349.385-165.148c35.072-34.939 80.738-54.153 128.738-54.153.227 0 .458 0 .685.001 48.173-.207 94.109 19.047 129.348 54.151 34.102 33.972 54.231 79.895 55.794 126.802-.411-.192-.818-.385-1.236-.576-5.723-2.607-12.136-5.071-19.127-7.388-2.988-40.635-20.691-78.39-50.227-106.815-30.941-29.777-71.636-46.175-114.59-46.175s-83.649 16.398-114.589 46.175c-29.537 28.425-47.24 66.181-50.228 106.816-6.989 2.316-13.4 4.78-19.122 7.386-.42.191-.828.385-1.241.578 1.562-46.907 21.693-92.83 55.795-126.802zm232.806 104.805c-5.731-31.061-25.214-58.248-53.69-73.553-4.865-2.615-10.927-.792-13.543 4.074-2.614 4.865-.791 10.928 4.074 13.542 27.532 14.799 44.702 43.297 44.919 74.484-3.483 5.167-31.713 16.761-85.182 16.761-53.468 0-81.697-11.594-85.181-16.761.217-31.184 17.385-59.681 44.913-74.48 4.864-2.615 6.688-8.679 4.072-13.543-2.614-4.864-8.678-6.688-13.543-4.072-28.471 15.306-47.951 42.491-53.682 73.549-14.686 2.242-28.338 4.951-40.718 8.064 8.966-72.147 70.069-127.023 144.14-127.023s135.175 54.875 144.139 127.022c-12.38-3.113-26.032-5.822-40.718-8.064zm-16.508 242.704c-39.039 46.174-73.273 70.333-86.913 70.333-13.639 0-47.87-24.158-86.906-70.331-36.714-43.427-66.212-92.634-82.853-137.713 5.725 2.028 11.922 3.966 18.616 5.806 3.486.958 7.075 1.876 10.75 2.759 14.352 23.049 34.272 42.372 57.781 55.965 25.005 14.458 53.571 22.099 82.612 22.099s57.608-7.642 82.613-22.099c23.509-13.593 43.429-32.916 57.781-55.965 3.674-.883 7.263-1.801 10.749-2.759 6.698-1.841 12.898-3.78 18.627-5.809-16.642 45.079-46.14 94.286-82.857 137.714zm-198.522-123.307c33.313 5.644 71.648 8.665 111.609 8.665s78.297-3.021 111.61-8.666c-27.396 33.038-67.721 52.226-111.61 52.226-43.888 0-84.213-19.188-111.609-52.225zm257.451-27.883c-38.825 10.671-90.62 16.548-145.843 16.548s-107.018-5.877-145.842-16.548c-37.412-10.283-54.158-23.065-54.158-31.171 0-9.722 25.953-28.676 94.873-39.836.853 11.59 12.671 20.596 35.173 26.781 18.816 5.172 43.66 8.02 69.954 8.02 26.295 0 51.139-2.848 69.955-8.02 22.502-6.185 34.321-15.191 35.173-26.781 68.919 11.161 94.872 30.115 94.872 39.836.001 8.106-16.746 20.888-54.157 31.171z"/><path d="m256.004 250.644h-.007c-5.522 0-9.997 4.477-9.997 10s4.481 10 10.004 10 10-4.477 10-10-4.477-10-10-10z"/><path d="m194.257 246.414h-.006c-5.522 0-9.997 4.477-9.997 10s4.48 10 10.003 10 10-4.477 10-10-4.477-10-10-10z"/><path d="m134.293 230.621h-.006c-5.522 0-9.997 4.477-9.997 10s4.48 10 10.003 10 10-4.477 10-10-4.477-10-10-10z"/><path d="m317.738 246.414c-5.522 0-10 4.477-10 10s4.478 10 10 10h.007c5.522 0 9.997-4.477 9.997-10s-4.482-10-10.004-10z"/><path d="m377.702 230.621c-5.522 0-10 4.477-10 10s4.478 10 10 10h.006c5.522 0 9.997-4.477 9.997-10s-4.481-10-10.003-10z"/><path d="m255.998 92.921h-.007c-5.522 0-9.996 4.477-9.996 10s4.48 10 10.003 10 10-4.477 10-10-4.478-10-10-10z"/></g></g></svg>