<svg id="Layer_1" enable-background="new 0 0 507.429 507.429" height="512" viewBox="0 0 507.429 507.429" width="512" xmlns="http://www.w3.org/2000/svg"><g><g clip-rule="evenodd" fill-rule="evenodd"><g><path d="m318.393 205.649c10.622-38.99 21.533-19.184 34.507-39.186 6.877-10.601 2.945-26.103 17.484-30.381 18.654-5.49 14.776 11.822 38.726 14.985 22.035 2.909 37.05 33.771 30.53 48.215-13.209 29.26 7.542 25.94-9.466 68.703-19.981 50.24-56.779 17.062-42.408-6.212 13.433-21.756-6.545-40.726-24.645-28.693-21.951 14.594-50.688-5.556-44.728-27.431zm98.425 168.161c20.1-13.336 37.367-30.602 50.704-50.702 18.899-28.481 29.907-62.652 29.907-99.394 0-99.411-80.589-180-180-180-36.742 0-70.913 11.009-99.394 29.907-20.1 13.337-37.366 30.604-50.702 50.704 18 38.726 56.607 90.753 107.67 141.815 51.062 51.063 103.089 89.669 141.815 107.67z" fill="#ff7d97"/><path d="m352.9 166.464c-12.974 20.001-23.885.195-34.507 39.186-5.96 21.875 22.777 42.025 44.728 27.431 18.099-12.033 38.078 6.937 24.645 28.693-14.371 23.274 22.427 56.451 42.408 6.212 17.008-42.763-3.743-39.443 9.466-68.703 6.52-14.444-8.494-45.306-30.53-48.215-23.951-3.162-20.072-20.474-38.726-14.985-14.539 4.278-10.607 19.779-17.484 30.381z" fill="#ff9eb1"/><path d="m275.003 266.14c-51.063-51.063-89.67-103.089-107.67-141.815-18.897 28.48-29.904 62.649-29.904 99.389 0 99.411 80.589 180 180 180 36.74 0 70.909-11.007 99.389-29.904-38.726-18.001-90.753-56.607-141.815-107.67z" fill="#ff7d97"/><path d="m170 408.284c40.052 0 72.52-8.924 72.52-19.932 0-2.659-.143-5.285-.422-7.871-3.923-36.349-34.706-64.649-72.098-64.649s-68.175 28.3-72.098 64.649c-.279 2.586-.422 5.212-.422 7.871 0 11.008 32.469 19.932 72.52 19.932z" fill="#66e0f7"/><path d="m242.521 388.351c0 11.008-32.469 19.932-72.52 19.932-40.052 0-72.52-8.924-72.52-19.932 0-2.659.143-5.285.422-7.871-53.907 7.479-87.903 22.662-87.903 39.259 0 24.288 71.635 43.976 160 43.976s160-19.689 160-43.976c0-16.597-33.996-31.78-87.902-39.259.28 2.586.423 5.212.423 7.871z" fill="#6d91ac"/></g><path d="m156.043 220.07c-111 0-133.351 92.166-111.829 172.489 14.211-4.97 32.396-9.126 53.687-12.08 3.71-34.372 31.437-61.546 66.058-64.401-57.082-58.99-7.916-96.008-7.916-96.008z" fill="#ffea60"/></g><g><path d="m507.429 223.714c0-104.767-85.233-190-190-190-35.912 0-70.425 9.967-100.265 28.561-29.465-12.719-50.441-13.126-62.37-1.195-12.048 12.048-11.63 32.99 1.164 62.405-16.534 26.559-26.263 56.899-28.175 88.733-32.124 5.12-57.805 19.333-75.191 41.853-24.899 32.254-32.125 80.127-20.213 132.256-18.46 7.715-32.379 18.482-32.379 33.412 0 17.145 18.24 30.851 54.213 40.739 31.059 8.537 72.18 13.238 115.787 13.238 43.608 0 84.729-4.701 115.788-13.238 35.972-9.887 54.212-23.594 54.212-40.739 0-2.531-.406-4.94-1.16-7.237 28.212-3.161 55.039-12.497 78.836-27.318 15.158 6.591 28.078 9.912 38.675 9.912 9.958 0 17.878-2.914 23.713-8.749 11.928-11.929 11.523-32.902-1.192-62.361 18.594-29.835 28.557-64.342 28.557-100.272zm-20 0c0 57.501-27.887 108.008-71.159 138.721-4.37-2.158-8.992-4.611-13.88-7.404-36.646-20.94-79.375-55.021-120.316-95.962-40.942-40.941-75.022-83.67-95.962-120.316-2.778-4.861-5.22-9.46-7.369-13.809 30.75-43.298 81.296-71.23 138.686-71.23 93.738 0 170 76.261 170 170zm-318.492-148.493c3.369-3.369 12.559-4.382 28.745.979-4.281 3.484-8.439 7.159-12.446 11.041-5.463 5.292-10.567 10.864-15.305 16.68-5.026-15.211-4.72-24.973-.994-28.7zm-100.513 191.071c14.921-19.329 36.908-30.995 65.535-34.822-3.624 6.599-6.636 14.792-7.408 24.445-1.411 17.639 4.856 35.659 18.644 53.732-13.556 4.282-25.597 11.985-35.138 22.079-5.274-14.811-6.753-31.305-4.135-39.667 1.65-5.271-1.284-10.881-6.555-12.531-5.27-1.65-10.881 1.284-12.531 6.555-5.118 16.346-.747 44.46 9.721 64.714-3.342 6.508-5.862 13.503-7.381 20.865-11.659 1.827-25.013 4.438-37.777 8.099-9.722-44.904-3.551-86.816 17.025-113.469zm212.063 174.901c-29.381 8.076-68.619 12.523-110.487 12.523-41.867 0-81.105-4.447-110.487-12.523-32.414-8.91-39.513-18.508-39.513-21.454 0-5.367 17.392-19.114 67.924-27.614 2.338 9.811 14.057 17.078 34.944 21.628 5.397 1.175 10.724-2.247 11.899-7.643s-2.246-10.724-7.643-11.899c-12.292-2.678-17.869-5.796-19.629-7.29.762-33.816 28.508-61.09 62.504-61.09s61.742 27.273 62.504 61.09c-1.76 1.494-7.338 4.613-19.635 7.291-5.396 1.175-8.819 6.502-7.644 11.898 1.019 4.68 5.16 7.875 9.761 7.875.705 0 1.421-.075 2.137-.231 20.892-4.549 32.614-11.816 34.952-21.629 50.532 8.5 67.924 22.248 67.924 27.615.002 2.945-7.097 12.543-39.511 21.453zm41.531-47.543c-18.642-11.75-48.216-18.387-71.195-21.989-7.739-37.528-41.037-65.83-80.822-65.83-.635 0-1.261.034-1.892.048-15.455-16.951-22.741-33.125-21.639-48.114 1.36-18.499 15.496-29.632 15.589-29.705 3.436-2.587 4.833-7.081 3.469-11.16s-5.183-6.829-9.484-6.829c-2.729 0-5.421.058-8.08.167 1.834-23.54 8.357-45.637 18.627-65.397.702 1.266 1.419 2.543 2.157 3.834 21.797 38.146 57.021 82.373 99.185 124.536s86.391 77.388 124.536 99.185c1.316.752 2.61 1.471 3.9 2.186-22.24 11.542-47.446 18.342-74.351 19.068zm143.903-21.444c-3.727 3.727-13.491 4.032-28.705-.996 5.677-4.625 11.126-9.595 16.307-14.914 4.021-4.127 7.823-8.414 11.421-12.833 5.36 16.185 4.346 25.374.977 28.743z"/><path d="m323.142 240.262c13.76 9.928 31.626 10.379 45.516 1.146 4.132-2.747 8.265-2.775 11.057-.076 2.7 2.611 3.998 7.972-.457 15.187-6.345 10.277-6.311 23.113.09 33.5 5.497 8.922 14.648 14.224 24.291 14.223.758 0 1.521-.033 2.283-.099 7.983-.695 22.957-5.837 33.546-32.463 10.176-25.584 8.081-37.255 6.397-46.633-1.179-6.57-1.958-10.911 2.891-21.652 4.39-9.725 2.643-23.807-4.56-36.75-7.91-14.215-20.536-23.745-33.775-25.493-8.276-1.093-11.512-4.107-15.258-7.597-5.229-4.872-12.389-11.542-27.601-7.066-14.833 4.365-17.811 16.773-19.781 24.983-.883 3.68-1.717 7.156-3.269 9.549-3.287 5.067-5.486 5.812-9.478 7.164-10.485 3.552-19.079 8.372-26.288 34.834-3.716 13.635 1.935 28.253 14.396 37.243zm4.9-31.984c4.984-18.295 8.518-19.493 13.408-21.149 5.39-1.826 12.772-4.327 19.841-15.223 3.42-5.273 4.758-10.848 5.938-15.767 1.953-8.14 2.735-9.509 5.979-10.463 4.272-1.258 4.272-1.257 8.321 2.514 4.643 4.325 11.66 10.861 26.273 12.791 6.893.91 14.141 6.807 18.916 15.389 4.409 7.923 5.252 15.598 3.808 18.798-7.402 16.397-5.779 25.438-4.347 33.415 1.361 7.585 2.769 15.428-5.296 35.708-4.766 11.984-11.008 19.434-16.697 19.93-3.438.298-6.292-2.227-7.812-4.691-.916-1.487-3.63-6.782-.099-12.501 10.016-16.221 5.882-31.814-2.658-40.072-5.223-5.051-11.896-7.612-18.827-7.612-5.79 0-11.76 1.79-17.206 5.411-8.35 5.549-17.221 3.272-22.74-.709-4.484-3.239-8.625-9.079-6.802-15.769z"/><path d="m199.733 260.675h-.007c-5.523 0-9.997 4.477-9.997 10s4.481 10 10.004 10 10-4.477 10-10-4.477-10-10-10z"/><path d="m275.733 323.675h-.007c-5.523 0-9.997 4.477-9.997 10s4.481 10 10.004 10 10-4.477 10-10-4.477-10-10-10z"/><path d="m258.734 133.175c5.523 0 10-4.477 10-10s-4.477-10-10-10h-.007c-5.523 0-9.997 4.477-9.997 10s4.481 10 10.004 10z"/><path d="m328.733 95.675c5.523 0 10-4.477 10-10s-4.477-10-10-10h-.007c-5.523 0-9.997 4.477-9.997 10s4.481 10 10.004 10z"/><path d="m390.733 200.675c5.523 0 10-4.477 10-10s-4.477-10-10-10h-.007c-5.523 0-9.997 4.477-9.997 10s4.481 10 10.004 10z"/><path d="m265.729 191.175c0 5.523 4.481 10 10.004 10s10-4.477 10-10-4.477-10-10-10h-.007c-5.523 0-9.997 4.477-9.997 10z"/><path d="m170 398.283h-.007c-5.523 0-9.996 4.477-9.996 10s4.48 10 10.003 10 10-4.477 10-10-4.477-10-10-10z"/></g></g></svg>