<svg id="Layer_1" enable-background="new 0 0 512.001 512.001" height="512" viewBox="0 0 512.001 512.001" width="512" xmlns="http://www.w3.org/2000/svg"><g><g clip-rule="evenodd" fill-rule="evenodd"><path d="m153.213 105.332c-8.096-5.84-16.705-11.317-25.315-16.794-3.591-2.285-7.182-4.569-10.704-6.878-21.928-14.372-41.192-29.671-41.192-51.659 0-11.046-8.954-20-20-20s-20 8.954-20 20c0 35.733 20.128 57.268 45.173 75.334 8.097 5.84 16.707 11.318 25.317 16.796 3.59 2.284 7.18 4.568 10.702 6.876 21.93 14.373 41.195 29.671 41.195 51.66s-19.265 37.287-41.195 51.66c3.521 2.308 7.112 4.592 10.702 6.876 8.611 5.478 17.221 10.956 25.318 16.797 25.045-18.066 45.175-39.6 45.175-75.333s-20.129-57.268-45.176-75.335z" fill="#ffea60"/><path d="m153.214 256.001c-8.097-5.841-16.707-11.319-25.318-16.797-3.59-2.284-7.18-4.568-10.702-6.876-21.93-14.372-41.194-29.671-41.194-51.66 0-21.988 19.265-37.287 41.195-51.66-3.521-2.308-7.112-4.592-10.702-6.876-8.61-5.478-17.221-10.956-25.316-16.798-25.046 18.067-45.177 39.6-45.177 75.334 0 35.733 20.129 57.269 45.175 75.335 8.096 5.84 16.706 11.317 25.315 16.795 3.591 2.285 7.182 4.569 10.704 6.878 21.929 14.372 41.192 29.671 41.192 51.659s-19.263 37.286-41.192 51.659c3.522 2.309 7.113 4.593 10.704 6.878 8.61 5.477 17.219 10.955 25.315 16.795 25.044-18.066 45.173-39.6 45.173-75.332.001-35.733-20.127-57.267-45.172-75.334z" fill="#60a4ff"/><path d="m153.212 105.334c25.045-18.066 45.174-39.6 45.174-75.333 0-11.046-8.954-20-20-20s-20 8.954-20 20c0 21.988-19.264 37.286-41.192 51.659 3.522 2.309 7.114 4.593 10.704 6.878 8.61 5.477 17.22 10.955 25.314 16.796z" fill="#60a4ff"/><path d="m106.49 272.798c-8.61-5.477-17.219-10.955-25.315-16.795-25.044 18.066-45.173 39.6-45.173 75.332s20.128 57.267 45.172 75.333c8.097 5.841 16.708 11.319 25.318 16.797 3.59 2.284 7.18 4.568 10.702 6.876 21.93 14.372 41.195 29.671 41.195 51.66 0 11.046 8.954 20 20 20s20-8.954 20-20c0-35.733-20.129-57.269-45.175-75.336-8.096-5.84-16.706-11.317-25.315-16.795-3.591-2.285-7.182-4.569-10.704-6.878-21.929-14.372-41.192-29.671-41.192-51.659s19.263-37.286 41.192-51.659c-3.523-2.307-7.114-4.591-10.705-6.876z" fill="#ffea60"/><path d="m81.175 406.668c-25.045 18.066-45.175 39.6-45.175 75.333 0 11.046 8.954 20 20 20s20-8.954 20-20c0-21.989 19.265-37.287 41.195-51.66-3.521-2.308-7.112-4.592-10.702-6.876-8.611-5.478-17.222-10.956-25.318-16.797z" fill="#60a4ff"/><path d="m296.002 119.669c0 40.453 34.863 80.919 60 80.919s60-40.465 60-80.919c0-33.28-26.863-60.258-60-60.258-33.137.001-60 26.979-60 60.258z" fill="#88df8e"/><path d="m296.002 119.669c0-33.28 26.863-60.258 60-60.258s60 26.978 60 60.258c0 40.453-34.863 80.919-60 80.919s-60-40.465-60-80.919zm-2.647 112.695c18.236 11.184 39.687 17.636 62.647 17.636 66.274 0 120-53.726 120-120s-53.726-120-120-120-120 53.726-120 120c0 22.957 6.45 44.406 17.632 62.64-3.458 12.886-6.915 25.772-10.37 38.67-1.879 7.053 4.688 13.327 11.547 11.392 12.849-3.444 25.696-6.891 38.544-10.338z" fill="#cff5fd"/></g><g><path d="m356.002 0c-71.682 0-130 58.318-130 130 0 22.551 5.826 44.62 16.885 64.103-3.095 11.536-6.19 23.074-9.287 34.631-1.811 6.793.098 13.795 5.104 18.729 4.929 4.857 12.102 6.725 18.738 4.885 11.483-3.078 22.966-6.158 34.448-9.238 19.488 11.063 41.557 16.89 64.11 16.89 71.682 0 130-58.318 130-130s-58.316-130-129.998-130zm0 240c-20.325 0-40.18-5.588-57.418-16.161-1.587-.974-3.399-1.476-5.229-1.476-.867 0-1.738.113-2.591.342-12.513 3.357-25.025 6.714-37.54 10.067 3.355-12.521 6.711-25.031 10.068-37.542.712-2.652.302-5.479-1.133-7.82-10.57-17.235-16.157-37.087-16.157-57.412 0-60.654 49.346-110 110-110s110 49.346 110 110-49.346 110.002-110 110.002z"/><path d="m169.581 105.377c19.673-16.155 38.806-39.136 38.806-75.376 0-16.542-13.458-30-30-30-13.037 0-24.152 8.361-28.28 20h-65.825c-4.128-11.639-15.243-20-28.28-20-16.542 0-30 13.458-30 30 0 34.553 17.109 57.367 38.806 75.289-19.686 16.166-38.808 39.155-38.808 75.378 0 34.553 17.109 57.367 38.807 75.29-19.637 16.117-38.804 39.075-38.804 75.377 0 34.552 17.109 57.366 38.805 75.288-19.665 16.145-38.808 39.121-38.808 75.378 0 16.542 13.458 30 30 30 13.036 0 24.152-8.361 28.28-20h65.829c4.128 11.639 15.244 20 28.28 20 16.542 0 30-13.458 30-30 0-34.559-17.114-57.374-38.815-75.298 9.922-8.154 17.484-16.157 23.365-24.69 3.134-4.547 1.989-10.775-2.559-13.909-4.548-3.135-10.774-1.989-13.909 2.559-5.512 7.997-13.039 15.606-23.454 23.671-5.889-4.047-11.875-7.887-17.755-11.631 17.577-12.878 33.124-28.768 33.124-51.369 0-31.011-28.737-49.293-56.529-66.974-33.868-21.546-65.857-41.898-65.857-83.692 0-24.991 10.332-43.563 35.377-62.999 5.887 4.046 11.871 7.884 17.75 11.627-17.561 12.859-33.127 28.732-33.127 51.372 0 31.01 28.737 49.292 56.529 66.973 21.399 13.615 41.612 26.475 53.943 44.372 1.94 2.815 5.065 4.327 8.244 4.327 1.956 0 3.933-.573 5.665-1.766 4.548-3.134 5.694-9.361 2.561-13.909-6.431-9.333-14.457-17.377-23.313-24.658 19.658-16.152 38.761-39.127 38.761-75.339-.001-34.554-17.111-57.368-38.809-75.291zm-113.581 386.624c-5.514 0-10-4.486-10-10 0-25.001 10.33-43.564 35.376-62.998 5.887 4.046 11.872 7.885 17.751 11.628-17.602 12.905-33.127 28.814-33.127 51.37 0 5.515-4.486 10-10 10zm61.205-49.632c13.526 9.223 24.799 18.652 29.196 29.633h-58.417c4.192-10.393 14.771-19.732 29.221-29.633zm71.184 39.632c0 5.514-4.486 10-10 10s-10-4.486-10-10c0-31.011-28.737-49.293-56.529-66.974-33.868-21.547-65.858-41.899-65.858-83.692 0-25.014 10.329-43.566 35.375-62.996 5.886 4.045 11.87 7.883 17.748 11.626-17.57 12.871-33.123 28.755-33.123 51.37 0 31.009 28.736 49.292 56.529 66.974 33.868 21.546 65.858 41.898 65.858 83.692zm-71.204-111.035c-13.525-9.223-24.798-18.651-29.195-29.631h58.416c-4.189 10.405-14.774 19.735-29.221 29.631zm29.213-49.631h-58.418c4.189-10.409 14.776-19.737 29.223-29.632 13.526 9.223 24.799 18.652 29.195 29.632zm31.988-301.334c5.514 0 10 4.486 10 10 0 24.995-10.331 43.562-35.375 62.997-5.887-4.045-11.87-7.884-17.749-11.627 17.559-12.859 33.123-28.734 33.123-51.371.001-5.513 4.487-9.999 10.001-9.999zm-61.201 49.632c-13.525-9.223-24.798-18.652-29.195-29.632h58.42c-4.188 10.415-14.778 19.74-29.225 29.632zm.018 71.402c13.527 9.223 24.8 18.653 29.197 29.634h-58.424c4.188-10.416 14.779-19.741 29.227-29.634zm-29.215 49.633h58.423c-4.189 10.41-14.777 19.738-29.226 29.633-13.527-9.223-24.801-18.652-29.197-29.633zm65.033 52.992c-5.84-4-11.814-7.835-17.759-11.62 17.569-12.868 33.126-28.75 33.126-51.371 0-31.01-28.737-49.293-56.528-66.974-33.868-21.548-65.858-41.9-65.858-83.694 0-5.514 4.486-10 10-10s10 4.486 10 10c0 31.002 28.724 49.284 56.508 66.961.007.004.014.009.021.013 33.868 21.547 65.858 41.899 65.858 83.693 0 24.993-10.329 43.56-35.368 62.992z"/><path d="m356.002 49.412c-38.598 0-70 31.518-70 70.258 0 20.812 8.271 43.333 22.694 61.787 14.256 18.242 31.94 29.132 47.306 29.132s33.05-10.89 47.306-29.132c14.423-18.455 22.694-40.976 22.694-61.787 0-38.741-31.401-70.258-70-70.258zm0 141.176c-18.363 0-50-35.044-50-70.919 0-27.712 22.43-50.258 50-50.258s50 22.545 50 50.258c0 35.875-31.636 70.919-50 70.919z"/><path d="m325.416 120.742c-5.523 0-10 4.477-10 10s4.477 10 10 10c3.476 0 6.743 1.354 9.201 3.811 1.953 1.953 4.512 2.929 7.071 2.929s5.119-.977 7.071-2.929c3.905-3.906 3.905-10.237 0-14.142-6.236-6.235-14.526-9.669-23.343-9.669z"/><path d="m363.246 130.411c-3.905 3.905-3.905 10.237 0 14.143 1.953 1.953 4.512 2.929 7.071 2.929s5.119-.976 7.071-2.929c2.457-2.458 5.725-3.811 9.2-3.811 5.523 0 10-4.477 10-10s-4.477-10-10-10c-8.817-.001-17.107 3.433-23.342 9.668z"/><path d="m188.387 331.342c0 5.523 4.477 10 10 10s10-4.477 10-10v-.007c0-5.523-4.477-9.996-10-9.996s-10 4.48-10 10.003z"/></g></g></svg>