<svg id="Layer_1" enable-background="new 0 0 512 512" height="512" viewBox="0 0 512 512" width="512" xmlns="http://www.w3.org/2000/svg"><g><g clip-rule="evenodd" fill-rule="evenodd"><path d="m322.607 335.995-11.131-40.001h-110.952l-11.131 40.001z" fill="#a7bdcd"/><path d="m322.607 335.995h-133.214l-11.131 40.002h155.476z" fill="#6d91ac"/><path d="m333.738 375.997h-155.476l-11.131 40.001h177.738z" fill="#a7bdcd"/><path d="m344.869 415.998h-177.738l-11.131 40.002h200z" fill="#6d91ac"/><g><path d="m256 198.146c61.58 0 111.5-13.721 111.5-30.646 0-4.089-.22-8.127-.649-12.102-6.032-55.887-53.36-99.398-110.851-99.398s-104.819 43.511-110.851 99.398c-.429 3.975-.649 8.013-.649 12.102 0 16.925 49.92 30.646 111.5 30.646z" fill="#66e0f7"/><path d="m367.5 167.5c0 16.925-49.92 30.646-111.5 30.646s-111.5-13.721-111.5-30.646c0-4.089.22-8.127.649-12.102-82.88 11.499-135.149 34.843-135.149 60.361 0 37.342 110.138 67.614 246 67.614s246-30.272 246-67.614c0-25.518-52.269-48.862-135.149-60.36.429 3.974.649 8.012.649 12.101z" fill="#6d91ac"/></g></g><g><path d="m512 215.759c0-42.969-89.994-62.157-136.307-69.18-9.946-57.061-59.83-100.579-119.693-100.579-59.862 0-109.746 43.518-119.692 100.579-46.323 7.024-136.308 26.212-136.308 69.18 0 23.309 27.457 43.175 79.401 57.453 4.876 1.34 9.924 2.615 15.115 3.829l-21.532 80.36c-1.43 5.335 1.736 10.818 7.071 12.248.867.232 1.738.343 2.595.343 4.415 0 8.456-2.947 9.653-7.414l21.808-81.389c23.657 4.518 49.786 7.844 77.408 9.869l-45.152 162.262c-.838 3.011-.22 6.241 1.671 8.73s4.837 3.951 7.963 3.951h200c3.126 0 6.072-1.461 7.963-3.951 1.891-2.489 2.509-5.719 1.671-8.73l-45.152-162.262c27.622-2.025 53.751-5.351 77.407-9.869l21.808 81.389c1.197 4.468 5.237 7.414 9.653 7.414.856 0 1.728-.111 2.594-.343 5.335-1.429 8.501-6.913 7.071-12.248l-21.532-80.361c5.191-1.215 10.239-2.489 15.114-3.829 51.945-14.277 79.402-34.144 79.402-57.452zm-256-149.759c55.892 0 101.378 45.412 101.5 101.276-.848 1.862-7.648 7.871-28.851 13.181-19.797 4.958-45.597 7.689-72.65 7.689s-52.854-2.73-72.649-7.689c-21.203-5.311-28.003-11.319-28.85-13.181.008-3.445.189-6.85.534-10.208.06-.353.1-.711.122-1.074 5.732-50.568 48.767-89.994 100.844-89.994zm44.997 319.997h25.144l5.566 20.001h-151.413l5.566-20.001h25.137c5.523 0 10-4.477 10-10s-4.477-10-10-10h-19.572l5.566-20.001h118.02l5.566 20.001h-19.579c-5.522 0-10 4.477-10 10s4.476 10 9.999 10zm-98.442-60.002 5.566-20.001h95.758l5.566 20.001zm-33.392 120.005 5.566-20.001h162.543l5.565 20.001zm86.837-172.628c-64.839 0-125.674-6.906-171.298-19.446-47.757-13.126-64.702-28.764-64.702-38.167 0-12.639 30.774-35.434 114.505-48.672 0 .138-.005.275-.005.413 0 32.085 76.373 40.646 121.5 40.646s121.5-8.561 121.5-40.646c0-.138-.005-.275-.005-.413 83.731 13.238 114.505 36.033 114.505 48.672 0 9.403-16.945 25.042-64.702 38.168-45.625 12.539-106.459 19.445-171.298 19.445z"/><path d="m256.007 230.76h-.007c-5.523 0-9.997 4.477-9.997 10s4.481 10 10.004 10c5.522 0 10-4.477 10-10s-4.477-10-10-10z"/><path d="m183.676 225.805h-.007c-5.523 0-9.997 4.477-9.997 10s4.481 10 10.004 10 10-4.477 10-10-4.477-10-10-10z"/><path d="m113.433 207.304h-.007c-5.523 0-9.997 4.477-9.997 10s4.481 10 10.004 10 10-4.477 10-10-4.477-10-10-10z"/><path d="m328.325 225.805c-5.522 0-10 4.477-10 10s4.478 10 10 10h.007c5.522 0 9.997-4.477 9.997-10s-4.482-10-10.004-10z"/><path d="m398.568 207.304c-5.522 0-10 4.477-10 10s4.478 10 10 10h.007c5.522 0 9.997-4.477 9.997-10s-4.482-10-10.004-10z"/><path d="m256 365.997h-.007c-5.523 0-9.996 4.477-9.996 10s4.48 10 10.003 10 10-4.477 10-10-4.477-10-10-10z"/></g></g></svg>