<svg id="Layer_1" enable-background="new 0 0 512.001 512.001" height="512" viewBox="0 0 512.001 512.001" width="512" xmlns="http://www.w3.org/2000/svg"><g><g clip-rule="evenodd" fill-rule="evenodd"><g><path d="m48.066 211.288h113.299c18.644 0 26.689 2.487 39.731-10.556 3.831-3.831 7.662-7.662 11.493-11.493 11.818-11.818 20.045-9.725 36.892-9.725h23.184c-3.037-6.695-5.478-13.718-7.254-21.001-22.938-10.598-48.484-16.511-75.411-16.511-57.662 0-108.991 27.113-141.934 69.286z" fill="#ffee80"/><path d="m201.096 200.732c-13.043 13.043-21.087 10.556-39.731 10.556-13.348 0-70.197 0-113.299 0-11.965 15.317-21.504 32.621-28.041 51.333h155.068c25.305 0 36.223-3.376 53.926 14.327l15.599 15.599c16.04 16.04 27.205 13.2 50.071 13.2h74.588c-1.876-20.96-7.345-40.886-15.787-59.156-12.224-26.457-30.681-49.444-53.488-67.076h-27.336-23.184c-16.847 0-25.073-2.093-36.892 9.725-3.832 3.83-7.663 7.661-11.494 11.492z" fill="#ffea60"/><path d="m229.018 276.948c-17.703-17.702-28.621-14.327-53.926-14.327-18.756 0-97.849 0-155.068 0-6.494 18.592-10.024 38.574-10.024 59.381 0 27.86 6.33 54.243 17.633 77.787h22.407c31.632 0 45.281-4.22 67.41 17.909l19.5 19.5c20.051 20.051 34.008 16.5 62.592 16.5h113.163c16.146-15.05 29.52-33.033 39.276-53.101h-30.942c-19.742 0-29.382 2.453-43.231-11.396-4.49-4.49-8.979-8.979-13.468-13.468 4.49-4.49 8.979-8.979 13.468-13.469 13.849-13.849 23.489-11.396 43.231-11.396h46.659c1.515-9.398 2.302-19.04 2.302-28.866 0-5.479-.245-10.901-.724-16.255h-74.588c-22.866 0-34.03 2.841-50.071-13.2-5.2-5.2-10.399-10.4-15.599-15.599z" fill="#ffee80"/><path d="m321.039 350.868c-19.742 0-29.382-2.453-43.231 11.396-4.49 4.49-8.979 8.979-13.468 13.469 4.49 4.489 8.979 8.979 13.468 13.468 13.849 13.849 23.489 11.396 43.231 11.396h30.942c7.519-15.467 12.887-32.173 15.717-49.728h-46.659z" fill="#fff2a0"/><path d="m199.542 453.697c-28.583 0-42.54 3.551-62.592-16.5-6.5-6.5-13-13-19.5-19.5-22.129-22.129-35.778-17.909-67.41-17.909-6.09 0-13.745 0-22.411 0 29.02 60.465 90.82 102.213 162.37 102.213 47.419 0 90.554-18.336 122.705-48.304z" fill="#ffea60"/></g><g><path d="m322.002 119.669c0 40.453 34.863 80.919 60 80.919s60-40.465 60-80.919c0-33.28-26.863-60.258-60-60.258-33.138 0-60 26.979-60 60.258z" fill="#88df8e"/><path d="m322.002 119.669c0-33.28 26.863-60.258 60-60.258s60 26.978 60 60.258c0 40.453-34.863 80.919-60 80.919-25.138 0-60-40.466-60-80.919zm-2.647 112.694c18.235 11.185 39.686 17.637 62.646 17.637 66.274 0 120-53.726 120-120s-53.726-120-120-120-120 53.726-120 120c0 22.957 6.45 44.406 17.632 62.64-3.458 12.886-6.915 25.772-10.371 38.67-1.879 7.053 4.688 13.327 11.547 11.392 12.85-3.444 25.698-6.891 38.546-10.339z" fill="#cff5fd"/></g></g><g><path d="m382.001 0c-71.683 0-130 58.317-130 130 0 4.215.204 8.413.607 12.58-20.044-7.015-41.028-10.578-62.608-10.578-104.767 0-190 85.233-190 190s85.233 190 190 190 190-85.233 190-190c0-21.579-3.563-42.564-10.579-62.609 4.167.403 8.365.607 12.58.607 71.683 0 130-58.318 130-130s-58.317-130-130-130zm-124.993 165.734c.361 1.266.742 2.526 1.142 3.78h-8.669c-2.272 0-4.384-.04-6.365-.077-13.098-.244-24.414-.453-37.598 12.73l-11.493 11.493c-8.094 8.095-11.97 8.01-24.814 7.734-2.334-.05-4.979-.107-7.846-.107h-90.941c30.736-30.449 72.996-49.286 119.576-49.286 23.299 0 45.82 4.623 67.008 13.733zm-212.537 244.055h5.57c4.788 0 9.237-.096 13.162-.181 22.167-.476 31.342-.675 47.177 15.161l19.5 19.5c17.5 17.5 31.913 19.671 49.89 19.671 2.85 0 5.789-.054 8.845-.111 3.468-.064 7.054-.131 10.929-.131h84.274c-26.906 17.874-59.164 28.304-93.816 28.304-61.641-.001-115.72-32.978-145.531-82.213zm301.059-19.193h-24.492c-2.834 0-5.39.047-7.862.093-14.092.263-19.376.361-28.297-8.561l-6.397-6.397 6.397-6.397c8.92-8.921 14.2-8.824 28.297-8.561 2.473.046 5.028.093 7.862.093h34.474c-2.418 10.302-5.781 20.241-9.982 29.73zm12.456-94.849h-63.298c-3.267 0-6.22.055-9.075.108-16.347.303-23.116.43-33.925-10.379l-15.599-15.599c-18.103-18.103-31.847-17.81-50.855-17.396-3.198.069-6.505.14-10.142.14h-7.094c-5.522 0-10 4.477-10 10s4.478 10 10 10h7.094c3.853 0 7.422-.077 10.572-.145 17.626-.379 24.219-.521 36.283 11.543l15.599 15.599c14.552 14.553 26.956 16.321 41.477 16.32 2.263 0 4.579-.043 6.961-.087 2.765-.051 5.623-.104 8.704-.104h65.187c.074 2.079.125 4.163.125 6.255 0 6.377-.365 12.669-1.052 18.866h-37.909c-2.647 0-5.109-.046-7.49-.09-15.579-.293-27.878-.518-42.812 14.415l-10.539 10.54h-61.648c-3.267 0-6.22.055-9.076.108-16.352.301-23.116.428-33.924-10.377l-15.599-15.601c-18.104-18.102-31.843-17.808-50.857-17.396-3.197.069-6.504.14-10.14.14-5.522 0-10 4.477-10 10s4.478 10 10 10c3.852 0 7.421-.077 10.57-.145 17.626-.383 24.219-.522 36.284 11.542l15.599 15.601c14.553 14.552 26.957 16.32 41.478 16.319 2.263 0 4.578-.043 6.96-.087 2.765-.051 5.624-.104 8.705-.104h61.647l10.539 10.54c12.927 12.925 23.88 14.492 36.692 14.491 1.989 0 4.025-.038 6.119-.077 2.381-.044 4.843-.09 7.49-.09h13.997c-7.429 12.117-16.337 23.231-26.464 33.101h-109.028c-4.062 0-7.741.068-11.3.134-20.566.384-29.958.557-44.221-13.706l-19.5-19.5c-21.874-21.873-38.604-21.512-61.75-21.013-4.012.086-8.158.176-12.731.176h-15.924c-9.071-20.78-14.116-43.704-14.116-67.788 0-17.168 2.568-33.746 7.323-49.38h50.675c5.522 0 10-4.477 10-10s-4.478-10-10-10h-43.183c4.995-11.128 11.155-21.622 18.32-31.333h108.23c2.65 0 5.072.052 7.415.103 1.995.043 3.931.085 5.824.085 11.497 0 21.43-1.539 33.563-13.672l11.493-11.493c7.172-7.171 11.185-7.099 23.084-6.876 2.098.039 4.331.08 6.736.08h16.936c.795 1.543 1.611 3.077 2.47 4.59-3.095 11.536-6.189 23.072-9.287 34.63-1.811 6.793.098 13.795 5.104 18.729 4.932 4.86 12.109 6.726 18.747 4.882 11.48-3.076 22.96-6.155 34.439-9.235 8.978 5.097 18.508 9.067 28.377 11.884 5.642 13.116 9.554 26.745 11.72 40.752zm24.015-55.747c-20.326 0-40.181-5.588-57.418-16.161-1.588-.974-3.399-1.476-5.229-1.476-.867 0-1.738.113-2.592.341l-1.949.523c-11.863 3.183-23.726 6.366-35.59 9.544 3.355-12.521 6.711-25.031 10.067-37.542.712-2.651.302-5.479-1.134-7.819-10.569-17.235-16.156-37.088-16.156-57.412 0-60.654 49.346-110 110-110s110 49.346 110 110c.001 60.656-49.344 110.002-109.999 110.002z"/><path d="m382.002 49.412c-38.599 0-70.001 31.518-70.001 70.258 0 20.812 8.271 43.332 22.694 61.787 14.256 18.241 31.94 29.131 47.307 29.131 15.365 0 33.05-10.89 47.305-29.132 14.423-18.455 22.694-40.975 22.694-61.787 0-38.74-31.401-70.257-69.999-70.257zm0 141.176c-18.364 0-50.001-35.044-50.001-70.918 0-27.712 22.431-50.258 50.001-50.258 27.569 0 49.999 22.545 49.999 50.258 0 35.874-31.636 70.918-49.999 70.918z"/><path d="m351.414 120.742c-5.522 0-10 4.477-10 10s4.478 10 10 10c3.477 0 6.744 1.354 9.201 3.811 1.953 1.953 4.512 2.929 7.071 2.929s5.118-.976 7.071-2.929c3.905-3.905 3.905-10.237 0-14.143-6.234-6.234-14.524-9.668-23.343-9.668z"/><path d="m389.245 130.411c-3.905 3.905-3.905 10.237 0 14.143 1.953 1.953 4.512 2.929 7.071 2.929s5.118-.976 7.071-2.929c2.457-2.458 5.725-3.811 9.2-3.811 5.522 0 10-4.477 10-10s-4.478-10-10-10c-8.816-.001-17.106 3.433-23.342 9.668z"/><path d="m123.001 252.621h-.007c-5.522 0-9.996 4.477-9.996 10s4.48 10 10.003 10 10-4.477 10-10-4.477-10-10-10z"/></g></g></svg>