<svg id="Layer_1" enable-background="new 0 0 512.002 512.002" height="512" viewBox="0 0 512.002 512.002" width="512" xmlns="http://www.w3.org/2000/svg"><g><g clip-rule="evenodd" fill-rule="evenodd"><path d="m156.611 266.914c18.268 35.945 49.602 44.56 80.281 24.438 0-18.266-16.191-43.689-35.942-49.701s-36.009 8.873-44.339 25.263z" fill="#ffea60"/><path d="m311.053 241.651c-19.751 6.012-35.942 31.435-35.941 49.701 30.679 20.122 62.013 11.507 80.28-24.438-8.33-16.39-24.588-31.275-44.339-25.263z" fill="#ffea60"/><g fill="#60a4ff"><path d="m275.111 291.352c0-18.266 16.19-43.689 35.941-49.701s36.009 8.873 44.339 25.263c-18.267 35.945-49.601 44.56-80.28 24.438zm-155.835-31.908c-3.154 8.702-5.256 17.225-3.918 25.949 3.989 25.997 35.952 31.913 57.223 51.417 15.982 14.655 2.598 48.608 34.362 64.585 10.51 5.286 25.963 8.605 49.058 8.605 23.105 0 38.562-3.321 49.072-8.612 31.746-15.98 18.368-49.925 34.348-64.578 21.27-19.504 53.234-25.421 57.223-51.417 1.338-8.724-.763-17.247-3.918-25.949 62.104-165.555-5.69-249.444-136.725-249.444s-198.829 83.889-136.725 249.444zm81.674-17.793c19.751 6.012 35.942 31.435 35.942 49.701-30.679 20.122-62.013 11.507-80.281-24.438 8.33-16.39 24.588-31.275 44.339-25.263z"/><path d="m305.073 401.388c-10.51 5.291-25.967 8.612-49.072 8.612-23.095 0-38.548-3.319-49.058-8.605-18.898 49.352-120.942 17.126-120.942 100.607h340c0-83.478-102.026-51.268-120.928-100.614z"/></g></g><g><path d="m151.759 111.458c3.959-10.834 9.829-19.608 17.946-26.823 4.128-3.669 4.5-9.99.83-14.118-3.668-4.127-9.99-4.5-14.117-.831-10.505 9.337-18.393 21.082-23.444 34.907-1.896 5.187.772 10.929 5.96 12.825 1.133.414 2.292.61 3.432.61 4.079 0 7.911-2.516 9.393-6.57z"/><path d="m361.988 425.424c-18.682-5.209-35.157-9.811-43.604-20.598 1.403-1.071 2.729-2.198 3.977-3.384 12.144-11.547 14.828-26.241 16.986-38.047 1.525-8.347 2.843-15.556 6.831-19.213 6.716-6.158 15.038-11.049 23.086-15.779 16.695-9.813 33.96-19.959 37.264-41.492 1.471-9.588-.316-18.631-3.194-27.363 30.649-83.561 30.068-151.939-1.77-197.886-27.953-40.34-78.288-61.662-145.563-61.662-67.274 0-117.608 21.322-145.563 61.66-31.839 45.947-32.42 114.325-1.771 197.886-2.877 8.732-4.665 17.775-3.194 27.364 3.304 21.533 20.568 31.68 37.264 41.492 8.048 4.73 16.37 9.621 23.085 15.779 3.989 3.658 5.307 10.867 6.833 19.214 2.157 11.807 4.843 26.5 16.986 38.047 1.251 1.19 2.582 2.321 3.99 3.395-8.445 10.787-24.922 15.387-43.609 20.595-32.979 9.191-74.021 20.629-74.021 76.571 0 5.523 4.478 10 10 10h340c5.522 0 10-4.477 10-10 0-55.942-41.038-67.384-74.013-76.579zm-182.649-95.984c-8.274-7.587-17.523-13.023-26.468-18.28-15.975-9.389-25.855-15.73-27.628-27.283-1.437-9.361 2.601-19.31 7.275-30.83 6.073-14.964 12.956-31.924 9.165-52.202-1.016-5.429-6.241-9.006-11.668-7.992-5.429 1.015-9.007 6.238-7.992 11.667 1.669 8.924.332 17.226-2.227 25.464-20.429-66.686-18.098-120.598 7.081-156.934 24.052-34.705 68.701-53.05 129.124-53.05s105.073 18.346 129.124 53.053c25.178 36.336 27.51 90.248 7.081 156.934-2.559-8.238-3.896-16.541-2.227-25.466 1.015-5.429-2.563-10.653-7.992-11.667-5.422-1.016-10.652 2.563-11.668 7.992-3.791 20.278 3.092 37.238 9.165 52.202 4.675 11.52 8.712 21.469 7.275 30.83-1.772 11.553-11.653 17.894-27.628 27.283-8.944 5.257-18.193 10.693-26.469 18.28-8.938 8.197-10.997 19.463-12.988 30.359-3.943 21.571-7.348 40.2-63.673 40.2s-59.729-18.63-63.672-40.201c-1.991-10.896-4.051-22.162-12.99-30.359zm-82.716 162.562c4.249-32.109 29.701-39.204 58.769-47.305 21.805-6.077 44.27-12.347 56.234-30.618 11.788 3.967 26.503 5.921 44.375 5.921 17.882 0 32.602-1.956 44.393-5.927 11.961 18.265 34.421 24.538 56.222 30.616 29.064 8.104 54.514 15.202 58.763 47.313z"/><path d="m269.627 299.713c12.405 8.137 25.177 12.278 37.585 12.278 4.76 0 9.467-.609 14.078-1.836 17.659-4.698 32.534-18.084 43.017-38.71 1.446-2.847 1.446-6.214 0-9.061-12.672-24.937-34.723-36.831-56.166-30.3-24.628 7.497-43.029 37.473-43.029 59.267-.001 3.371 1.697 6.514 4.515 8.362zm44.338-48.496c14.59-4.436 25.158 8.254 29.973 15.811-7.5 12.75-17.036 20.938-27.79 23.8-9.47 2.521-19.915.853-30.482-4.816 2.668-13.636 14.621-30.631 28.299-34.795z"/><path d="m242.376 299.713c2.818-1.848 4.516-4.992 4.516-8.362 0-21.794-18.402-51.771-43.03-59.268-21.452-6.53-43.494 5.365-56.165 30.3-1.446 2.847-1.446 6.214 0 9.061 10.482 20.626 25.357 34.012 43.017 38.71 4.612 1.228 9.317 1.837 14.078 1.836 12.406.001 25.18-4.141 37.584-12.277zm-74.311-32.685c4.815-7.557 15.384-20.25 29.972-15.811 13.678 4.163 25.632 21.158 28.301 34.794-10.566 5.668-21.009 7.335-30.482 4.816-10.755-2.861-20.291-11.048-27.791-23.799z"/><path d="m227.833 348.157c3.912 3.896 10.245 3.883 14.142-.03 3.749-3.765 8.73-5.838 14.026-5.838s10.277 2.073 14.026 5.838c1.954 1.962 4.52 2.944 7.086 2.944 2.552 0 5.104-.971 7.056-2.914 3.914-3.896 3.928-10.229.03-14.142-7.529-7.562-17.544-11.726-28.198-11.726s-20.669 4.165-28.198 11.726c-3.898 3.914-3.884 10.246.03 14.142z"/><path d="m203.06 66.518c5.522 0 10-4.477 10-10s-4.478-10-10-10h-.008c-5.522 0-9.996 4.477-9.996 10s4.481 10 10.004 10z"/></g></g></svg>