<svg id="Layer_1" enable-background="new 0 0 512.002 512.002" height="512" viewBox="0 0 512.002 512.002" width="512" xmlns="http://www.w3.org/2000/svg"><g><g clip-rule="evenodd" fill-rule="evenodd"><ellipse cx="352.762" cy="36.786" fill="#b278d3" rx="26.786" ry="26.786" transform="matrix(.707 -.707 .707 .707 77.31 260.215)"/><path d="m297.334 96.865c-34.118-35.019-69.598-39.159-97.034 3.622-16.41 25.587-75.891-7.269-106.371 31.474-15.409 19.587-25.741 42.039 16.155 108.199 22.616 35.715 38.084 34.531-7.74 82.334-19.164 19.991-68.415 57.804-38.451 86.986 35.993 35.054 58.658-19.76 141.662-3.941 51.162 9.75 76.782 72.779 130.301 40.084 41.044-25.074 21.025-76.5 83.328-83.151 40.021-4.272 49.432-45.522 25.101-79.955-16.957-23.998-53.254-31.07-52.011-65.151 1.91-52.409 35.354-58.93 20.932-87.482-20.069-39.733-82.31 1.429-115.872-33.019zm-81.31 145.358c0-22.091 17.909-40 40-40s40 17.909 40 40-17.909 40-40 40c-22.092 0-40-17.909-40-40z" fill="#b278d3"/><circle cx="256.024" cy="242.223" fill="#fff" r="40"/><ellipse cx="157.273" cy="475.217" fill="#b278d3" rx="26.786" ry="26.786" transform="matrix(.707 -.707 .707 .707 -289.965 250.397)"/></g><g><path d="m452.452 276.746c-7.075-10.013-16.487-17.021-25.589-23.797-15.622-11.632-25.167-19.556-24.596-35.22.844-23.158 8.267-35.979 14.816-47.289 7.303-12.611 14.854-25.653 5.049-45.065-13.26-26.251-40.376-24.986-64.302-23.878-20.675.963-40.201 1.869-53.334-11.611-21.515-22.083-42.892-32.216-63.551-30.123-18.742 1.9-35.25 13.785-49.063 35.325-4.341 6.771-17.585 6.549-32.926 6.292-23.605-.391-52.995-.887-72.886 24.397-8.588 10.916-16.415 23.712-15.543 43.264.894 20.067 10.779 44.366 31.108 76.469 3.982 6.289 7.671 11.37 10.926 15.854 7.678 10.577 10.087 14.373 9.225 18.85-1.275 6.621-9.249 17.196-26.661 35.361-2.565 2.676-5.848 5.831-9.323 9.172-17.417 16.744-41.271 39.676-41.35 64.034-.033 10.402 4.16 19.776 12.463 27.863 22.7 22.108 42.93 14.871 64.347 7.208 19.661-7.032 44.129-15.788 82.419-8.489 17.368 3.31 32.165 14.08 46.475 24.496 16.482 11.996 34.444 25.072 56.271 25.071 10.554-.001 22.012-3.059 34.641-10.773 19.777-12.082 27.23-29.258 33.806-44.411 8.582-19.776 14.782-34.064 45.37-37.33 20.075-2.143 35.231-12.39 42.676-28.854 8.844-19.56 4.833-45.163-10.468-66.816zm-7.755 58.574c-4.467 9.879-13.656 15.829-26.575 17.208-42.174 4.502-52.492 28.278-61.594 49.255-5.919 13.64-11.51 26.523-25.886 35.307-26.079 15.931-42.296 5.828-68.715-13.402-15.341-11.166-32.73-23.823-54.5-27.972-11.571-2.205-22.074-3.109-31.652-3.109-26.545 0-45.972 6.949-61.249 12.414-20.528 7.344-29.897 10.695-43.656-2.705-4.394-4.279-6.433-8.56-6.417-13.47.052-15.881 21.209-36.222 35.21-49.682 3.626-3.486 7.052-6.779 9.9-9.75 21.356-22.279 29.694-34.164 31.862-45.418 2.575-13.368-4.157-22.642-12.679-34.382-3.08-4.242-6.57-9.051-10.213-14.804-41.382-65.35-27.721-82.714-16.744-96.666 13.757-17.488 35.656-17.126 56.833-16.767 19.533.325 39.734.664 50.096-15.493 10.355-16.147 21.877-24.97 34.246-26.225 17.794-1.796 35.49 12.155 47.208 24.183 19.408 19.92 45.537 18.705 68.589 17.633 24.333-1.132 38.445-1.09 45.521 12.917 4.698 9.302 2.657 13.658-4.505 26.026-6.95 12.004-16.469 28.443-17.495 56.582-.983 26.957 16.879 40.256 32.638 51.99 8.208 6.111 15.961 11.884 21.199 19.296 11.225 15.888 14.512 33.91 8.578 47.034z"/><path d="m166.194 252.39c4.741-2.833 6.288-8.973 3.456-13.714-3.684-6.166-7.845-12.079-11.869-17.797-3.954-5.62-7.689-10.929-10.867-16.275-2.822-4.747-8.958-6.309-13.706-3.487s-6.309 8.958-3.488 13.706c3.571 6.008 7.706 11.884 11.704 17.565 3.813 5.418 7.755 11.021 11.056 16.546 1.873 3.135 5.19 4.873 8.594 4.873 1.745 0 3.513-.457 5.12-1.417z"/><path d="m352.763 73.571c20.284 0 36.786-16.502 36.786-36.785-.001-20.284-16.503-36.786-36.786-36.786s-36.786 16.502-36.786 36.786c0 20.283 16.502 36.785 36.786 36.785zm0-53.571c9.255 0 16.786 7.53 16.786 16.786 0 9.255-7.53 16.785-16.786 16.785s-16.786-7.53-16.786-16.785c0-9.256 7.53-16.786 16.786-16.786z"/><path d="m157.274 438.431c-20.284 0-36.786 16.502-36.786 36.786 0 20.283 16.502 36.785 36.786 36.785s36.786-16.502 36.786-36.785c-.001-20.284-16.503-36.786-36.786-36.786zm0 53.571c-9.255 0-16.786-7.53-16.786-16.785 0-9.256 7.53-16.786 16.786-16.786s16.786 7.53 16.786 16.786c-.001 9.255-7.531 16.785-16.786 16.785z"/><path d="m306.024 242.223c0-27.57-22.43-50-50-50s-50 22.43-50 50 22.43 50 50 50 50-22.43 50-50zm-80 0c0-16.542 13.458-30 30-30s30 13.458 30 30-13.458 30-30 30-30-13.458-30-30z"/><path d="m266.027 242.223c0-5.522-4.477-10-10-10h-.008c-5.523 0-9.996 4.478-9.996 10s4.481 10 10.004 10 10-4.478 10-10z"/><path d="m264.914 308.522c-2.377 2.388-5.534 3.702-8.891 3.702-3.356 0-6.513-1.314-8.89-3.702-3.897-3.914-10.229-3.926-14.142-.031-3.914 3.897-3.928 10.229-.031 14.143 6.158 6.185 14.348 9.591 23.063 9.591s16.906-3.406 23.063-9.591c3.897-3.914 3.883-10.245-.031-14.143-3.913-3.895-10.245-3.882-14.141.031z"/><path d="m120.602 158.338h-.007c-5.523 0-9.996 4.478-9.996 10s4.48 10 10.003 10 10-4.478 10-10-4.477-10-10-10z"/><path d="m168.208 334.873h-.007c-5.523 0-9.997 4.478-9.997 10s4.481 10 10.004 10 10-4.478 10-10-4.477-10-10-10z"/><path d="m300.201 366.873h-.007c-5.523 0-9.997 4.478-9.997 10s4.481 10 10.004 10 10-4.478 10-10-4.477-10-10-10z"/><path d="m376.201 288.873h-.007c-5.523 0-9.997 4.478-9.997 10s4.481 10 10.004 10 10-4.478 10-10-4.477-10-10-10z"/><path d="m342.201 162.873h-.008c-5.523 0-9.996 4.478-9.996 10s4.481 10 10.004 10 10-4.478 10-10-4.477-10-10-10z"/><path d="m247.201 158.872c5.523 0 10-4.478 10-10s-4.477-10-10-10h-.007c-5.523 0-9.997 4.478-9.997 10s4.481 10 10.004 10z"/></g></g></svg>