<svg id="Layer_1" enable-background="new 0 0 512.002 512.002" height="512" viewBox="0 0 512.002 512.002" width="512" xmlns="http://www.w3.org/2000/svg"><g><g clip-rule="evenodd" fill-rule="evenodd"><path d="m174.36 163.959c-17.925 17.42-28.859 40.597-28.859 66.039h221c0-25.442-10.933-48.618-28.859-66.039.732-5.058 1.119-10.249 1.119-15.544 0-52.237-51.832-94.583-82.76-94.583s-82.76 42.346-82.76 94.583c0 5.295.387 10.486 1.119 15.544z" fill="#ffea60"/><path d="m145.501 229.998c0-25.442 10.934-48.618 28.859-66.039-.732-5.058-1.119-10.249-1.119-15.544 0-52.237 51.832-94.583 82.76-94.583s82.76 42.346 82.76 94.583c0 5.295-.387 10.486-1.119 15.544 17.925 17.42 28.859 40.597 28.859 66.039h22.188c11.047-20.898 17.312-44.714 17.312-69.997 0-82.842-67.158-150-150-150s-150 67.158-150 150c0 25.283 6.265 49.099 17.312 69.997z" fill="#66e0f7"/><path d="m388.689 269.998h-265.376c-75.415 43.541 5.037 179.667-63.318 179.667-18.503 0-24.996 25.003-.75 31.5 18.182 4.872 79.575.961 82.25-61 2.298-53.249 21.137-76.78 47.5-92 56.043 15.017 17.75 173.837 67.006 173.837s10.963-158.82 67.007-173.837c26.363 15.221 45.202 38.751 47.5 92 2.674 61.96 64.068 65.871 82.25 61 24.246-6.496 17.753-31.5-.75-31.5-68.356 0 12.096-136.126-63.319-179.667z" fill="#ffea60"/><path d="m123.313 269.998h265.376c11 0 20-9 20-20s-9-20-20-20h-22.188-221-22.188c-11 0-20 9-20 20s9 20 20 20z" fill="#b278d3"/></g><g><path d="m478.322 461.626c-1.676-12.725-12.742-21.961-26.314-21.961-9.513 0-12.688-3.354-13.73-4.457-8.056-8.513-6.817-30.937-5.506-54.677 2.007-36.343 4.436-80.425-24.222-108.075 6.213-5.5 10.14-13.527 10.14-22.458 0-11.428-6.424-21.382-15.85-26.445 8.626-19.96 13.162-41.692 13.162-63.553 0-88.225-71.776-160-160-160s-160 71.775-160 160c0 21.861 4.535 43.594 13.161 63.553-9.425 5.064-15.849 15.017-15.849 26.445 0 8.931 3.927 16.958 10.14 22.458-28.658 27.65-26.229 71.732-24.222 108.074 1.312 23.741 2.55 46.165-5.505 54.678-1.043 1.102-4.218 4.457-13.731 4.457-13.572 0-24.639 9.236-26.314 21.962-1.458 11.078 5.08 24.402 22.976 29.197 13.663 3.661 43.904 3.186 66.889-13.676 17.227-12.639 26.889-32.193 27.94-56.552 2.157-49.966 19.369-69.309 38.55-81.388 18.785 9.469 22.25 49.815 25.327 85.656 1.796 20.918 3.493 40.676 8.013 56.089 6.042 20.602 17.018 31.048 32.625 31.048s26.583-10.446 32.625-31.048c4.521-15.414 6.218-35.172 8.014-56.09 3.078-35.841 6.543-76.187 25.327-85.655 19.182 12.079 36.395 31.422 38.551 81.388 1.051 24.358 10.713 43.914 27.94 56.552 22.986 16.862 53.228 17.336 66.888 13.676 17.894-4.795 24.433-18.119 22.975-29.198zm-355.009-201.628c-5.514 0-10-4.486-10-10 0-5.511 4.479-9.994 9.988-10 .007 0 .013.001.02.001.011 0 .022-.002.033-.002h87.651c5.523 0 10-4.478 10-10s-4.477-10-10-10h-55.12c1.82-17.991 10.19-34.042 25.444-48.866 2.298-2.233 3.387-5.433 2.928-8.604-.674-4.66-1.016-9.408-1.016-14.112 0-48.016 48.493-84.583 72.76-84.583s72.76 36.567 72.76 84.583c0 4.707-.342 9.455-1.016 14.111-.46 3.171.629 6.371 2.927 8.604 15.254 14.825 23.624 30.876 25.444 48.867h-55.111c-5.522 0-10 4.478-10 10s4.478 10 10 10h87.684c5.514 0 10 4.486 10 10.001 0 5.514-4.486 10-10 10zm132.688-239.998c77.197 0 140 62.804 140 140 0 20.749-4.663 41.362-13.502 59.997h-6.329c-1.762-21.919-11.144-41.934-28.014-59.632.401-3.971.604-7.973.604-11.95 0-57.73-56.13-104.583-92.76-104.583s-92.76 46.853-92.76 104.583c0 3.977.203 7.978.605 11.95-16.871 17.698-26.253 37.713-28.015 59.632h-6.328c-8.839-18.634-13.501-39.247-13.501-59.997 0-77.196 62.804-140 140-140zm194.168 451.506c-9.09 2.436-33.055 1.86-49.882-10.483-12.34-9.053-18.998-22.943-19.789-41.288-1.158-26.824-6.406-48.023-16.045-64.81-8.426-14.674-20.007-25.929-36.446-35.42-2.296-1.326-5.027-1.687-7.588-.999-35.538 9.522-39.878 60.06-43.707 104.647-1.708 19.892-3.322 38.681-7.278 52.173-4.89 16.676-10.877 16.676-13.433 16.676s-8.543 0-13.433-16.676c-3.957-13.492-5.57-32.28-7.278-52.173-3.829-44.588-8.169-95.125-43.707-104.647-2.562-.688-5.292-.328-7.588.999-16.439 9.491-28.021 20.746-36.446 35.42-9.639 16.785-14.887 37.984-16.044 64.809-.792 18.346-7.45 32.236-19.789 41.288-16.828 12.346-40.792 12.917-49.883 10.484-5.529-1.481-8.718-4.267-8.323-7.269.29-2.202 2.443-4.572 6.485-4.572 12.025 0 21.532-3.604 28.258-10.711 13.973-14.766 12.571-40.143 10.948-69.526-2.16-39.113-4.371-79.515 26.944-99.43h259.712c31.315 19.915 29.104 60.317 26.944 99.43-1.623 29.384-3.024 54.761 10.948 69.526 6.726 7.107 16.233 10.711 28.258 10.711 4.042 0 6.195 2.37 6.485 4.571.396 3.003-2.793 5.788-8.323 7.27z"/><path d="m140.75 302.667h-.007c-5.523 0-9.997 4.478-9.997 10s4.481 10 10.004 10 10-4.478 10-10-4.477-10-10-10z"/><path d="m239.75 294.167h-.007c-5.523 0-9.997 4.478-9.997 10s4.481 10 10.004 10 10-4.478 10-10-4.477-10-10-10z"/><path d="m260.75 349.167h-.008c-5.523 0-9.996 4.478-9.996 10s4.481 10 10.004 10c5.522 0 10-4.478 10-10s-4.477-10-10-10z"/><path d="m372.75 301.667h-.008c-5.522 0-9.996 4.478-9.996 10s4.481 10 10.004 10 10-4.478 10-10-4.477-10-10-10z"/><path d="m240.102 163.96c3.456 0 6.818-1.794 8.67-5.002 2.761-4.783 1.122-10.899-3.661-13.66-5.427-3.133-11.608-4.789-17.875-4.789-6.268 0-12.449 1.656-17.875 4.789-4.783 2.762-6.422 8.877-3.66 13.66 2.761 4.782 8.876 6.422 13.66 3.66 4.78-2.759 10.968-2.761 15.75 0 1.575.909 3.295 1.342 4.991 1.342z"/><path d="m297.631 163.96c3.457 0 6.818-1.794 8.671-5.003 2.761-4.783 1.121-10.899-3.662-13.66-5.427-3.133-11.608-4.788-17.874-4.788-6.268 0-12.448 1.656-17.875 4.789-4.783 2.762-6.422 8.877-3.66 13.66 2.762 4.782 8.878 6.424 13.66 3.66 4.781-2.759 10.968-2.761 15.751.001 1.575.908 3.293 1.341 4.989 1.341z"/><path d="m256.001 173.104c-7.221 0-14.006 2.822-19.107 7.946-3.896 3.914-3.882 10.246.033 14.142 3.913 3.896 10.245 3.882 14.142-.032 1.319-1.325 3.071-2.056 4.932-2.056s3.612.73 4.932 2.056c1.954 1.963 4.52 2.945 7.087 2.945 2.552 0 5.104-.971 7.055-2.913 3.914-3.896 3.929-10.228.032-14.142-5.101-5.123-11.886-7.946-19.106-7.946z"/><path d="m256.008 219.997h-.007c-5.523 0-9.996 4.478-9.996 10s4.48 10 10.003 10c5.522 0 10-4.478 10-10s-4.477-10-10-10z"/></g></g></svg>